<svg viewBox="0 0 22 21" fill="none" xmlns="http://www.w3.org/2000/svg"><path d="M21.14 4.662h-.773V3.89a.86.86 0 10-1.719 0v.773h-.773a.86.86 0 000 1.719h.773v.773a.86.86 0 101.72 0v-.773h.773a.86.86 0 000-1.719zm-7.587 5.231a5.515 5.515 0 002.152-4.371A5.528 5.528 0 0010.184 0a5.528 5.528 0 00-5.522 5.522 5.51 5.51 0 002.153 4.37C2.935 11.25 0 14.973 0 19.509c0 .475.385.86.86.86h18.648a.86.86 0 00.86-.86c0-4.537-2.937-8.26-6.815-9.615zM6.38 5.522a3.807 3.807 0 013.803-3.803 3.807 3.807 0 013.803 3.803 3.807 3.807 0 01-3.803 3.802A3.807 3.807 0 016.38 5.522zM1.762 18.649c.432-4.266 4.044-7.606 8.422-7.606 4.377 0 7.99 3.34 8.421 7.606H1.762z" fill="#212121"/></svg>