<svg viewBox="0 0 23 23" fill="none" xmlns="http://www.w3.org/2000/svg"><g clip-path="url(#bell_svg__bell_svg__clip0)" fill="#212121"><path d="M21.015 19.4l-1.646-2.743a8.153 8.153 0 01-1.16-4.192v-2.402a6.717 6.717 0 00-6.71-6.709 6.717 6.717 0 00-6.708 6.709v2.402a8.153 8.153 0 01-1.16 4.192L1.984 19.4a.48.48 0 00.412.725h18.208a.48.48 0 00.411-.725zm-17.773-.233l1.21-2.018a9.102 9.102 0 001.298-4.684v-2.402a5.756 5.756 0 015.75-5.75 5.756 5.756 0 015.75 5.75v2.402c0 1.65.448 3.27 1.296 4.684l1.212 2.018H3.242z"/><path d="M11.5 0c-1.057 0-1.916.86-1.916 1.917v1.916a.48.48 0 00.958 0V1.917a.959.959 0 011.917 0v1.916a.48.48 0 00.958 0V1.917A1.92 1.92 0 0011.5 0zm2.074 19.403a.48.48 0 10-.828.485 1.44 1.44 0 01-1.245 2.153 1.44 1.44 0 01-1.438-1.437c0-.25.068-.504.193-.716a.48.48 0 00-.828-.485 2.38 2.38 0 00-.324 1.201A2.398 2.398 0 0011.5 23a2.4 2.4 0 002.398-2.396 2.38 2.38 0 00-.324-1.2z"/></g><defs><clipPath id="bell_svg__bell_svg__clip0"><path fill="#fff" d="M0 0h23v23H0z"/></clipPath></defs></svg>