<svg viewBox="0 0 25 25" fill="none" xmlns="http://www.w3.org/2000/svg"><path d="M20.395 2.973A12.313 12.313 0 0012.5.125c-.866 0-1.712.09-2.529.26a58.737 58.737 0 014.066 6.64 29.208 29.208 0 006.358-4.052zm-3.955 9.324a23.029 23.029 0 018.416-.148 12.304 12.304 0 00-2.99-7.722 31.395 31.395 0 01-6.938 4.43 57.896 57.896 0 011.513 3.44zm-4.328-4.493a56.526 56.526 0 00-4.211-6.787A12.384 12.384 0 00.452 9.71c4.006.17 7.97-.496 11.66-1.906zm2.318 5.006a53.956 53.956 0 00-1.394-3.137c-3.572 1.392-7.388 2.15-11.268 2.15-.533 0-1.07-.032-1.606-.061-.014.245-.037.49-.037.738 0 3.039 1.1 5.82 2.916 7.972a23.196 23.196 0 0111.39-7.663zm2.768 1.438a58.63 58.63 0 012.321 8.438 12.355 12.355 0 005.224-8.473 21.041 21.041 0 00-7.545.035zm-12.694 7.69a12.316 12.316 0 0013.125 1.814 55.943 55.943 0 00-2.457-9.024 21.117 21.117 0 00-10.668 7.21z" fill="#212121"/></svg>