<svg viewBox="0 0 35 25" fill="none" xmlns="http://www.w3.org/2000/svg"><path d="M18 17.742c0-3.139-1.28-5.459-3.924-6.328 1.93-1.072 2.935-2.695 2.935-5.22C17.011 1.214 13.82 0 10.138 0H0v25h10.422C14.329 25 18 22.821 18 17.742zM4.726 4.268h4.435c1.705 0 3.24.557 3.24 2.856 0 2.123-1.194 2.977-2.883 2.977H4.726V4.268zm-.001 16.486V13.87h5.15c2.081 0 3.398 1.008 3.398 3.57 0 2.525-1.572 3.314-3.495 3.314H4.725zM27.204 25c3.83 0 6.309-1.94 7.502-6.061H30.82c-.418 1.538-2.142 2.352-3.48 2.352-2.58 0-3.935-1.7-3.935-4.587h11.564C35.334 10.925 32.479 6 27.202 6 22.317 6 19 10.129 19 15.537 19 21.15 22.142 25 27.204 25zm-.138-15.26c2.212 0 3.324 1.46 3.51 3.85H23.41c.145-2.37 1.544-3.85 3.655-3.85zM23 1h8v3h-8V1z" fill="#212121"/></svg>