<svg viewBox="0 0 27 27" fill="none" xmlns="http://www.w3.org/2000/svg"><g clip-path="url(#black_twitter_svg__black_twitter_svg__clip0)"><path d="M24.226 8.002A11.049 11.049 0 0027 5.13v-.001a11.56 11.56 0 01-3.19.874 5.506 5.506 0 002.436-3.059 11.076 11.076 0 01-3.51 1.34 5.533 5.533 0 00-9.575 3.785c0 .438.037.86.129 1.262C8.688 9.105 4.616 6.9 1.88 3.54a5.582 5.582 0 00-.758 2.797 5.54 5.54 0 002.459 4.6 5.472 5.472 0 01-2.501-.681v.06a5.561 5.561 0 004.435 5.44 5.502 5.502 0 01-1.451.182c-.355 0-.713-.02-1.048-.095.717 2.192 2.753 3.804 5.172 3.857a11.127 11.127 0 01-6.864 2.36c-.453 0-.889-.02-1.324-.075a15.587 15.587 0 008.492 2.484c9.768 0 16.134-8.15 15.734-16.467z" fill="#212121"/></g><defs><clipPath id="black_twitter_svg__black_twitter_svg__clip0"><path fill="#fff" d="M0 0h27v27H0z"/></clipPath></defs></svg>