<svg version="1.0" xmlns="http://www.w3.org/2000/svg" viewBox="0 0 219 230"><path d="M94.5 11.7c-14 2.2-31.5 9.1-43.4 17.2C27.8 44.7 11.5 70.7 7 99.2c-1.8 10.9-.8 31.1 1.9 41.5 8.6 33 32.8 60.2 63.9 71.9 14.4 5.4 23.2 6.7 40.6 6.1 18.5-.6 26.6-2.6 42.1-10.2 21-10.3 36.9-26.2 47-47 6.4-13 9-22 10.6-36.1 2.1-18.8-1.3-37.7-10.1-55.9-13.4-27.7-37.1-47.2-67.5-55.5-6.2-1.7-11.3-2.3-23-2.5-8.2-.2-16.3-.1-18 .2zM115 65v17l16.3.2 16.2.3.3 10.7.3 10.8h-33.2l.3 25.2c.3 28.3.4 28.4 7.4 31.8 6.6 3.3 19.1 2 25.9-2.7 1.1-.7 2.3-1.3 2.7-1.3.5 0 .8 4.8.8 10.8v10.7l-7.2 2.8c-25.3 9.6-52.3 3.2-60.1-14.2-1.9-4.2-2.1-7-2.5-33.9l-.4-29.2H67V85.1l5.7-2.8c11-5.1 18.9-15.6 21.4-28.6l1.2-5.7H115v17z"/></svg>