<svg viewBox="0 0 20 29" fill="none" xmlns="http://www.w3.org/2000/svg"><path d="M9.95 29a2.674 2.674 0 01-2.67-2.67v-1.82c0-.469.38-.85.85-.85h3.64c.47 0 .85.381.85.85v1.82A2.673 2.673 0 019.95 29z" fill="#333"/><path d="M12.62 26.33v-1.82a.85.85 0 00-.85-.85H9.95V29a2.673 2.673 0 002.67-2.67z" fill="#111310"/><path d="M12.68 25.36H7.22a2.674 2.674 0 01-2.67-2.67v-1.82c0-.469.38-.85.85-.85h9.1a.85.85 0 01.85.85v1.82c0 1.47-1.199 2.67-2.67 2.67z" fill="#454545"/><path d="M15.35 22.69v-1.82a.85.85 0 00-.85-.85H9.95v5.34h2.73c1.472 0 2.67-1.2 2.67-2.67z" fill="#212121"/><path d="M4.55 20.87A5.486 5.486 0 002.936 17 9.863 9.863 0 010 9.95C0 4.464 4.464 0 9.95 0c5.486 0 9.95 4.464 9.95 9.95A9.881 9.881 0 0116.967 17a5.48 5.48 0 00-1.614 3.87H4.55z" fill="#FDE000"/><path d="M16.967 17A9.88 9.88 0 0019.9 9.95C19.9 4.464 15.437 0 9.95 0v20.87h5.403A5.48 5.48 0 0116.967 17z" fill="#FBAF02"/><path d="M7.804 17.105a.85.85 0 01-.524-.785v-3.7H5.4a.85.85 0 01-.76-1.23l2.73-5.46a.85.85 0 01.76-.47h5.46a.85.85 0 01.76 1.23L13.144 9.1H14.5a.85.85 0 01.6 1.45l-6.37 6.37a.85.85 0 01-.926.185z" fill="#FFFF71"/><path d="M15.285 9.625A.85.85 0 0014.5 9.1h-1.355l1.205-2.41a.85.85 0 00-.76-1.23H9.95v10.242l5.151-5.151a.85.85 0 00.184-.926z" fill="#FDE000"/></svg>