<svg viewBox="0 0 23 33" fill="none" xmlns="http://www.w3.org/2000/svg"><path d="M22.46 11.391C22.46 5.11 17.421 0 11.23 0 9.06 0 6.954.629 5.141 1.818a11.367 11.367 0 00-4.068 4.707.569.569 0 001.03.48c1.663-3.565 5.245-5.868 9.125-5.868 5.566 0 10.093 4.6 10.093 10.254a10.29 10.29 0 01-2.857 7.15c-1.062 1.108-1.966 2.168-2.2 3.654H6.343c-.293-1.542-1.345-2.624-2.29-3.595a10.277 10.277 0 01-2.915-7.209c0-.67.064-1.342.19-1.994A.568.568 0 10.212 9.18 11.594 11.594 0 000 11.391a11.41 11.41 0 003.237 8.002c1.2 1.232 2.048 2.215 2.048 3.657v.015l.033 3.336c0 1.082.577 2.032 1.44 2.558v.625A2.845 2.845 0 009.6 32.426h3.486a2.845 2.845 0 002.843-2.842v-.625a2.995 2.995 0 001.44-2.558s-.004-3.716-.012-3.753c.108-1.317.907-2.254 1.929-3.322a11.418 11.418 0 003.173-7.935zm-7.668 18.193c0 .94-.765 1.706-1.706 1.706H9.6c-.94 0-1.705-.765-1.705-1.706v-.219c.136.02.275.03.417.03h6.063c.141 0 .28-.01.417-.03v.22zm-.417-1.326H8.312A1.859 1.859 0 016.455 26.4v-.038h5.76a.568.568 0 100-1.137h-5.76V23.33h9.76l.017 1.895h-1.364a.568.568 0 100 1.137h1.364v.038a1.859 1.859 0 01-1.857 1.857z" fill="#212121"/><path d="M14.924 11.466a.568.568 0 00.898.697l1.125-1.449c.298-.384.429-.86.368-1.343a1.808 1.808 0 00-.689-1.21 1.804 1.804 0 00-1.343-.367c-.482.06-.911.305-1.21.689l-3.67 4.728-2.108-2.331a1.821 1.821 0 00-3.166 1.128c-.024.485.142.951.468 1.312l3.562 3.94c.717.832 2.134.781 2.786-.103l2.25-2.898a.568.568 0 00-.898-.697l-2.25 2.897a.686.686 0 01-1.045.04L6.44 12.556a.683.683 0 011.012-.915l2.562 2.835a.573.573 0 00.87-.033l4.088-5.264a.685.685 0 01.957-.12.685.685 0 01.12.957l-1.125 1.45z" fill="#212121"/></svg>