<svg viewBox="0 0 27 30" fill="none" xmlns="http://www.w3.org/2000/svg"><path d="M25.945 13.828H1.055C.472 13.828 0 14.353 0 15c0 .647.472 1.172 1.055 1.172h24.89c.583 0 1.055-.525 1.055-1.172 0-.647-.472-1.172-1.055-1.172zm0-9.375H1.055C.472 4.453 0 4.978 0 5.625c0 .647.472 1.172 1.055 1.172h24.89c.583 0 1.055-.525 1.055-1.172 0-.647-.472-1.172-1.055-1.172zm0 18.75H1.055c-.583 0-1.055.525-1.055 1.172 0 .647.472 1.172 1.055 1.172h24.89c.583 0 1.055-.525 1.055-1.172 0-.647-.472-1.172-1.055-1.172z" fill="#212121"/></svg>