<svg viewBox="0 0 18 24" fill="none" xmlns="http://www.w3.org/2000/svg"><path d="M17.777 6.916a.5.5 0 00-.554-.832c-.547.364-1.172.58-1.728.711a34.953 34.953 0 00-.613-1.162C15.429 5.282 16.017 5 16.5 5a.5.5 0 100-1c-.703 0-1.455.35-2.114.764a30.125 30.125 0 00-.887-1.42C13.456.744 12.351.117 12.224.052a.502.502 0 00-.578.094A9.503 9.503 0 0010.207 2H7.794A9.504 9.504 0 006.354.146a.502.502 0 00-.578-.094c-.128.065-1.232.693-1.275 3.292-.152.226-.48.73-.887 1.42C2.955 4.35 2.203 4 1.5 4a.5.5 0 100 1c.482 0 1.07.282 1.618.634-.198.357-.404.748-.613 1.163-.555-.132-1.18-.348-1.728-.713a.5.5 0 00-.554.832c.589.392 1.24.64 1.835.8C.995 10 0 12.842 0 15.5c0 4.16 3.496 7.705 3.646 7.854a.5.5 0 00.195.12C3.905 23.497 5.448 24 8 24a.5.5 0 00.354-.146l.353-.354h.586l.354.354A.5.5 0 0010 24c2.552 0 4.095-.504 4.16-.525a.503.503 0 00.195-.121C14.504 23.205 18 19.659 18 15.5c0-2.658-.994-5.5-2.058-7.784.595-.16 1.246-.408 1.835-.8zM17 15.5c0 3.404-2.749 6.503-3.268 7.059-.372.104-1.64.419-3.526.44l-.352-.352A.5.5 0 009.5 22.5h-1a.5.5 0 00-.353.146L7.794 23c-1.887-.021-3.155-.336-3.525-.44C3.749 22.005 1 18.912 1 15.5c0-2.55 1.02-5.351 2.08-7.578.52.072.885.078.92.078a.5.5 0 100-1c-.005 0-.184-.004-.451-.029.133-.26.264-.506.392-.74.299.242.552.47.706.623a.498.498 0 00.707 0 .5.5 0 000-.707 11.3 11.3 0 00-.913-.802c.554-.95.957-1.542.97-1.56a.5.5 0 00.09-.285c0-1.281.277-1.954.488-2.281.7.79 1.06 1.497 1.064 1.506A.503.503 0 007.5 3h3a.503.503 0 00.447-.275A7.974 7.974 0 0112.01 1.22c.216.33.491 1.003.491 2.28a.5.5 0 00.089.283c.013.02.417.611.97 1.56-.483.382-.828.718-.912.803a.5.5 0 10.707.707c.153-.154.406-.382.705-.624.128.235.26.481.393.74a6.88 6.88 0 01-.453.03A.501.501 0 0014 8c.035 0 .401-.006.921-.078C15.981 10.148 17 12.948 17 15.5z" fill="#212121"/><path d="M9 8c-3.86 0-7 3.14-7 7s3.14 7 7 7 7-3.14 7-7-3.14-7-7-7zm0 13c-3.309 0-6-2.691-6-6s2.691-6 6-6 6 2.691 6 6-2.691 6-6 6zM6.5 6a1 1 0 001-1 .5.5 0 00-.5-.5.5.5 0 00-.5-.5 1 1 0 000 2zm5 0a1 1 0 001-1 .5.5 0 00-.5-.5.5.5 0 00-.5-.5 1 1 0 000 2zm-2.853.854a.498.498 0 00.707 0l.5-.5a.501.501 0 00-.353-.854h-1a.5.5 0 00-.354.854l.5.5z" fill="#212121"/><path d="M10.224 11.553l-1-.5a.5.5 0 00-.448 0l-1 .5a.5.5 0 00.448.894L9 12.06l.776.388a.498.498 0 00.671-.223.5.5 0 00-.223-.671zm-3.5 1.5l-1-.5a.5.5 0 00-.448 0l-1 .5a.5.5 0 00.448.894l.776-.388.776.388a.501.501 0 00.447-.895zm5.552-.5l-1 .5a.5.5 0 00.448.894l.776-.388.776.388a.501.501 0 00.447-.895l-1-.5a.5.5 0 00-.447 0z" fill="#212121"/></svg>