<svg viewBox="0 0 10 11" fill="none" xmlns="http://www.w3.org/2000/svg"><path d="M5.191 3.966a.233.233 0 00-.233-.233H1.995a.233.233 0 100 .466h2.963a.233.233 0 00.233-.233z" fill="#858585"/><path d="M9.25 10.603L8.072 9.437c.376-.451.575-1.023.56-1.61a2.473 2.473 0 00-1.75-2.38V1.983c0-.128-.047-.233-.175-.233h-.641V.187c0-.129-.07-.187-.21-.187H1.155C.525 0 0 .467 0 1.096V7.63c.013.76.64 1.365 1.4 1.353h2.53a2.496 2.496 0 003.815.781l1.167 1.167c.046.046.11.072.175.07a.221.221 0 00.163-.059.268.268 0 000-.338zM1.143.466H5.599V1.75H1.155a.653.653 0 01-.677-.642.653.653 0 01.665-.642zm2.485 7.36c.01.234.048.466.116.69H1.4a.91.91 0 01-.933-.887V2.006c.203.136.443.21.688.21h5.26v3.126l-.291-.023a2.496 2.496 0 00-2.496 2.496v.012zM7.617 9.25l-.035.023v.035a2.053 2.053 0 01-3.476-1.481 2.041 2.041 0 114.082-.002v.002a1.995 1.995 0 01-.571 1.423z" fill="#858585"/></svg>