<svg viewBox="0 0 153 113" fill="none" xmlns="http://www.w3.org/2000/svg"><path d="M119.549 112.163H86.723v-33.17H97.57c2.751 0 4.377-3.126 2.751-5.377l-21.102-29.2a3.363 3.363 0 00-5.471 0l-21.102 29.2c-1.626 2.251-.032 5.377 2.75 5.377h10.849v33.17H29.48C13.068 111.257 0 95.906 0 79.275 0 67.8 6.221 57.797 15.444 52.389a20.88 20.88 0 01-1.282-7.285c0-11.723 9.473-21.196 21.196-21.196 2.533 0 4.971.438 7.253 1.282C49.395 10.81 64.026.836 81.033.836c22.009.032 40.141 16.882 42.205 38.36C140.151 42.103 153 57.766 153 75.492c0 18.945-14.756 35.358-33.451 36.671z" fill="#7B65F3" fill-opacity=".2"/></svg>