<svg viewBox="0 0 26 34" fill="none" xmlns="http://www.w3.org/2000/svg"><path d="M1.219 32.395H24.78c.225 0 .407-.231.407-.516V1.973c0-.284-.182-.515-.407-.515H1.22c-.225 0-.407.23-.407.515V31.88c0 .285.182.516.407.516zm.406-29.906h22.75v28.875H1.625V2.489z" fill="#212121"/><path d="M3.25 14.348h9.344c.167 0 .317-.13.378-.329l2.844-9.281a.636.636 0 00-.043-.478c-.075-.14-.201-.224-.335-.224H3.25c-.225 0-.406.23-.406.515v9.282c0 .284.181.515.406.515zm.406-9.281h11.188l-2.528 8.25h-8.66v-8.25zM22.75 4.036h-5.687c-.168 0-.318.13-.379.329l-2.844 9.28a.635.635 0 00.043.479c.076.14.202.224.336.224h8.531c.225 0 .406-.23.406-.516v-9.28c0-.285-.181-.516-.406-.516zm-.406 9.28h-7.531l2.527-8.25h5.004v8.25zM3.25 23.63h6.5c.225 0 .406-.232.406-.516v-7.219c0-.285-.181-.516-.406-.516h-6.5c-.225 0-.406.231-.406.516v7.219c0 .284.181.515.406.515zm.406-7.22h5.688v6.188H3.656v-6.187zM22.75 15.38H11.375c-.225 0-.406.23-.406.515v7.219c0 .284.181.515.406.515H22.75c.225 0 .406-.23.406-.515v-7.219c0-.285-.181-.516-.406-.516zm-.406 7.218H11.78v-6.187h10.563v6.187zM22.75 24.66H3.25c-.225 0-.406.232-.406.516v4.125c0 .285.181.516.406.516h19.5c.225 0 .406-.231.406-.516v-4.125c0-.284-.181-.515-.406-.515zm-.406 4.126H3.656v-3.094h18.688v3.094z" fill="#212121"/></svg>