<svg viewBox="0 0 26 33" fill="none" xmlns="http://www.w3.org/2000/svg"><path d="M1.219 31.969H24.78c.225 0 .407-.231.407-.516V1.547c0-.285-.182-.516-.407-.516H1.22c-.225 0-.407.231-.407.516v29.906c0 .285.182.516.407.516zm.406-29.907h22.75v28.875H1.625V2.063z" fill="#000"/><path d="M3.25 13.922h9.344c.167 0 .317-.13.378-.33l2.844-9.28a.636.636 0 00-.043-.478c-.075-.141-.201-.225-.335-.225H3.25c-.225 0-.406.231-.406.516v9.281c0 .285.181.516.406.516zm.406-9.281h11.188l-2.528 8.25h-8.66V4.64zM22.75 3.61h-5.688c-.168 0-.318.13-.379.328l-2.844 9.282a.636.636 0 00.043.478c.076.14.202.224.336.224h8.531c.225 0 .406-.231.406-.516V4.125c0-.285-.181-.516-.406-.516zm-.407 9.28h-7.531l2.528-8.25h5.003v8.25zM3.25 23.203h6.5c.225 0 .406-.23.406-.515v-7.22c0-.284-.181-.515-.406-.515h-6.5c-.225 0-.406.231-.406.516v7.219c0 .284.181.515.406.515zm.406-7.219h5.688v6.188H3.656v-6.188zM22.75 14.953H11.375c-.225 0-.406.231-.406.516v7.219c0 .284.181.515.406.515H22.75c.225 0 .406-.23.406-.515v-7.22c0-.284-.181-.515-.406-.515zm-.406 7.219H11.78v-6.188h10.563v6.188zM22.75 24.234H3.25c-.225 0-.406.231-.406.516v4.125c0 .285.181.516.406.516h19.5c.225 0 .406-.231.406-.516V24.75c0-.285-.181-.516-.406-.516zm-.406 4.125H3.656v-3.093h18.688v3.093z" fill="#000"/></svg>