<svg viewBox="0 0 18 18" fill="none" xmlns="http://www.w3.org/2000/svg"><g clip-path="url(#clip0)" fill="#212121"><path d="M9.04 0c-.004.005-.014.005-.028.005-4.88 0-8.85 3.969-8.85 8.85a8.79 8.79 0 001.924 5.483L.8 17.328a.48.48 0 00.525.666l4.722-.83a8.51 8.51 0 002.942.511c4.88 0 8.85-3.969 8.85-8.85C17.847 3.96 13.906.006 9.04 0zm-.047 16.716a7.74 7.74 0 01-2.725-.497.464.464 0 00-.256-.024l-3.974.694 1.052-2.445a.485.485 0 00-.078-.506 7.71 7.71 0 01-1.34-2.228 7.842 7.842 0 01-.54-2.86c0-4.35 3.54-7.885 7.885-7.885a7.84 7.84 0 017.86 7.832v.029c0 4.354-3.54 7.89-7.884 7.89z"/><path d="M8.617 7.075H6.013a.484.484 0 00-.483.482c0 .266.217.483.483.483h2.604a.484.484 0 00.482-.483.484.484 0 00-.482-.482zm3.376 2.411h-5.98a.484.484 0 00-.483.483c0 .265.217.482.483.482h5.98a.484.484 0 00.482-.482.484.484 0 00-.482-.483z"/></g><defs><clipPath id="clip0"><path fill="#fff" d="M0 0h18v18H0z"/></clipPath></defs></svg>