<svg viewBox="0 0 32 32" fill="none" xmlns="http://www.w3.org/2000/svg"><path d="M29.625 5.313h-2.188V3.124a.469.469 0 00-.468-.469H24.78V.47A.469.469 0 0024.313 0H4.875a.469.469 0 00-.469.469V21.5H2.375a.469.469 0 00-.469.469v1.125A3.598 3.598 0 005.5 26.687h1.563v2.188c0 .259.21.469.468.469H9.72v2.187c0 .26.21.469.469.469h9.406a.469.469 0 000-.938h-8.938v-1.718H26.97c.259 0 .468-.21.468-.469V21.5a.469.469 0 10-.937 0v6.906H8v-1.718h16.313c.258 0 .468-.21.468-.47V3.595H26.5v15.781a.469.469 0 00.938 0V6.25h1.718v24.813H21.72a.469.469 0 100 .937h7.906c.259 0 .469-.21.469-.469V5.781a.469.469 0 00-.469-.468zM23.844 25.75H21.25a2.66 2.66 0 01-2.656-2.656v-1.125a.469.469 0 00-.469-.469h-3.25a.469.469 0 100 .938h2.781v.656c0 1.051.454 1.998 1.176 2.656H5.5a2.66 2.66 0 01-2.656-2.656v-.657h9.844a.469.469 0 100-.937H5.343V.937h18.5V25.75z" fill="#212121"/><path d="M7.063 10h6c.258 0 .468-.21.468-.469v-6a.469.469 0 00-.469-.469h-6a.469.469 0 00-.468.47v6c0 .258.21.468.468.468zm.468-6h5.063v5.063H7.53V4zM22.125 8.25H15.25a.469.469 0 100 .938h6.875a.469.469 0 100-.938zM10.656 12.969c0 .259.21.469.469.469h6.938a.469.469 0 100-.938h-6.938a.469.469 0 00-.469.469zM22.125 6.063H15.25a.469.469 0 100 .937h6.875a.469.469 0 100-.938zM22.125 3.875H15.25a.469.469 0 100 .938h6.875a.469.469 0 100-.938zM22.125 18.063H7.062a.469.469 0 100 .937h15.063a.469.469 0 100-.938zM22.125 15.25h-8.188a.469.469 0 100 .938h8.188a.469.469 0 100-.938zM7.031 16.188h4.719a.469.469 0 100-.938H7.031a.469.469 0 100 .938z" fill="#212121"/></svg>