<svg viewBox="0 0 28 28" fill="none" xmlns="http://www.w3.org/2000/svg"><g clip-path="url(#clip0)" fill="#212121"><path d="M25.775 9.876a6.053 6.053 0 00-1.784-4.308l-3.783-3.783A6.053 6.053 0 0015.898 0H7.133a2.392 2.392 0 00-2.39 2.389v.13h-.13a2.391 2.391 0 00-2.388 2.389V25.61A2.391 2.391 0 004.612 28h16.256a2.391 2.391 0 002.388-2.389v-.13h.13a2.391 2.391 0 002.39-2.389V9.876zm-6.147-7.511l3.783 3.783c.56.561.98 1.226 1.239 1.952a3.589 3.589 0 00-2.476-.988h-1.942a1.57 1.57 0 01-1.569-1.568V3.6a3.59 3.59 0 00-.988-2.476 5.254 5.254 0 011.953 1.24zm5.327 20.727a1.57 1.57 0 01-1.569 1.569h-4.414a.41.41 0 000 .82h3.464v.13a1.57 1.57 0 01-1.568 1.569H4.612a1.57 1.57 0 01-1.568-1.569V4.908a1.57 1.57 0 011.568-1.569h.13v19.753a2.392 2.392 0 002.39 2.389h10.2a.41.41 0 100-.82h-10.2a1.57 1.57 0 01-1.57-1.569V2.39A1.57 1.57 0 017.133.82h7.93a2.784 2.784 0 012.78 2.781v1.943a2.391 2.391 0 002.39 2.388h1.942a2.784 2.784 0 012.78 2.781v12.38z"/><path d="M14.274 18.67c.263.264.613.409.986.409.372 0 .723-.145.986-.409l2.884-2.884a.86.86 0 00.187-.94.86.86 0 00-.796-.531h-.881V8.94a.863.863 0 00-.862-.862h-3.036a.863.863 0 00-.862.862v2.123a.41.41 0 00.82 0V8.94c0-.023.019-.042.042-.042h3.036c.023 0 .042.019.042.042v5.785c0 .226.183.41.41.41h1.29c.011 0 .028 0 .04.026.01.025-.002.038-.01.045l-2.884 2.884a.57.57 0 01-.812 0l-2.884-2.884c-.008-.007-.02-.02-.01-.045.011-.026.029-.026.04-.026h1.29a.41.41 0 00.41-.41v-2.022a.41.41 0 10-.82 0v1.612H12a.86.86 0 00-.797.532.86.86 0 00.187.94l2.884 2.883zm4.507.888h-7.042c-.712 0-1.29.579-1.29 1.29v.025c0 .711.578 1.29 1.29 1.29h7.042c.712 0 1.29-.579 1.29-1.29v-.025c0-.711-.578-1.29-1.29-1.29zm.47 1.315a.47.47 0 01-.47.47h-7.042a.47.47 0 01-.47-.47v-.025c0-.259.21-.47.47-.47h7.042c.26 0 .47.211.47.47v.025z"/></g><defs><clipPath id="clip0"><path fill="#fff" d="M0 0h28v28H0z"/></clipPath></defs></svg>