<svg viewBox="0 0 10 6" fill="none" xmlns="http://www.w3.org/2000/svg"><path d="M5 1.75a1.25 1.25 0 100 2.5 1.25 1.25 0 000-2.5zm0 1.875a.626.626 0 11.001-1.251A.626.626 0 015 3.625z" fill="#000" fill-opacity=".2"/><path d="M9.57 2.248l-1.352-.842A6.078 6.078 0 005 .5a6.078 6.078 0 00-3.218.906L.43 2.248A.887.887 0 000 3c0 .303.16.584.43.752l1.352.842A6.078 6.078 0 005 5.5a6.078 6.078 0 003.218-.906l1.352-.842A.887.887 0 0010 3a.887.887 0 00-.43-.752zM5 4.875A1.877 1.877 0 013.125 3c0-1.034.841-1.875 1.875-1.875S6.875 1.966 6.875 3A1.877 1.877 0 015 4.875z" fill="#000" fill-opacity=".2"/></svg>