<svg viewBox="0 0 34 34" fill="none" xmlns="http://www.w3.org/2000/svg"><path d="M34 17c0 9.389-7.611 17-17 17S0 26.389 0 17 7.611 0 17 0s17 7.611 17 17z" fill="#4A7AFF"/><path d="M17.746 33.983C26.789 33.593 34 26.139 34 17l-.003-.198-11.8-11.8L9.58 18.188l7.01 7.01-3.232 4.395 4.388 4.389z" fill="#0053BF"/><path d="M22.197 5.001v3.85s-4.42-.642-4.42 2.21v2.85h3.992l-.498 4.35h-3.494v11.333h-4.42V18.26l-3.777-.07v-4.277h3.706v-3.28s-.244-4.877 4.563-5.773c1.996-.372 4.348.142 4.348.142z" fill="#fff"/><path d="M22.197 8.85V5.002s-2.352-.514-4.348-.142a6.736 6.736 0 00-.873.222v24.513h.801V18.26h3.493l.5-4.348h-3.993V11.06c0-2.85 4.42-2.21 4.42-2.21z" fill="#DCE1EB"/></svg>