<svg width="25" height="25" viewBox="0 0 25 25" fill="none" xmlns="http://www.w3.org/2000/svg">
<g clip-path="url(#clip0)">
<path d="M25 12.5C25 19.4036 19.4036 25 12.5 25C5.59635 25 0 19.4036 0 12.5C0 5.59635 5.59635 0 12.5 0C19.4036 0 25 5.59635 25 12.5Z" fill="#4A7AFF"/>
<path d="M13.0485 24.9871C19.6975 24.7 24.9999 19.2195 24.9999 12.4999C24.9999 12.4512 24.9986 12.4028 24.998 12.3542L16.3213 3.67725L7.04395 13.3742L12.1986 18.5288L9.82181 21.7604L13.0485 24.9871Z" fill="#0053BF"/>
<path d="M16.3215 3.67725V6.50775C16.3215 6.50775 13.0717 6.03606 13.0717 8.13262V10.2292H16.007L15.6402 13.4265H13.0717V21.7604H9.822V13.4265L7.04395 13.374V10.2292H9.76955V7.8181C9.76955 7.8181 9.58968 4.23133 13.1242 3.57253C14.5919 3.29883 16.3215 3.67725 16.3215 3.67725Z" fill="white"/>
<path d="M16.3212 6.50775V3.67725C16.3212 3.67725 14.5916 3.29883 13.1239 3.57253C12.8946 3.61526 12.6814 3.67057 12.4824 3.73599V21.7604H13.0714V13.4265H15.6397L16.0066 10.2292H13.0714C13.0714 10.2292 13.0714 10.2292 13.0714 8.13262C13.0714 6.03606 16.3212 6.50775 16.3212 6.50775Z" fill="#DCE1EB"/>
</g>
<defs>
<clipPath id="clip0">
<rect width="25" height="25" fill="white"/>
</clipPath>
</defs>
</svg>
