<svg viewBox="0 0 28 28" fill="none" xmlns="http://www.w3.org/2000/svg"><path d="M9.622 15.732L14 13.606l4.379 2.126c1.088.529 2.434.057 2.908-1.092a7.881 7.881 0 00.238-5.333 2.144 2.144 0 00-2.982-1.294L14 10.22 9.457 8.013a2.144 2.144 0 00-2.982 1.293 7.882 7.882 0 00.238 5.334c.476 1.151 1.823 1.62 2.909 1.092zM7.258 9.55A1.323 1.323 0 019.1 8.751l4.722 2.293a.41.41 0 00.359 0l4.722-2.293c.729-.354 1.6.026 1.84.8a7.062 7.062 0 01-.213 4.776c-.293.71-1.127.99-1.791.667l-4.558-2.213a.41.41 0 00-.359 0l-4.558 2.213c-.664.323-1.498.043-1.791-.667a7.062 7.062 0 01-.214-4.777z" fill="#212121"/><path d="M10.298 13.47a1.89 1.89 0 001.529-.938 1.026 1.026 0 00-.498-1.456 8.735 8.735 0 00-1.813-.528 1.032 1.032 0 00-1.213.997 1.894 1.894 0 001.995 1.924zm-.966-2.118c.089 0 .91.16 1.681.481.112.047.164.184.105.286a1.07 1.07 0 01-1.995-.559c.002-.12.101-.208.21-.208zM17.704 13.47a1.894 1.894 0 001.995-1.925 1.031 1.031 0 00-1.213-.997 8.739 8.739 0 00-1.813.528c-.57.239-.806.927-.498 1.456.32.55.892.9 1.53.937zm-.715-1.637c.757-.316 1.59-.48 1.68-.48.107 0 .207.086.21.207a1.07 1.07 0 01-1.995.56c-.06-.103-.007-.24.105-.287zM15.307 14.708a.41.41 0 00-.578.04.965.965 0 01-1.457 0 .41.41 0 00-.618.539c.714.82 1.983.815 2.693 0a.41.41 0 00-.04-.58zM15.751 23.61l-.585-.32-.32-.586a.963.963 0 00-1.69 0l-.32.585-.586.32a.963.963 0 000 1.69l.586.32.32.586a.963.963 0 001.69 0l.32-.585.585-.32a.963.963 0 000-1.69zm-.393.97l-.691.377c-.176.097-.17.213-.541.854a.142.142 0 01-.25 0c-.372-.642-.365-.757-.541-.854l-.691-.378a.142.142 0 010-.25c.642-.371.758-.365.854-.54l.378-.692a.142.142 0 01.25 0c.371.643.365.758.54.854l.692.378a.144.144 0 010 .25z" fill="#212121"/><path d="M1.71 17.497a29.39 29.39 0 015.58 4.576c-.96 1.19-1.958 3.025-1.958 5.517 0 .226.183.41.41.41h16.825a.41.41 0 00.41-.41c0-2.585-1.081-4.496-2.08-5.71a30.05 30.05 0 012.367-2.185.41.41 0 00-.523-.632 30.91 30.91 0 00-2.392 2.204 10.375 10.375 0 00-1.399-1.206 9.825 9.825 0 004.137-4.84 2.611 2.611 0 002.199-.837c.275.28.552.597.827.946.38.481.234 1.164-.257 1.472-.601.376-1.214.796-1.822 1.246a.41.41 0 00.489.659 27.42 27.42 0 011.768-1.21 1.825 1.825 0 00.466-2.675 12.35 12.35 0 00-1.013-1.14 2.612 2.612 0 00-.106-2.352 11.572 11.572 0 00-3.477-7.983A11.571 11.571 0 0014.001 0a11.53 11.53 0 00-4.754 1.015.41.41 0 00.336.748A10.714 10.714 0 0114 .82c5.607 0 10.139 4.252 10.751 9.572a2.652 2.652 0 00-1.126-.389c-.259-1.54-.87-2.956-1.843-4.253a2.826 2.826 0 00-3.302-.896c-.455.185-2.184 1.088-4.48 1.088-2.512 0-4.237-1.044-4.797-1.195A2.843 2.843 0 006.2 5.775a9.666 9.666 0 00-1.825 4.228 2.64 2.64 0 00-1.125.388 10.826 10.826 0 014.886-7.84.41.41 0 00-.446-.688 11.638 11.638 0 00-5.327 9.466c-.41.727-.445 1.6-.106 2.354-.338.333-.678.714-1.013 1.139a1.825 1.825 0 00.466 2.675zm17.689 9.683V25a.41.41 0 00-.82 0v2.179H9.421V25a.41.41 0 00-.82 0v2.179h-2.44c.087-1.836.767-3.48 2.022-4.893a8.999 8.999 0 011.97-1.66 9.846 9.846 0 007.972-.132 9.428 9.428 0 011.943 1.677c1.291 1.466 1.99 3.148 2.078 5.008H19.4zM3.143 13.599c-.698-1.06-.098-2.49 1.128-2.75a9.917 9.917 0 00.362 3.563 1.8 1.8 0 01-1.49-.813zm3.8-7.439a2.018 2.018 0 012.078-.612c.844.245 4.532 2.536 9.665.11a2.011 2.011 0 012.273.392c.104.105.175.203.17.197 1.527 2.013 1.67 3.976 1.734 4.208.365 2.752-.614 5.504-2.29 7.25-4.598 4.983-12.804 3.209-15.01-3.08a8.978 8.978 0 011.114-8.11c.079-.114.18-.256.266-.355zm17.838 5.355c.905 1.18.065 2.887-1.416 2.898a9.866 9.866 0 00.365-3.563c.404.086.782.316 1.05.665zM1.888 15.33c.275-.348.552-.665.827-.946a2.611 2.611 0 002.192.837 9.774 9.774 0 004.386 4.986c-.53.37-1.035.807-1.458 1.248a30.211 30.211 0 00-5.69-4.653 1.004 1.004 0 01-.257-1.472z" fill="#212121"/></svg>