<svg viewBox="0 0 34 34" fill="none" xmlns="http://www.w3.org/2000/svg"><path d="M17 34c9.389 0 17-7.611 17-17S26.389 0 17 0 0 7.611 0 17s7.611 17 17 17z" fill="#6C27B3"/><path d="M24.883 8.827c-2.031.257-4.15.248-6.28.045-2.977-.229-7.327-1.603-8.93 1.145-2.575 4.398-1.305 10.03-.705 15.013l8.948 8.945c8.658-.46 15.598-7.398 16.059-16.056l-9.092-9.092z" fill="#501A96"/><path d="M20.933 7.27h-7.866a5.804 5.804 0 00-5.797 5.797v7.866c0 3.197 2.6 5.798 5.797 5.798h7.866c3.197 0 5.798-2.601 5.798-5.798v-7.866c0-3.197-2.601-5.797-5.798-5.797zm3.84 13.663a3.84 3.84 0 01-3.84 3.84h-7.866a3.84 3.84 0 01-3.84-3.84v-7.866a3.84 3.84 0 013.84-3.84h7.866a3.84 3.84 0 013.84 3.84v7.866z" fill="#fff"/><path d="M17 11.967A5.04 5.04 0 0011.967 17 5.04 5.04 0 0017 22.034 5.039 5.039 0 0022.034 17 5.04 5.04 0 0017 11.967zm0 8.109a3.076 3.076 0 110-6.151 3.076 3.076 0 010 6.15z" fill="#fff"/><path d="M23.25 12.005a1.206 1.206 0 11-2.413 0 1.206 1.206 0 012.412 0z" fill="#D1D1D1"/><path d="M20.933 7.27h-3.971v1.957h3.971a3.84 3.84 0 013.84 3.84v7.866a3.84 3.84 0 01-3.84 3.84h-3.971v1.958h3.971c3.197 0 5.798-2.601 5.798-5.798v-7.866c0-3.197-2.601-5.797-5.798-5.797z" fill="#D1D1D1"/><path d="M17 11.967h-.038v1.958H17a3.075 3.075 0 110 6.15h-.038v1.958H17A5.039 5.039 0 0022.033 17 5.04 5.04 0 0017 11.967z" fill="#D1D1D1"/></svg>