<svg viewBox="0 0 24 24" fill="none" xmlns="http://www.w3.org/2000/svg"><g clip-path="url(#lang_svg__clip0)" fill="#212121"><path d="M22.031 8.438H15.44c.02-.232.032-.466.032-.703C15.47 3.47 12 0 7.735 0A7.733 7.733 0 003.87 1.033a.469.469 0 10.47.812A6.794 6.794 0 017.734.938a6.806 6.806 0 016.798 6.797 6.806 6.806 0 01-6.798 6.798 6.722 6.722 0 01-4.262-1.503.47.47 0 00-.432-.083l-1.245.326.488-1.071a.468.468 0 00-.048-.47A6.746 6.746 0 01.937 7.735c0-1.197.316-2.374.913-3.404a.469.469 0 00-.811-.47A7.734 7.734 0 000 7.735c0 1.555.455 3.043 1.32 4.322l-.785 1.724a.469.469 0 00.545.648l1.993-.521a7.758 7.758 0 005.74 1.487V19.5c0 1.085.883 1.969 1.968 1.969h6.63l2.964 2.425a.468.468 0 00.766-.363V21.47h.89A1.971 1.971 0 0024 19.5v-9.094a1.97 1.97 0 00-1.969-1.969zM23.063 19.5c0 .569-.463 1.031-1.032 1.031h-1.36a.469.469 0 00-.468.469v1.542l-2.315-1.894c-.128-.117-.24-.117-.49-.117H10.78A1.032 1.032 0 019.75 19.5v-4.296a7.761 7.761 0 005.545-5.829h6.736c.569 0 1.032.463 1.032 1.031V19.5z"/><path d="M18.74 16.34a.468.468 0 00-.2-.892h-.192l-1.512-3.445a.469.469 0 00-.858 0l-1.512 3.445h-.192a.469.469 0 00-.2.893l-.563 1.283a.469.469 0 10.859.377l.708-1.615h2.657L18.444 18a.469.469 0 10.858-.377l-.563-1.283zm-3.25-.892l.917-2.09.917 2.09H15.49zM2.597 3.066a.473.473 0 00.468-.47.473.473 0 00-.468-.468.472.472 0 00-.47.469.472.472 0 00.47.469zm2.34 7.522a.469.469 0 10.45.822 5.368 5.368 0 002.32-2.516 5.369 5.369 0 002.32 2.516.468.468 0 10.451-.822 4.433 4.433 0 01-2.251-3.226h2.08a.469.469 0 100-.937h-2.13V4.472a.469.469 0 10-.938 0v1.953H5.546a.469.469 0 100 .937h1.643a4.433 4.433 0 01-2.252 3.226z"/></g><defs><clipPath id="lang_svg__clip0"><path fill="#fff" d="M0 0h24v24H0z"/></clipPath></defs></svg>