<svg viewBox="0 0 30 30" fill="none" xmlns="http://www.w3.org/2000/svg"><path d="M27.063 0H5.38a.972.972 0 00-.972.972v28.056c0 .537.435.972.972.972h21.682a.972.972 0 00.971-.972V.972A.972.972 0 0027.063 0z" fill="#7B65F3"/><path d="M7.083 5.035a1.285 1.285 0 100-2.57 1.285 1.285 0 000 2.57zM7.083 10.649a1.285 1.285 0 100-2.57 1.285 1.285 0 000 2.57zM7.083 16.264a1.285 1.285 0 100-2.57 1.285 1.285 0 000 2.57zM7.083 21.878a1.285 1.285 0 100-2.57 1.285 1.285 0 000 2.57zM7.083 27.493a1.285 1.285 0 100-2.57 1.285 1.285 0 000 2.57z" fill="#3232A1"/><path d="M7.536 15a.972.972 0 00-.972-.972H2.937a.972.972 0 100 1.944h3.627A.972.972 0 007.536 15zM7.536 3.728a.972.972 0 00-.972-.972H2.937a.972.972 0 000 1.943h3.627a.972.972 0 00.972-.971zM7.536 9.364a.972.972 0 00-.972-.972H2.937a.972.972 0 000 1.944h3.627a.972.972 0 00.972-.972zM7.536 20.636a.972.972 0 00-.972-.971H2.937a.972.972 0 000 1.943h3.627a.972.972 0 00.972-.972zM7.536 26.272a.972.972 0 00-.972-.972H2.937a.972.972 0 100 1.944h3.627a.972.972 0 00.972-.972z" fill="#212121"/><path d="M27.062 0h-9.508v30h9.508a.972.972 0 00.971-.972V.972A.972.972 0 0027.063 0z" fill="#3232A1"/><path d="M23.356 13.593H11.752a.534.534 0 01-.534-.534V6.835c0-.295.239-.534.534-.534h11.604c.295 0 .534.239.534.534v6.224c0 .295-.239.534-.534.534z" fill="#3232A1"/><path d="M23.356 13.01H11.752a.534.534 0 01-.534-.535V6.252c0-.295.239-.535.534-.535h11.604c.295 0 .534.24.534.535v6.223c0 .295-.239.534-.534.534z" fill="#CCC3FF"/><path d="M23.345 5.717h-5.791v7.292h5.79a.545.545 0 00.546-.545V6.263a.545.545 0 00-.545-.546z" fill="#5656D7"/></svg>