<svg viewBox="0 0 30 30" fill="none" xmlns="http://www.w3.org/2000/svg"><path d="M28.81 5.502l-4.312-4.313a.41.41 0 00-.58 0L3.996 21.111a.383.383 0 00-.028.034l-.018.022a.41.41 0 00-.045.082l-1.622 4.117v.001L1.1 28.369a.41.41 0 00.532.532l3.002-1.184 4.116-1.623a.417.417 0 00.081-.045l.024-.018a.418.418 0 00.034-.028l14.468-14.467 5.453-5.454a.41.41 0 00.001-.58zm-5.744 5.163l-3.731-3.731 1.168-1.169 3.73 3.732-1.167 1.168zM8.6 25.132l-.82-.82 13.886-13.888.82.82L8.6 25.133zm-2.33-2.33L20.157 8.915l.928.929L7.198 23.732l-.93-.93zM4.868 21.4L18.755 7.514l.82.82L5.69 22.222l-.821-.821zm-2.053 4.851l.933.933-1.54.607.607-1.54zm1.764.604L3.144 25.42l1.296-3.288.958.958 1.509 1.508.958.959-3.286 1.298zM24.814 8.918l-3.732-3.732L24.21 2.06l3.731 3.731-3.126 3.127z" fill="#212121"/></svg>