<svg viewBox="0 0 29 30" fill="none" xmlns="http://www.w3.org/2000/svg"><g clip-path="url(#clip0)" fill="#212121"><path d="M24.126 6.304a.602.602 0 00.014-.157l-.15-4.543a.566.566 0 00-.987-.36l-3.044 3.394a.61.61 0 00-.11.185l-2.292 6.294V.993a.566.566 0 00-.566-.567H12.46a.566.566 0 00-.567.567V10.995A55.516 55.516 0 0010.21 7.28c.539-1.189.094-2.627-1.058-3.337-.16-.099-.323-.185-.481-.27-.679-.36-1.38-.732-2.027-2.282a.566.566 0 00-.519-.348h-.004a.566.566 0 00-.52.34c-.496 1.142-1.143 3.604-.415 5.592a2.84 2.84 0 001.428 1.581 55.808 55.808 0 001.436 4.961H6.626a1.7 1.7 0 00-.857 3.165 9.605 9.605 0 00-.843 3.929c0 1.846.527 3.638 1.524 5.182a9.594 9.594 0 003.948 3.47c.226.107.48.164.73.164h6.741c.251 0 .504-.057.73-.164a9.594 9.594 0 003.949-3.47 9.538 9.538 0 001.523-5.182c0-1.356-.29-2.7-.842-3.928a1.7 1.7 0 00-.857-3.166h-.866l2.6-7.144c.007-.022.015-.045.02-.068zM22.905 3.05l.076 2.31-1.62-.59 1.544-1.72zm-6.48-1.49v11.957h-3.399v-.386h1.7a.566.566 0 000-1.133h-1.7v-1.133h.566a.566.566 0 000-1.132h-.566V8.6h1.7a.566.566 0 000-1.133h-1.7V6.334h.566a.566.566 0 000-1.133h-.566V4.068h1.7a.566.566 0 000-1.132h-1.7V1.559h3.399zM6.24 3.048c.641.957 1.322 1.319 1.899 1.625.148.078.288.152.416.232.694.427.949 1.3.58 1.991-.282.541-.812.84-1.418.8A1.67 1.67 0 016.25 6.586c-.412-1.125-.269-2.489-.01-3.536zm2.235 8.077a54.706 54.706 0 01-.628-2.293 2.584 2.584 0 001.59-.558 55.74 55.74 0 012.216 5.242H9.249a54.688 54.688 0 01-.773-2.391zm14.462 4.09a.567.567 0 01-.566.566h-2.204a.566.566 0 000 1.133h1.92a8.46 8.46 0 01.85 3.695 8.484 8.484 0 01-4.824 7.628.574.574 0 01-.245.056h-6.74a.573.573 0 01-.245-.056 8.484 8.484 0 01-4.825-7.628 8.46 8.46 0 01.851-3.695h8.727a.566.566 0 000-1.133H6.626a.567.567 0 010-1.133h15.746c.312 0 .566.254.566.567zm-5.049-1.7l2.83-7.773 2.13.774-2.548 7h-2.412z"/><path d="M17.902 16.915a.566.566 0 100-1.133.566.566 0 000 1.133z"/></g><defs><clipPath id="clip0"><path fill="#fff" transform="translate(0 .426)" d="M0 0h29v29H0z"/></clipPath></defs></svg>
