<svg viewBox="0 0 76 76" fill="none" xmlns="http://www.w3.org/2000/svg"><path d="M74.967.176a1.775 1.775 0 00-2 .318c-4.076 3.913-11.1 9.696-21.413 15.033-.451.233-.781.649-.906 1.141-.84 3.323-2.492 6.95-4.907 10.78l-.983 1.56 1.833-7.982a1.776 1.776 0 00-2.426-2.03l-.212.089C23.144 27.844 16.995 41.41 15.18 48.719c-.63 2.536-.943 5.047-.933 7.465.004.933.057 1.822.157 2.654L.536 72.981a1.776 1.776 0 002.452 2.567L41.096 41.32c.187.012-21.699 22.938-21.5 22.938 2.97 0 7.073-1.37 11.866-3.959 6.462-3.492 13.684-8.85 20.885-15.496a1.776 1.776 0 00-1.602-3.035l-4.462 1.024 1.559-.983c4.352-2.744 8.421-4.493 12.093-5.2a1.778 1.778 0 001.019-.596c8.637-10.184 12.294-20.246 13.84-26.894a53.236 53.236 0 001.171-7.182 1.776 1.776 0 00-.998-1.761z" fill="#212121"/></svg>