<svg width="22" height="22" viewBox="0 0 22 22" fill="none" xmlns="http://www.w3.org/2000/svg">
<g clip-path="url(#clip0)">
<path d="M19.2656 2.73453L16.5311 0L13.3408 3.1903L15.6196 9.11509L19.2656 2.73453Z" fill="#161616"/>
<path d="M19.2652 2.73462L14.252 7.74791L18.8095 8.65941L21.9997 5.46915L19.2652 2.73462Z" fill="black"/>
<path d="M1.47022 17.4668L0 21.9999L4.8247 18.9982L1.47022 17.4668Z" fill="#7B65F3"/>
<path d="M0 22L4.53307 20.5299L3.91312 18.0869L0 22Z" fill="#3232A1"/>
<path d="M8.0937 15.729L2.62468 13.906L1.46973 17.467L3.00118 18.9985L8.0937 15.729Z" fill="#FFB244"/>
<path d="M3.00098 18.9986L4.53247 20.5301L8.09346 19.3752L7.18197 14.8176L3.00098 18.9986Z" fill="#EE780E"/>
<path d="M5.35938 16.6409L8.09385 19.3754L18.8095 8.65977L16.075 5.92529L8.93492 9.41933L5.35938 16.6409Z" fill="#3232A1"/>
<path d="M2.62402 13.9053L13.338 3.19131L16.0721 5.9254L5.35811 16.6394L2.62402 13.9053Z" fill="#7B65F3"/>
</g>
<defs>
<clipPath id="clip0">
<rect width="22" height="22" fill="white"/>
</clipPath>
</defs>
</svg>
