<svg viewBox="0 0 25 25" fill="none" xmlns="http://www.w3.org/2000/svg"><path d="M19.774 16.8c-1.305 0-2.47.615-3.221 1.57l-7.524-4.345a4.076 4.076 0 000-3.05l7.524-4.344a4.094 4.094 0 003.221 1.568c2.261 0 4.1-1.839 4.1-4.1A4.104 4.104 0 0019.774 0c-2.26 0-4.1 1.84-4.1 4.1 0 .539.106 1.053.296 1.525L8.446 9.969A4.094 4.094 0 005.225 8.4c-2.26 0-4.1 1.84-4.1 4.1s1.84 4.1 4.1 4.1c1.306 0 2.47-.615 3.221-1.569l7.524 4.344c-.19.472-.295.986-.295 1.525 0 2.26 1.839 4.1 4.1 4.1 2.26 0 4.1-1.84 4.1-4.1s-1.84-4.1-4.1-4.1zm0-15.638A2.94 2.94 0 0122.712 4.1a2.94 2.94 0 01-2.938 2.937A2.94 2.94 0 0116.837 4.1a2.94 2.94 0 012.937-2.937zM5.224 15.438A2.94 2.94 0 012.288 12.5a2.94 2.94 0 012.938-2.937A2.94 2.94 0 018.162 12.5a2.94 2.94 0 01-2.937 2.937zm14.55 8.4a2.94 2.94 0 01-2.937-2.937 2.94 2.94 0 012.937-2.937 2.94 2.94 0 012.938 2.937 2.94 2.94 0 01-2.938 2.938z" fill="#212121"/><path d="M5.224 10.772A1.73 1.73 0 003.496 12.5a.581.581 0 001.163 0c0-.312.253-.566.565-.566a.581.581 0 000-1.162z" fill="#212121"/></svg>
