<svg viewBox="0 0 37 37" fill="none" xmlns="http://www.w3.org/2000/svg"><path d="M29.265 24.865c-1.932 0-3.655.91-4.767 2.321l-11.136-6.429a6.034 6.034 0 000-4.514l11.136-6.43a6.058 6.058 0 004.767 2.322 6.074 6.074 0 006.068-6.067A6.074 6.074 0 0029.265 0a6.074 6.074 0 00-6.067 6.067c0 .798.156 1.56.437 2.258L12.5 14.755a6.059 6.059 0 00-4.768-2.323A6.074 6.074 0 001.664 18.5a6.074 6.074 0 006.068 6.067 6.06 6.06 0 004.768-2.321l11.135 6.429a6.034 6.034 0 00-.437 2.258A6.074 6.074 0 0029.265 37a6.074 6.074 0 006.068-6.067 6.074 6.074 0 00-6.068-6.068zm0-23.144a4.352 4.352 0 014.347 4.346 4.352 4.352 0 01-4.347 4.348 4.352 4.352 0 01-4.347-4.348 4.352 4.352 0 014.347-4.347zM7.732 22.847A4.352 4.352 0 013.384 18.5a4.352 4.352 0 014.348-4.347 4.352 4.352 0 014.347 4.347 4.352 4.352 0 01-4.347 4.347zM29.265 35.28a4.352 4.352 0 01-4.347-4.347 4.352 4.352 0 014.347-4.347 4.352 4.352 0 014.347 4.347 4.352 4.352 0 01-4.347 4.347z" fill="#7B65F3"/><path d="M7.734 15.942A2.56 2.56 0 005.176 18.5a.86.86 0 001.72 0c0-.462.376-.837.838-.837a.86.86 0 000-1.72zM26.5 2l-2 3v4l2.5 2h3.5L33 9.5l1-3c0-.333-.1-1.4-.5-3s-1.167-2-1.5-2l-3.5-1-2 1.5zm5.705 25.33l-3.427-1.122-3.853 1.074-1.255 2.945.94 3.371 2.115 2.006 3.159.158c.32-.09 1.321-.472 2.755-1.287s1.614-1.66 1.524-1.982l.024-3.64-1.982-1.524z" fill="#7B65F3"/><path d="M11.205 14.33l-3.427-1.122-3.853 1.074-1.255 2.945.94 3.371L5.5 23l2.278.5c0 .738 2.427-1.21 3.861-2.025 1.434-.815 1.614-1.66 1.524-1.982l.024-3.64-1.982-1.524z" fill="#7B65F3"/></svg>