<svg width="14" height="14" viewBox="0 0 14 14" fill="none" xmlns="http://www.w3.org/2000/svg">
<g clip-path="url(#clip0)">
<path d="M12.5417 12.8334H1.45833C0.641667 12.8334 0 12.1917 0 11.3751V4.37508C0 3.55841 0.641667 2.91675 1.45833 2.91675H12.5417C13.3583 2.91675 14 3.55841 14 4.37508V11.3751C14 12.1917 13.3583 12.8334 12.5417 12.8334ZM1.45833 3.50008C0.991667 3.50008 0.583333 3.90841 0.583333 4.37508V11.3751C0.583333 11.8417 0.991667 12.2501 1.45833 12.2501H12.5417C13.0083 12.2501 13.4167 11.8417 13.4167 11.3751V4.37508C13.4167 3.90841 13.0083 3.50008 12.5417 3.50008H1.45833Z" fill="#212121"/>
<path d="M9.0415 3.50008C8.8665 3.50008 8.74984 3.38342 8.74984 3.20842V2.04175C8.74984 1.86675 8.63317 1.75008 8.45817 1.75008H5.5415C5.3665 1.75008 5.24984 1.86675 5.24984 2.04175V3.20842C5.24984 3.38342 5.13317 3.50008 4.95817 3.50008C4.78317 3.50008 4.6665 3.38342 4.6665 3.20842V2.04175C4.6665 1.57508 5.07484 1.16675 5.5415 1.16675H8.45817C8.92484 1.16675 9.33317 1.57508 9.33317 2.04175V3.20842C9.33317 3.38342 9.2165 3.50008 9.0415 3.50008Z" fill="#212121"/>
<path d="M6.99989 8.16681C6.94156 8.16681 6.94156 8.16681 6.88322 8.16681L0.174891 5.83348C0.0582242 5.77515 -0.0584425 5.60015 -0.000109131 5.42515C0.0582242 5.30848 0.233224 5.19181 0.408224 5.25015L6.99989 7.58348L13.5916 5.25015C13.7666 5.19181 13.8832 5.25015 13.9416 5.42515C13.9999 5.60015 13.9416 5.71681 13.7666 5.77515L7.05822 8.10848C7.05822 8.16681 7.05822 8.16681 6.99989 8.16681Z" fill="#212121"/>
</g>
<defs>
<clipPath id="clip0">
<rect width="14" height="14" fill="white"/>
</clipPath>
</defs>
</svg>
