<svg viewBox="0 0 28 29" fill="none" xmlns="http://www.w3.org/2000/svg"><g clip-path="url(#superhero_svg__clip0)" fill="#212121"><path d="M9.622 16.158L14 14.032l4.379 2.126c1.088.529 2.434.057 2.908-1.091a7.881 7.881 0 00.238-5.334 2.144 2.144 0 00-2.982-1.293L14 10.645 9.457 8.44a2.144 2.144 0 00-2.982 1.294 7.882 7.882 0 00.238 5.334c.476 1.15 1.823 1.619 2.909 1.091zM7.258 9.977a1.323 1.323 0 011.841-.8l4.722 2.293a.41.41 0 00.359 0l4.722-2.293c.729-.353 1.6.027 1.84.8a7.062 7.062 0 01-.213 4.777c-.293.71-1.127.989-1.791.666l-4.558-2.213a.41.41 0 00-.359 0L9.263 15.42c-.664.323-1.498.044-1.791-.666a7.062 7.062 0 01-.214-4.777z"/><path d="M10.296 13.896a1.89 1.89 0 001.529-.938 1.026 1.026 0 00-.498-1.456 8.736 8.736 0 00-1.813-.527 1.032 1.032 0 00-1.213.996 1.894 1.894 0 001.995 1.925zm-.966-2.118c.089 0 .91.16 1.681.481.112.047.164.184.105.287a1.07 1.07 0 01-1.995-.56.213.213 0 01.21-.208zm8.374 2.117a1.894 1.894 0 001.995-1.924 1.031 1.031 0 00-1.213-.996 8.739 8.739 0 00-1.813.528c-.57.238-.806.926-.498 1.455.32.55.892.9 1.53.937zm-.715-1.636c.757-.316 1.59-.48 1.68-.48.107 0 .207.087.21.208a1.07 1.07 0 01-1.995.559c-.06-.103-.007-.24.105-.287zm-1.684 2.875a.41.41 0 00-.578.04.965.965 0 01-1.457 0 .41.41 0 00-.618.539c.714.82 1.983.815 2.693 0a.41.41 0 00-.04-.579zm.446 8.902l-.585-.32-.32-.586a.963.963 0 00-1.69 0l-.32.586-.586.32a.963.963 0 000 1.69l.586.32.32.585a.963.963 0 001.69 0l.32-.585.585-.32a.963.963 0 000-1.69zm-.393.97l-.691.378c-.176.096-.17.213-.541.854a.142.142 0 01-.25 0c-.372-.643-.365-.758-.541-.854l-.691-.378a.142.142 0 010-.25c.642-.372.758-.365.854-.541l.378-.691a.142.142 0 01.25 0c.371.642.365.758.54.854l.692.378a.144.144 0 010 .25z"/><path d="M1.709 17.923a29.39 29.39 0 015.58 4.576c-.96 1.19-1.958 3.026-1.958 5.517 0 .227.183.41.41.41h16.825a.41.41 0 00.41-.41c0-2.585-1.081-4.496-2.08-5.71a30.07 30.07 0 012.367-2.185.41.41 0 10-.523-.632 30.91 30.91 0 00-2.392 2.204 10.368 10.368 0 00-1.399-1.206 9.825 9.825 0 004.137-4.84 2.611 2.611 0 002.199-.837c.275.28.552.598.827.946.38.482.235 1.164-.257 1.472-.601.377-1.214.796-1.822 1.246a.41.41 0 10.489.66 26.41 26.41 0 011.768-1.21 1.825 1.825 0 00.466-2.676 12.35 12.35 0 00-1.013-1.139 2.612 2.612 0 00-.106-2.353 11.572 11.572 0 00-3.477-7.983A11.571 11.571 0 0014 .426a11.53 11.53 0 00-4.754 1.015.41.41 0 00.336.749A10.714 10.714 0 0114 1.247c5.607 0 10.139 4.252 10.751 9.57a2.654 2.654 0 00-1.125-.388 9.68 9.68 0 00-1.843-4.252 2.826 2.826 0 00-3.303-.897c-.455.185-2.184 1.088-4.48 1.088-2.512 0-4.237-1.043-4.797-1.195A2.843 2.843 0 006.2 6.201a9.666 9.666 0 00-1.825 4.228 2.64 2.64 0 00-1.125.388 10.826 10.826 0 014.886-7.84.41.41 0 00-.446-.688 11.638 11.638 0 00-5.327 9.466 2.61 2.61 0 00-.106 2.354c-.338.333-.678.714-1.013 1.139a1.825 1.825 0 00.466 2.675zm17.689 9.683v-2.178a.41.41 0 10-.82 0v2.178H9.42v-2.178a.41.41 0 10-.82 0v2.178H6.16c.087-1.836.767-3.48 2.022-4.893a9.001 9.001 0 011.97-1.66 9.846 9.846 0 007.972-.132 9.429 9.429 0 011.943 1.677c1.291 1.466 1.99 3.149 2.078 5.008h-2.748zM3.142 14.026c-.698-1.061-.098-2.49 1.128-2.75a9.918 9.918 0 00.362 3.563 1.8 1.8 0 01-1.49-.814zm3.8-7.44a2.018 2.018 0 012.078-.612c.844.245 4.532 2.536 9.665.11a2.011 2.011 0 012.273.393 1.7 1.7 0 01.17.197c1.527 2.012 1.67 3.975 1.734 4.208.365 2.752-.614 5.503-2.29 7.248-4.598 4.984-12.804 3.21-15.01-3.079a8.978 8.978 0 011.114-8.11c.079-.113.18-.256.266-.354zm17.838 5.356c.905 1.18.065 2.886-1.417 2.897a9.865 9.865 0 00.366-3.563c.405.086.782.316 1.05.666zM1.887 15.756c.275-.348.552-.665.827-.946a2.611 2.611 0 002.192.837 9.774 9.774 0 004.386 4.987 9.88 9.88 0 00-1.458 1.248 30.207 30.207 0 00-5.69-4.654 1.004 1.004 0 01-.257-1.472z"/></g><defs><clipPath id="superhero_svg__clip0"><path fill="#fff" transform="translate(0 .426)" d="M0 0h28v28H0z"/></clipPath></defs></svg>