<svg viewBox="0 0 36 36" fill="none" xmlns="http://www.w3.org/2000/svg"><path d="M28.124 28.295v-.226c-.03-5.517-4.53-10.027-10.046-10.069-5.619-.042-10.203 4.516-10.203 10.125 0 .078 0 .156.003.234.077 3.376 2.448 6.268 5.723 7.094a17.984 17.984 0 008.797 0c3.298-.831 5.67-3.757 5.726-7.158z" fill="#212121"/><path d="M30.727 5.271A17.98 17.98 0 0018 0 17.882 17.882 0 005.272 5.272C1.872 8.672 0 13.192 0 18a18.014 18.014 0 005.238 12.694c.244.245.655.024.593-.316a12.395 12.395 0 01-.206-2.253c0-5.135 3.144-9.55 7.608-11.42a.35.35 0 00.11-.574 6.731 6.731 0 01-2.089-5.12c.122-3.514 2.965-6.37 6.48-6.506 3.842-.149 7.016 2.935 7.016 6.745a6.73 6.73 0 01-2.092 4.88.35.35 0 00.11.575c4.463 1.87 7.607 6.285 7.607 11.42 0 .77-.07 1.522-.206 2.253-.062.34.35.56.593.316A18.013 18.013 0 0036 18c0-4.808-1.873-9.329-5.273-12.729z" fill="#212121"/><path d="M18 15.75a4.5 4.5 0 100-9 4.5 4.5 0 000 9z" fill="#212121"/></svg>