<svg viewBox="0 0 21 21" fill="none" xmlns="http://www.w3.org/2000/svg"><path d="M13.56 13.35a1.422 1.422 0 00-1.338 1.92 1.403 1.403 0 001.322.927c.557 0 1.068-.322 1.3-.821a1.427 1.427 0 00-.687-1.894 1.399 1.399 0 00-.597-.133z" fill="#9A87FE"/><path d="M20.16 11.629c-.098-1.72-1.238-3.203-2.785-3.861-.289.358-.591.723-.905 1.09 1.277.37 2.288 1.524 2.364 2.847.047.825-.187 1.65-.761 2.674-1.093 1.952-3.942 3.928-7.272 3.928a8.064 8.064 0 01-2.777-.49 1.155 1.155 0 01-.85.412l-.382.526c.415.185.845.346 1.288.48.88.266 1.795.4 2.72.4h.001c1.752 0 3.51-.477 5.087-1.38 1.46-.838 2.648-1.983 3.345-3.226.437-.781 1.01-1.984.928-3.4zM5.987 10.365a1.386 1.386 0 00-.602-.136 1.44 1.44 0 00-1.297.812 1.402 1.402 0 00-.048 1.085 1.412 1.412 0 001.34.946c.548 0 1.053-.32 1.286-.813a1.429 1.429 0 00-.68-1.894zM9.655 6.266c.16-.703.01-1.4-.415-1.91-.407-.49-1.01-.76-1.698-.76-.668 0-1.343.255-1.901.72-.527.437-.894 1.017-1.035 1.635-.161.703-.01 1.4.414 1.91.407.49 1.01.76 1.698.76.668 0 1.343-.255 1.902-.72.526-.437.894-1.017 1.035-1.635zm-1.733.795c-.363.302-.79.468-1.204.468-.357 0-.662-.13-.857-.366-.205-.247-.275-.6-.19-.97.088-.384.325-.752.668-1.037.363-.302.79-.468 1.203-.468.357 0 .662.13.858.366.205.247.274.6.19.969-.088.385-.326.753-.668 1.038z" fill="#9A87FE"/><path d="M3.306 16.214l1.086-.786v-.005a8.516 8.516 0 01-2.22-5.31c-.078-1.448.234-2.805 1.042-4.536.838-1.683 2.426-3.109 4.357-3.912.544-.226 1.047-.336 1.54-.336.422 0 .822.081 1.224.248.85.352 1.583 1.115 1.915 1.99.2.53.346 1.351-.099 2.263-.185.381-.277.858-.258 1.344.007.195.04.38.094.55.427-.393.865-.785 1.302-1.165.017-.053.035-.102.057-.147a4.09 4.09 0 00.147-3.315A4.896 4.896 0 0010.844.349 4.504 4.504 0 009.111 0C8.449 0 7.76.147 7.06.438c-2.226.925-4.063 2.585-5.04 4.555l-.007.014C1.104 6.953.754 8.502.845 10.185a9.826 9.826 0 002.46 6.03zM3.54 20.518l.083.084.084.085c.152.153.33.313.524.313a.35.35 0 00.046-.003c.13-.018.217-.112.335-.268l2.406-3.168a.57.57 0 00.703-.645.571.571 0 00.609-.807c.737-.565 3.893-3.61 4.633-4.348 3.238-3.238 6.98-7.937 6.39-8.527-.591-.59-5.29 3.151-8.528 6.39-.74.739-3.783 3.894-4.349 4.632a.573.573 0 00-.806.608.57.57 0 00-.657.644l-3.175 2.46c-.16.12-.242.244-.251.38-.013.184.113.337.25.475l1.704 1.695zm.617-.456a9.747 9.747 0 00-.08-.08l-1.484-1.485a4.804 4.804 0 00-.081-.08l2.456-1.94.27.27-.665.853a.237.237 0 00.324.34l.9-.634.273.272-1.913 2.484z" fill="#9A87FE"/></svg>