<svg viewBox="0 0 26 16" fill="none" xmlns="http://www.w3.org/2000/svg"><path d="M25.974 11.627L23.235 1.15a.944.944 0 00-.918-.723c-.022 0-.16 0-.388.005a.84.84 0 00-.63-.286c-.088 0-2.164.004-4.278.33-1.282.197-2.318.476-3.077.827-.392.181-.7.379-.944.583a4.192 4.192 0 00-.944-.583c-.76-.351-1.795-.63-3.077-.827A31.653 31.653 0 004.7.146a.84.84 0 00-.63.286 20.136 20.136 0 00-.388-.005c-.437 0-.816.299-.918.723L.026 11.627a.944.944 0 00.687 1.137l12.055 3.051h.002c.023.007.144.039.23.039.086 0 .207-.033.23-.038h.002l12.055-3.052a.944.944 0 00.687-1.137zm-8.712-9.486a29.577 29.577 0 013.377-.299l2.086 8.665-8.884 2.25V3.544c0-.302.715-.985 3.42-1.404zm-5.103 1.404v9.211l-8.885-2.249L5.36 1.842c.758.025 2.066.096 3.362.296 2.719.42 3.437 1.104 3.437 1.407z" fill="#FEC447"/></svg>