<svg width="44" height="44" viewBox="0 0 44 44" fill="none" xmlns="http://www.w3.org/2000/svg">
<circle cx="21.8056" cy="22.0009" r="21.8056" fill="#2F4F8E"/>
<path d="M23.7838 8.12305C20.9216 8.12305 18.6015 10.5594 18.6015 13.5647V17.6292H15.8125V22.6617L18.6015 25.2846V36.87C21.9605 36.8529 25.3191 36.6569 28.6733 36.2811C31.4751 35.9671 33.6877 33.6437 33.9867 30.7018C34.5446 25.2128 34.6872 19.7116 34.4148 14.2163L28.6117 8.12305H23.7838Z" fill="url(#paint0_linear)"/>
<path d="M18.6015 36.87C20.5156 36.8603 22.4294 36.7921 24.3424 36.6658V22.6617H28.1515L28.6117 17.6292H24.3424V14.4337C24.3424 13.7279 24.8873 13.1557 25.5595 13.1557H28.6117V8.12305H23.7838C20.9216 8.12305 18.6015 10.5594 18.6015 13.5647V17.6292H15.8125V22.6617H18.6015V36.87Z" fill="white"/>
<defs>
<linearGradient id="paint0_linear" x1="39.4111" y1="30.8642" x2="16.1721" y2="19.7043" gradientUnits="userSpaceOnUse">
<stop stop-color="#3457A0" stop-opacity="0"/>
<stop offset="0.3251" stop-color="#2A4C8D" stop-opacity="0.32549"/>
<stop offset="0.7045" stop-color="#22427D" stop-opacity="0.705882"/>
<stop offset="1" stop-color="#1F3F77"/>
</linearGradient>
</defs>
</svg>
