<svg width="45" height="44" viewBox="0 0 45 44" fill="none" xmlns="http://www.w3.org/2000/svg">
<g clip-path="url(#clip0)">
<path d="M43.8561 7.87C43.4556 4.11761 40.4921 1.15344 36.7394 0.753296C27.3286 -0.251099 17.8902 -0.251099 8.47971 0.753296C4.72699 1.15378 1.76315 4.11761 1.36267 7.87C0.358276 17.2805 0.358276 26.7192 1.36267 36.1297C1.76315 39.8824 4.72699 42.8462 8.47937 43.2467C17.8899 44.2511 27.3286 44.2511 36.7394 43.2467C40.4921 42.8462 43.4556 39.8824 43.8561 36.1297C44.8605 26.7192 44.8605 17.2808 43.8561 7.87V7.87Z" fill="url(#paint0_radial)"/>
<path d="M41.4655 9.46016C41.1103 6.13042 38.4805 3.50026 35.1504 3.14476C26.7997 2.25383 18.4241 2.25383 10.0734 3.14476C6.7437 3.50026 4.11354 6.13042 3.75804 9.46016C2.86711 17.8109 2.86711 26.1864 3.75804 34.5368C4.11354 37.8669 6.7437 40.497 10.0734 40.8522C18.4241 41.7435 26.7997 41.7435 35.1501 40.8522C38.4801 40.497 41.1103 37.8669 41.4655 34.5368C42.3567 26.1864 42.3567 17.8109 41.4655 9.46016V9.46016Z" fill="url(#paint1_linear)"/>
<path d="M1.26562 35.2207C1.29584 35.5248 1.32706 35.829 1.35962 36.1331C1.7601 39.8855 4.72394 42.8493 8.47665 43.2498C17.8871 44.2542 27.3258 44.2542 36.7363 43.2498C40.489 42.8493 43.4525 39.8855 43.853 36.1331C43.8856 35.829 43.9168 35.5248 43.9474 35.2207H1.26562Z" fill="url(#paint2_linear)"/>
<path d="M43.8523 36.1317C44.3921 31.0752 44.6411 26.0106 44.6009 20.9466L34.5435 10.8893C33.287 9.45483 31.4517 8.55954 29.2953 8.48199C24.8604 8.3222 20.4115 8.33026 15.976 8.48267C12.2921 8.60956 9.71594 11.0856 9.0553 14.7249C8.93881 15.3674 8.86899 16.0183 8.77734 16.6655V27.3345C8.82803 27.6803 8.90256 28.0244 8.92572 28.3722C9.07343 30.5857 9.98315 32.4817 11.4397 33.7644L21.6743 43.9987C26.697 44.0339 31.72 43.7842 36.7356 43.2488C40.4883 42.8483 43.4518 39.8844 43.8523 36.1317V36.1317Z" fill="url(#paint3_linear)"/>
<path d="M43.8577 36.1306C43.4576 39.8827 40.493 42.8472 36.741 43.2473C31.7261 43.7824 26.7021 44.0325 21.6801 43.9973L11.4609 33.7781C12.6456 34.815 14.1898 35.4465 15.9817 35.514C20.4162 35.6805 24.8662 35.6761 29.3007 35.5163C33.3116 35.3713 36.214 32.4027 36.3392 28.3919C36.4728 24.1333 36.4728 19.8636 36.3392 15.605C36.2821 13.7546 35.6325 12.1265 34.5556 10.8945L44.6066 20.9455C44.6462 26.0088 44.3972 31.0741 43.8577 36.1306Z" fill="url(#paint4_linear)"/>
<path d="M27.798 17.2362C26.5096 15.8333 24.6609 14.9531 22.6061 14.9531C18.7141 14.9531 15.5586 18.1086 15.5586 22.0007C15.5586 24.0554 16.4388 25.9041 17.8416 27.1925L34.1473 43.4981C35.0103 43.4229 35.8734 43.3394 36.7358 43.2474C40.4885 42.8469 43.4524 39.8831 43.8528 36.1303C43.9448 35.2679 44.0284 34.4049 44.1036 33.5418L27.798 17.2362Z" fill="url(#paint5_linear)"/>
<path d="M44.5269 26.7384L31.404 13.6158C31.0979 13.214 30.6155 12.9531 30.0713 12.9531C29.1455 12.9531 28.3945 13.7037 28.3945 14.6299C28.3945 15.1741 28.6554 15.6565 29.0572 15.9626L44.2923 31.1981C44.3957 29.7119 44.4739 28.2252 44.5269 26.7384V26.7384Z" fill="url(#paint6_linear)"/>
<path d="M8.77734 16.6655C8.86899 16.0183 8.93881 15.3674 9.0553 14.7249C9.71561 11.0856 12.2921 8.60956 15.976 8.48267C20.4115 8.33026 24.8604 8.3222 29.2953 8.48199C33.3048 8.62634 36.2085 11.5952 36.3337 15.6061C36.467 19.865 36.467 24.1344 36.3337 28.3933C36.2085 32.4042 33.3058 35.3727 29.2956 35.5174C24.8607 35.6775 20.4108 35.6816 15.9763 35.5151C11.9661 35.3643 9.19394 32.3887 8.92572 28.3718C8.90256 28.0244 8.82803 27.68 8.77734 27.3342C8.77734 23.7779 8.77734 20.2215 8.77734 16.6655V16.6655ZM22.6093 33.1404C24.6389 33.1404 26.6705 33.2011 28.6974 33.1263C31.8754 33.0084 33.8301 31.1118 33.9043 27.9368C33.9963 23.9806 33.9963 20.0191 33.9043 16.0626C33.8301 12.8883 31.874 10.9473 28.6974 10.8799C24.6654 10.7946 20.629 10.7953 16.597 10.8799C13.4445 10.946 11.484 12.8477 11.3984 15.9871C11.2897 19.9933 11.2897 24.0065 11.3984 28.0126C11.484 31.1517 13.4445 33.0094 16.5973 33.1263C18.5987 33.2008 20.6052 33.1404 22.6093 33.1404V33.1404Z" fill="url(#paint7_linear)"/>
<path d="M8.77734 16.6655C8.86899 16.0183 8.93881 15.3674 9.0553 14.7249C9.71561 11.0856 12.2921 8.60956 15.976 8.48267C20.4115 8.33026 24.8604 8.3222 29.2953 8.48199C33.3048 8.62634 36.2085 11.5952 36.3337 15.6061C36.467 19.865 36.467 24.1344 36.3337 28.3933C36.2085 32.4042 33.3058 35.3727 29.2956 35.5174C24.8607 35.6775 20.4108 35.6816 15.9763 35.5151C11.9661 35.3643 9.19394 32.3887 8.92572 28.3718C8.90256 28.0244 8.82803 27.68 8.77734 27.3342C8.77734 23.7779 8.77734 20.2215 8.77734 16.6655V16.6655ZM22.6093 33.1404C24.6389 33.1404 26.6705 33.2011 28.6974 33.1263C31.8754 33.0084 33.8301 31.1118 33.9043 27.9368C33.9963 23.9806 33.9963 20.0191 33.9043 16.0626C33.8301 12.8883 31.874 10.9473 28.6974 10.8799C24.6654 10.7946 20.629 10.7953 16.597 10.8799C13.4445 10.946 11.484 12.8477 11.3984 15.9871C11.2897 19.9933 11.2897 24.0065 11.3984 28.0126C11.484 31.1517 13.4445 33.0094 16.5973 33.1263C18.5987 33.2008 20.6052 33.1404 22.6093 33.1404V33.1404Z" fill="white"/>
<path d="M22.6061 14.957C18.7141 14.957 15.5586 18.1122 15.5586 22.0042C15.5586 25.8966 18.7141 29.0518 22.6061 29.0518C26.4985 29.0518 29.6537 25.8966 29.6537 22.0042C29.6537 18.1122 26.4985 14.957 22.6061 14.957ZM22.6061 26.6254C20.0539 26.6254 17.985 24.5565 17.985 22.0042C17.985 19.452 20.0539 17.3831 22.6061 17.3831C25.1584 17.3831 27.2273 19.452 27.2273 22.0042C27.2273 24.5565 25.1584 26.6254 22.6061 26.6254Z" fill="white"/>
<path d="M31.7361 14.6338C31.7361 15.5597 30.9854 16.3103 30.0596 16.3103C29.1338 16.3103 28.3828 15.5597 28.3828 14.6338C28.3828 13.7076 29.1338 12.957 30.0596 12.957C30.9854 12.957 31.7361 13.7076 31.7361 14.6338Z" fill="white"/>
</g>
<defs>
<radialGradient id="paint0_radial" cx="0" cy="0" r="1" gradientUnits="userSpaceOnUse" gradientTransform="translate(9.62913 38.4525) scale(48.5243)">
<stop stop-color="#FAE100"/>
<stop offset="0.0544" stop-color="#FADC04"/>
<stop offset="0.1167" stop-color="#FBCE0E"/>
<stop offset="0.1829" stop-color="#FCB720"/>
<stop offset="0.2514" stop-color="#FE9838"/>
<stop offset="0.3054" stop-color="#FF7950"/>
<stop offset="0.4922" stop-color="#FF1C74"/>
<stop offset="1" stop-color="#6C1CD1"/>
</radialGradient>
<linearGradient id="paint1_linear" x1="17.4877" y1="19.1163" x2="-57.0535" y2="-22.8132" gradientUnits="userSpaceOnUse">
<stop stop-color="#A1B5D8" stop-opacity="0"/>
<stop offset="0.3094" stop-color="#90A2BD" stop-opacity="0.309804"/>
<stop offset="0.7554" stop-color="#7C8B9C" stop-opacity="0.756863"/>
<stop offset="1" stop-color="#748290"/>
</linearGradient>
<linearGradient id="paint2_linear" x1="22.6063" y1="38.8439" x2="22.6063" y2="45.7024" gradientUnits="userSpaceOnUse">
<stop stop-color="#FAE100" stop-opacity="0"/>
<stop offset="0.3068" stop-color="#FCA800" stop-opacity="0.305882"/>
<stop offset="0.6275" stop-color="#FE7300" stop-opacity="0.627451"/>
<stop offset="0.8685" stop-color="#FF5200" stop-opacity="0.866667"/>
<stop offset="1" stop-color="#FF4500"/>
</linearGradient>
<linearGradient id="paint3_linear" x1="20.1024" y1="19.4366" x2="9.21312" y2="8.54734" gradientUnits="userSpaceOnUse">
<stop stop-color="#833AB4" stop-opacity="0"/>
<stop offset="1" stop-color="#833AB4"/>
</linearGradient>
<linearGradient id="paint4_linear" x1="30.7664" y1="40.2441" x2="25.3314" y2="14.6218" gradientUnits="userSpaceOnUse">
<stop stop-color="#833AB4" stop-opacity="0"/>
<stop offset="1" stop-color="#833AB4"/>
</linearGradient>
<linearGradient id="paint5_linear" x1="32.8297" y1="32.2242" x2="10.9995" y2="10.394" gradientUnits="userSpaceOnUse">
<stop stop-color="#833AB4" stop-opacity="0"/>
<stop offset="1" stop-color="#833AB4"/>
</linearGradient>
<linearGradient id="paint6_linear" x1="34.455" y1="19.0135" x2="27.2361" y2="11.7947" gradientUnits="userSpaceOnUse">
<stop stop-color="#833AB4" stop-opacity="0"/>
<stop offset="1" stop-color="#833AB4"/>
</linearGradient>
<linearGradient id="paint7_linear" x1="31.3418" y1="13.3266" x2="13.5428" y2="31.1256" gradientUnits="userSpaceOnUse">
<stop stop-color="#833AB4"/>
<stop offset="0.0922" stop-color="#9C3495"/>
<stop offset="0.2927" stop-color="#DC2546"/>
<stop offset="0.392" stop-color="#FD1D1D"/>
<stop offset="0.5589" stop-color="#FC6831"/>
<stop offset="0.6887" stop-color="#FC9B40"/>
<stop offset="0.7521" stop-color="#FCAF45"/>
<stop offset="0.7806" stop-color="#FDB750"/>
<stop offset="0.8656" stop-color="#FECB6A"/>
<stop offset="0.9415" stop-color="#FFD87A"/>
<stop offset="1" stop-color="#FFDC80"/>
</linearGradient>
<clipPath id="clip0">
<rect x="0.609375" width="44" height="44" rx="22" fill="white"/>
</clipPath>
</defs>
</svg>
