<svg width="73" height="73" viewBox="0 0 73 73" fill="none" xmlns="http://www.w3.org/2000/svg">
<path d="M36.9755 71.5628H34.9863C33.5354 71.5628 32.3594 70.3867 32.3594 68.936V4.26553C32.3594 2.81466 33.5355 1.63867 34.9863 1.63867H36.9755C38.4263 1.63867 39.6024 2.8148 39.6024 4.26553V68.936C39.6025 70.3868 38.4264 71.5628 36.9755 71.5628Z" fill="#D49C8D"/>
<path d="M19.6394 71.5661H15.2557C14.4651 71.5661 13.8242 70.9252 13.8242 70.1346L18.251 50.8125H25.4978L21.071 70.1346C21.0709 70.9252 20.43 71.5661 19.6394 71.5661Z" fill="#D49C8D"/>
<path d="M52.3232 71.5661H56.7069C57.4975 71.5661 58.1384 70.9252 58.1384 70.1346L53.7117 50.8125H46.4648L50.8916 70.1346C51.1581 70.9664 51.5326 71.5661 52.3232 71.5661Z" fill="#D49C8D"/>
<path d="M11.6055 52.0001V49.1414C11.6055 47.9296 12.5878 46.9473 13.7995 46.9473H58.1654C59.3771 46.9473 60.3593 47.9296 60.3593 49.1414V52.0001C60.3593 53.2119 59.377 54.1941 58.1654 54.1941H13.7995C12.5877 54.1941 11.6055 53.2117 11.6055 52.0001Z" fill="#D49C8D"/>
<path d="M53.1595 8.07812H18.7993C17.3417 8.07812 16.1602 9.25967 16.1602 10.7172V44.3138C16.1602 45.7714 17.3417 46.9529 18.7993 46.9529H53.1596C54.6172 46.9529 55.7987 45.7714 55.7987 44.3138V10.7172C55.7986 9.25967 54.6171 8.07812 53.1595 8.07812Z" fill="white"/>
<path d="M53.1595 8.07812H46.3668C47.5691 8.07812 48.5439 9.05279 48.5439 10.2553V38.2846C48.5439 39.4871 47.5691 40.4619 46.3668 40.4619H18.3373C17.135 40.4619 16.1602 39.4871 16.1602 38.2846V44.3136C16.1602 45.7712 17.3417 46.9528 18.7993 46.9528H53.1595C54.6171 46.9528 55.7986 45.7712 55.7986 44.3136V10.7171C55.7986 9.25967 54.6171 8.07812 53.1595 8.07812Z" fill="#FFBFFC"/>
<path d="M32.0273 54.1953H39.6081V59.555H32.0273V54.1953Z" fill="#C7758D"/>
<path d="M55.8048 59.555H48.224L47.1875 54.1953H54.7682L55.8048 59.555Z" fill="#C7758D"/>
<path d="M16.2227 59.555H23.8034L24.84 54.1953H17.2593L16.2227 59.555Z" fill="#C7758D"/>
<path d="M58.1649 45.5002H57.0678C57.1836 45.1222 57.2463 44.7214 57.2463 44.3061V10.7096C57.2463 8.4577 55.4142 6.62557 53.1623 6.62557H41.0487V4.26134C41.0487 2.01602 39.222 0.189453 36.9767 0.189453H34.9874C32.7421 0.189453 30.9154 2.01602 30.9154 4.26134V6.62557H18.802C16.5501 6.62557 14.718 8.4577 14.718 10.7096V44.3061C14.718 44.7214 14.7807 45.1224 14.8965 45.5002H13.7993C11.7927 45.5002 10.1602 47.1326 10.1602 49.1394V51.9979C10.1602 54.0046 11.7925 55.6369 13.7993 55.6369H15.6622L12.4163 69.8044C12.3921 69.9102 12.3798 70.0184 12.3798 70.127C12.3798 71.7132 13.6701 73.0037 15.2563 73.0037H19.64C20.682 73.0037 22.0201 72.559 22.4819 70.4418L25.8738 55.6369H30.9155V68.9316C30.9155 71.177 32.7423 73.0037 34.9876 73.0037H36.9768C39.2221 73.0037 41.0489 71.177 41.0489 68.9316V55.6369H46.0906L49.4538 70.3178C49.5524 71.8153 50.8022 73.0037 52.3242 73.0037H56.7079C58.2941 73.0037 59.5844 71.7132 59.5844 70.127C59.5844 70.0184 59.5722 69.9102 59.5479 69.8044L56.302 55.6369H58.1649C60.1716 55.6369 61.804 54.0046 61.804 51.9979V49.1394C61.8041 47.1327 60.1717 45.5002 58.1649 45.5002ZM33.8055 4.26134C33.8055 3.60962 34.3357 3.07951 34.9874 3.07951H36.9767C37.6285 3.07951 38.1587 3.60976 38.1587 4.26134V6.62557H33.8055V4.26134ZM17.6079 44.3061V10.7096C17.6079 10.0513 18.1435 9.51563 18.8018 9.51563H53.1622C53.8204 9.51563 54.3561 10.0513 54.3561 10.7096V44.3061C54.3561 44.9645 53.8204 45.5002 53.1622 45.5002H18.802C18.1437 45.5002 17.6079 44.9645 17.6079 44.3061ZM19.663 69.8044C19.6616 69.8101 19.6603 69.8156 19.6591 69.8215C19.6298 69.9572 19.601 70.051 19.578 70.1138H15.3102L18.627 55.6371H22.9089L19.663 69.8044ZM38.1587 68.9318C38.1587 69.5836 37.6284 70.1138 36.9767 70.1138H34.9874C34.3356 70.1138 33.8055 69.5835 33.8055 68.9318V55.6371H38.1587V68.9318ZM56.6539 70.1138H52.3376C52.3366 70.0097 52.3244 69.906 52.3011 69.8045L49.0553 55.6371H53.3372L56.6539 70.1138ZM58.914 51.9979C58.914 52.411 58.578 52.7469 58.1651 52.7469H13.7992C13.3861 52.7469 13.0501 52.4108 13.0501 51.9979V49.1394C13.0501 48.7263 13.386 48.3903 13.7992 48.3903H18.8018H53.1622H58.1648C58.5778 48.3903 58.9138 48.7263 58.9138 49.1394V51.9979H58.914Z" fill="#681515"/>
<path d="M49.16 35.7305C48.6812 35.7305 48.293 36.1187 48.293 36.5975V38.4426C48.293 38.9214 48.6812 39.3096 49.16 39.3096C49.6388 39.3096 50.027 38.9214 50.027 38.4426V36.5975C50.027 36.1187 49.6388 35.7305 49.16 35.7305Z" fill="#681515"/>
<path d="M41.1912 38.4648C40.7125 38.4648 40.3242 38.8531 40.3242 39.3319V41.1768C40.3242 41.6556 40.7125 42.0438 41.1912 42.0438C41.67 42.0438 42.0583 41.6556 42.0583 41.1768V39.3319C42.0583 38.8529 41.67 38.4648 41.1912 38.4648Z" fill="#681515"/>
<path d="M44.8592 29.2676C44.3804 29.2676 43.9922 29.6558 43.9922 30.1346V31.9796C43.9922 32.4583 44.3804 32.8466 44.8592 32.8466C45.338 32.8466 45.7262 32.4583 45.7262 31.9796V30.1346C45.7262 29.6558 45.338 29.2676 44.8592 29.2676Z" fill="#681515"/>
<path d="M64.4189 2.95776C64.5655 1.48501 63.4903 0.172326 62.0176 0.0257914C60.5449 -0.120743 59.2322 0.954363 59.0856 2.42711C58.9391 3.89985 60.0142 5.21254 61.487 5.35907C62.9597 5.50561 64.2724 4.4305 64.4189 2.95776Z" fill="#FFA585"/>
<path d="M2.01306 21.9006C2.62294 21.7565 3.00047 21.1452 2.85631 20.5353C2.71215 19.9255 2.10088 19.5479 1.491 19.6921C0.881122 19.8363 0.503587 20.4475 0.647751 21.0574C0.791915 21.6673 1.40319 22.0448 2.01306 21.9006Z" fill="#FFA585"/>
<path d="M68.7581 17.7048L69.6686 20.2649C69.7075 20.3746 69.7846 20.4614 69.882 20.5053L72.1565 21.53C72.4779 21.6747 72.4779 22.1867 72.1565 22.3316L69.882 23.3563C69.7846 23.4002 69.7075 23.487 69.6686 23.5967L68.7581 26.1568C68.6295 26.5185 68.1745 26.5185 68.0459 26.1568L67.1354 23.5967C67.0965 23.487 67.0192 23.4002 66.9218 23.3563L64.6473 22.3316C64.3259 22.1867 64.3259 21.6749 64.6473 21.53L66.9218 20.5053C67.0192 20.4614 67.0963 20.3746 67.1354 20.2649L68.0459 17.7048C68.1746 17.3432 68.6295 17.3432 68.7581 17.7048Z" fill="#FDE41B"/>
<path d="M6.58907 0.365731L7.84019 3.81698C7.8938 3.96469 7.99973 4.08189 8.13362 4.14106L11.2589 5.5225C11.7005 5.71769 11.7005 6.40791 11.2589 6.6031L8.13347 7.98439C7.99959 8.04356 7.89366 8.16062 7.84005 8.30833L6.58892 11.7596C6.41213 12.2472 5.78706 12.2472 5.61041 11.7596L4.35943 8.30847C4.30582 8.16076 4.19988 8.04356 4.066 7.98454L0.940548 6.60295C0.498984 6.40776 0.498984 5.71754 0.940548 5.52235L4.066 4.14091C4.19988 4.08174 4.30582 3.96469 4.35943 3.81683L5.61041 0.365588C5.78721 -0.121886 6.41227 -0.121886 6.58907 0.365731Z" fill="#FDE41B"/>
</svg>
