<svg width="62" height="62" viewBox="0 0 62 62" fill="none" xmlns="http://www.w3.org/2000/svg">
<path d="M12.427 59.5092C11.2691 58.3513 11.2691 56.4739 12.427 55.316L33.0231 34.72C34.181 33.5621 36.0583 33.5621 37.2162 34.72C38.3741 35.8779 38.3741 37.7552 37.2162 38.9131L16.6202 59.5092C15.4623 60.6671 13.5849 60.6671 12.427 59.5092Z" fill="#B2E7F1"/>
<path d="M9.93567 36.4873L11.4439 39.2449L14.2015 40.7531C14.794 41.0772 14.794 41.9281 14.2015 42.2522L11.4439 43.7604L9.93567 46.518C9.61162 47.1105 8.76068 47.1105 8.43663 46.518L6.92852 43.7604L4.17095 42.2522C3.57843 41.9281 3.57843 41.0772 4.17095 40.7531L6.92852 39.245L8.43663 36.4875C8.76068 35.8948 9.61162 35.8948 9.93567 36.4873Z" fill="#FDE41B"/>
<path d="M23.4079 27.253C22.064 28.662 22.1169 30.8938 23.526 32.2376L31.4767 39.8204C32.8858 41.1643 35.1174 41.1114 36.4613 39.7024L43.7466 32.0636L23.4312 27.2285L23.4079 27.253Z" fill="#A183E2"/>
<path d="M58.6471 1.25326L46.9646 3.76053C46.0198 3.96324 45.1579 4.44568 44.4909 5.14501L44.0234 5.63508L59.7557 9.34603L60.7615 3.26997C60.9652 2.04014 59.8659 0.991698 58.6471 1.25326Z" fill="#A183E2"/>
<path d="M23.4297 27.2293L43.7453 32.0643L53.719 21.6068L33.2976 16.8828L23.4297 27.2293Z" fill="#78EAC4"/>
<path d="M59.0684 13.4929L60.1037 7.23837L46.4162 3.91602C45.6875 4.16535 45.0254 4.58385 44.49 5.14513L40.7656 9.05019L59.0684 13.4929Z" fill="#78EAC4"/>
<path d="M58.6489 1.25326L55.7628 1.87266L54.7032 12.2558C54.6112 13.1577 54.2422 13.9755 53.6443 14.6024L34.739 34.4248C33.5341 35.6881 31.3895 35.5985 29.9489 34.2247L23.0703 27.6643C22.0855 29.0678 22.2474 31.0179 23.5259 32.2372L31.4767 39.82C32.8857 41.1639 35.1175 41.111 36.4613 39.7019L57.5462 17.5944C58.2132 16.8951 58.6542 16.0113 58.812 15.0581L60.7634 3.26997C60.967 2.04014 59.8677 0.991698 58.6489 1.25326Z" fill="#71AFC4"/>
<path d="M38.5201 34.2917C37.5365 34.0693 36.5575 33.8314 35.5973 33.5244L34.7385 34.4249C33.5336 35.6882 31.389 35.5986 29.9485 34.2248L27.6554 32.0378C25.9606 31.9249 24.2465 31.4887 22.6445 30.8867C22.8241 31.3836 23.1172 31.8478 23.5255 32.2372L31.4762 39.82C32.8368 41.1178 34.9643 41.1127 36.319 39.842C36.3672 39.7967 36.4147 39.7504 36.4608 39.7019L40.9819 34.9616C40.156 34.7575 39.3348 34.5353 38.5201 34.2917Z" fill="#9762E2"/>
<path d="M50.9872 24.4713L56.0256 19.1886L35.7845 14.2754L30.7461 19.5583L50.9872 24.4713Z" fill="#A183E2"/>
<path d="M45.5039 23.1382L50.9894 24.4697L56.0278 19.1869L50.5423 17.8555L45.5039 23.1382Z" fill="#9762E2"/>
<path d="M22.5294 30.5041L40.9657 34.9791L46.0041 29.6963L25.7631 24.7832L23.4071 27.2534C22.5513 28.1506 22.2629 29.3813 22.5294 30.5041Z" fill="#FFA585"/>
<path d="M23.0704 27.666C22.4803 28.5075 22.3014 29.5447 22.5292 30.5039L27.2466 31.6488L23.0704 27.666Z" fill="#EF7C85"/>
<path d="M40.9659 34.9776L46.0043 29.6947L40.5189 28.3633L35.4805 33.646L40.9659 34.9776Z" fill="#EF7C85"/>
<path d="M35.7812 14.2754L56.0224 19.1886L57.5421 17.5951L52.1238 11.7313L40.7643 9.05078L35.7812 14.2754Z" fill="#FFA585"/>
<path d="M56.6443 16.1666C55.7702 15.4757 54.8961 14.7895 54.0857 14.0371C53.9559 14.2385 53.8094 14.4289 53.6433 14.6031L50.4688 17.9315C52.2342 18.3511 53.9405 18.9697 55.6525 19.5793L57.545 17.5949C57.6669 17.4671 57.7783 17.3315 57.8847 17.1921C57.4817 16.8406 57.0679 16.5014 56.6443 16.1666Z" fill="#EF7C85"/>
<path d="M47.6098 7.21573L57.752 17.3579C58.3015 16.7002 58.6681 15.9072 58.8087 15.0579L60.7601 3.26986C60.9637 2.04002 59.8645 0.991701 58.6457 1.25327L46.9632 3.76041C46.262 3.91081 45.607 4.21597 45.043 4.64876C45.8986 5.50442 46.7543 6.36007 47.6098 7.21573Z" fill="#8BB6EF"/>
<path d="M57.5338 17.6071L57.5459 17.5944C58.2129 16.8952 58.6539 16.0113 58.8117 15.058L60.7631 3.26994C60.9667 2.04011 59.8674 0.991788 58.6486 1.25323L55.7625 1.87263L54.7029 12.2559C54.6408 12.8649 54.449 13.4333 54.1484 13.9322C55.3216 15.1143 56.4243 16.3639 57.5338 17.6071Z" fill="#8388EF"/>
<path d="M61.0738 0.824535C60.3587 0.142529 59.3551 -0.140711 58.3893 0.0666028L46.707 2.57387C45.519 2.82877 44.4475 3.42831 43.6088 4.3077L22.5238 26.4155C20.7195 28.3072 20.7907 31.3143 22.6826 33.1184L23.1566 33.5706L21.4909 35.2364C20.8709 35.8563 19.862 35.8564 19.2423 35.2365C18.4829 34.477 17.4732 34.0587 16.3991 34.0587C15.3251 34.0587 14.3154 34.477 13.5559 35.2364L11.666 37.1263L10.9989 35.9067C10.6358 35.2426 9.93988 34.83 9.18304 34.83C8.42608 34.83 7.73027 35.2426 7.3671 35.9065L6.02961 38.3518L3.58447 39.6892C2.92038 40.0523 2.50781 40.7481 2.50781 41.5051C2.50781 42.2621 2.92038 42.9579 3.58434 43.321L6.02973 44.6584L7.3671 47.1038C7.73039 47.7679 8.42632 48.1803 9.18328 48.1803C9.94012 48.1803 10.6358 47.7678 10.999 47.1037L12.3363 44.6584L14.7815 43.321C15.4456 42.9579 15.8581 42.2621 15.8581 41.5052C15.8581 40.7484 15.4457 40.0526 14.7816 39.6893L13.3332 38.8971L15.275 36.9553C15.8947 36.3352 16.9036 36.3353 17.5236 36.9552C18.2829 37.7147 19.2926 38.133 20.3667 38.133C21.4407 38.133 22.4504 37.7147 23.2099 36.9552L24.9163 35.2487L27.9164 38.1101L11.5662 54.4602C9.93625 56.0901 9.93625 58.7422 11.5662 60.3722C12.3813 61.1871 13.4518 61.5945 14.5222 61.5945C15.5927 61.5945 16.6632 61.187 17.4783 60.372L36.9284 40.9218C37.0703 40.8038 58.4211 18.4349 58.4211 18.4349C59.26 17.5553 59.808 16.4569 60.0064 15.2581L61.9581 3.46997C62.1192 2.49552 61.7888 1.50642 61.0738 0.824535ZM10.8573 42.6964C10.6534 42.808 10.4857 42.9757 10.3742 43.1796L9.18292 45.358L7.99159 43.1796C7.88018 42.9757 7.71247 42.808 7.50854 42.6964L5.33017 41.505L7.50854 40.3137C7.71247 40.2021 7.88006 40.0345 7.99159 39.8306L9.18292 37.6524L10.3742 39.8306C10.4858 40.0345 10.6534 40.2022 10.8573 40.3138L13.0357 41.5052L10.8573 42.6964ZM33.96 39.5801C33.3401 39.5941 32.7573 39.3681 32.3108 38.9423L24.84 31.8172L39.0169 35.2583L35.5771 38.865C35.1512 39.3115 34.5769 39.5655 33.96 39.5801ZM45.2177 28.7567L27.7044 24.5058L31.525 20.4998L49.0383 24.7508L45.2177 28.7567ZM36.5634 15.2169L54.0767 19.4679L50.2007 23.532L32.6873 19.2809L36.5634 15.2169ZM55.2391 18.2492L37.7258 13.9982L41.5465 9.99213L50.9456 12.2736L56.0603 17.3882L55.2391 18.2492ZM42.7087 8.77344L45.0209 6.349L48.9635 10.2916L42.7087 8.77344ZM15.7593 58.6532C15.0773 59.3353 13.967 59.3353 13.285 58.6532C12.6029 57.971 12.6029 56.861 13.285 56.1789L29.6758 39.7881L30.6332 40.7012C31.1942 41.2362 31.8622 41.6174 32.5862 41.8261L15.7593 58.6532ZM59.5598 3.07314L57.6081 14.8614C57.5792 15.0362 57.5374 15.2074 57.484 15.3742L47.0921 4.98232C47.1338 4.97179 47.1748 4.95968 47.217 4.9506L58.8993 2.44333C58.9426 2.43413 58.9835 2.43001 59.0219 2.43001C59.204 2.43001 59.3308 2.52156 59.3961 2.58368C59.475 2.65888 59.6012 2.8226 59.5598 3.07314ZM23.6736 30.0332C23.571 29.3508 23.7708 28.6301 24.2828 28.0933L26.542 25.7245L44.0554 29.9756L40.1793 34.0396L23.6736 30.0332Z" fill="#681515"/>
<path d="M13.9595 17.6568L14.958 20.4642C15.0007 20.5844 15.0854 20.6796 15.1922 20.7277L17.6864 21.8514C18.0387 22.0102 18.0387 22.5716 17.6864 22.7303L15.1922 23.8541C15.0854 23.9022 15.0007 23.9975 14.958 24.1176L13.9595 26.9249C13.8185 27.3215 13.3197 27.3215 13.1786 26.9249L12.1802 24.1176C12.1374 23.9973 12.0528 23.9022 11.946 23.8541L9.45179 22.7303C9.0994 22.5716 9.0994 22.0102 9.45179 21.8514L11.946 20.7277C12.0528 20.6796 12.1374 20.5843 12.1802 20.4642L13.1786 17.6568C13.3197 17.2602 13.8185 17.2602 13.9595 17.6568Z" fill="#FDE41B"/>
<path d="M3.53966 26.2793L4.28028 28.3618C4.312 28.4509 4.37473 28.5216 4.45393 28.5573L6.30413 29.3909C6.56558 29.5088 6.56558 29.9252 6.30413 30.0429L4.45393 30.8765C4.37473 30.9123 4.31188 30.9829 4.28028 31.0721L3.53966 33.1546C3.43503 33.4488 3.06509 33.4488 2.96046 33.1546L2.21985 31.0721C2.18812 30.983 2.12539 30.9123 2.0462 30.8765L0.195992 30.0429C-0.0653306 29.9251 -0.0653306 29.5086 0.195992 29.3909L2.0462 28.5573C2.12539 28.5216 2.18824 28.451 2.21985 28.3618L2.96046 26.2793C3.06509 25.985 3.43503 25.985 3.53966 26.2793Z" fill="#FDE41B"/>
<path d="M3.89916 55.5786C5.01167 55.1174 5.53972 53.8417 5.07858 52.7292C4.61744 51.6167 3.34174 51.0887 2.22923 51.5498C1.11671 52.0109 0.588672 53.2866 1.04981 54.3992C1.51095 55.5117 2.78665 56.0397 3.89916 55.5786Z" fill="#FDE41B"/>
<path d="M3.04589 19.6211C3.56527 19.6211 3.98631 19.2 3.98631 18.6807C3.98631 18.1613 3.56527 17.7402 3.04589 17.7402C2.52651 17.7402 2.10547 18.1613 2.10547 18.6807C2.10547 19.2 2.52651 19.6211 3.04589 19.6211Z" fill="#FDE41B"/>
</svg>
