<svg width="77" height="77" viewBox="0 0 77 77" fill="none" xmlns="http://www.w3.org/2000/svg">
<path d="M72.1208 75.046C71.2059 75.046 70.2943 74.6738 69.6322 73.9417L24.136 23.6372C22.8935 22.2634 23 20.1423 24.3738 18.8997C25.7475 17.6572 27.8686 17.7635 29.1112 19.1375L74.6074 69.442C75.8499 70.8158 75.7434 72.9369 74.3696 74.1794C73.7279 74.7599 72.9229 75.046 72.1208 75.046Z" fill="#F4DAB5"/>
<path d="M12.4297 8.16124C12.4297 8.16124 15.1148 2.36519 20.7941 3.11594C26.239 3.83571 27.905 9.07246 27.905 9.07246C27.905 9.07246 39.1523 10.1453 46.7921 15.1616C56.1559 21.3099 46.821 29.8145 46.821 29.8145L38.9223 33.5649L12.4297 8.16124Z" fill="#7B65F3"/>
<path d="M24.5311 34.19L30.4475 44.3702L46.2287 30.7196L32.6626 15.8569C32.0783 15.2812 30.8266 14.1169 29.7143 13.1493C30.7676 12.607 31.6022 11.4776 31.9225 9.79137C32.4495 7.01651 30.2521 3.57242 29.3881 3.40834C28.5241 3.24427 25.2172 5.643 24.6902 8.41785C24.5639 9.08333 24.5446 9.69708 24.6146 10.2517C19.5975 9.1689 14.3695 12.8348 10.88 19.1075C6.40181 27.157 6.72515 35.7521 10.3675 38.1332C14.1236 40.5888 19.8622 38.8265 24.5311 34.19Z" fill="#E8C2D8"/>
<path d="M8.11638 27.1016C8.11638 27.1016 6.09664 34.7264 11.0299 38.5058C15.9632 42.2853 21.9484 35.0927 21.9484 35.0927L8.11638 27.1016Z" fill="#D789B9"/>
<path d="M23.3446 35.1848C24.2919 34.5749 25.1779 33.9249 25.9572 33.262L24.7816 31.2025C24.3911 30.5184 23.4487 30.3917 22.9038 30.9605C22.0693 31.8319 21.0955 32.6063 20.0508 33.271C21.1413 33.9213 22.26 34.5242 23.3446 35.1848Z" fill="#D392D8"/>
<path d="M18.5421 34.1309C14.8867 35.9847 10.7789 36.5209 8.66921 35.1416C8.38016 34.9527 8.11578 34.7178 7.875 34.4449C8.34663 35.6512 9.48568 37.5568 10.3661 38.1323C12.8752 39.7726 17.7209 38.4004 21.8642 36.0753C20.7557 35.4287 19.6271 34.8165 18.5421 34.1309Z" fill="#C668B9"/>
<path d="M32.6614 15.8589C32.0772 15.2832 30.8255 14.119 29.7132 13.1512C30.7665 12.6089 31.601 11.4795 31.9214 9.79332C32.4483 7.01846 30.251 3.57437 29.387 3.41029C28.7644 3.29208 26.8733 4.50483 25.668 6.22996C26.504 6.97259 27.8022 9.45659 27.3811 11.4894C27.3092 11.8365 27.212 12.1554 27.0931 12.4455C26.502 13.8885 26.8173 15.5414 27.911 16.6529L27.9259 16.668L37.0393 26.9914C38.2641 28.3787 38.1033 30.5032 36.6838 31.6905L27.5271 39.349L30.4463 44.372L46.2276 30.7214L32.6614 15.8589Z" fill="#D392D8"/>
<path d="M37.5195 38.957L42.656 34.3453L46.3025 38.4067L41.1661 43.0184L37.5195 38.957Z" fill="#DBA2B3"/>
<path d="M1.64546 3.02783L13.3177 18.3759C14.8258 19.6075 20.9547 12.1019 19.4466 10.8704L2.51517 2.03134C1.88368 1.70995 1.24166 2.44566 1.64546 3.02783Z" fill="white"/>
<path d="M65.1516 27.2047L66.4615 30.8881C66.5176 31.0458 66.6286 31.1708 66.7688 31.2338L70.0413 32.7083C70.5036 32.9166 70.5036 33.6532 70.0413 33.8615L66.7688 35.3359C66.6286 35.3991 66.5176 35.524 66.4615 35.6816L65.1516 39.365C64.9665 39.8854 64.3121 39.8854 64.127 39.365L62.8171 35.6816C62.761 35.5239 62.65 35.3989 62.5099 35.3359L59.2374 33.8615C58.775 33.6532 58.775 32.9166 59.2374 32.7083L62.5099 31.2338C62.65 31.1707 62.761 31.0457 62.8171 30.8881L64.127 27.2047C64.3121 26.6844 64.9666 26.6844 65.1516 27.2047Z" fill="#FDE41B"/>
<path d="M18.8591 56.9868L19.8307 59.7191C19.8724 59.8361 19.9547 59.9287 20.0586 59.9757L22.486 61.0693C22.8289 61.2238 22.8289 61.7703 22.486 61.9247L20.0586 63.0184C19.9547 63.0651 19.8722 63.1579 19.8307 63.2749L18.8591 66.0072C18.7217 66.3933 18.2363 66.3933 18.099 66.0072L17.1273 63.2749C17.0856 63.1579 17.0034 63.0653 16.8995 63.0184L14.472 61.9247C14.1291 61.7703 14.1291 61.2238 14.472 61.0693L16.8995 59.9757C17.0034 59.9289 17.0858 59.8361 17.1273 59.7191L18.099 56.9868C18.2363 56.6008 18.7217 56.6008 18.8591 56.9868Z" fill="#FDE41B"/>
<path d="M10.2764 50.4877C10.2764 51.1691 9.72397 51.7215 9.04255 51.7215C8.36113 51.7215 7.80859 51.1691 7.80859 50.4877C7.80859 49.8063 8.36098 49.2539 9.04255 49.2539C9.72397 49.2539 10.2764 49.8063 10.2764 50.4877Z" fill="#D88ABA"/>
<path d="M37.7694 56.3346C37.8614 55.1435 36.9703 54.1033 35.7791 54.0113C34.5879 53.9193 33.5476 54.8104 33.4556 56.0015C33.3636 57.1926 34.2547 58.2328 35.4459 58.3248C36.6371 58.4168 37.6774 57.5258 37.7694 56.3346Z" fill="#D88ABA"/>
<path d="M75.7397 68.4195L44.6774 34.0744L47.2245 31.8713C47.3517 31.7612 47.4573 31.6314 47.5407 31.4892C49.4166 29.9607 52.3418 26.9883 52.6369 23.1333C52.8782 19.9795 51.3495 16.9772 48.0931 14.2096C43.2538 10.097 37.2949 8.15064 33.3424 7.25461C33.1392 6.3073 32.8068 5.49519 32.5487 4.95905C32.1501 4.13099 31.0715 2.17637 29.6713 1.91063C28.5127 1.69046 27.1339 2.62799 26.3108 3.31152C24.6735 2.20163 22.5714 1.33343 20.0993 1.50743C16.1957 1.78385 13.7911 3.83172 12.4597 5.50256L3.22122 0.67953C3.21656 0.677123 3.21174 0.674567 3.20708 0.672311C2.30474 0.213168 1.20989 0.425069 0.544567 1.1877C-0.120912 1.95033 -0.182873 3.06367 0.394026 3.89533C0.406658 3.91368 0.419742 3.93158 0.433278 3.94932L10.3592 17.0013C10.0807 17.4413 9.80908 17.8949 9.5471 18.3658C4.89176 26.7337 4.88514 36.3696 9.53251 39.4078C13.4454 41.9658 19.1557 40.8123 24.163 36.5906L29.1287 45.1352C29.3567 45.5274 29.7476 45.7976 30.195 45.8725C30.2787 45.8865 30.3627 45.8934 30.4461 45.8934C30.8095 45.8934 31.1641 45.7633 31.4431 45.5221L37.2972 40.4585L68.5041 74.9638C69.4272 75.9843 70.7463 76.5697 72.123 76.5697C73.3339 76.5697 74.4957 76.1221 75.394 75.3095C76.3604 74.4356 76.9286 73.2376 76.9938 71.9363C77.059 70.6348 76.6136 69.3859 75.7397 68.4195ZM33.3469 10.4024C36.9556 11.2924 42.0485 13.0725 46.1192 16.5319C48.5865 18.6287 49.7572 20.7681 49.5985 22.8907C49.4233 25.2365 47.7137 27.2512 46.2987 28.5362L33.7869 14.8287C33.7689 14.8089 33.7502 14.7895 33.731 14.7707C33.3518 14.3971 32.7264 13.8074 32.037 13.1792C32.6498 12.4327 33.0954 11.4907 33.3469 10.4024ZM20.3145 4.54743C21.8015 4.4414 23.1365 4.92927 24.2475 5.61114C23.7798 6.33031 23.3724 7.18182 23.1917 8.13289C23.1657 8.27035 23.1432 8.4072 23.1242 8.54316C21.8827 8.50872 20.636 8.71295 19.4085 9.13028L15.2301 6.94886C16.229 5.87658 17.8574 4.72143 20.3145 4.54743ZM5.15975 5.12959L18.0885 11.8791C17.8986 12.4077 17.3904 13.3854 16.3815 14.621C15.3871 15.8388 14.5408 16.53 14.0572 16.8289L5.15975 5.12959ZM11.2 36.8569C9.62275 35.8258 8.69408 32.5368 9.28843 28.2872L20.573 35.4829C17.12 37.7935 13.5451 38.3897 11.2 36.8569ZM30.8399 42.0141L25.8473 33.4235C25.6102 33.0153 25.1972 32.7403 24.7292 32.6784C24.6627 32.6697 24.5961 32.6654 24.5298 32.6654C24.1302 32.6654 23.7434 32.8227 23.4561 33.108C23.0236 33.5375 22.5821 33.9374 22.1349 34.3102L9.65358 26.3512C10.1368 24.3018 10.9609 22.0935 12.2105 19.8474C12.2633 19.7524 12.3182 19.6618 12.3717 19.5684C12.6355 19.7796 13.0992 20.0464 13.7628 20.0464C14.0743 20.0464 14.4297 19.9876 14.8281 19.8364C17.2098 18.9333 20.7723 14.5708 21.181 12.0566C21.1968 11.9593 21.207 11.8663 21.2146 11.7755C22.2501 11.5416 23.2842 11.5231 24.2917 11.7406C24.7748 11.845 25.2784 11.7086 25.6427 11.3746C26.0071 11.0407 26.1868 10.5509 26.1251 10.0606C26.0729 9.64642 26.0934 9.18908 26.186 8.70152C26.4889 7.10647 28.1822 5.57625 29.0708 5.07169C29.7127 5.8668 30.7271 7.91136 30.4242 9.50641C30.2121 10.6229 29.7118 11.4353 29.0155 11.7938C28.5663 12.0251 28.2608 12.4641 28.2004 12.9658C28.1397 13.4675 28.3318 13.9667 28.713 14.2983C29.745 15.1961 30.9614 16.3227 31.5637 16.9137L44.0469 30.5901L30.8399 42.0141ZM73.9498 71.7832C73.9253 72.2715 73.7122 72.721 73.3494 73.0489C73.0124 73.3537 72.5769 73.5215 72.1228 73.5215C71.5983 73.5215 71.1158 73.3075 70.7644 72.9189L39.6027 38.464L42.3718 36.0687L73.4792 70.4638C73.8072 70.8264 73.9743 71.295 73.9498 71.7832Z" fill="#681515"/>
<path d="M23.3454 23.71C24.0767 23.0645 24.1463 21.9484 23.5008 21.217C22.8553 20.4857 21.7391 20.4161 21.0078 21.0617C20.2765 21.7072 20.2069 22.8233 20.8524 23.5547C21.4979 24.286 22.6141 24.3555 23.3454 23.71Z" fill="#681515"/>
<path d="M12.107 35.6905C11.4476 35.6905 10.8397 35.2591 10.6451 34.5942C10.4542 33.9419 10.3318 33.2279 10.2808 32.4719C10.2243 31.6322 10.8592 30.9057 11.699 30.8492C12.5373 30.7926 13.1856 31.4367 13.3217 32.2673C13.419 32.8615 13.5015 33.3423 13.5702 33.7385C13.714 34.5677 13.3432 35.3926 12.5355 35.6289C12.3928 35.6707 12.2487 35.6905 12.107 35.6905Z" fill="white"/>
<path d="M12.584 27.3367C12.463 27.3367 12.3399 27.3222 12.2172 27.2919C11.4001 27.0899 10.9016 26.2638 11.1034 25.4469C11.2225 24.965 11.3438 24.5254 11.4738 24.1031C11.7215 23.2988 12.5744 22.8474 13.3787 23.0954C14.183 23.3431 14.6341 24.1959 14.3865 25.0002C14.2734 25.3672 14.1673 25.7525 14.0622 26.1779C13.8905 26.8724 13.2683 27.3367 12.584 27.3367Z" fill="white"/>
</svg>
