<svg width="70" height="70" viewBox="0 0 70 70" fill="none" xmlns="http://www.w3.org/2000/svg">
<path d="M21.0928 2.68258L21.0867 0.732422L7.56641 0.797363L7.56859 2.68258H21.0928Z" fill="#A07575"/>
<path d="M67.1836 20.9643L69.2677 20.9578L69.2028 7.4375L67.1836 7.43982V20.9643Z" fill="#EFC5B4"/>
<path d="M46.0743 20.1139V7.46225L35.6565 7.47373C34.906 5.12381 32.7034 3.42385 30.105 3.42822L9.72875 2.76172C9.72875 2.76172 7.72473 3.51148 7.66279 4.86527C7.60086 6.2192 8.5073 7.46033 8.5073 7.46033C7.03607 7.46293 5.84553 8.65772 5.84799 10.1289C5.85045 11.6002 2.97006 14.0535 2.97266 15.5885C2.97526 17.1238 4.22199 18.3661 5.75721 18.3635C5.75721 18.3635 5.10246 20.3503 5.17697 21.8909C5.25244 23.4519 6.5942 24.6471 8.15348 24.5425L18.6006 23.6608L19.384 23.5375L19.4139 23.5296L19.4165 25.0251C19.4196 26.8633 20.9261 28.3645 22.7643 28.3613C24.6865 28.6357 29.0844 26.7233 31.0015 26.3385C33.4888 25.7555 35.5649 23.641 35.9029 21.0618L42.414 21.0413C43.5694 20.5279 44.7993 20.2077 46.0743 20.1139Z" fill="#EFC5B4"/>
<path d="M48.8828 66.8984L48.8902 69.2664L62.4106 69.2013L62.408 66.8984H48.8828Z" fill="#C49A8B"/>
<path d="M64.9799 7.6628C63.626 7.60086 57.0412 5.74764 57.0412 5.74764C57.0386 4.21243 55.7919 2.97006 54.2566 2.97266C52.7214 2.97539 51.4791 4.222 51.4817 5.75721C51.4817 5.75721 49.4949 5.10246 47.9543 5.17698C46.3933 5.25245 45.1981 6.5942 45.3027 8.15348L46.1844 18.6006L46.3077 19.384L46.3156 19.4139L44.82 19.4165C42.982 19.4197 41.4807 20.9262 41.4838 22.7642C41.2096 24.6863 43.1219 29.0844 43.5067 31.0014C44.0897 33.4888 46.2042 35.5648 48.7834 35.9027L48.8025 41.9744C49.4713 43.1086 49.9505 44.3204 50.3336 45.5672H62.3828L62.3719 35.6565C64.7216 34.9059 66.4217 32.7032 66.4172 30.105L67.0837 9.72862C67.0836 9.72875 66.3338 7.72473 64.9799 7.6628Z" fill="#C49A8B"/>
<path d="M3.07992 48.9141L0.734375 48.9214L0.799316 62.4417L3.07992 62.4392V48.9141Z" fill="#F3D4D2"/>
<path d="M64.2397 51.513C65.29 50.4248 64.3519 45.6526 61.8434 45.3339L51.3963 46.2156L50.6129 46.3389L50.583 46.3469L50.5804 44.8513C50.5772 43.0131 49.0707 41.5118 47.2326 41.5151C45.3104 41.2408 40.9125 43.1531 38.9954 43.538C36.5079 44.1209 34.432 46.2354 34.094 48.8146L28.2302 48.8331C28.0542 48.963 27.877 49.0908 27.6983 49.2147C26.8029 49.8351 25.8063 50.4256 24.7422 50.7337V62.4138L34.3403 62.4032C35.0907 64.753 37.2934 66.4531 39.8917 66.4486L60.2681 67.1151C60.2681 67.1151 64.1514 61.2191 64.1489 59.7479C64.1465 58.2767 64.2493 57.0727 64.2493 57.0727C65.7845 57.0701 67.0268 55.8234 67.0242 54.2882C67.0216 52.7528 65.7749 51.5104 64.2397 51.513Z" fill="#F3D4D2"/>
<path d="M26.4694 38.9981C25.8864 36.5106 23.7719 34.4347 21.1927 34.0968L21.1863 32.0522L21.1723 27.618C20.2355 26.7749 19.718 25.5999 19.4882 24.3496H7.59315L7.60163 31.9942L7.60422 34.3431C5.25444 35.0935 3.55434 37.2962 3.55885 39.8945L2.89221 60.2708L2.91655 60.3221H2.89057L2.89221 60.271L2.65651 59.7734C2.59458 61.1274 13.6378 65.8828 15.5953 66.2387C17.1058 66.5134 19.1571 65.5792 19.1544 64.044C19.5232 65.0277 25.2888 64.7682 24.6731 61.8461L23.7914 51.399L23.6681 50.6157L23.6602 50.5858L25.1558 50.5832C26.9939 50.5801 28.4953 49.0734 28.492 47.2354C28.4921 47.2352 26.6628 39.9768 26.4694 38.9981Z" fill="#A07575"/>
<path d="M21.4921 2.23943L21.4937 0.836426L7.9734 0.771484L7.96875 2.23943H21.4921Z" fill="#925873"/>
<path d="M67.7617 21.4412L69.1647 21.4429L69.2297 7.92262L67.7617 7.91797V21.4412Z" fill="#D994B3"/>
<path d="M19.079 24.0163L21.5273 28.5997L30.1247 26.4077C32.7229 26.4122 34.868 23.7545 35.6185 21.4046L41.7641 21.4114C42.8435 20.0948 44.315 19.143 45.9466 18.6885V7.84797L37.8087 7.82227L37.7762 14.8178C37.7711 15.904 36.8828 16.7787 35.7966 16.7671L35.5922 16.7649C34.8694 16.7571 34.2146 17.1558 33.8537 17.7821C32.8593 19.5076 30.9487 20.5125 28.7564 20.5087L11.026 21.0495L4.81641 21.1126C5.25172 21.4243 5.1865 22.7068 6.23979 23.817C7.17275 24.8003 15.4637 23.7317 19.079 24.0163Z" fill="#D994B3"/>
<path d="M48.8828 67.2305L48.8892 69.265L62.4096 69.1999L62.4074 67.2305H48.8828Z" fill="#B2748A"/>
<path d="M64.9797 7.66348C63.6258 7.60154 62.1979 7.40016 61.8862 6.96484L62.0163 11.0646L61.4755 28.795C61.4793 30.9873 60.4744 32.8979 58.7489 33.8923C58.1226 34.2532 57.7239 34.908 57.7317 35.6308L57.7339 35.8352C57.7455 36.9214 56.8709 37.8097 55.7846 37.8147L48.7891 37.8473L48.7993 41.0804C49.201 42.5138 49.739 43.9034 50.2403 45.3043H62.3821L62.3714 35.657C64.7212 34.9065 66.4213 32.7038 66.4168 30.1056L67.0833 9.72916L67.319 10.2267C67.381 8.87303 66.3336 7.72541 64.9797 7.66348Z" fill="#B2748A"/>
<path d="M2.71445 49.0371L0.726562 49.0434L0.791504 62.5637L2.71445 62.5615V49.0371Z" fill="#DBA2B3"/>
<path d="M58.9269 62.1727L41.1964 61.6319C39.0041 61.6357 37.0935 60.6308 36.0991 58.9053C35.7382 58.279 35.0835 57.8803 34.3606 57.8881L34.1562 57.8903C33.07 57.9019 32.1817 57.0272 32.1767 55.9409L32.1441 48.9453L24.2227 48.9703V62.5388L34.3344 62.5276C35.085 64.8774 37.2875 66.5775 39.8858 66.573L60.2623 67.2395L59.7647 67.4753C61.1187 67.5371 62.2663 66.4899 62.3282 65.136C62.3902 63.782 62.5915 62.3541 63.0267 62.0424L58.9269 62.1727Z" fill="#DBA2B3"/>
<path d="M24.0691 50.9203L28.6524 48.4721L26.4604 39.8746C26.4649 37.2764 23.8073 35.1313 21.4573 34.3809L21.4642 28.2352C20.1476 27.1558 19.1957 25.6843 18.7413 24.0527H7.9007L7.875 32.1906L14.8705 32.2232C15.9569 32.2282 16.8314 33.1165 16.8198 34.2027L16.8176 34.4071C16.8098 35.13 17.2085 35.7847 17.8348 36.1456C19.5605 37.14 20.5652 39.0506 20.5614 41.2429C20.6968 45.7269 21.2066 60.9732 21.1652 65.1829C21.4769 64.7476 22.7594 64.8128 23.8696 63.7596C24.853 62.8266 23.7843 54.5357 24.0691 50.9203Z" fill="#925873"/>
<path d="M68.6302 19.6413H68.6279L68.2645 19.6418L68.689 10.2896C68.7117 9.79219 68.6369 9.31285 68.4831 8.86879H68.6167H68.6176C69.3737 8.86879 69.987 8.25616 69.9876 7.49983C69.9881 6.74337 69.3752 6.12964 68.6187 6.12909L62.9742 6.12512C62.8525 5.96011 62.7174 5.80288 62.5695 5.6555C61.808 4.89644 60.7971 4.47876 59.7223 4.47876H59.7152C59.2132 4.47958 58.7323 4.57269 58.2888 4.74194C58.1084 4.01788 57.734 3.35425 57.1918 2.81394C56.4084 2.03328 55.3685 1.60371 54.2629 1.60371H54.2555C53.1471 1.60562 52.1057 2.03902 51.3234 2.82419C50.8598 3.28945 50.5201 3.84507 50.3205 4.45128C49.6008 3.99273 48.7597 3.76769 47.8893 3.80966C46.764 3.86394 45.7317 4.35722 44.9823 5.19845C44.7328 5.47858 44.5262 5.78593 44.3631 6.112L36.5826 6.10639C35.3985 3.65558 32.9232 2.06814 30.1377 2.06035L22.5102 1.71418C22.5097 1.59769 22.5093 1.48066 22.5089 1.36418C22.5058 0.609491 21.8931 0 21.1393 0H21.1335C20.3771 0.00314452 19.7662 0.618788 19.7694 1.37552C19.7696 1.44675 19.7699 1.51853 19.7702 1.5899L10.2901 1.15965C9.84469 1.13832 9.40774 1.1941 8.99403 1.3207C8.96176 0.593358 8.36389 0.0128515 7.62848 0.0123047H7.62739C6.87134 0.0123047 6.25815 0.624803 6.25761 1.38113C6.2561 3.18089 6.25501 4.98394 6.25405 6.78684C6.04214 6.93081 5.84089 7.09364 5.65605 7.2793C4.89548 8.04246 4.47767 9.0561 4.47945 10.1334C4.48027 10.6293 4.56995 11.1114 4.74085 11.5615C2.93808 12.0152 1.6007 13.6519 1.60398 15.5933C1.6059 16.7017 2.03929 17.7429 2.82447 18.5254C3.28972 18.9888 3.84535 19.3287 4.45156 19.5283C3.993 20.2479 3.76796 21.0896 3.80994 21.9593C3.86435 23.0848 4.35763 24.1173 5.19886 24.8666C5.51577 25.1491 5.86714 25.3775 6.24188 25.5489C6.22452 28.155 6.29274 30.8333 6.14864 33.4398C4.65677 34.1863 3.61238 35.1831 2.96912 36.4698C2.71482 36.9782 2.29195 38.9295 2.27705 39.6471C2.17806 42.1126 2.00429 44.6287 1.83613 47.0625C1.82615 47.2078 1.81603 47.3537 1.80605 47.4994L1.36801 47.5001C0.611133 47.5012 -0.00122862 48.1155 1.85111e-06 48.8721C0.00123232 49.6278 0.614278 50.2397 1.36992 50.2397H1.37211L1.62217 50.2393C1.41121 53.5493 1.25098 56.9169 1.31783 60.26C1.31851 60.2923 1.32029 60.3246 1.32316 60.3566C1.3434 60.5794 1.38701 60.7986 1.45127 61.012H1.38318H1.38223C0.626172 61.012 0.0129901 61.6246 0.0124432 62.381C0.0118964 63.1374 0.624805 63.7511 1.38127 63.7517L6.94981 63.7557C7.47071 64.4876 8.19245 65.0472 9.01563 65.3386C9.89227 65.6489 10.8204 65.6428 11.6717 65.3281C12.7912 69.3599 18.2637 69.3812 19.6679 65.588C19.7309 65.6249 19.7955 65.66 19.8611 65.6935C21.0719 66.3432 22.664 66.3221 23.9249 65.6375C24.7296 65.2006 25.3136 64.5448 25.6141 63.7689L33.4178 63.7745C34.6018 66.2252 37.0774 67.8125 39.8627 67.8206L47.4673 68.1656L47.4681 68.6325C47.4693 69.3882 48.0824 70.0001 48.8379 70.0001H48.8402C49.5968 69.9989 50.209 69.3846 50.2078 68.628L50.2073 68.2901L59.7107 68.7214C59.7706 68.7243 59.8301 68.7255 59.8897 68.7255C60.2635 68.7255 60.6299 68.671 60.9801 68.5666V68.6172C60.9796 69.3737 61.5925 69.9874 62.349 69.988H62.3499C63.106 69.988 63.7193 69.3753 63.7198 68.619L63.7238 63.1077C64.8083 62.3822 65.524 61.1473 65.5215 59.7475C65.5207 59.2456 65.4276 58.7646 65.2585 58.3212C65.9825 58.1408 66.6462 57.7664 67.1865 57.2243C67.9689 56.4392 68.3988 55.3964 68.3968 54.2882C68.3949 53.1798 67.9615 52.1384 67.1765 51.356C66.7106 50.8918 66.1541 50.5518 65.5469 50.3523C65.9926 49.6521 66.2341 48.8123 66.191 47.922C66.1366 46.7967 65.6435 45.7642 64.8022 45.0148C64.4792 44.7269 64.1203 44.4954 63.7372 44.323L63.7427 36.5829C66.1935 35.3989 67.7808 32.9233 67.7888 30.1378L68.1409 22.3822L68.6331 22.3814C69.3897 22.3801 70.0019 21.7659 70.0007 21.0093C69.9988 20.2532 69.3857 19.6413 68.6302 19.6413ZM5.75312 16.9957C5.37741 16.9957 5.02413 16.8497 4.75808 16.5845C4.49134 16.3187 4.34409 15.9649 4.34341 15.5884C4.34204 14.8108 4.97355 14.1772 5.75148 14.1758L16.7058 14.1523C17.4614 14.1506 18.073 13.5376 18.0727 12.7819C18.0724 12.0264 17.4605 11.4137 16.7048 11.4126L11.27 11.4048L8.5151 11.4205H8.51278C8.16797 11.4205 7.84368 11.2865 7.59936 11.043C7.3545 10.799 7.21928 10.4743 7.21874 10.1287C7.21751 9.41498 7.79706 8.83338 8.51114 8.83229L18.9789 8.80959H18.9838C19.7396 8.80795 20.3511 8.19463 20.3507 7.43899C20.3501 6.68335 19.7379 6.07071 18.9821 6.07003L10.0412 6.061C9.76129 6.04214 9.50399 5.91813 9.31422 5.71018C9.11899 5.49622 9.01891 5.21923 9.03204 4.92993C9.04516 4.64077 9.17026 4.37376 9.38422 4.17866C9.59805 3.98329 9.87449 3.88445 10.1649 3.89634L30.0436 4.79868C30.0644 4.79964 30.0852 4.80019 30.106 4.80019C30.1094 4.80032 30.1125 4.80019 30.1159 4.80019C32.0594 4.80019 33.7614 6.04214 34.3524 7.89262C34.5336 8.46 35.0608 8.84527 35.6563 8.84569L43.9881 8.85156L44.7786 18.218L44.7097 18.2173C44.7039 18.2172 44.6981 18.2172 44.6929 18.2172C43.3232 18.2197 42.0938 18.7885 41.2544 19.6857L35.9013 19.6944C35.2144 19.6955 34.6345 20.2054 34.5452 20.8863C34.2893 22.8406 32.7037 24.5352 30.6896 25.0073C30.4699 25.0697 26.3621 26.2651 26.2427 26.2903C24.8591 26.8009 22.8093 26.9696 22.4813 26.994C21.9861 26.9811 21.6464 26.7101 21.4469 26.4817C21.1378 26.1277 20.9595 25.6459 20.9569 25.1585L20.9743 23.5038C20.9822 22.7474 20.3753 22.1278 19.6188 22.1198C19.29 22.1308 8.05286 23.1787 8.05286 23.1787C7.6721 23.2007 7.3061 23.0749 7.02104 22.8209C6.73339 22.5647 6.56481 22.2117 6.54622 21.8271C6.5279 21.4474 6.65847 21.0835 6.91399 20.802C7.16938 20.5205 7.51911 20.3555 7.90684 20.3367L16.5943 19.8662C17.3206 19.8268 17.8895 19.2269 17.89 18.4995L17.8902 18.3438C17.8906 17.9798 17.7459 17.6305 17.4883 17.3734C17.2315 17.1167 16.8834 16.9728 16.5204 16.9728H16.5174L5.75585 16.996H5.75312V16.9957ZM44.684 40.5123C43.5798 40.6892 39.7957 41.9243 38.6481 42.2151C35.9749 42.8559 33.7945 44.9231 33.0018 47.4486L29.8611 47.4536C29.7123 44.5944 28.3054 40.0081 27.1999 37.0175C26.2106 35.0389 24.5236 33.5894 22.5527 32.9743C22.5472 32.1637 22.5607 30.57 22.5566 29.7326C22.574 29.7322 22.5915 29.7322 22.6089 29.7311C22.6841 29.7263 23.9305 29.6445 25.3129 29.3692C26.4199 29.1923 30.2017 27.957 31.3519 27.6655C34.0253 27.0247 36.2057 24.9575 36.9983 22.4321L40.1173 22.427C39.9892 24.2511 41.5617 29.2593 42.183 31.3517C42.8236 34.025 44.891 36.2054 47.4164 36.9982L47.4215 40.1486C47.3076 40.1539 46.099 40.2323 44.684 40.5123ZM23.102 62.5933C22.7459 63.9301 20.5171 63.5489 20.4895 62.2693C20.4428 61.3092 20.0844 55.7848 20.0844 53.9312C20.3817 52.0401 17.3438 51.2502 17.1005 53.4703C17.1029 55.3261 17.1306 62.1898 17.0783 64.6883C16.5053 66.07 14.6257 65.9128 14.331 64.616C14.3399 60.7943 14.3825 57.0686 14.2802 53.2814C14.2781 52.8901 14.0973 52.5095 13.8054 52.26C12.9862 51.5001 11.5304 52.1398 11.5411 53.262C11.4506 56.2655 11.8322 59.2785 11.3979 62.2567C10.8946 63.1966 9.51219 62.8879 9.09233 62.0308C8.88807 58.3286 9.14538 54.6419 8.93606 50.9589C8.92635 49.936 7.671 49.2908 6.83415 49.862C6.73598 49.9247 6.64561 49.9995 6.56632 50.0844L6.56618 50.0845C6.33704 50.3303 6.19731 50.6591 6.19772 51.021C6.31776 54.1014 6.13142 57.1165 6.22958 60.2341C5.87411 61.2547 4.29939 61.1566 4.05562 60.1419C3.97386 55.8643 4.27642 51.4861 4.569 47.2511C4.73894 44.7925 4.91448 42.2501 5.01497 39.7396C5.01566 39.7214 5.01607 39.7061 5.01607 39.6879C5.02304 39.357 5.31138 38.0243 5.43976 37.6546C5.89257 36.7778 6.70454 36.1287 7.99051 35.6142C8.49131 35.4138 8.82791 34.9383 8.85047 34.3995C9.01536 31.6034 8.97817 28.6398 8.98118 25.8494L18.2182 25.0699L18.2175 25.1388C18.2173 25.1443 18.2173 25.1499 18.2173 25.1554C18.2192 26.3135 18.6334 27.4242 19.3833 28.2831C19.5194 28.4391 19.6646 28.5822 19.8163 28.7144C19.8198 30.1854 19.8242 32.6455 19.8104 34.0683C19.8104 34.7548 20.3187 35.3354 20.9991 35.4261C22.5558 35.6338 23.9464 36.669 24.7276 38.1993C25.6301 40.7116 27.0104 45.255 27.1217 47.5186C27.109 48.0138 26.8378 48.3535 26.6094 48.5528C26.2554 48.862 25.7736 49.0404 25.2862 49.0428L23.6315 49.0256C23.6266 49.0255 23.6218 49.0255 23.6169 49.0255C22.867 49.0255 22.2553 49.6294 22.2474 50.381C22.5908 54.4339 23.4264 58.6349 23.102 62.5933ZM64.2469 52.8852C66.0747 52.8555 66.0758 55.7323 64.2485 55.7048L53.2942 55.7284C52.5386 55.73 51.927 56.3431 51.9273 57.0987C51.9276 57.8542 52.5395 58.467 53.2952 58.4681L58.7299 58.4759L61.4848 58.4604C63.1909 58.4992 63.1965 61.0016 61.4886 61.0486L51.0161 61.0713C50.2603 61.073 49.6488 61.6863 49.6492 62.4419C49.6497 63.1976 50.262 63.8102 51.0177 63.811L59.9587 63.8199C61.349 63.8925 61.2224 66.07 59.8348 65.9844L39.9561 65.0821C39.9355 65.0811 39.915 65.0806 39.8943 65.0806C39.8908 65.0805 39.8872 65.0806 39.8835 65.0806C37.9402 65.0806 36.2383 63.8388 35.6474 61.9884C35.4663 61.4209 34.9392 61.0356 34.3435 61.0354L25.909 61.0294C25.9365 58.4409 25.6264 55.8736 25.3244 53.3754C25.2643 52.8787 25.2042 52.3822 25.1469 51.8855C25.1443 51.8508 25.1401 51.816 25.1372 51.7813L25.2668 51.7827C25.2716 51.7828 25.2765 51.7828 25.2813 51.7828H25.2835C26.4415 51.7808 27.5522 51.3668 28.4111 50.617C28.5632 50.4841 28.703 50.3428 28.8324 50.1952L34.0985 50.1866C34.7854 50.1855 35.3654 49.6757 35.4547 48.9947C35.7106 47.0405 37.2961 45.3458 39.3103 44.8737C41.1869 44.3281 46.0382 42.8061 47.5184 42.8872C48.4277 42.9116 49.038 43.8458 49.043 44.7225L49.0256 46.3774C49.0177 47.1338 49.6244 47.7534 50.381 47.7614C50.8493 47.5968 61.1931 46.7719 61.947 46.7025C63.7986 46.5663 63.9609 49.4835 62.0932 49.5446L53.4057 50.0152C51.6458 50.0792 51.7235 52.9433 53.4825 52.9084L64.2441 52.8853H64.2469V52.8852ZM65.05 30.0437C65.049 30.0652 65.0486 30.0867 65.0486 30.1083C65.0519 32.0551 63.8092 33.7607 61.9562 34.3524C61.3888 34.5337 61.0035 35.0608 61.0031 35.6565L60.9971 44.0331L51.782 44.8109L51.7827 44.7418C51.7827 44.7363 51.7827 44.7307 51.7827 44.7251C51.7802 43.2799 51.1471 41.9905 50.1627 41.151L50.1542 35.9013C50.1531 35.2146 49.6434 34.6346 48.9623 34.5453C47.0081 34.2893 45.3134 32.7037 44.8415 30.6896C44.2999 28.8308 42.7701 23.9438 42.8548 22.4816C42.8792 21.5723 43.8132 20.962 44.6901 20.9569L46.3448 20.9743C47.1051 20.9857 47.721 20.3753 47.7291 19.619C47.5622 19.1212 46.7398 8.81069 46.6701 8.05286C46.5302 6.198 49.4585 6.04378 49.5121 7.9067L49.9828 16.5942C50.0466 18.3542 52.911 18.2763 52.876 16.5172L52.8528 5.75571C52.82 3.92642 55.6998 3.92259 55.6726 5.75147L55.6962 16.7058C55.6979 17.4611 56.3106 18.0727 57.0662 18.0727H57.0666C57.8222 18.0724 58.4348 17.4605 58.4359 16.7048C58.44 14.8826 58.4478 10.2773 58.4281 8.5151C58.3981 6.83579 61.0414 6.83251 61.0164 8.51127L61.0391 18.9788V18.9838C61.0407 19.7393 61.6535 20.3508 62.409 20.3507H62.4098C63.1654 20.3503 63.7781 19.7379 63.7789 18.9821L63.7878 10.0413C63.8277 9.45572 64.3285 9.00551 64.9189 9.03203C65.516 9.05951 65.9797 9.56742 65.9524 10.165L65.05 30.0437Z" fill="#681515"/>
<path d="M7.22995 47.8484C6.5115 47.8484 5.90816 47.2887 5.86386 46.5619C5.77486 45.1016 5.81081 43.8122 5.97378 42.62C6.07618 41.8705 6.76771 41.3463 7.51638 41.4482C8.26601 41.5506 8.7906 42.2413 8.6882 42.9909C8.54997 44.0031 8.52058 45.1168 8.59851 46.3954C8.64458 47.1505 8.06968 47.8 7.31458 47.8461C7.28615 47.8476 7.25798 47.8484 7.22995 47.8484Z" fill="white"/>
<path d="M8.62656 40.0361C8.38785 40.0361 8.14627 39.9736 7.92643 39.8426C7.2766 39.4552 7.06387 38.6144 7.45119 37.9645C7.63358 37.6586 7.84904 37.3833 8.09172 37.1468C8.63354 36.6187 9.50074 36.6298 10.0289 37.1713C10.5572 37.713 10.5461 38.5802 10.0046 39.1085C9.93236 39.1789 9.86496 39.266 9.80467 39.3673C9.54819 39.7974 9.09332 40.0361 8.62656 40.0361Z" fill="white"/>
<path d="M30.404 8.85885H27.3424C26.5858 8.85885 25.9727 8.24553 25.9727 7.48906C25.9727 6.7326 26.586 6.11914 27.3424 6.11914H30.404C31.1606 6.11914 31.7739 6.73246 31.7739 7.48906C31.7739 8.24566 31.1606 8.85885 30.404 8.85885Z" fill="white"/>
<path d="M23.6773 8.85885H22.9402C22.1836 8.85885 21.5703 8.24553 21.5703 7.48906C21.5703 6.7326 22.1836 6.11914 22.9402 6.11914H23.6773C24.4339 6.11914 25.0472 6.73246 25.0472 7.48906C25.0472 8.24566 24.4339 8.85885 23.6773 8.85885Z" fill="white"/>
</svg>
