<svg width="61" height="64" viewBox="0 0 61 64" fill="none" xmlns="http://www.w3.org/2000/svg">
<path d="M44.6578 62.0322C44.6578 62.0322 49.1874 59.9068 49.7357 56.0325C50.2841 52.1582 47.2191 50.0448 47.2191 50.0448C47.2191 50.0448 53.4214 48.0594 52.79 39.4613C52.1586 30.8632 46.4116 29.4732 46.4116 29.4732C46.4116 29.4732 48.7578 18.0282 37.3778 22.7383C37.3778 22.7383 40.2428 7.32095 29.2976 12.3472L26.3438 39.9233L44.6578 62.0322Z" fill="#CCF3E2"/>
<path d="M47.0005 50.0105C47.0005 50.0105 53.6874 48.084 53.1417 39.081C53.0436 37.4619 51.7965 35.1521 51.4043 33.9785C51.8674 46.8314 42.4717 51.2906 34.2704 43.1394C33.8302 42.7019 31.7995 46.9839 31.2148 46.8098L44.0674 62.4798C44.0674 62.4798 48.9615 60.3667 49.6094 56.3299C50.2574 52.2931 47.0005 50.0105 47.0005 50.0105Z" fill="#B1B6E1"/>
<path d="M44.3625 62.3222C42.4902 57.2803 39.5349 53.3399 36.1104 50.7599L36.1091 50.7894C37.4965 48.8234 38.5784 46.5857 39.5859 43.0185L41.7215 35.9581C42.4388 33.4182 42.3339 30.8407 41.5659 28.5094C42.3464 28.0637 43.094 27.3766 43.7529 26.4272C45.7596 23.5357 45.0045 18.501 44.104 17.8762C43.2036 17.2513 38.2229 18.3054 36.2162 21.1969C36.1369 21.3111 36.063 21.4252 35.9916 21.5391C35.0492 20.9765 34.0186 20.5263 32.912 20.2137L25.3355 18.0739C24.7697 17.9141 24.2141 17.8036 23.6693 17.7354C23.7884 17.0173 23.7846 16.2132 23.6315 15.3341C23.034 11.9027 19.0016 8.88269 17.9331 9.06871C16.8646 9.25486 14.0903 13.4601 14.6879 16.8914C14.8855 18.0267 15.2751 18.9604 15.7961 19.6879C14.0346 20.8238 12.6827 22.2301 11.8786 23.3469C9.93807 26.042 8.23506 29.9837 8.23506 29.9837C4.48958 31.9333 2.47196 35.4786 2.71961 39.1278C2.9239 42.1388 4.28555 44.6888 6.47942 46.7293C8.40777 48.5229 11.95 49.9709 14.0031 50.3627L14.3183 50.5146C13.1167 54.5037 12.3478 59.6464 12.3535 62.3223" fill="white"/>
<path d="M31.2555 23.1956C31.2676 23.14 31.2771 23.0835 31.2814 23.0247C31.8292 20.879 31.7243 18.8509 30.6669 16.9948C31.3286 14.608 31.2417 12.5734 30.0595 11.0338C30.0718 8.18361 29.7172 5.03501 29.106 1.6773C29.0546 1.17223 28.3391 1.12011 28.2148 1.61225C27.2599 4.19238 26.5289 6.63556 26.4279 8.69337C25.3323 10.07 24.8586 11.6431 25.219 13.4837C24.24 14.914 23.7344 16.5504 23.9554 18.4908C22.6971 19.9264 22.8262 21.6138 22.8225 22.394C22.9668 25.0585 30.7232 25.662 31.2555 23.1956Z" fill="#F6E06E"/>
<path d="M31.2515 23.1949C31.2636 23.1393 31.2731 23.0828 31.2774 23.0239C31.6664 21.5001 31.724 20.036 31.3473 18.6504C31.3039 19.0602 31.229 19.4753 31.1221 19.8958C31.1188 19.946 31.1106 19.9943 31.1006 20.0417C30.6512 22.1476 23.8359 21.5745 23.6896 19.2943C23.6891 19.1655 23.6841 19.0075 23.6841 18.828C22.7133 20.182 22.8219 21.6736 22.8185 22.3933C22.9628 25.0578 30.7192 25.6613 31.2515 23.1949Z" fill="#DDA86A"/>
<path d="M12.1522 20.0591C14.1374 19.5781 15.856 18.3838 17.088 16.7546C17.438 16.2918 17.8632 15.871 18.3622 15.5103C20.7458 13.7872 24.0834 14.0813 26.1269 16.1966C28.5643 18.7195 28.3098 22.7295 25.6638 24.9331C23.3857 26.8305 20.5446 27.0659 18.2061 26.2968C16.8438 25.8488 13.9213 24.0706 11.7189 22.6641C10.6527 21.9832 10.9228 20.3569 12.1522 20.0591Z" fill="#CCF3E2"/>
<path d="M26.1269 16.1965C24.0835 14.0813 20.7458 13.7872 18.3622 15.5103C17.8631 15.871 17.438 16.2918 17.0881 16.7546C15.856 18.3838 14.1375 19.5781 12.1522 20.0591C10.9229 20.3569 10.6528 21.9832 11.7188 22.6641C13.9212 24.0706 16.8437 25.8488 18.206 26.2968C20.5445 27.0659 23.3856 26.8304 25.6637 24.9331C28.3098 22.7295 28.5643 18.7196 26.1269 16.1965ZM24.7945 21.7038C23.4492 23.3623 21.4515 23.9063 19.6626 23.6653C18.6205 23.5249 16.2624 22.6393 14.4752 21.9244C13.6101 21.5783 13.5593 20.3793 14.3943 20.0037C15.7426 19.3971 16.7931 18.3156 17.4302 16.9873C17.6111 16.6099 17.8522 16.2527 18.1551 15.9287C19.6021 14.3811 22.0345 14.1501 23.8144 15.3931C25.9374 16.8752 26.3571 19.7774 24.7945 21.7038Z" fill="#B1B6E1"/>
<path d="M19.2873 20.2346C18.9803 20.2346 18.6725 20.1238 18.4288 19.8995C17.9135 19.4252 17.8804 18.623 18.3546 18.1077C20.1011 16.2105 22.0829 16.1778 22.303 16.1849C22.303 16.1849 23.559 16.0955 23.6413 17.384C23.7217 18.6428 22.2915 18.7208 22.2915 18.7208C22.2475 18.7219 21.2019 18.7593 20.2207 19.8253C19.9705 20.097 19.6294 20.2346 19.2873 20.2346Z" fill="white"/>
<path d="M36.1956 50.7718C37.5764 48.8106 38.6545 46.576 39.6586 43.0207L41.7941 35.9603C42.5114 33.4203 42.4066 30.8429 41.6385 28.5115C42.419 28.0659 43.1667 27.3788 43.8255 26.4294C45.8323 23.5378 45.0771 18.5031 44.1767 17.8782C43.7614 17.5899 42.4772 17.6598 41.0177 18.1017C41.6047 19.0864 41.5109 23.6008 39.5358 26.1433C38.8542 27.0208 38.1304 27.6429 37.4094 28.0326C37.7664 30.2999 37.5276 32.7716 36.5938 35.1685L33.8777 41.8243C33.0063 44.0609 32.1817 45.7343 31.3066 47.1381C30.5904 48.2871 30.6376 49.7528 31.4443 50.8401C32.5474 52.3269 33.5 54.0874 34.2503 56.0923C35.036 58.192 33.4145 60.4091 31.1761 60.2847L12.5858 59.8706C12.4505 61.0573 12.4241 61.5 12.4259 62.3243H44.4349C42.565 57.2887 39.6146 53.352 36.1956 50.7718Z" fill="#E1BDFC"/>
<path d="M26.3124 50.306C30.6266 50.1213 33.656 52.7502 33.8055 56.2436C33.2449 56.1746 28.4019 57.6039 27.9461 57.8093C27.1903 58.1498 28.1658 56.6688 25.8465 56.3359C24.6808 56.1687 20.1305 58.8604 18.8874 55.6739C17.6443 52.4876 21.9981 50.4909 26.3124 50.306Z" fill="white"/>
<path d="M23.3013 50.7402C20.2433 51.5115 17.9402 53.2469 18.8873 55.6748C19.9165 58.313 23.2127 56.9218 24.9782 56.46C24.425 54.5511 23.9379 52.6231 23.3013 50.7402Z" fill="#A1E8C3"/>
<path d="M55.8848 8.44314L56.9264 11.3721C56.9711 11.4975 57.0593 11.5968 57.1708 11.647L59.773 12.8195C60.1406 12.9851 60.1406 13.5708 59.773 13.7365L57.1708 14.909C57.0593 14.9592 56.9711 15.0586 56.9264 15.184L55.8848 18.1129C55.7376 18.5267 55.2173 18.5267 55.0701 18.1129L54.0285 15.184C53.9839 15.0586 53.8956 14.9592 53.7842 14.909L51.182 13.7365C50.8143 13.5709 50.8143 12.9852 51.182 12.8195L53.7842 11.647C53.8956 11.5968 53.9839 11.4975 54.0285 11.3721L55.0701 8.44314C55.2172 8.02937 55.7376 8.02937 55.8848 8.44314Z" fill="#FDE41B"/>
<path d="M7.38433 2.44898L8.15696 4.62156C8.19006 4.71463 8.25549 4.78831 8.33817 4.82559L10.2684 5.69523C10.5412 5.8181 10.5412 6.25254 10.2684 6.37542L8.33817 7.24506C8.25549 7.28234 8.19006 7.35601 8.15696 7.44909L7.38433 9.62179C7.27515 9.92879 6.88915 9.92879 6.77997 9.62179L6.00734 7.44921C5.97424 7.35614 5.90881 7.28246 5.82613 7.24518L3.89588 6.37554C3.62325 6.25267 3.62325 5.81823 3.89588 5.69535L5.82613 4.82572C5.90881 4.78843 5.97424 4.71476 6.00734 4.62168L6.77997 2.44911C6.88915 2.14198 7.27515 2.14198 7.38433 2.44898Z" fill="#FDE41B"/>
<path d="M1.54539 17.2197C2.39889 17.2197 3.09078 16.5278 3.09078 15.6743C3.09078 14.8208 2.39889 14.1289 1.54539 14.1289C0.691895 14.1289 0 14.8208 0 15.6743C0 16.5278 0.691895 17.2197 1.54539 17.2197Z" fill="#FDE41B"/>
<path d="M47.4359 5.24332C47.4359 5.90626 46.8984 6.44367 46.2355 6.44367C45.5726 6.44367 45.0352 5.90626 45.0352 5.24332C45.0352 4.58037 45.5726 4.04297 46.2355 4.04297C46.8984 4.04297 47.4359 4.58037 47.4359 5.24332Z" fill="#FDE41B"/>
<path d="M51.165 48.8427C52.681 47.2241 54.4125 44.2664 54.0528 39.3668C53.5282 32.2251 49.7269 29.5523 47.805 28.6496C47.9644 27.0392 47.9861 23.997 46.2702 22.0528C46.2931 21.639 46.2938 21.2674 46.2846 20.9597C46.2603 20.1413 46.0831 17.4028 44.8255 16.53C43.5682 15.6573 40.9405 16.4493 40.1653 16.7128C39.8208 16.83 39.3968 16.9917 38.9351 17.204C38.7517 14.8965 38.0965 12.4764 36.3526 11.1171C35.0411 10.0951 33.3532 9.8232 31.3175 10.2961C31.2757 7.70528 30.9606 4.81358 30.3556 1.48251C30.2436 0.680962 29.589 0.0639215 28.7757 0.00470293C27.9713 -0.0545157 27.24 0.450935 27.0051 1.21494C25.9028 4.19946 25.333 6.38915 25.1838 8.22924C24.321 9.42604 23.8707 10.722 23.8323 12.0995C23.1816 11.0104 22.3882 10.1532 21.8328 9.62323C21.2454 9.06262 19.2096 7.25271 17.7143 7.51532C16.2158 7.77616 14.9137 10.1653 14.5504 10.8914C13.9567 12.0777 13.0225 14.4235 13.4373 16.8048C13.5455 17.4258 13.7063 18.007 13.9172 18.5458C13.3025 18.892 12.6486 19.1539 11.9714 19.318C11.1018 19.5286 10.4701 20.2078 10.3228 21.0902C10.2309 21.6412 10.3433 22.1785 10.624 22.6216C10.0603 23.4369 9.52561 24.3291 9.04881 25.1882L8.40578 24.9291C8.02992 24.778 7.60614 24.9479 7.43507 25.3088L7.37231 25.2834C6.88854 26.4819 6.80231 27.7361 7.04832 28.8891C3.31019 31.0911 1.17933 34.8733 1.45324 38.9094C1.67312 42.1488 3.07306 44.9898 5.61452 47.3536C7.5208 49.1267 10.6217 50.4664 12.7575 51.0633C11.6968 55.0369 11.079 59.6007 11.0841 62.0207C11.0856 62.7201 11.6529 63.2861 12.352 63.2861H12.3547C13.055 63.2845 13.6216 62.7157 13.6201 62.0155C13.6149 59.5284 14.3283 54.5695 15.5312 50.5761C15.7111 49.9786 15.4296 49.339 14.8676 49.068C14.6884 48.9845 14.4354 48.8421 14.2394 48.8128C12.4817 48.4774 9.10664 47.1383 7.34162 45.4965C5.28799 43.5864 4.15802 41.3124 3.9834 38.7377C3.78102 35.757 5.34809 32.937 8.11197 31.2104C8.68437 31.9545 9.44597 32.5552 10.3653 32.9261C13.0142 33.9952 16.0435 32.7913 17.4776 30.2245L18.8862 30.7919C18.1905 33.6574 19.8833 36.7677 22.9535 38.007C26.2988 39.3572 30.0107 37.9745 31.244 34.9187L31.1749 34.8908C31.3125 34.5079 31.1245 34.0818 30.744 33.9283L11.4207 26.1438C11.8038 25.4659 12.2199 24.7789 12.6501 24.1493C15.1927 25.7284 16.9797 26.6934 17.9666 27.018C18.8814 27.3188 19.8161 27.4663 20.7382 27.4662C22.703 27.4662 24.611 26.797 26.1489 25.5161C26.1903 25.4816 26.2296 25.4451 26.27 25.4097C26.4818 25.4399 26.6928 25.4654 26.8997 25.4819C27.1613 25.5027 27.4304 25.5137 27.7022 25.5137C29.5944 25.5137 31.6046 24.9739 31.9826 23.4037C31.9848 23.3961 31.9866 23.3883 31.9885 23.3807C31.9905 23.372 31.9932 23.3636 31.9951 23.3547C31.996 23.3508 31.9962 23.347 31.997 23.343C31.9996 23.3294 32.0019 23.3155 32.004 23.3017C32.0136 23.2515 32.0235 23.2013 32.0289 23.1544C32.2084 22.4374 32.3144 21.7416 32.3477 21.0683L32.5658 21.1299C33.5414 21.4054 34.4748 21.807 35.34 22.3237C35.932 22.6768 36.6981 22.4928 37.0644 21.9087C37.1366 21.7935 37.1978 21.7001 37.2565 21.6156C38.7218 19.5042 42.2415 18.5714 43.3469 18.6606C43.817 19.6634 44.1748 23.2887 42.7097 25.4C42.1826 26.1593 41.5857 26.7327 40.9356 27.104C40.412 27.4029 40.1714 28.0293 40.36 28.6018C41.0754 30.773 41.1246 33.0885 40.5028 35.2986L38.3709 42.3472C38.3686 42.3548 38.3665 42.3621 38.3643 42.3697C37.4937 45.4524 36.5406 47.6231 35.1964 49.575C34.9845 49.7946 34.8552 50.0874 34.842 50.4025L34.8407 50.4321C34.8196 50.9394 35.1022 51.4047 35.5493 51.6236C38.8554 54.1837 41.4883 57.9244 43.1723 62.4593C43.362 62.9702 43.8461 63.2862 44.3611 63.2862C44.3938 63.2862 44.4268 63.2844 44.4598 63.2819C44.5248 63.2922 44.5906 63.2986 44.6569 63.2986C44.8373 63.2986 45.0206 63.2599 45.1947 63.1783C45.405 63.0796 50.3525 60.7099 50.9895 56.2082C51.3681 53.5331 50.3242 51.5659 49.355 50.3677C49.9113 50.0032 50.5433 49.5063 51.165 48.8427ZM27.6814 8.84514C27.6843 8.82054 27.6872 8.79594 27.6887 8.77134C27.6891 8.76563 27.6901 8.76006 27.6904 8.75422C27.7454 7.63313 28.0211 6.36329 28.3693 5.14277C28.5837 6.75005 28.7145 8.23723 28.7643 9.62678L27.6792 8.86518C27.6802 8.85858 27.6805 8.85186 27.6814 8.84514ZM26.9288 10.1975L28.9187 11.5943C28.9212 11.5991 28.9241 11.6037 28.9266 11.6085C28.9368 11.6283 28.9475 11.6476 28.9587 11.6667C28.9683 11.6833 28.978 11.6999 28.9885 11.7163C29.001 11.7359 29.0145 11.7548 29.0282 11.7737C29.0357 11.7841 29.042 11.7949 29.0497 11.8051C29.6902 12.6391 29.7753 13.711 29.3167 15.4145L26.4808 13.4374C26.4784 13.3716 26.4724 13.3053 26.4593 13.2387C26.2411 12.1245 26.391 11.1403 26.9288 10.1975ZM18.1593 10.072C18.9599 10.3724 20.8029 11.828 21.7884 13.6306C20.4326 13.6403 19.0737 14.0541 17.9147 14.892C17.3658 15.2888 16.8828 15.7605 16.4794 16.294C16.3378 16.4813 16.1892 16.6617 16.0345 16.8352C15.9976 16.6841 15.9637 16.5299 15.9358 16.3697C15.5021 13.8791 17.3207 10.7839 18.1593 10.072ZM25.1752 24.347C23.3211 25.8911 20.8039 26.3491 18.442 25.5726C17.4391 25.2426 15.1961 23.9814 12.1265 22.0212C11.7772 21.798 11.8063 21.4439 11.8235 21.3407C11.8407 21.2377 11.9278 20.8942 12.3295 20.7969C14.4239 20.2894 16.3286 19.0162 17.6931 17.212C18.0053 16.7991 18.3797 16.4335 18.8059 16.1254C19.7131 15.4695 20.7787 15.1489 21.8397 15.1489C23.2104 15.1489 24.5739 15.6843 25.5779 16.7238C26.6002 17.7821 27.1197 19.169 27.0407 20.6291C26.9629 22.0693 26.2828 23.4245 25.1752 24.347ZM27.4966 23.9893C27.8518 23.4369 28.1243 22.8339 28.3064 22.2013L30.206 23.4255C29.7307 23.7706 28.744 24.0206 27.4966 23.9893ZM30.7254 21.9502L28.5647 20.5577C28.6233 18.7272 27.9562 16.9952 26.6725 15.6663C26.3178 15.2992 25.9284 14.9812 25.5137 14.7122C25.5463 14.704 25.5794 14.6965 25.611 14.6861L30.1218 17.8306C30.171 17.8649 30.2233 17.8904 30.2766 17.9117C30.8239 19.1209 30.9719 20.4533 30.7254 21.9502ZM35.6202 19.5934C34.8625 19.2225 34.0709 18.9198 33.2553 18.6894L32.052 18.3495C31.9138 17.8639 31.729 17.3939 31.4976 16.9407C31.5201 16.8922 31.5405 16.8422 31.557 16.7898C31.9403 15.5726 32.2775 14.1375 32.0817 12.7215C33.2387 12.4851 34.1474 12.6147 34.7923 13.1169C36.0879 14.1252 36.44 16.5623 36.4396 18.7775C36.1527 19.0254 35.8764 19.2964 35.6202 19.5934ZM46.8307 48.8356C46.3702 48.9829 46.0303 49.3769 45.9594 49.8552C45.8886 50.3335 46.0925 50.8079 46.4904 51.0823C46.5892 51.1526 48.9055 52.8349 48.4784 55.8532C48.1735 58.007 46.2462 59.5672 45.057 60.3388C43.3345 56.2316 40.8611 52.7627 37.8195 50.1988C39.051 48.2236 39.968 46.0191 40.8017 43.0705L42.9338 36.0213C42.9362 36.0137 42.9382 36.0063 42.9404 35.9987C43.6152 33.6094 43.6468 31.1181 43.0397 28.7364C43.6829 28.2323 44.2703 27.5997 44.7933 26.8462C44.9723 26.5882 45.1303 26.321 45.2703 26.0487C45.4334 27.2909 45.2962 28.578 45.1676 29.2171C45.0304 29.8861 45.4366 30.5408 46.1005 30.7015C46.2992 30.7535 50.9734 32.0615 51.5236 39.5527C52.0694 46.9867 47.0367 48.7662 46.8307 48.8356Z" fill="#681515"/>
<path d="M32.6944 51.3663C30.822 49.7679 28.5329 48.9418 26.2584 49.0389C23.291 49.1661 19.5763 50.1353 18.0503 52.4749C17.325 53.5867 17.2061 54.8523 17.7063 56.1346C18.2856 57.6194 19.5231 58.4615 21.1908 58.5055C22.3929 58.5371 23.6247 58.1733 24.6151 57.8809C24.9981 57.7678 25.5166 57.6146 25.7108 57.5976C26.4637 57.7177 26.6264 58.0714 26.7007 58.9816C26.7178 59.1909 26.734 59.3888 26.8026 59.5947C26.9797 60.1261 27.4746 60.4623 28.0055 60.4623C28.1383 60.4623 28.2735 60.4412 28.4065 60.3969C29.0362 60.1871 29.3916 59.5313 29.2388 58.8978C29.235 58.8628 29.2323 58.8213 29.2284 58.775C29.1945 58.3572 29.1308 57.5795 28.7201 56.8313C28.3493 56.1557 27.5812 55.3036 26.0272 55.0805C25.8576 55.056 25.6829 55.0562 25.5008 55.0719L24.4612 51.7868C25.0722 51.675 25.714 51.6008 26.3669 51.5728C29.9176 51.4197 33.0222 54.4585 33.3256 57.1731C33.4033 57.8691 34.0316 58.3701 34.7266 58.2925C35.4226 58.2148 35.9238 57.5876 35.8461 56.8914C35.6235 54.9001 34.4748 52.8864 32.6944 51.3663ZM23.897 55.4488C21.3295 56.2068 20.4352 56.1518 20.069 55.213C19.8679 54.6977 19.9003 54.2805 20.1742 53.8606C20.6212 53.1754 21.6559 52.5691 22.9801 52.1511L24.0129 55.4148C23.9741 55.4261 23.9371 55.4368 23.897 55.4488Z" fill="#681515"/>
<path d="M9.06089 30.3786C8.70178 30.3786 8.38222 30.1232 8.31388 29.7575C8.23665 29.3444 8.5089 28.947 8.92191 28.8699L14.1004 27.902C14.5148 27.824 14.911 28.097 14.9881 28.51C15.0653 28.9231 14.793 29.3206 14.38 29.3977L9.20152 30.3656C9.15422 30.3744 9.10718 30.3786 9.06089 30.3786Z" fill="white"/>
<path d="M20.8695 35.1969C20.5104 35.1969 20.1908 34.9415 20.1225 34.5758C20.0452 34.1627 20.3175 33.7652 20.7305 33.6881L25.909 32.7202C26.3236 32.6426 26.7196 32.9153 26.7967 33.3283C26.8739 33.7414 26.6016 34.1388 26.1886 34.2159L21.0101 35.1838C20.9628 35.1927 20.9158 35.1969 20.8695 35.1969Z" fill="white"/>
<path d="M17.5364 39.5154C17.2724 39.5154 17.016 39.3779 16.8753 39.1324C16.7284 38.8757 16.4593 38.7191 16.1582 38.7272C15.9117 38.733 15.6846 38.8493 15.5354 39.0463C15.2818 39.3815 14.8043 39.4473 14.4696 39.1936C14.1345 38.9398 14.0686 38.4627 14.3223 38.1278C14.7535 37.5585 15.4097 37.2225 16.1231 37.206C16.9754 37.1818 17.7712 37.6347 18.196 38.3763C18.4048 38.741 18.2785 39.2059 17.9138 39.4147C17.7946 39.4829 17.6646 39.5154 17.5364 39.5154Z" fill="#681515"/>
</svg>
