<svg width="134" height="134" viewBox="0 0 134 134" fill="none" xmlns="http://www.w3.org/2000/svg">
<circle cx="67" cy="67" r="67" fill="white"/>
<path d="M90.8286 40.3457H73.6107C72.8186 40.3457 72.1758 41.0567 72.1758 41.9328C72.1758 42.8088 72.8186 43.5198 73.6107 43.5198H90.8286C91.6206 43.5198 92.2635 42.8088 92.2635 41.9328C92.2635 41.0567 91.6206 40.3457 90.8286 40.3457Z" fill="#2C2C2C"/>
<path d="M91.8431 40.8123L86.1038 34.4642C85.5442 33.8453 84.6344 33.8453 84.0749 34.4642C83.5153 35.0831 83.5153 36.0893 84.0749 36.7083L88.7984 41.9328L84.072 47.1604C83.5124 47.7793 83.5124 48.7855 84.072 49.4044C84.3533 49.7123 84.7205 49.8679 85.0879 49.8679C85.4553 49.8679 85.8225 49.7124 86.1038 49.4044L91.8431 43.0564C92.4027 42.4373 92.4027 41.4312 91.8431 40.8123Z" fill="#2C2C2C"/>
<path d="M53.5239 40.3457H36.306C35.5139 40.3457 34.8711 41.0567 34.8711 41.9328C34.8711 42.8088 35.5139 43.5198 36.306 43.5198H53.5239C54.3159 43.5198 54.9588 42.8088 54.9588 41.9328C54.9588 41.0567 54.3159 40.3457 53.5239 40.3457Z" fill="#2C2C2C"/>
<path d="M38.3315 41.9328L43.055 36.7083C43.6146 36.0893 43.6146 35.0831 43.055 34.4642C42.4954 33.8453 41.5857 33.8453 41.0261 34.4642L35.2869 40.8124C34.7273 41.4314 34.7273 42.4376 35.2869 43.0565L41.0262 49.4046C41.3075 49.7124 41.6747 49.868 42.0421 49.868C42.4095 49.868 42.7767 49.7126 43.0551 49.4015C43.6147 48.7825 43.6147 47.7763 43.0551 47.1574L38.3315 41.9328Z" fill="#2C2C2C"/>
<path d="M89.3922 65.7376C88.2128 65.7376 87.1137 66.1344 86.2011 66.8105C85.4149 64.3411 83.2827 62.5636 80.7833 62.5636C79.6038 62.5636 78.5047 62.9604 77.5922 63.6365C76.8059 61.1672 74.6737 59.3897 72.1743 59.3897C71.1298 59.3897 70.1484 59.7008 69.3047 60.2435V49.8676C69.3047 46.3666 66.7306 43.5195 63.5653 43.5195C60.4001 43.5195 57.826 46.3666 57.826 49.8676V76.8467L52.8386 72.711C49.8829 70.2574 45.6759 70.5845 43.0559 73.4792C41.3772 75.336 41.3772 78.3545 43.0559 80.2113L63.4908 102.817C65.93 105.514 69.1755 107 72.6249 107H79.3485C88.0494 107 95.1316 99.1697 95.1316 89.5429V72.0857C95.1316 68.5847 92.5575 65.7376 89.3922 65.7376ZM92.262 89.5427C92.262 97.4174 86.4681 103.826 79.3485 103.826H72.6249C69.9389 103.826 67.4165 102.671 65.5197 100.572L45.0848 77.9672C44.5252 77.3482 44.5252 76.342 45.0848 75.7231C45.9744 74.7423 47.1624 74.2377 48.3562 74.2377C49.3262 74.2377 50.3019 74.5709 51.1197 75.2501L58.4001 81.2902C58.8363 81.6521 59.4217 81.7061 59.9038 81.4395C60.3888 81.1697 60.6959 80.6206 60.6959 80.0207V49.8676C60.6959 48.1187 61.9814 46.6936 63.5655 46.6936C65.1495 46.6936 66.4351 48.1188 66.4351 49.8676V73.6727C66.4351 74.5488 67.0779 75.2598 67.8699 75.2598C68.662 75.2598 69.3048 74.5488 69.3048 73.6727V65.7377C69.3048 63.9888 70.5904 62.5638 72.1744 62.5638C73.7585 62.5638 75.044 63.989 75.044 65.7377V73.6727C75.044 74.5488 75.6869 75.2598 76.4789 75.2598C77.2709 75.2598 77.9138 74.5488 77.9138 73.6727V68.9117C77.9138 67.1628 79.1993 65.7377 80.7834 65.7377C82.3675 65.7377 83.653 67.1629 83.653 68.9117V73.6727C83.653 74.5488 84.2959 75.2598 85.0879 75.2598C85.8799 75.2598 86.5228 74.5488 86.5228 73.6727V72.0857C86.5228 70.3367 87.8083 68.9117 89.3924 68.9117C90.9764 68.9117 92.262 70.3369 92.262 72.0857V89.5427Z" fill="#2C2C2C"/>
</svg>
