<svg width="44" height="44" viewBox="0 0 44 44" fill="none" xmlns="http://www.w3.org/2000/svg">
<g clip-path="url(#clip0)">
<path d="M36.13 43.2467C26.7195 44.2511 17.2805 44.2511 7.87 43.2467C4.11761 42.8462 1.15378 39.8824 0.753296 36.1297C-0.251099 26.7192 -0.251099 17.2805 0.753296 7.87C1.15378 4.11761 4.11761 1.15378 7.87 0.753296C17.2805 -0.251099 26.7192 -0.251099 36.1297 0.753296C39.8824 1.15378 42.8462 4.11761 43.2467 7.87C44.2511 17.2805 44.2511 26.7192 43.2467 36.1297C42.8462 39.8824 39.8827 42.8462 36.13 43.2467Z" fill="url(#paint0_linear)"/>
<path d="M40.8522 9.46016C40.497 6.13042 37.8672 3.50026 34.5371 3.14476C26.1864 2.25383 17.8109 2.25383 9.46016 3.14476C6.13042 3.50026 3.50026 6.13042 3.14476 9.46016C2.25383 17.8109 2.25383 26.1864 3.14476 34.5368C3.50026 37.8669 6.13042 40.497 9.46016 40.8522C17.8109 41.7435 26.1864 41.7435 34.5368 40.8522C37.8669 40.497 40.497 37.8669 40.8522 34.5368C41.7435 26.1864 41.7435 17.8109 40.8522 9.46016V9.46016Z" fill="url(#paint1_linear)"/>
<path d="M0.660156 35.2188C0.690369 35.5229 0.721588 35.827 0.75415 36.1312C1.15463 39.8835 4.11847 42.8474 7.87118 43.2479C17.2817 44.2523 26.7204 44.2523 36.1309 43.2479C39.8836 42.8474 42.8471 39.8835 43.2476 36.1312C43.2801 35.827 43.3113 35.5229 43.3419 35.2188H0.660156Z" fill="url(#paint2_linear)"/>
<path d="M43.9904 20.4526L34.8572 11.3198C33.8337 11.9049 32.9317 12.2295 32.2522 12.4094C31.8702 12.5118 31.5583 12.5675 31.3341 12.5981C30.3042 11.5423 28.8661 10.8867 27.2742 10.8867C24.1422 10.8867 21.6027 13.4259 21.6027 16.5586C21.6027 16.6717 21.6057 16.7835 21.6131 16.895C21.6282 17.1665 21.6628 17.4334 21.7162 17.6929C20.4086 17.6734 16.1588 17.3243 12.1056 13.8499C12.1053 13.8499 12.1053 13.8495 12.1053 13.8495H12.1049L10.1935 11.9378C10.1935 11.9378 7.95105 15.8516 11.2479 18.8215C11.3926 18.983 11.5517 19.1424 11.7259 19.2992C11.7397 19.3146 11.7541 19.3297 11.7679 19.3452C11.3352 19.316 10.0337 19.1864 9.2804 18.6543C9.2804 18.6543 9.129 21.0465 11.122 22.8075L12.7313 24.4306C12.2412 24.4712 11.6991 24.4615 11.3221 24.2963C11.3221 24.2963 11.6558 25.7133 12.9455 26.8473L15.2 29.1135C13.8475 29.9014 11.4799 30.8873 8.36328 30.6356L22.0398 43.9988C26.7388 43.9975 31.4378 43.7464 36.1298 43.2455C39.8825 42.8451 42.8464 39.8812 43.2469 36.1288C43.8038 30.9088 44.0512 25.6801 43.9904 20.4526V20.4526Z" fill="url(#paint3_linear)"/>
<path d="M35.637 13.5226C34.6635 14.0318 33.1972 14.2672 32.7111 14.335C32.7071 14.3115 32.7031 14.289 32.699 14.2665C34.3517 13.2443 34.8575 11.3198 34.8575 11.3198C33.834 11.9049 32.932 12.2295 32.2526 12.4094C31.8705 12.5118 31.5587 12.5672 31.3344 12.5981C30.3045 11.542 28.8664 10.8867 27.2746 10.8867C24.1425 10.8867 21.603 13.4256 21.603 16.5586C21.603 16.6714 21.606 16.7835 21.6134 16.8946C21.6285 17.1662 21.6631 17.4331 21.7165 17.6926C20.2005 17.6701 14.7284 17.2051 10.1938 11.9378C10.1938 11.9378 7.66873 16.3434 11.9139 19.3529C11.9139 19.3529 10.1938 19.2992 9.28073 18.6543C9.28073 18.6543 9.01218 22.8995 13.9016 24.2423C13.9016 24.2423 12.1825 24.6726 11.3221 24.2963C11.3221 24.2963 12.1821 27.95 16.4807 28.2192C16.4807 28.2192 13.3977 31.0418 8.36328 30.6356C10.8394 32.2033 13.775 33.1106 16.9225 33.1106C25.7723 33.1106 32.9468 25.9365 32.9468 17.0866C32.9468 16.9762 32.9458 16.8658 32.9434 16.7553C32.9458 16.6899 32.9468 16.6247 32.9468 16.5586C32.9468 16.5126 32.9458 16.4666 32.9451 16.4206C34.5813 15.3303 35.637 13.5226 35.637 13.5226V13.5226Z" fill="white"/>
</g>
<defs>
<linearGradient id="paint0_linear" x1="14.6089" y1="6.18632" x2="25.7377" y2="29.9969" gradientUnits="userSpaceOnUse">
<stop stop-color="#00C3FF"/>
<stop offset="1" stop-color="#00B0ED"/>
</linearGradient>
<linearGradient id="paint1_linear" x1="31.3042" y1="26.9905" x2="-32.6221" y2="-7.30193" gradientUnits="userSpaceOnUse">
<stop stop-color="#00B0ED" stop-opacity="0"/>
<stop offset="1" stop-color="#00A2CE"/>
</linearGradient>
<linearGradient id="paint2_linear" x1="22.0009" y1="37.5888" x2="22.0009" y2="43.3542" gradientUnits="userSpaceOnUse">
<stop stop-color="#00B0ED" stop-opacity="0"/>
<stop offset="1" stop-color="#00A2CE"/>
</linearGradient>
<linearGradient id="paint3_linear" x1="42.0594" y1="41.4269" x2="20.5641" y2="19.9316" gradientUnits="userSpaceOnUse">
<stop stop-color="#00B0ED" stop-opacity="0"/>
<stop offset="1" stop-color="#00A2CE"/>
</linearGradient>
<clipPath id="clip0">
<rect width="44" height="44" rx="22" fill="white"/>
</clipPath>
</defs>
</svg>
