<svg width="20" height="20" viewBox="0 0 20 20" fill="none" xmlns="http://www.w3.org/2000/svg">
<g clip-path="url(#clip0)">
<path d="M12.4565 5.06318L13.8545 1.568C13.9992 1.20651 13.9552 0.798189 13.7369 0.47577C13.5187 0.153504 13.1558 -0.0390625 12.7664 -0.0390625H12.2727C12.2725 -0.0390625 12.2724 -0.0390625 12.2722 -0.0390625H7.26197C6.87271 -0.0390625 6.50986 0.153504 6.29166 0.47577C6.0733 0.798189 6.02936 1.20651 6.17401 1.568L7.50641 4.8993C7.50702 4.90068 7.50763 4.90205 7.50809 4.90342L7.57202 5.06318L4.92264 14.925C4.80545 15.3609 4.95193 15.83 5.29571 16.1222L9.2511 19.6776C9.25446 19.6807 9.25782 19.6836 9.26118 19.6865C9.47938 19.8694 9.74671 19.961 10.0142 19.961C10.2817 19.961 10.5492 19.8694 10.7672 19.6865C10.7707 19.6836 10.7741 19.6807 10.7774 19.6776L14.7328 16.1222C15.0766 15.83 15.2229 15.3609 15.1059 14.925L12.4565 5.06318ZM8.28263 5.42955H11.0614L7.26181 9.22899L8.28263 5.42955ZM13.0899 0.913851C13.1638 1.0228 13.1781 1.15555 13.1291 1.27793L11.781 4.64829H8.52814L12.4342 0.742189H12.7664C12.8983 0.742189 13.0161 0.80475 13.0899 0.913851ZM6.93863 0.913851C7.01233 0.80475 7.13028 0.742189 7.26197 0.742189H11.3294L8.01209 4.05961L6.89942 1.27793C6.85044 1.15555 6.86463 1.0228 6.93863 0.913851ZM5.67718 15.1276L6.85593 10.7398L11.8349 5.76081L12.5368 8.37343L10.1135 10.7965C9.9611 10.9491 9.9611 11.1965 10.1135 11.3491C10.1898 11.4253 10.2898 11.4635 10.3899 11.4635C10.4898 11.4635 10.5898 11.4253 10.6661 11.3491L12.7707 9.24425L13.4726 11.8569L7.90879 17.4207L6.16348 15.8516L8.45643 13.5587C8.60886 13.4062 8.60886 13.1589 8.45643 13.0063C8.30384 12.8537 8.05649 12.8537 7.9039 13.0063L5.66467 15.2455C5.66299 15.2063 5.66666 15.1667 5.67718 15.1276ZM14.2252 15.5283C14.2218 15.531 14.2183 15.5341 14.2151 15.5371L10.2609 19.0914C10.117 19.2087 9.91135 19.2087 9.76746 19.0914L8.49061 17.9436L13.7065 12.7277L14.3514 15.1276C14.3906 15.2738 14.3411 15.4309 14.2252 15.5283Z" fill="#212121"/>
<path d="M9.28516 12.5684C9.38785 12.5684 9.48871 12.5266 9.56134 12.4539C9.63397 12.381 9.67578 12.2806 9.67578 12.1777C9.67578 12.0747 9.63397 11.9743 9.56134 11.9017C9.48871 11.8286 9.38785 11.7871 9.28516 11.7871C9.18246 11.7871 9.0816 11.8286 9.00897 11.9017C8.93634 11.9743 8.89453 12.0747 8.89453 12.1777C8.89453 12.2806 8.93634 12.381 9.00897 12.4539C9.0816 12.5266 9.18246 12.5684 9.28516 12.5684Z" fill="#212121"/>
</g>
<defs>
<clipPath id="clip0">
<rect width="20" height="20" fill="white"/>
</clipPath>
</defs>
</svg>
