<svg width="139" height="347" viewBox="0 0 139 347" fill="none" xmlns="http://www.w3.org/2000/svg">
<g clip-path="url(#clip0)">
<path d="M13.648 144.783L24.1402 156.8L30.0295 152.823L29.1667 150.477L24.1368 146.36L17.2861 139.61L14.0768 138.126L11.9708 141.671L13.648 144.783Z" fill="#7B65F3"/>
<path d="M44.0093 139.266L38.5989 143.386L31.7967 138.216L27.3408 132.183L25.4716 127.969L26.6197 124.138L30.4514 125.286L36.0087 131.127L41.7096 136.489L44.0093 139.266Z" fill="#7B65F3"/>
<path d="M38.3983 116.184L51.3337 130.499L57.0311 125.421L55.8813 124.032L43.0427 112.878L40.9349 111.202L38.4934 114.124L38.3983 116.184Z" fill="#7B65F3"/>
<path d="M51.8991 102.482L64.691 117.277L69.7659 112.534L69.7175 110.953L60.1366 102.863L56.0645 99.0328L54.1487 98.4588L52.4732 100.567L51.8991 102.482Z" fill="#7B65F3"/>
<path d="M68.3221 91.2225L78.4788 102.617L84.6552 97.6824L69.2299 84.7089L67.027 85.0928L65.1596 86.0991L66.0224 88.4455L68.3221 91.2225Z" fill="#7B65F3"/>
<path d="M81.2004 77.8565L92.1716 90.0172L97.39 84.7954L84.024 71.917L81.6292 71.1995L78.7088 73.9781L81.2004 77.8565Z" fill="#7B65F3"/>
<path d="M95.0851 66.358L104.906 77.1302L110.604 72.0519L98.2441 61.041L94.6995 58.9349L93.2626 58.5044L91.3001 61.5701L95.0851 66.358Z" fill="#7B65F3"/>
<path d="M105.664 50.2151L118.599 64.5303L119.078 64.6738L123.003 58.5424L108.2 45.2335L104.465 47.2462L105.664 50.2151Z" fill="#7B65F3"/>
<path d="M116.531 38.3344L129.754 51.6917L132.243 50.3499L134.972 46.4698L133.822 45.0813L129.463 42.2093L122.612 35.4589L119.403 33.9753L117.966 33.5448L117.105 36.4186L116.531 38.3344Z" fill="#7B65F3"/>
<path d="M131.661 26.165L142.153 38.1822L147.612 35.6422L148.186 33.7263L134.341 20.7045L132.425 20.1304L129.648 22.4301L131.661 26.165Z" fill="#7B65F3"/>
<path d="M14.8138 148.047C13.4821 146.481 12.3599 145.326 11.447 144.027C9.98129 141.959 10.0649 140.736 11.5302 138.986C13.6821 136.416 14.9381 136.215 17.0486 138.124C18.0033 138.995 18.8576 139.967 19.8207 140.813C21.4203 142.211 22.1405 142.178 24.0496 140.453C25.54 139.097 26.9299 137.606 28.6465 135.89C27.7587 134.7 26.9463 133.603 26.1339 132.506C25.489 131.644 24.7269 130.865 24.2243 129.91C23.0685 127.733 24.8099 124.3 27.4393 123.714C28.2097 123.546 29.2147 123.982 29.7925 124.493C31.4675 125.967 32.9834 127.616 34.7756 129.409C37.2541 126.93 39.4646 124.72 41.9933 122.191C40.7286 120.541 39.2798 118.858 38.0402 116.999C36.5159 114.721 36.9093 113.222 39.3376 111.179C41.0457 109.739 41.8413 109.647 43.2901 110.978C44.94 112.494 46.4726 114.127 48.2564 115.911C50.6344 113.533 52.7445 111.423 55.156 109.012C54.4859 108.04 53.7992 107.002 53.0538 106.005C52.4089 105.143 51.5798 104.431 51.0605 103.493C49.7622 101.156 51.0264 98.1668 53.8233 97.1454C54.5601 96.8775 55.6572 97.1707 56.2518 97.6146C57.4661 98.494 58.4209 99.6832 59.5347 100.697C61.3018 102.313 62.022 102.313 63.9981 100.504C65.7649 98.8885 67.3976 97.1385 69.3318 95.2043C68.5362 94.0569 67.841 93.0101 67.0956 92.0135C66.4507 91.1509 65.6132 90.4306 65.094 89.5094C63.7706 87.1646 64.9929 84.217 67.8065 83.1454C68.5434 82.8608 69.6572 83.1373 70.2518 83.5811C71.5415 84.5359 72.5716 85.8173 73.7776 86.8725C75.3688 88.2795 76.0973 88.2377 77.9981 86.5212C79.4885 85.1648 80.8785 83.6744 82.6033 81.9495C81.7156 80.7603 80.9032 79.6632 80.0991 78.5745C79.4543 77.7119 78.6921 76.933 78.1896 75.9783C77.0338 73.8009 78.7668 70.3426 81.3962 69.7902C82.242 69.6144 83.3139 70.2007 83.9839 70.7702C85.5919 72.1605 87.024 73.7433 88.7325 75.4518C90.9263 73.2581 92.8605 71.3238 95.0877 69.0966C94.4093 68.1167 93.7058 67.0783 92.9688 66.0733C92.2737 65.127 91.4027 64.2895 90.8582 63.2427C89.8364 61.283 90.121 60.3452 91.9631 58.5366C93.9811 56.5521 94.8603 56.4433 96.7112 58.0932C97.758 59.0229 98.6709 60.0865 99.7261 61.0077C101.225 62.3226 101.971 62.3311 103.67 60.8155C105.261 59.3921 106.718 57.8012 108.51 56.0093C107.12 54.2171 105.746 52.5924 104.54 50.8505C102.806 48.3464 103.292 46.5879 106.047 44.5198C107.361 43.5235 108.475 43.4147 109.48 44.4197C111.063 46.0193 112.663 47.6022 114.338 49.2772C116.867 48.172 118.399 46.1875 120.283 44.0021C118.976 42.3104 117.603 40.7025 116.388 38.9521C114.763 36.6072 115.04 35.2088 117.359 33.1239C119.168 31.4995 120.055 31.3824 121.588 32.7978C123.162 34.255 124.628 35.8043 126.202 37.3788C129.326 35.9304 131.076 33.2593 133.571 30.9316C132.7 29.7256 131.98 28.6872 131.218 27.6906C130.573 26.828 129.769 26.091 129.249 25.153C128.11 23.0594 128.395 22.021 130.329 20.1538C132.28 18.2699 133.134 18.136 134.826 19.61C135.965 20.5982 136.945 21.7456 138.084 22.7338C139.566 24.0152 140.286 23.9818 142.045 22.4412C144.054 20.6996 145.938 18.7988 147.965 17.0572C150.644 14.7463 151.473 14.4868 153.885 16.1953C158.097 19.1853 162.352 22.1837 166.137 25.6677C176.338 35.0477 186.346 44.6202 196.345 54.218C205.022 62.5427 213.732 70.8339 222.115 79.4517C226.939 84.4096 232.156 88.7898 238.094 92.4331C241.519 94.5354 244.233 97.3493 246.268 100.959C247.792 103.655 249.987 105.984 252.248 108.094C259.995 115.372 268.093 122.298 275.706 129.71C283.31 137.13 290.488 144.994 297.883 152.64C302.204 157.113 306.568 161.56 310.931 165.99C313.644 168.737 316.391 171.451 319.138 174.164C325.47 180.445 332.128 186.366 339.59 191.366C341.013 192.321 342.487 193.226 344.011 194.03C345.762 194.96 346.021 196.023 344.715 197.899C344.43 198.317 344.096 198.719 343.719 199.046C334.232 207.36 326.11 217.006 317.285 225.966C312.838 230.479 307.923 234.54 303.427 239.019C293.245 249.168 282.779 258.964 271.943 268.392C269.264 270.72 266.66 273.207 264.357 275.895C259.35 281.756 253.589 286.68 247.427 291.151C243.298 294.14 239.673 297.648 236.24 301.433C229.483 308.86 222.659 316.22 215.684 323.446C213.423 325.791 210.735 327.825 208.039 329.651C205.485 331.367 203.115 333.167 201.273 335.662C200.67 336.466 200.017 337.253 199.322 337.999C197.112 340.36 195.747 340.485 193.653 338.626C190.764 336.072 187.766 333.626 184.952 330.996C183.151 329.313 181.258 327.621 180.002 325.511C176.769 320.118 172.113 316.215 167.473 312.195C161.963 307.404 156.511 302.522 151.46 297.271C144.811 290.37 137.776 283.938 130.356 277.874C127.533 275.571 125.08 272.832 122.45 270.286C114.745 262.816 107.032 255.337 99.3351 247.858C96.1694 244.793 93.1628 241.569 89.8296 238.688C77.0413 227.641 65.0735 215.774 53.9096 203.102C46.7322 194.954 39.3705 186.989 31.4898 179.51C25.3342 173.673 19.5136 167.484 13.6009 161.404C12.2525 160.022 11.1135 158.448 9.93259 156.915C8.93595 155.65 9.06141 154.269 10.4179 152.828C11.7994 151.363 13.1475 149.864 14.8138 148.047ZM333.117 196.767C331.015 193.375 305.253 166.04 302.439 164.532C305.597 169.532 308.369 173.928 311.133 178.317C309.977 178.049 309.199 177.454 308.654 176.692C306.979 174.313 305.371 171.885 303.771 169.448C301.468 165.922 299.617 161.994 296.837 158.913C289.433 150.688 281.695 142.782 273.99 134.843C265.824 126.443 257.525 118.194 249.342 109.81C247.399 107.817 245.439 105.757 243.957 103.404C241.955 100.23 239.376 97.7173 236.302 95.6653C230.088 91.5111 224.343 86.8881 219.653 81.0257C217.451 78.2705 214.863 75.7998 212.174 73.4967C207.041 69.083 201.647 64.9624 196.514 60.5655C191.137 55.9425 185.903 51.1603 180.66 46.3866C177.804 43.7819 175.007 41.1187 172.252 38.3969C166.825 33.0536 161.481 27.61 156.004 22.317C154.564 20.9267 152.755 19.9217 150.963 18.6319C147.965 21.462 145.327 24.0661 142.857 26.7539C143.661 28.2445 144.39 28.9229 145.931 28.8226C147.815 28.6972 151.006 32.2565 150.688 34.0485C150.562 34.777 149.985 35.5893 149.407 36.1838C148.536 37.0881 147.473 37.8165 146.518 38.6538C143.144 41.5927 142.75 41.5173 140.464 38.5778C139.124 36.8526 138.219 34.5915 135.749 34.0135C133.613 36.1486 131.579 38.1833 129.058 40.7036C130.457 41.2481 131.428 41.8679 132.534 42.002C134.46 42.2534 137.693 45.2851 137.483 47.1693C137.4 47.8894 136.864 48.777 136.294 49.3464C135.022 50.5857 133.632 51.6909 132.242 52.7961C130.215 54.4205 129.529 54.4539 128.105 52.8459C127.117 51.7237 126.321 50.4089 125.358 49.2616C124.629 48.399 123.783 47.6536 122.954 46.8245C120.978 48.8005 119.312 50.4668 117.152 52.6271C118.609 53.1464 119.597 53.716 120.711 53.8584C122.62 54.0931 125.836 57.2253 125.619 59.0843C125.543 59.7124 125.15 60.5246 124.656 60.9852C123.073 62.4505 121.399 63.8069 119.724 65.1633C118.568 66.1011 117.446 66.1177 116.625 65.1462C115.587 63.9235 114.674 62.5752 113.635 61.3525C112.84 60.4229 111.919 59.6021 111.039 58.7228C108.703 61.0589 106.668 63.0936 104.667 65.0948C105.957 67.0544 105.974 66.9874 107.816 67.0714C108.553 67.1049 109.424 67.306 109.876 67.775C110.756 68.6879 111.467 69.8017 112.104 70.9239C112.782 72.1047 112.531 73.3273 111.25 74.4074C110.187 75.3033 109.098 76.1909 108.043 77.0952C104.912 79.808 104.334 79.7493 102.232 76.9773C100.908 75.2186 99.8698 73.1083 97.4914 72.1869C95.5405 74.1378 93.69 75.9883 91.5046 78.1737C92.4091 78.8102 93.188 79.924 93.883 79.765C97.4 78.9615 97.9111 81.8171 99.2847 83.559C100.256 84.7817 99.8125 86.1132 98.3723 87.2519C97.7694 87.7208 97.1581 88.1645 96.5803 88.6585C91.7908 92.7446 91.7908 92.7446 88.558 88.4902C88.1057 87.8873 87.7958 87.1754 87.31 86.6059C86.7154 85.8941 86.0203 85.2827 85.2917 84.5541C82.897 86.9488 80.812 89.0337 78.7271 91.1187C79.4223 92.4502 80.1593 93.137 81.7001 93.0366C83.601 92.9112 86.7751 96.437 86.4655 98.2374C86.3399 98.966 85.7706 99.7866 85.2012 100.373C84.3304 101.277 83.267 102.005 82.3124 102.843C78.9296 105.79 78.5276 105.723 76.258 102.783C74.9263 101.05 73.9965 98.814 71.4173 98.1605C69.1314 100.547 66.4603 102.464 64.7271 105.269C65.4558 106.5 66.176 107.187 67.7336 107.053C69.5843 106.894 72.7752 110.571 72.432 112.338C72.2897 113.066 71.6952 113.879 71.1175 114.456C70.1462 115.444 68.999 116.273 67.944 117.178C64.9798 119.723 64.3685 119.664 62.3752 117.035C61.0436 115.268 59.5444 113.635 57.9783 111.784C55.4831 114.279 53.3814 116.381 50.7857 118.976C52.2345 119.504 53.2227 120.074 54.3365 120.216C56.2458 120.451 59.4534 123.575 59.2526 125.434C59.1856 126.07 58.7838 126.874 58.2981 127.343C56.8244 128.733 55.2251 129.997 53.6677 131.303C52.2526 132.501 51.0132 132.534 50.0333 131.286C49.0367 130.022 48.1238 128.673 47.0936 127.442C46.3818 126.579 45.5275 125.842 44.7403 125.055C42.1948 127.601 39.9927 129.803 37.8073 131.988C39.3901 133.672 39.3901 133.672 40.9059 133.73C42.7984 133.814 46.0228 137.173 45.7717 138.981C45.6881 139.618 45.2611 140.413 44.767 140.874C43.285 142.255 41.694 143.528 40.145 144.826C38.7047 146.032 37.4821 145.965 36.5274 144.725C35.5391 143.452 34.6262 142.121 33.596 140.873C32.8925 140.018 32.0383 139.281 31.2762 138.519C28.848 140.948 26.8216 142.974 24.8204 144.975C25.4654 146.508 26.3364 147.111 28.0363 146.935C29.8367 146.743 32.9858 150.746 32.5086 152.446C32.2993 153.174 31.6379 153.919 31.0434 154.497C30.0469 155.477 28.9417 156.331 27.8699 157.235C25.0815 159.605 24.3614 159.554 22.5105 157.084C20.8605 154.864 19.4116 152.427 16.6563 150.911C15.2915 152.276 14.0104 153.557 12.5032 155.065C13.3826 156.078 14.0778 157.008 14.8985 157.828C17.9219 160.885 21.0373 163.85 24.0272 166.94C27.0757 170.106 29.9316 173.464 33.0387 176.571C36.3803 179.913 40.0735 182.903 43.3398 186.303C49.0682 192.266 54.4367 198.589 60.2572 204.46C69.9303 214.217 79.3187 224.241 90.3565 232.616C96.9391 237.608 102.693 243.63 108.764 249.249C111.277 251.577 113.781 253.948 116.101 256.468C123.22 264.224 130.112 272.188 138.227 278.963C143.085 283.017 147.582 287.498 152.205 291.819C158.084 297.313 163.771 303.033 169.859 308.301C174.022 311.894 178.176 315.445 181.216 320.093C183.762 323.996 186.576 327.613 190.412 330.377C192.045 331.558 193.175 333.359 194.532 334.883C195.152 335.586 195.755 336.307 196.634 337.32C197.974 335.444 199.087 333.878 200.561 331.802C198.87 332.639 197.798 333.175 196.743 333.711C196.609 333.493 196.458 333.275 196.324 333.058C197.446 331.936 198.467 330.696 199.69 329.725C204.002 326.3 207.586 322.198 211.128 318.036C213.43 315.331 215.775 312.635 218.337 310.19C220.238 308.39 222.247 306.447 225.036 306.054C216.788 311.94 212.233 321.084 204.873 327.758C207.586 326.519 210.048 324.861 212.141 322.633C217.274 317.166 222.382 311.69 227.498 306.205C228.603 305.016 229.7 303.802 231.207 302.178C229.775 302.487 228.946 302.663 228.042 302.847C228.134 302.387 228.109 302.094 228.243 301.96C236.13 294.223 243.825 286.293 252.408 279.268C258.085 274.613 263.528 269.673 268.217 263.878C271.624 259.65 275.468 255.723 279.353 251.888C283.598 247.693 288.078 243.732 292.507 239.739C293.973 238.407 295.605 237.277 297.146 236.054C297.347 236.272 297.548 236.507 297.749 236.724C288.606 246.722 277.502 254.911 269.448 265.913C277.947 258.436 286.228 250.758 294.467 243.021C296.594 241.029 298.528 238.81 300.596 236.741C303.46 233.861 306.34 230.997 309.254 228.167C312.629 224.893 316.129 221.745 319.419 218.404C325.749 211.974 331.962 205.442 338.234 198.953C338.912 198.258 339.548 197.521 340.486 196.5C339.263 195.461 338.317 193.812 337.161 193.862C334.766 193.962 333.837 192.446 332.589 191.232C331.207 189.883 330.026 188.334 328.653 186.977C327.371 185.713 325.939 184.582 324.582 183.393C328.745 188.376 334.054 192.312 336.835 197.957C335.361 198.995 334.198 199.556 333.402 200.435C332.054 201.934 330.982 203.675 329.684 205.241C327.583 207.778 325.707 210.692 323.17 212.626C320.005 215.038 317.401 217.927 314.554 220.589C313.348 221.711 312.218 222.942 310.97 224.006C310.418 224.474 309.631 224.675 308.952 224.985C309.321 223.93 309.865 223.252 310.485 222.632C312.888 220.179 315.182 217.6 317.761 215.356C320.206 213.246 321.202 209.536 324.836 208.783C327.608 204.739 330.396 200.711 333.117 196.767ZM106.097 48.2044C107.044 49.4355 107.814 50.5912 108.744 51.6046C111.55 54.6781 114.397 57.7098 117.253 60.7332C117.998 61.5288 118.936 61.7466 119.983 60.7502C121.013 59.7706 121.314 58.6485 120.72 57.5514C120.519 57.1829 120.192 56.8898 119.874 56.605C117.437 54.3857 114.991 52.1579 112.529 49.9637C111.114 48.699 109.648 47.4846 108.124 46.1781C107.337 46.9652 106.767 47.5346 106.097 48.2044ZM80.2746 74.2451C81.2377 75.4762 82.0166 76.6235 82.9546 77.6452C85.6849 80.6434 88.4654 83.5914 91.2459 86.5394C91.9577 87.3015 92.8287 87.6868 93.9674 86.7825C95.0727 85.9117 95.4243 84.3877 94.7375 83.3157C94.503 82.964 94.1596 82.6876 93.8498 82.4112C91.9403 80.7195 90.0141 79.0444 88.113 77.3276C86.5302 75.8954 84.9975 74.4131 83.4063 72.9893C82.1752 71.8922 81.1871 72.3945 80.2746 74.2451ZM39.6059 114.981C43.2742 118.95 46.9592 122.937 50.6442 126.907C51.4314 127.744 52.3443 128.272 53.6254 127.125C54.8144 126.053 54.9482 124.529 53.9683 123.398C53.826 123.239 53.6501 123.113 53.491 122.971C51.1209 120.835 48.7424 118.691 46.3723 116.556C45.1831 115.484 44.0106 114.395 42.7879 113.356C41.6657 112.402 40.753 112.946 39.6059 114.981ZM26.1921 128.378C29.0647 131.619 31.8704 134.81 34.7262 137.967C35.5805 138.922 36.4347 139.927 37.4983 140.605C38.0762 140.982 39.4579 141.108 39.8514 140.714C40.5213 140.044 40.898 138.864 40.9984 137.926C41.057 137.398 40.3954 136.837 39.9264 136.418C37.7405 134.4 35.4961 132.423 33.2851 130.43C32.0121 129.291 30.7559 128.135 29.4997 126.98C28.3105 125.924 27.314 126.268 26.1921 128.378ZM117.962 36.6746C120.215 38.425 120.919 41.5904 124.084 42.2774C124.428 42.3528 124.813 42.8218 124.846 43.1903C125.098 46.2552 127.786 47.2855 129.495 49.0945C130.424 50.0743 131.915 49.3711 132.601 47.8973C133.288 46.3901 132.643 45.494 131.68 44.6648C129.502 42.7721 127.367 40.8374 125.223 38.9112C123.875 37.6968 122.543 36.4489 121.178 35.2346C119.938 34.1291 118.959 34.6063 117.962 36.6746ZM94.9779 59.458C93.0269 60.6386 92.8427 61.7104 93.7054 62.6735C97.0554 66.4087 100.447 70.102 103.889 73.7618C104.66 74.5826 105.723 75.0935 106.896 73.8375C107.984 72.6653 108.193 71.451 107.121 70.4461C106.033 69.4243 104.894 68.4528 103.78 67.4562C100.865 64.8097 97.9593 62.1548 94.9779 59.458ZM68.9707 85.4149C67.0198 87.4329 66.9026 87.5501 68.1086 88.9738C70.6797 91.9804 73.3681 94.8697 76.0481 97.7842C76.7683 98.5714 77.4719 99.4424 78.4098 99.9282C79.0295 100.246 80.2521 100.247 80.8466 99.8195C81.9101 99.0409 82.3454 97.8015 81.533 96.738C81.1477 96.2355 80.6369 95.8251 80.1679 95.3896C78.1328 93.5052 76.0977 91.6041 74.0291 89.7532C72.3625 88.2541 70.6373 86.8471 68.9707 85.4149ZM55.088 99.4317C53.0532 100.579 52.9193 101.651 53.782 102.614C57.132 106.349 60.5322 110.051 63.966 113.702C64.7365 114.523 65.7916 115.025 66.9723 113.761C68.0608 112.589 68.2616 111.366 67.198 110.369C66.1093 109.348 64.9703 108.376 63.8564 107.38C60.9336 104.741 58.0192 102.095 55.088 99.4317ZM15.1562 139.38C12.8869 140.611 13.1048 141.767 14.0009 142.763C17.2839 146.415 20.6256 150.024 23.9839 153.6C24.746 154.413 25.7426 154.94 27.007 153.76C28.1625 152.671 28.2712 151.239 27.0652 150.134C23.1542 146.524 19.1594 142.981 15.1562 139.38ZM133.26 21.2595C130.899 22.4819 131.376 23.6961 132.314 24.7514C134.919 27.7244 137.591 30.6305 140.262 33.5534C140.982 34.3406 141.686 35.2116 142.624 35.6973C143.244 36.0156 144.466 36.0157 145.061 35.5887C146.124 34.8101 146.559 33.5707 145.747 32.5071C145.362 32.0047 144.851 31.5943 144.382 31.1588C142.347 29.2744 140.312 27.3733 138.243 25.5224C136.577 24.04 134.86 22.6246 133.26 21.2595ZM261.778 273.5C255.64 278.85 249.503 284.2 243.365 289.551C250.675 285.574 256.277 279.604 261.778 273.5Z" fill="#212121"/>
</g>
<defs>
<clipPath id="clip0">
<rect width="212.507" height="277.894" fill="white" transform="translate(0 150.265) rotate(-45)"/>
</clipPath>
</defs>
</svg>
