<svg width="31" height="31" viewBox="0 0 31 31" fill="none" xmlns="http://www.w3.org/2000/svg">
<circle cx="15.5" cy="15.5" r="15.5" fill="#DCDCDC"/>
<path d="M17.2078 15.8978L22.7789 10.3263C23.1415 9.96395 23.1415 9.378 22.7789 9.0156C22.4165 8.65321 21.8306 8.65321 21.4682 9.0156L15.8969 14.587L10.3258 9.0156C9.96324 8.65321 9.37747 8.65321 9.01508 9.0156C8.65252 9.378 8.65252 9.96395 9.01508 10.3263L14.5862 15.8978L9.01508 21.4692C8.65252 21.8316 8.65252 22.4175 9.01508 22.7799C9.19568 22.9607 9.43315 23.0515 9.67044 23.0515C9.90773 23.0515 10.145 22.9607 10.3258 22.7799L15.8969 17.2085L21.4682 22.7799C21.649 22.9607 21.8863 23.0515 22.1236 23.0515C22.3609 23.0515 22.5982 22.9607 22.7789 22.7799C23.1415 22.4175 23.1415 21.8316 22.7789 21.4692L17.2078 15.8978Z" fill="white"/>
</svg>
