<svg width="26" height="34" viewBox="0 0 26 34" fill="none" xmlns="http://www.w3.org/2000/svg">
<path d="M1.21875 32.395H24.7812C25.0059 32.395 25.1875 32.164 25.1875 31.8794V1.97314C25.1875 1.68852 25.0059 1.45752 24.7812 1.45752H1.21875C0.994094 1.45752 0.8125 1.68852 0.8125 1.97314V31.8794C0.8125 32.164 0.994094 32.395 1.21875 32.395ZM1.625 2.48877H24.375V31.3638H1.625V2.48877Z" fill="#212121"/>
<path d="M3.25 14.3481H12.5938C12.7611 14.3481 12.9114 14.2177 12.9724 14.0192L15.8161 4.73793C15.8649 4.57911 15.8486 4.40071 15.7731 4.25994C15.6975 4.11918 15.5716 4.03564 15.4375 4.03564H3.25C3.02534 4.03564 2.84375 4.26664 2.84375 4.55127V13.8325C2.84375 14.1171 3.02534 14.3481 3.25 14.3481ZM3.65625 5.06689H14.8436L12.3159 13.3169H3.65625V5.06689Z" fill="#212121"/>
<path d="M22.7501 4.03564H17.0626C16.8952 4.03564 16.7449 4.1661 16.684 4.36461L13.8402 13.6459C13.7915 13.8047 13.8077 13.9831 13.8833 14.1238C13.9589 14.2646 14.0848 14.3481 14.2189 14.3481H22.7501C22.9748 14.3481 23.1564 14.1171 23.1564 13.8325V4.55127C23.1564 4.26664 22.9748 4.03564 22.7501 4.03564ZM22.3439 13.3169H14.8128L17.3405 5.06689H22.3439V13.3169Z" fill="#212121"/>
<path d="M3.25 23.6294H9.75C9.97466 23.6294 10.1562 23.3984 10.1562 23.1138V15.895C10.1562 15.6104 9.97466 15.3794 9.75 15.3794H3.25C3.02534 15.3794 2.84375 15.6104 2.84375 15.895V23.1138C2.84375 23.3984 3.02534 23.6294 3.25 23.6294ZM3.65625 16.4106H9.34375V22.5981H3.65625V16.4106Z" fill="#212121"/>
<path d="M22.75 15.3794H11.375C11.1503 15.3794 10.9688 15.6104 10.9688 15.895V23.1138C10.9688 23.3984 11.1503 23.6294 11.375 23.6294H22.75C22.9747 23.6294 23.1562 23.3984 23.1562 23.1138V15.895C23.1562 15.6104 22.9747 15.3794 22.75 15.3794ZM22.3438 22.5981H11.7812V16.4106H22.3438V22.5981Z" fill="#212121"/>
<path d="M22.75 24.6606H3.25C3.02534 24.6606 2.84375 24.8916 2.84375 25.1763V29.3013C2.84375 29.5859 3.02534 29.8169 3.25 29.8169H22.75C22.9747 29.8169 23.1562 29.5859 23.1562 29.3013V25.1763C23.1562 24.8916 22.9747 24.6606 22.75 24.6606ZM22.3438 28.7856H3.65625V25.6919H22.3438V28.7856Z" fill="#212121"/>
</svg>
