<svg width="31" height="31" viewBox="0 0 31 31" fill="none" xmlns="http://www.w3.org/2000/svg">
<circle cx="15.5" cy="15.5" r="15.5" fill="#DCDCDC"/>
<path d="M17.2082 15.8978L22.7793 10.3264C23.1419 9.96404 23.1419 9.37809 22.7793 9.01569C22.4169 8.6533 21.831 8.6533 21.4686 9.01569L15.8973 14.5871L10.3262 9.01569C9.9636 8.6533 9.37784 8.6533 9.01545 9.01569C8.65289 9.37809 8.65289 9.96404 9.01545 10.3264L14.5866 15.8978L9.01545 21.4693C8.65289 21.8317 8.65289 22.4176 9.01545 22.78C9.19605 22.9608 9.43351 23.0516 9.67081 23.0516C9.9081 23.0516 10.1454 22.9608 10.3262 22.78L15.8973 17.2086L21.4686 22.78C21.6494 22.9608 21.8867 23.0516 22.1239 23.0516C22.3612 23.0516 22.5985 22.9608 22.7793 22.78C23.1419 22.4176 23.1419 21.8317 22.7793 21.4693L17.2082 15.8978Z" fill="white"/>
</svg>
