<svg width="14" height="14" viewBox="0 0 14 14" fill="none" xmlns="http://www.w3.org/2000/svg">
<path d="M8.45779 7.36559L13.5796 2.24349C13.913 1.91032 13.913 1.37162 13.5796 1.03845C13.2465 0.705281 12.7078 0.705281 12.3746 1.03845L7.25263 6.16056L2.13078 1.03845C1.79746 0.705281 1.25894 0.705281 0.925772 1.03845C0.592451 1.37162 0.592451 1.91032 0.925772 2.24349L6.04762 7.36559L0.925772 12.4877C0.592451 12.8209 0.592451 13.3596 0.925772 13.6927C1.09181 13.8589 1.31012 13.9424 1.52828 13.9424C1.74643 13.9424 1.96459 13.8589 2.13078 13.6927L7.25263 8.57063L12.3746 13.6927C12.5408 13.8589 12.759 13.9424 12.9771 13.9424C13.1953 13.9424 13.4134 13.8589 13.5796 13.6927C13.913 13.3596 13.913 12.8209 13.5796 12.4877L8.45779 7.36559Z" fill="white"/>
</svg>
