<svg width="12" height="12" viewBox="0 0 12 12" fill="none" xmlns="http://www.w3.org/2000/svg">
<path d="M6.47584 5.67519L6.37623 1.26843C6.36983 0.98172 6.13286 0.755216 5.84615 0.761753C5.5595 0.768222 5.333 1.00518 5.33948 1.29183L5.43901 5.69865L1.03225 5.79803C0.74554 5.80457 0.519106 6.04146 0.52558 6.32811C0.531989 6.61482 0.768956 6.84132 1.05567 6.83479L5.46243 6.73541L5.56203 11.1422C5.56844 11.4289 5.80541 11.6554 6.09212 11.6488C6.23504 11.6457 6.36356 11.5848 6.45529 11.4888C6.54701 11.3928 6.60202 11.2618 6.59879 11.1188L6.49919 6.71202L10.906 6.61257C11.049 6.60935 11.1775 6.54848 11.2692 6.45252C11.3609 6.35655 11.4159 6.22548 11.4127 6.0825C11.4063 5.79578 11.1693 5.56928 10.8826 5.57581L6.47584 5.67519Z" fill="white"/>
</svg>
