<svg width="32" height="33" viewBox="0 0 32 33" fill="none" xmlns="http://www.w3.org/2000/svg">
<g clip-path="url(#clip0)">
<path d="M29.625 5.73877H27.4375V3.55127C27.4375 3.29233 27.2276 3.08252 26.9688 3.08252H24.7812V0.89502C24.7812 0.636082 24.5714 0.42627 24.3125 0.42627H4.875C4.61613 0.42627 4.40625 0.636082 4.40625 0.89502V21.9263H2.375C2.11612 21.9263 1.90625 22.1361 1.90625 22.395V23.52C1.90625 25.5016 3.51838 27.1138 5.5 27.1138H7.0625V29.3013C7.0625 29.5602 7.27238 29.77 7.53125 29.77H9.71875V31.9575C9.71875 32.2165 9.92863 32.4263 10.1875 32.4263H19.5938C19.8526 32.4263 20.0625 32.2165 20.0625 31.9575C20.0625 31.6986 19.8526 31.4888 19.5938 31.4888H10.6562V29.77H26.9688C27.2276 29.77 27.4375 29.5602 27.4375 29.3013V21.9263C27.4375 21.6673 27.2276 21.4575 26.9688 21.4575C26.7099 21.4575 26.5 21.6673 26.5 21.9263V28.8325H8V27.1138H24.3125C24.5714 27.1138 24.7812 26.904 24.7812 26.645V4.02002H26.5V19.8013C26.5 20.0602 26.7099 20.27 26.9688 20.27C27.2276 20.27 27.4375 20.0602 27.4375 19.8013V6.67627H29.1562V31.4888H21.7188C21.4599 31.4888 21.25 31.6986 21.25 31.9575C21.25 32.2165 21.4599 32.4263 21.7188 32.4263H29.625C29.8839 32.4263 30.0938 32.2165 30.0938 31.9575V6.20752C30.0938 5.94858 29.8839 5.73877 29.625 5.73877ZM23.8438 26.1763H21.25C19.7853 26.1763 18.5938 24.9847 18.5938 23.52V22.395C18.5938 22.1361 18.3839 21.9263 18.125 21.9263H14.875C14.6161 21.9263 14.4062 22.1361 14.4062 22.395C14.4062 22.654 14.6161 22.8638 14.875 22.8638H17.6562V23.52C17.6562 24.5713 18.1101 25.5185 18.8319 26.1763H5.5C4.03531 26.1763 2.84375 24.9847 2.84375 23.52V22.8638H12.6875C12.9464 22.8638 13.1562 22.654 13.1562 22.395C13.1562 22.1361 12.9464 21.9263 12.6875 21.9263H5.34375V1.36377H23.8438V26.1763Z" fill="#212121"/>
<path d="M7.0625 10.4263H13.0625C13.3214 10.4263 13.5312 10.2165 13.5312 9.95752V3.95752C13.5312 3.69858 13.3214 3.48877 13.0625 3.48877H7.0625C6.80362 3.48877 6.59375 3.69858 6.59375 3.95752V9.95752C6.59375 10.2165 6.80362 10.4263 7.0625 10.4263ZM7.53125 4.42627H12.5938V9.48877H7.53125V4.42627Z" fill="#212121"/>
<path d="M22.125 8.67627H15.25C14.9911 8.67627 14.7812 8.88608 14.7812 9.14502C14.7812 9.40396 14.9911 9.61377 15.25 9.61377H22.125C22.3839 9.61377 22.5937 9.40396 22.5937 9.14502C22.5937 8.88608 22.3839 8.67627 22.125 8.67627Z" fill="#212121"/>
<path d="M10.6562 13.395C10.6562 13.654 10.8661 13.8638 11.125 13.8638H18.0625C18.3214 13.8638 18.5312 13.654 18.5312 13.395C18.5312 13.1361 18.3214 12.9263 18.0625 12.9263H11.125C10.8661 12.9263 10.6562 13.1361 10.6562 13.395Z" fill="#212121"/>
<path d="M22.125 6.48877H15.25C14.9911 6.48877 14.7812 6.69858 14.7812 6.95752C14.7812 7.21646 14.9911 7.42627 15.25 7.42627H22.125C22.3839 7.42627 22.5937 7.21646 22.5937 6.95752C22.5937 6.69858 22.3839 6.48877 22.125 6.48877Z" fill="#212121"/>
<path d="M22.125 4.30127H15.25C14.9911 4.30127 14.7812 4.51108 14.7812 4.77002C14.7812 5.02896 14.9911 5.23877 15.25 5.23877H22.125C22.3839 5.23877 22.5937 5.02896 22.5937 4.77002C22.5937 4.51108 22.3839 4.30127 22.125 4.30127Z" fill="#212121"/>
<path d="M22.125 18.4888H7.0625C6.80362 18.4888 6.59375 18.6986 6.59375 18.9575C6.59375 19.2165 6.80362 19.4263 7.0625 19.4263H22.125C22.3839 19.4263 22.5938 19.2165 22.5938 18.9575C22.5938 18.6986 22.3839 18.4888 22.125 18.4888Z" fill="#212121"/>
<path d="M22.125 15.6763H13.9375C13.6786 15.6763 13.4688 15.8861 13.4688 16.145C13.4688 16.404 13.6786 16.6138 13.9375 16.6138H22.125C22.3839 16.6138 22.5937 16.404 22.5937 16.145C22.5937 15.8861 22.3839 15.6763 22.125 15.6763Z" fill="#212121"/>
<path d="M7.03125 16.6138H11.75C12.0089 16.6138 12.2188 16.404 12.2188 16.145C12.2188 15.8861 12.0089 15.6763 11.75 15.6763H7.03125C6.77238 15.6763 6.5625 15.8861 6.5625 16.145C6.5625 16.404 6.77238 16.6138 7.03125 16.6138Z" fill="#212121"/>
</g>
<defs>
<clipPath id="clip0">
<rect width="32" height="32" fill="white" transform="translate(0 0.42627)"/>
</clipPath>
</defs>
</svg>
