<svg width="16" height="17" viewBox="0 0 16 17" fill="none" xmlns="http://www.w3.org/2000/svg">
<g clip-path="url(#clip0)">
<path d="M15.0624 1.36396C14.4577 0.75927 13.6538 0.42627 12.7987 0.42627C11.9436 0.42627 11.1397 0.759269 10.535 1.36393L1.5883 10.3107C1.51218 10.3868 1.45702 10.4813 1.42815 10.585L0.0228983 15.6337C-0.0376954 15.8514 0.0239608 16.085 0.184242 16.2444C0.302992 16.3625 0.462117 16.4263 0.625055 16.4263C0.681992 16.4263 0.73943 16.4185 0.795773 16.4025L5.84443 14.9684C6.05743 14.9079 6.22255 14.7391 6.27843 14.5249C6.3343 14.3106 6.27262 14.0827 6.11627 13.9259L2.9334 10.7334L10.3495 3.31724L13.1076 6.0753L7.43024 11.7371C7.18584 11.9809 7.1853 12.3766 7.42905 12.621C7.67277 12.8655 8.06855 12.866 8.31293 12.6222L15.0623 5.89124C15.667 5.28658 16 4.48268 16 3.62758C16 2.77249 15.667 1.96858 15.0624 1.36396ZM4.48109 14.0562L1.52584 14.8956L2.35349 11.9221L4.48109 14.0562ZM14.1791 5.00674L13.9926 5.19264L11.2334 2.43336L11.419 2.2478C11.7875 1.87924 12.2775 1.67627 12.7987 1.67627C13.3199 1.67627 13.8099 1.87924 14.1785 2.24783C14.547 2.61636 14.75 3.10636 14.75 3.62758C14.75 4.1488 14.547 4.6388 14.1791 5.00674Z" fill="#7B65F3"/>
</g>
<defs>
<clipPath id="clip0">
<rect width="16" height="16" fill="white" transform="translate(0 0.42627)"/>
</clipPath>
</defs>
</svg>
