<svg xmlns="http://www.w3.org/2000/svg" enable-background="new 0 0 36 36" height="512" viewBox="0 0 36 36" width="512">
    <path
        d="m27.417 3.914c-6.915.129-11.732-3.365-15.064-3.302s-10.296 2.109-10.009 17.44 9.744 17.404 13.41 17.336c17.163-.321 23.911-31.703 11.663-31.474z"
        fill="#efefef" />
    <path
        d="m29.25 13c0 3.45-2.8 6.25-6.25 6.25-.9 0-1.76-.19-2.53-.54l-9.88 9.88c-.88.88-2.3.88-3.18 0s-.88-2.3 0-3.18l9.88-9.88c-.35-.77-.54-1.63-.54-2.53 0-3.45 2.8-6.25 6.25-6.25.9 0 1.76.19 2.53.54l-2.96 2.96.43 2.75 2.75.43 2.96-2.96c.35.77.54 1.63.54 2.53z"
        fill="#f3f3f1" />
    <g fill="#d5dbe1">
        <path
            d="m9.66 28.84c-.88-.88-.88-2.3 0-3.18l9.88-9.88c-.35-.77-.54-1.63-.54-2.53 0-3.3 2.564-5.999 5.806-6.228-.572-.174-1.178-.272-1.806-.272-3.45 0-6.25 2.8-6.25 6.25 0 .9.19 1.76.54 2.53l-9.88 9.88c-.88.88-.88 2.3 0 3.18.68.68 1.679.828 2.505.458-.087-.065-.176-.129-.255-.208z" />
        <path d="m28 13.68 1.221-1.221c-.06-.703-.232-1.375-.511-1.989l-2.872 2.872z" />
        <path
            d="m22.72 18.96-.261.261c.179.015.359.029.542.029.15 0 .297-.012.444-.022-.249-.076-.492-.162-.725-.268z" />
    </g>
    <g fill="#a4afc1">
        <path d="m26.717 3.967h1v2h-1z" transform="matrix(.707 -.707 .707 .707 4.462 20.704)" />
        <path d="m30.783 8.033h1v2h-1z" transform="matrix(.707 -.707 .707 .707 2.778 24.771)" />
        <path d="m30.106 4.467h2v1h-2z" transform="matrix(.707 -.707 .707 .707 5.599 23.45)" />
        <path
            d="m15.25 32.5c-.827 0-1.5-.673-1.5-1.5s.673-1.5 1.5-1.5 1.5.673 1.5 1.5-.673 1.5-1.5 1.5zm0-2c-.276 0-.5.225-.5.5s.224.5.5.5.5-.225.5-.5-.224-.5-.5-.5z" />
    </g>
    <path
        d="m9 30c-.8 0-1.553-.312-2.12-.88-1.169-1.169-1.169-3.071 0-4.24l9.528-9.528c-.271-.746-.408-1.535-.408-2.352 0-3.859 3.14-7 7-7 .997 0 1.953.204 2.84.607.224.102.384.307.428.549s-.034.49-.208.664l-2.691 2.69.287 1.833 1.833.286 2.69-2.69c.174-.173.423-.249.664-.208.242.044.447.204.549.428.404.887.608 1.843.608 2.841 0 3.859-3.14 7-7 7-.816 0-1.605-.137-2.352-.408l-9.528 9.528c-.567.568-1.32.88-2.12.88zm14-22.5c-3.033 0-5.5 2.467-5.5 5.5 0 .782.159 1.529.473 2.22.129.285.069.62-.152.841l-9.88 9.88c-.584.584-.584 1.535 0 2.119.568.568 1.551.568 2.119 0l9.88-9.88c.221-.222.557-.283.84-.152.691.313 1.438.472 2.22.472 3.033 0 5.5-2.467 5.5-5.5 0-.391-.04-.771-.118-1.142l-2.102 2.102c-.17.169-.412.246-.646.211l-2.75-.43c-.322-.051-.575-.303-.625-.625l-.43-2.75c-.037-.237.042-.478.211-.646l2.102-2.102c-.371-.078-.752-.118-1.142-.118z" />
</svg>