<svg width="70" height="70" viewBox="0 0 70 70" fill="none" xmlns="http://www.w3.org/2000/svg">
<path d="M69.9992 34.9146C69.9992 54.1977 54.3676 69.8293 35.0845 69.8293C15.8015 69.8293 0.169922 54.1977 0.169922 34.9146C0.169922 15.6316 15.8015 0 35.0845 0C54.3676 0 69.9992 15.6316 69.9992 34.9146Z" fill="#F7F5FF"/>
<path d="M45.7575 10.2713V18.1773C45.7575 18.1773 36.6804 16.8598 36.6804 22.7159V28.5719H44.879L43.8545 37.5025H36.6804V60.7807H27.6033V37.5025L19.8438 37.356V28.5719H27.4568V21.8374C27.4568 21.8374 26.9544 11.8189 36.8269 9.97878C40.9265 9.21428 45.7575 10.2713 45.7575 10.2713Z" fill="#4A7AFF"/>
</svg>
