<svg width="34" height="34" viewBox="0 0 34 34" fill="none" xmlns="http://www.w3.org/2000/svg">
<g clip-path="url(#clip0)">
<path d="M34 17C34 26.389 26.389 34 17 34C7.61104 34 0 26.389 0 17C0 7.61104 7.61104 0 17 0C26.389 0 34 7.61104 34 17Z" fill="#4A7AFF"/>
<path d="M17.7462 33.9826C26.7889 33.5922 34.0002 26.1386 34.0002 17C34.0002 16.9339 33.9984 16.868 33.9976 16.8018L22.1973 5.00122L9.58008 18.1891L16.5903 25.1994L13.358 29.5944L17.7462 33.9826Z" fill="#0053BF"/>
<path d="M22.1965 5.00121V8.8507C22.1965 8.8507 17.7769 8.2092 17.7769 11.0605V13.9118H21.7688L21.27 18.2602H17.7769V29.5944H13.3573V18.2602L9.5791 18.1888V13.9118H13.2859V10.6328C13.2859 10.6328 13.0413 5.75477 17.8482 4.8588C19.8443 4.48656 22.1965 5.00121 22.1965 5.00121Z" fill="white"/>
<path d="M22.1972 8.8507V5.00121C22.1972 5.00121 19.845 4.48656 17.8489 4.8588C17.5371 4.91691 17.2471 4.99213 16.9766 5.08111V29.5944H17.7776V18.2602H21.2704L21.7695 13.9118H17.7776C17.7776 13.9118 17.7776 13.9118 17.7776 11.0605C17.7776 8.2092 22.1972 8.8507 22.1972 8.8507Z" fill="#DCE1EB"/>
</g>
<defs>
<clipPath id="clip0">
<rect width="34" height="34" fill="white"/>
</clipPath>
</defs>
</svg>
