<svg width="24" height="33" viewBox="0 0 24 33" fill="none" xmlns="http://www.w3.org/2000/svg">
<path d="M23.2325 11.391C23.2325 5.10999 18.195 0 12.003 0C9.83395 0 7.72874 0.628546 5.91503 1.81765C4.15044 2.97462 2.74373 4.60226 1.84704 6.52458C1.71432 6.8091 1.83741 7.14736 2.12186 7.28008C2.40661 7.41294 2.74464 7.2897 2.87736 7.00525C4.54016 3.44036 8.12218 1.13688 12.003 1.13688C17.5681 1.13688 22.0956 5.73687 22.0956 11.391C22.0956 14.0767 21.0808 16.6157 19.2381 18.5403C18.176 19.6495 17.272 20.7094 17.0394 22.1945H7.1152C6.82212 20.6528 5.7705 19.5712 4.82552 18.6C2.94564 16.6681 1.91032 14.1078 1.91032 11.391C1.91032 10.7202 1.97452 10.0493 2.10102 9.3968C2.16082 9.08863 1.95944 8.79031 1.65119 8.73051C1.34302 8.67117 1.0447 8.87217 0.984898 9.18042C0.844531 9.904 0.773438 10.6478 0.773438 11.391C0.773438 14.4057 1.92313 17.2475 4.01075 19.3929C5.20971 20.625 6.05843 21.6085 6.05843 23.0499C6.05843 23.0549 6.05851 23.0601 6.05866 23.0651L6.09125 26.401C6.09125 27.4832 6.66856 28.4331 7.5313 28.9591V29.5842C7.5313 31.1515 8.80628 32.4264 10.3735 32.4264H13.86C15.4272 32.4264 16.7022 31.1515 16.7022 29.5842V28.9591C17.5649 28.4331 18.1422 27.4832 18.1422 26.401C18.1422 26.401 18.1382 22.6852 18.1306 22.6481C18.2385 21.3307 19.037 20.3943 20.0593 19.3265C22.1055 17.1892 23.2325 14.371 23.2325 11.391V11.391ZM15.5652 29.5842C15.5652 30.5245 14.8002 31.2896 13.8599 31.2896H10.3734C9.43316 31.2896 8.66811 30.5245 8.66811 29.5842V29.3651C8.80446 29.3842 8.94347 29.3947 9.08497 29.3947H15.1484C15.2899 29.3947 15.4289 29.3841 15.5652 29.3651V29.5842ZM15.1484 28.2579H9.08497C8.06102 28.2579 7.22806 27.4249 7.22806 26.401V26.3631H12.9883C13.3023 26.3631 13.5567 26.1086 13.5567 25.7946C13.5567 25.4806 13.3023 25.2262 12.9883 25.2262H7.22806V23.3314H16.9877L17.0053 25.2262H15.641C15.327 25.2262 15.0726 25.4806 15.0726 25.7946C15.0726 26.1086 15.327 26.3631 15.641 26.3631H17.0053V26.401C17.0053 27.4249 16.1722 28.2579 15.1484 28.2579V28.2579Z" fill="#7B65F3"/>
<path d="M15.6994 11.466C15.5069 11.7139 15.5519 12.071 15.7998 12.2635C16.0476 12.4561 16.4047 12.4113 16.5973 12.1632L17.7227 10.714C18.0207 10.3302 18.1514 9.85341 18.0907 9.3713C18.03 8.88918 17.7853 8.45959 17.4015 8.16158C17.0178 7.86356 16.5406 7.73214 16.0588 7.79361C15.5767 7.85424 15.1471 8.09897 14.8492 8.48279L11.1779 13.211L9.07086 10.8797C8.3982 10.1357 7.24563 10.0777 6.50173 10.75C6.14126 11.0759 5.92927 11.5225 5.90471 12.0078C5.88023 12.493 6.04614 12.9588 6.3719 13.3193L9.93421 17.2605C10.6513 18.0923 12.0682 18.0413 12.7204 17.1564L14.9703 14.2588C15.1628 14.0109 15.1179 13.6538 14.87 13.4613C14.622 13.2688 14.265 13.3136 14.0724 13.5616L11.8225 16.4592C11.5783 16.791 11.0454 16.8103 10.7777 16.4982L7.21546 12.557C6.96323 12.2779 6.98506 11.8458 7.2642 11.5935C7.54311 11.3416 7.97536 11.3631 8.22759 11.6423L10.7894 14.4766C11.0127 14.7355 11.4565 14.7206 11.6601 14.444L15.7473 9.18015C15.9661 8.88593 16.4198 8.82885 16.7044 9.05972C16.9987 9.27861 17.0557 9.73192 16.8249 10.0169L15.6994 11.466Z" fill="#7B65F3"/>
</svg>
