<svg width="22" height="22" viewBox="0 0 22 22" fill="none" xmlns="http://www.w3.org/2000/svg">
<path d="M14.6392 10.6858C16.0523 9.59418 16.9641 7.8838 16.9641 5.96414C16.9641 2.67551 14.2886 0 11 0C7.71137 0 5.03587 2.67551 5.03587 5.96414C5.03587 7.88375 5.9477 9.59418 7.36076 10.6858C3.16972 12.1507 0 16.1717 0 21.0717C0 21.5844 0.415587 22 0.92827 22H21.0717C21.5844 22 22 21.5844 22 21.0717C22 16.1705 18.8279 12.1499 14.6392 10.6858ZM6.89241 5.96414C6.89241 3.6992 8.73507 1.85654 11 1.85654C13.2649 1.85654 15.1076 3.6992 15.1076 5.96414C15.1076 8.22907 13.2649 10.0717 11 10.0717C8.73507 10.0717 6.89241 8.22907 6.89241 5.96414ZM1.90332 20.1435C2.36992 15.536 6.27153 11.9283 11 11.9283C15.7285 11.9283 19.6301 15.536 20.0967 20.1435H1.90332Z" fill="#212121"/>
</svg>
