<svg width="18" height="24" viewBox="0 0 18 24" fill="none" xmlns="http://www.w3.org/2000/svg">
<path d="M17.7774 6.91566C18.0069 6.76233 18.0694 6.45179 17.916 6.22229C17.7617 5.99082 17.4502 5.9303 17.2227 6.08363C16.6761 6.44804 16.0512 6.6631 15.4946 6.79533C15.2857 6.38101 15.0794 5.9903 14.882 5.63307C15.4292 5.28169 16.0165 4.99965 16.5 4.99965C16.7764 4.99965 17 4.776 17 4.49963C17 4.22326 16.7764 3.99961 16.5 3.99961C15.7973 3.99961 15.0446 4.34916 14.386 4.76429C13.9782 4.07316 13.6506 3.5701 13.499 3.34435C13.456 0.744661 12.3515 0.116723 12.2236 0.0522701C12.0312 -0.0424643 11.7979 -0.00632365 11.6465 0.14602C10.9111 0.881395 10.4326 1.61382 10.206 1.9996H7.79394C7.56739 1.61386 7.08884 0.881395 6.35352 0.14602C6.20216 -0.00632365 5.9697 -0.0424643 5.77634 0.0522701C5.64842 0.116723 4.54391 0.744661 4.50097 3.34435C4.34938 3.57015 4.02177 4.07311 3.614 4.76424C2.95545 4.34907 2.20269 3.99957 1.50003 3.99957C1.22366 3.99957 1.00002 4.22321 1.00002 4.49958C1.00002 4.77596 1.22366 4.9996 1.50003 4.9996C1.98247 4.9996 2.57005 5.28207 3.11759 5.63377C2.9202 5.99119 2.71377 6.38204 2.50475 6.7966C1.9497 6.6646 1.32594 6.44916 0.777407 6.08363C0.549876 5.93129 0.23736 5.99185 0.0840321 6.22229C-0.069296 6.45179 -0.00681165 6.76233 0.222688 6.91566C0.811626 7.30815 1.46319 7.55644 2.05808 7.71615C0.994532 9.99938 3.20939e-05 12.8419 3.20939e-05 15.4998C3.20939e-05 19.6591 3.49611 23.2051 3.64555 23.3536C3.70025 23.4083 3.76761 23.4503 3.84088 23.4746C3.90533 23.4961 5.44827 24.0001 8.00005 24.0001C8.13284 24.0001 8.25983 23.9473 8.35358 23.8536L8.70711 23.5H9.29305L9.64658 23.8536C9.74033 23.9473 9.86726 24.0001 10.0001 24.0001C12.5519 24.0001 14.0948 23.4961 14.1593 23.4746C14.2325 23.4502 14.2999 23.4082 14.3546 23.3536C14.504 23.2051 18 19.6591 18 15.4998C18 12.8419 17.0055 9.99938 15.942 7.71615C16.5369 7.5564 17.1884 7.30819 17.7774 6.91566ZM17 15.5001C17 18.9044 14.251 22.003 13.7315 22.5586C13.3604 22.6631 12.0928 22.9776 10.2061 22.9991L9.85358 22.6465C9.75983 22.5528 9.63289 22.5001 9.50005 22.5001H8.50006C8.36726 22.5001 8.24028 22.5528 8.14653 22.6465L7.79398 22.9991C5.90727 22.9776 4.63869 22.6631 4.26861 22.5586C3.74909 22.0049 1.00006 18.9121 1.00006 15.5001C1.00006 12.9498 2.02053 10.1489 3.07953 7.92226C3.59938 7.9944 3.96472 8.00007 4.00006 8.00007C4.27644 8.00007 4.50008 7.77643 4.50008 7.50005C4.50008 7.22368 4.27644 7.00004 4.00006 7.00004C3.99458 7.00004 3.8158 6.99601 3.54889 6.97097C3.6823 6.71194 3.81317 6.46547 3.94119 6.23091C4.24002 6.47269 4.49305 6.70027 4.64656 6.85355C4.7442 6.95119 4.87217 7.00004 5.00009 7.00004C5.12802 7.00004 5.25594 6.95119 5.35363 6.85355C5.54895 6.65822 5.54895 6.34182 5.35363 6.14654C5.26934 6.06226 4.92444 5.72649 4.44078 5.34507C4.99475 4.39538 5.39811 3.80349 5.41123 3.78422C5.46884 3.70121 5.50011 3.6016 5.50011 3.50002C5.50011 2.21879 5.77845 1.5459 5.98939 1.21875C6.68961 2.00977 7.04895 2.71585 7.05289 2.72461C7.13773 2.89261 7.31155 3.00005 7.50003 3.00005H10.5C10.6885 3.00005 10.8623 2.89261 10.9473 2.72466C10.9512 2.71585 11.3106 2.0108 12.0088 1.22077C12.2247 1.55086 12.5 2.22371 12.5 3.50007C12.5 3.60165 12.5313 3.70126 12.5889 3.78427C12.602 3.80354 13.0056 4.39519 13.5598 5.34483C13.076 5.72635 12.7308 6.0623 12.6465 6.14658C12.4512 6.34191 12.4512 6.65832 12.6465 6.8536C12.7442 6.95124 12.8721 7.00008 13.0001 7.00008C13.128 7.00008 13.2559 6.95124 13.3536 6.8536C13.507 6.70018 13.7601 6.47218 14.0592 6.23007C14.1871 6.46463 14.3181 6.7111 14.4516 6.97013C14.1839 6.99558 14.0046 7.00008 13.9991 7.00008C13.7237 7.00107 13.5 7.22471 13.5 7.50108C13.501 7.77647 13.7237 8.00011 14 8.00011C14.0354 8.00011 14.4012 7.9944 14.9214 7.92216C15.9801 10.1479 17 12.9481 17 15.5001Z" fill="#212121"/>
<path d="M8.99999 8C5.14063 8 2 11.1406 2 15C2 18.8593 5.14063 22 8.99999 22C12.8593 22 16 18.8593 16 15C16 11.1406 12.8593 8 8.99999 8ZM8.99999 21C5.69141 21 2.99998 18.3086 2.99998 15C2.99998 11.6914 5.69141 8.99998 8.99999 8.99998C12.3086 8.99998 15 11.6914 15 15C15 18.3086 12.3086 21 8.99999 21Z" fill="#212121"/>
<path d="M6.50003 6.00014C7.0518 6.00014 7.50002 5.55187 7.50002 5.00015C7.50002 4.72378 7.27638 4.50014 7 4.50014C7 4.22376 6.77636 4.00012 6.49998 4.00012C5.94822 4.00012 5.5 4.44839 5.5 5.00011C5.5 5.55192 5.94827 6.00014 6.50003 6.00014Z" fill="#212121"/>
<path d="M11.5 6.00014C12.0517 6.00014 12.5 5.55187 12.5 5.00015C12.5 4.72378 12.2764 4.50014 12 4.50014C12 4.22376 11.7764 4.00012 11.5 4.00012C10.9482 4.00012 10.5 4.44839 10.5 5.00011C10.5 5.55192 10.9483 6.00014 11.5 6.00014Z" fill="#212121"/>
<path d="M8.64715 6.85364C8.74479 6.95128 8.87276 7.00012 9.00068 7.00012C9.1286 7.00012 9.25652 6.95128 9.35421 6.85364L9.85423 6.35362C9.99682 6.21103 10.0398 5.99522 9.96265 5.8087C9.88549 5.62218 9.70287 5.50012 9.50074 5.50012H8.50076C8.29858 5.50012 8.11601 5.62218 8.03885 5.8087C7.96169 5.99522 8.00468 6.21103 8.14727 6.35362L8.64715 6.85364Z" fill="#212121"/>
<path d="M10.2236 11.5527L9.22362 11.0527C9.08299 10.9824 8.91696 10.9824 8.77633 11.0527L7.77635 11.5527C7.52927 11.6768 7.42966 11.9766 7.55271 12.2237C7.67674 12.4698 7.97557 12.5713 8.22363 12.4473L8.99998 12.0586L9.77637 12.4473C9.84865 12.4834 9.92482 12.5 10 12.5C10.1826 12.5 10.3594 12.3985 10.4473 12.2237C10.5703 11.9766 10.4707 11.6768 10.2236 11.5527Z" fill="#212121"/>
<path d="M6.7236 13.0528L5.72362 12.5527C5.58299 12.4824 5.41696 12.4824 5.27633 12.5527L4.27635 13.0528C4.02927 13.1768 3.92966 13.4766 4.05271 13.7237C4.17674 13.9698 4.47557 14.0713 4.72363 13.9473L5.50002 13.5586L6.27641 13.9473C6.34869 13.9835 6.42487 14 6.50005 14C6.68268 14 6.85944 13.8985 6.94734 13.7237C7.07024 13.4766 6.97063 13.1768 6.7236 13.0528Z" fill="#212121"/>
<path d="M12.2763 12.5527L11.2763 13.0528C11.0293 13.1768 10.9297 13.4766 11.0527 13.7237C11.1767 13.9698 11.4766 14.0713 11.7236 13.9473L12.5 13.5586L13.2764 13.9473C13.3487 13.9835 13.4249 14 13.5 14C13.6827 14 13.8594 13.8985 13.9473 13.7237C14.0704 13.4766 13.9708 13.1768 13.7237 13.0528L12.7237 12.5527C12.583 12.4824 12.417 12.4824 12.2763 12.5527Z" fill="#212121"/>
</svg>
