<svg width="379" height="331" viewBox="0 0 379 331" fill="none" xmlns="http://www.w3.org/2000/svg">
<g clip-path="url(#clip0)">
<path d="M24.3652 138.314C40.2062 131.857 55.312 122.633 70.4763 114.716C85.7749 106.732 101.107 98.7315 116.389 90.7141C146.701 74.8451 176.963 58.959 207.275 43.09C224.623 34.015 242.252 25.3435 259.302 15.7477C260.83 14.8707 259.708 12.5035 258.096 13.2963C227.053 28.3572 196.834 45.2645 166.27 61.2992C135.992 77.1517 105.696 93.0543 75.4172 108.991C66.9028 113.47 58.3549 117.967 49.8405 122.447C41.091 127.043 31.8918 131.317 23.5889 136.736C22.631 137.332 23.2747 138.725 24.3652 138.314Z" fill="#212121"/>
<path d="M25.115 138.82C25.0324 138.652 24.9668 138.434 24.9178 138.25C24.6877 137.612 23.579 138.241 24.0943 138.78C24.2105 138.932 24.3602 139.066 24.4764 139.218C24.6757 139.453 25.0787 139.255 25.0137 138.954C24.9647 138.769 24.9492 138.568 24.9002 138.384C24.8214 137.63 23.6467 138.124 24.0448 138.679C24.1774 138.864 24.26 139.032 24.3927 139.217C24.6576 139.671 25.2956 139.357 25.115 138.82Z" fill="#212121"/>
<path d="M25.0055 137.498C16.1618 141.139 13.5218 150.779 14.8035 159.574C16.4867 170.966 21.8677 182.5 26.4356 192.973C36.5111 216.085 49.26 239.885 65.5687 259.305C71.6805 266.559 79.2993 271.111 89.0086 270.756C99.0527 270.403 108.903 266.35 118.247 263.047C143.241 254.173 167.43 243.067 190.511 229.963C199.28 224.982 212.101 217.049 222.291 222.589C236.7 230.432 227.822 249.688 222.165 259.978C221.437 261.295 222.65 262.659 224.059 262.132C238.522 256.603 250.379 245.016 256.046 230.592C260.521 219.257 261.574 201.557 248.003 196.012C248.064 196.983 248.124 197.954 248.185 198.925C275.798 186.302 301.61 170.102 325.116 150.909C326.714 149.58 324.571 147.173 322.956 148.468C299.636 167.529 274.093 183.429 246.781 196.071C245.489 196.665 245.761 198.491 246.963 198.984C260.901 204.598 256.151 224.702 250.881 234.759C244.848 246.235 234.817 254.922 222.704 259.462C223.352 260.186 223.966 260.927 224.598 261.617C229.202 253.597 234.129 244.876 233.204 235.28C232.42 227.157 227.363 219.844 219.107 218.066C211.419 216.426 203.432 219.52 196.632 222.906C185.937 228.209 175.771 234.502 165.059 239.771C153.44 245.486 141.574 250.698 129.527 255.372C118.285 259.734 106.571 264.661 94.6246 266.742C89.4306 267.629 83.9905 267.761 79.033 265.737C73.0741 263.288 68.8563 258.189 65.0898 253.16C57.0593 242.429 49.8864 231.069 43.3515 219.394C36.37 206.896 30.2452 193.935 24.8756 180.645C20.2471 169.2 9.66403 146.921 25.9624 139.614C27.4223 139.021 26.3982 136.939 25.0055 137.498Z" fill="#212121"/>
<path d="M259.152 15.3642C265.389 8.62659 275.048 13.3426 279.796 19.3486C284.543 25.3546 287.573 33.0398 291.043 39.8409C298.232 53.9467 305.504 67.9693 312.794 82.0256C319.554 95.0909 327.701 108.433 330.082 123.194C332.35 137.301 327.457 151.177 315.073 158.812C313.947 159.49 314.384 161.736 315.894 161.244C329.01 156.878 334.933 141.703 334.615 128.847C334.147 110.684 323.593 94.2303 315.393 78.6618C306.119 60.9942 296.98 43.1768 287.302 25.7074C283.994 19.7442 279.62 12.9708 272.62 11.0337C267.508 9.62791 262.16 10.9654 258.686 15.0097C258.501 15.226 258.933 15.5971 259.152 15.3642Z" fill="#212121"/>
<path d="M262.58 15.969C276.684 14.1197 288.264 22.0617 296.057 33.2425C304.431 45.264 309.911 59.6264 316.218 72.7892C322.444 85.7841 329.105 98.6479 334.86 111.874C340.615 125.1 343.35 139.394 335.917 152.518C335.003 154.135 337.203 155.639 338.334 154.123C346.269 143.464 344.89 129.044 340.783 117.135C335.15 100.679 326.18 85.0721 318.583 69.4573C311.548 54.9843 305.549 38.041 294.229 26.2179C286.216 17.8139 274.158 11.4421 262.418 15.2147C261.948 15.3623 262.044 16.0659 262.58 15.969Z" fill="#212121"/>
<path d="M256.922 204.052C276.083 196.713 293.836 187.021 310.881 175.551C322.765 167.578 337.344 157.029 338.917 141.574C339.042 140.471 337.37 140.125 337.012 141.177C331.903 157.328 318.887 166.9 305.289 175.882C289.758 186.107 273.214 195.121 256.625 203.447C256.255 203.629 256.536 204.2 256.922 204.052Z" fill="#212121"/>
<path d="M258.247 203.444C259.377 209.895 262.889 215.508 262.275 222.316C261.735 228.17 258.788 233.54 255.394 238.255C251.982 242.935 248.021 247.345 243.827 251.367C238.741 256.204 233.891 258.298 227.121 259.626C226.367 259.789 226.411 260.726 227.012 261.015C232.868 263.848 239.137 259.722 243.58 255.952C248.932 251.401 253.873 245.676 257.993 239.979C266.134 228.634 267.747 214.787 259.389 202.883C259.008 202.278 258.151 202.824 258.247 203.444Z" fill="#212121"/>
<path d="M249.769 202.232C251.54 202.695 253.296 202.79 255.103 202.902C256.91 203.015 258.667 203.11 260.444 202.653C260.997 202.506 261.052 201.77 260.534 201.566C258.832 200.902 257.075 200.807 255.268 200.694C253.461 200.582 251.688 200.453 249.879 200.759C249.125 200.838 249.034 202.009 249.769 202.232Z" fill="#212121"/>
<path d="M251.043 199.731C254.412 201.661 259.79 203.269 263.516 201.687C264.002 201.489 263.856 200.852 263.439 200.682C261.102 199.746 258.569 198.073 256.958 196.154C256.672 196.336 256.386 196.519 256.117 196.734C257.888 199.825 263.886 201.421 267.237 200.857C268.041 200.712 267.997 199.691 267.347 199.385C265.511 198.536 263.538 198.256 261.618 197.574C259.998 196.994 258.381 195.996 256.624 195.985C256.038 195.981 255.849 196.783 256.417 197.004C258.771 197.89 261.219 199.73 262.881 201.582C263.067 201.282 263.286 200.965 263.489 200.699C261.803 199.985 260.08 199.873 258.291 199.544C256.151 199.178 254.115 198.428 252.026 197.829C250.874 197.52 249.943 199.104 251.043 199.731Z" fill="#212121"/>
<path d="M259.978 194.752C261.191 196.116 262.64 197.197 264.308 197.961C265.109 198.317 265.911 198.59 266.78 198.747C267.833 198.938 268.487 198.741 269.493 198.497C270.164 198.334 270.388 197.264 269.586 197.075C268.249 196.731 266.746 196.303 265.46 195.809C264.008 195.231 262.775 194.336 261.762 193.208C260.715 192.012 258.948 193.591 259.978 194.752Z" fill="#212121"/>
<path d="M264.361 192.637C265.458 193.765 266.858 194.662 268.395 194.99C269.749 195.283 271.806 195.481 272.718 194.281C273.106 193.799 272.725 193.194 272.291 192.99C271.374 192.565 270.032 192.975 268.996 192.734C267.86 192.459 266.792 191.983 265.943 191.191C264.962 190.298 263.363 191.626 264.361 192.637Z" fill="#212121"/>
<path d="M305.628 167.417C310.502 166.897 315.891 166.915 320.538 165.172C321.142 164.958 320.88 164.086 320.311 164.032C315.361 163.464 310.147 164.819 305.272 165.507C304.016 165.666 304.406 167.56 305.628 167.417Z" fill="#212121"/>
<path d="M310.339 163.933C315.527 163.967 320.73 164.286 325.791 163.214C326.478 163.085 326.35 162.147 325.715 162.042C320.666 161.189 315.575 161.691 310.469 161.909C309.213 161.984 309.033 163.908 310.339 163.933Z" fill="#212121"/>
<path d="M319.264 157.75C317.992 157.875 316.685 158.018 315.396 158.11C314.475 158.187 314.215 159.608 314.981 160.065C319.217 162.486 326.42 164.073 330.987 161.743C331.692 161.396 331.448 160.39 330.695 160.302C328.321 159.968 325.858 160.304 323.45 160.07C320.807 159.785 318.436 158.95 315.914 158.146C315.877 158.832 315.805 159.535 315.767 160.221C317.024 159.978 318.281 159.735 319.537 159.492C320.727 159.282 320.386 157.657 319.264 157.75Z" fill="#212121"/>
<path d="M322.687 156.482C324.269 157.664 325.97 158.579 327.875 159.06C328.727 159.266 329.58 159.389 330.467 159.411C330.851 159.431 331.27 159.433 331.672 159.403C332.224 159.339 332.46 159.14 332.997 158.959C333.651 158.763 333.589 157.875 332.904 157.754C332.269 157.649 331.735 157.411 331.099 157.307C330.213 157.201 329.311 156.977 328.459 156.771C326.838 156.358 325.286 155.662 323.852 154.782C322.702 154.055 321.671 155.689 322.687 156.482Z" fill="#212121"/>
<path d="M330.669 153.976C328.867 153.194 327.011 152.814 325.124 152.199C323.938 151.823 323.074 153.457 324.141 154.184C327.873 156.686 332.39 156.966 336.222 154.581C336.642 154.333 336.896 153.832 336.648 153.329C334.946 149.953 331.246 147.687 327.441 148.515C326.352 148.759 326.193 150.047 327.008 150.688C329.156 152.426 334.552 153.901 335.464 150.074C336.153 147.066 332.893 143.998 330.131 144.064C329.177 144.075 328.299 145.257 329.13 146.099C331.575 148.526 336.793 149.045 337.975 144.919C338.899 141.795 335.755 138.795 332.836 139.814C332.132 140.077 332.025 141.131 332.473 141.619C334.268 143.572 335.79 143.783 338.254 143.113C338.59 143.032 338.826 142.749 338.728 142.38C338.175 139.815 336.853 137.296 334.434 136.025C333.367 135.466 332.387 136.865 333.386 137.625C334.802 138.722 336.188 139.166 337.977 139.412C338.295 139.465 338.648 139.166 338.617 138.848C338.605 135.517 337.118 132.578 333.878 131.503C333.327 131.315 332.954 132.082 333.437 132.387C334.437 133.063 335.837 133.959 336.348 135.084C337.091 136.762 336.763 138.3 334.651 136.127C334.23 136.626 333.825 137.076 333.403 137.575C334.771 138.237 335.937 139.165 336.866 140.376C336.486 142.231 335.583 142.091 334.191 140.024C333.969 140.675 333.747 141.326 333.542 141.927C334.683 141.449 335.619 141.74 336.298 142.782C334.704 145.985 332.927 146.526 330.932 144.421C330.71 145.072 330.471 145.773 330.25 146.425C331.656 146.317 335.613 147.749 332.535 150.139C331.56 150.869 329.11 149.279 328.344 148.655C328.205 149.39 328.05 150.092 327.911 150.828C331.23 150.113 333.718 151.017 335.003 154.138C335.206 153.704 335.444 153.254 335.647 152.82C331.974 154.001 328.628 153.895 325.124 152.199C325.069 152.935 325.031 153.621 324.976 154.357C326.771 153.766 328.677 154.08 330.447 154.627C330.865 154.797 331.053 154.162 330.669 153.976Z" fill="#212121"/>
<path d="M320.551 165.792C326.786 161.933 335.969 157.541 337.893 149.838C338.031 149.27 337.264 148.813 336.909 149.363C332.785 155.646 325.344 159.765 319.706 164.581C319.117 165.08 319.812 166.239 320.551 165.792Z" fill="#212121"/>
<path d="M323.453 164.488C330.717 161.791 336.24 156.656 338.782 149.275C339.004 148.623 338.037 148.098 337.697 148.765C334.409 155.137 329.488 160.394 322.941 163.447C322.219 163.761 322.749 164.752 323.453 164.488Z" fill="#212121"/>
<path d="M258.528 18.756C263.192 17.0458 267.859 17.3776 272.57 18.6469C273.155 18.8181 273.428 18.0165 272.877 17.7452C268.172 15.4717 262.831 15.8887 258.098 17.8828C257.561 18.1471 257.957 18.9531 258.528 18.756Z" fill="#212121"/>
<path d="M254.835 18.1115C263.93 16.9324 271.211 19.4403 279.337 23.1588C279.871 23.3966 280.429 22.5802 279.98 22.1755C273.357 16.2577 262.938 15.1686 254.673 17.3573C254.187 17.4712 254.332 18.1919 254.835 18.1115Z" fill="#212121"/>
<path d="M264.692 15.5995C274.943 17.0222 281.517 22.5883 288.652 29.5472C289.034 29.9011 289.689 29.5372 289.442 29.0335C284.947 20.2341 274.114 15.6779 264.747 14.9471C264.312 14.9108 264.258 15.5632 264.692 15.5995Z" fill="#212121"/>
<path d="M275.279 19.2327C279.131 23.8437 283.218 28.5902 288.166 32.0368C288.549 32.3071 289.038 31.7747 288.705 31.4378C284.499 27.1257 279.805 23.2623 275.632 18.9337C275.416 18.6645 275.063 18.9635 275.279 19.2327Z" fill="#212121"/>
<path d="M258.573 16.8145C266.924 14.2916 275.22 15.1325 283.523 17.4295C283.907 17.5325 284.228 16.999 283.862 16.7623C275.924 12.409 266.632 12.9341 258.409 16.3113C258.124 16.4099 258.288 16.913 258.573 16.8145Z" fill="#212121"/>
<path d="M268.415 14.1836C272.753 13.5927 277.252 14.0908 281.325 15.7576C285.548 17.4756 288.491 20.407 291.752 23.4744C292.234 23.9462 293.124 23.4667 292.794 22.795C288.497 14.3149 276.902 11.26 268.237 13.2285C267.6 13.3749 267.795 14.28 268.415 14.1836Z" fill="#212121"/>
<path d="M277.479 15.3151C284.757 18.3251 289.223 23.8439 292.542 30.7611C292.905 31.4999 294.146 31.1398 293.934 30.2849C291.927 22.3888 285.387 16.7225 277.838 14.1794C277.137 13.9405 276.795 15.0261 277.479 15.3151Z" fill="#212121"/>
<path d="M288.192 22.9337C291.309 27.4061 294.275 31.9946 297.746 36.1679C298.028 36.4878 298.6 36.1233 298.334 35.7534C295.435 31.1318 291.949 26.8412 288.664 22.4514C288.431 22.1487 287.943 22.5974 288.192 22.9337Z" fill="#212121"/>
<path d="M289.019 29.449C291.184 31.0532 293.313 33.0085 295.8 34.0792C296.234 34.2829 296.657 33.6162 296.324 33.2793C294.462 31.3591 291.843 30.0198 289.61 28.5324C289.027 28.1938 288.486 29.0439 289.019 29.449Z" fill="#212121"/>
<path d="M293.769 38.0834C293.837 38.0501 293.787 37.9485 293.719 37.9818C293.651 38.0152 293.701 38.1168 293.769 38.0834Z" fill="#212121"/>
<path d="M304.918 68.2147C306.342 68.0566 307.78 68.1832 309.15 68.5938C310.235 68.9356 311.452 69.7972 312.574 69.6204C313.077 69.54 313.214 69.0555 313.049 68.6361C312.606 67.311 310.467 66.7781 309.247 66.5024C307.709 66.1743 306.12 66.1639 304.562 66.388C303.406 66.5813 303.762 68.3243 304.918 68.2147Z" fill="#212121"/>
<path d="M307.786 72.1825C309.057 72.2243 310.362 72.2496 311.618 72.2578C312.705 72.2649 313.876 72.3562 314.9 71.8943C315.521 71.6306 315.342 70.8428 314.808 70.605C313.84 70.1635 312.585 70.239 311.547 70.2489C310.342 70.2578 309.137 70.2666 307.932 70.2755C306.727 70.2843 306.564 72.1578 307.786 72.1825Z" fill="#212121"/>
<path d="M310.294 75.1614C312.515 75.9458 314.867 77.0826 317.226 77.2151C317.778 77.2355 317.984 76.5506 317.55 76.2633C315.618 74.8782 313.044 74.3091 310.857 73.5082C309.789 73.1162 309.242 74.8031 310.294 75.1614Z" fill="#212121"/>
<path d="M316.192 79.1832C316.998 78.7868 316.387 77.5443 315.581 77.9407C314.809 78.3206 315.42 79.5631 316.192 79.1832Z" fill="#212121"/>
<path d="M79.4035 273.02C81.7962 275.68 85.553 277.043 88.8946 277.902C92.2197 278.727 96.4653 279.558 99.8195 278.492C100.893 278.131 100.953 276.558 99.6823 276.433C96.0863 276.074 92.7189 276.605 89.1262 275.744C85.8677 274.97 83.0165 273.328 79.8768 272.286C79.476 272.15 79.121 272.7 79.4035 273.02Z" fill="#212121"/>
<path d="M79.0971 268.832C81.6812 275.527 91.4382 280.695 97.9455 276.035C98.5675 275.603 98.0054 274.545 97.3013 274.725C93.9994 275.473 91.0834 276.073 87.7599 274.997C84.4363 273.921 81.6071 271.476 80.0373 268.369C79.7235 267.731 78.8334 268.211 79.0971 268.832Z" fill="#212121"/>
<path d="M87.5682 276.053C91.7998 281.604 99.2206 280.582 105.172 279.03C115.784 276.271 126.085 272.372 135.362 266.475C135.9 266.127 135.52 265.354 134.933 265.601C126.962 268.897 119.023 272.343 110.838 275.034C104.381 277.168 94.0106 281.351 88.6119 275.123C88.0475 274.4 87.0374 275.314 87.5682 276.053Z" fill="#212121"/>
<path d="M99.7888 280.718C113.792 276.29 127.384 270.856 140.663 264.533C153.674 258.341 167.49 251.838 178.929 242.958C179.585 242.427 178.855 241.368 178.117 241.731C165.054 248.156 152.768 256.076 139.606 262.383C126.478 268.674 112.953 274.159 99.296 279.292C98.5242 279.588 98.9504 280.963 99.7888 280.718Z" fill="#212121"/>
<path d="M136.487 268.422C161.977 255.383 188.499 243.339 213.046 228.554C213.651 228.173 213.222 227.216 212.551 227.546C186.383 239.292 161.399 254.208 136.14 267.717C135.686 267.982 136.033 268.687 136.487 268.422Z" fill="#212121"/>
<path d="M160.963 254.591C179.5 245.306 198.203 236.274 216.459 226.502C217.45 225.973 216.707 224.461 215.699 224.957C197.146 234.208 178.955 244.282 160.699 254.054C160.363 254.219 160.627 254.756 160.963 254.591Z" fill="#212121"/>
<path d="M213.045 229.139C214.837 229.051 216.761 229.147 218.521 228.656C218.924 228.542 218.894 227.972 218.493 227.92C216.686 227.724 214.776 228.079 213.001 228.285C212.515 228.316 212.543 229.136 213.045 229.139Z" fill="#212121"/>
<path d="M216.309 228.742C218.42 228.287 222.029 226.637 222.38 224.212C222.414 224.028 222.182 223.809 221.997 223.858C220.991 224.186 220.333 224.969 219.525 225.616C218.432 226.446 217.206 227.091 215.997 227.685C215.393 227.982 215.672 228.888 216.309 228.742Z" fill="#212121"/>
<path d="M200.889 224.609C203.534 224.476 206.075 224.894 208.632 225.513C211.004 226.098 213.122 227.266 215.477 227.985C215.962 228.122 216.418 227.522 216.052 227.118C212.262 223.227 205.837 222.968 200.86 223.872C200.441 223.953 200.487 224.64 200.889 224.609Z" fill="#212121"/>
<path d="M206.843 222.806C209.618 223.36 212.408 224.03 215.131 224.818C217.453 225.469 219.723 226.438 222.133 226.504C222.635 226.507 222.772 225.939 222.423 225.652C218.561 222.38 211.82 221.817 206.935 221.551C206.082 221.428 206.041 222.616 206.843 222.806Z" fill="#212121"/>
<path d="M214.464 221.685C216.149 222.566 217.784 223.43 219.468 224.312C220.819 225.023 222.286 225.97 223.893 225.931C224.295 225.9 224.448 225.532 224.249 225.213C223.337 223.868 221.701 223.255 220.266 222.543C218.665 221.746 217.063 220.949 215.478 220.185C214.444 219.609 213.397 221.125 214.464 221.685Z" fill="#212121"/>
<path d="M203.614 222.685C207.415 225.069 211.748 227.776 216.314 228.241C216.666 228.276 216.803 227.792 216.519 227.639C212.685 225.271 208.276 223.853 204.392 221.552C203.591 221.111 202.847 222.228 203.614 222.685Z" fill="#212121"/>
<path d="M204.158 223.708C202.251 223.561 200.36 223.532 198.472 223.168C197.736 223.03 197.36 224.215 198.011 224.521C202.181 226.64 207.509 228.315 212.107 229.099C212.942 229.271 213.186 227.901 212.4 227.661C206.655 225.9 201.455 225.079 195.412 225.341C194.474 225.385 194.232 226.505 195.1 226.912C199.305 228.847 203.915 230.25 208.428 231.2C208.896 231.304 209.318 230.637 208.818 230.382C204.648 228.263 200.157 226.51 195.595 225.375C195.626 225.861 195.656 226.347 195.703 226.866C200.836 225.008 207.341 225.854 211.756 228.979C211.96 228.545 212.197 228.095 212.4 227.661C208.28 225.642 203.036 223.884 198.489 223.118C198.519 223.604 198.549 224.089 198.596 224.608C200.405 224.386 202.296 224.499 204.12 224.477C204.605 224.531 204.677 223.744 204.158 223.708Z" fill="#212121"/>
<path d="M200.038 229.24C197.296 228.837 193.883 228.597 191.15 229.399C190.412 229.595 190.054 230.648 190.787 231.121C192.488 232.203 194.272 233.119 196.176 233.767C197.98 234.381 199.621 234.158 201.443 234.471C201.811 234.54 201.982 233.956 201.682 233.77C199.899 232.687 197.929 231.904 195.856 231.506C194.051 231.142 191.51 230.724 190.028 232.12C189.708 232.403 189.788 232.989 190.222 233.109C191.859 233.555 193.488 232.796 195.161 232.807C197.371 232.804 199.359 233.37 201.26 234.436C201.345 234.186 201.413 233.985 201.498 233.735C199.977 233.524 198.276 232.526 196.79 231.964C195.054 231.316 193.402 230.502 191.802 229.538C191.664 230.106 191.577 230.691 191.439 231.259C194.374 230.358 196.788 229.671 199.916 229.925C200.452 229.996 200.489 229.31 200.038 229.24Z" fill="#212121"/>
<path d="M85.5189 272.139C90.9863 275.539 97.0053 279.042 103.032 281.291C103.65 281.529 104.074 280.612 103.558 280.24C99.009 277.181 94.0602 273.818 90.388 269.744C90.1017 270.01 89.799 270.242 89.5127 270.508C91.8234 272.916 95.2103 274.545 98.1628 276.054C101.182 277.614 104.385 279.208 107.727 279.983C108.529 280.172 109.121 279.172 108.372 278.665C107.339 277.922 106.754 277.834 105.58 278.161C105.396 278.21 105.41 278.495 105.594 278.529C106.161 278.918 106.744 279.257 107.311 279.645C107.598 279.296 107.935 278.963 108.221 278.614C104.834 276.985 101.344 275.824 98.0751 274.095C95.3896 272.705 92.8918 270.764 90.1045 269.591C89.5204 269.336 89.0288 270.287 89.5959 270.592C94.3817 273.285 98.7734 277.38 102.766 281.088C103.036 280.789 103.272 280.506 103.542 280.206C98.1925 276.623 91.9187 273.704 86.0281 271.054C85.4104 270.816 84.9354 271.8 85.5189 272.139Z" fill="#212121"/>
<path d="M96.2531 273.531C101.388 276.594 107.182 278.707 113.21 278.161C113.646 278.114 113.549 277.494 113.182 277.424C107.599 276.333 102.185 274.993 97.267 272.032C96.2166 271.422 95.2362 272.905 96.2531 273.531Z" fill="#212121"/>
<path d="M102.823 269.925C107.406 272.884 113.341 276.387 118.913 276.608C119.499 276.612 119.889 275.794 119.306 275.455C117.004 274.252 114.431 273.599 112.011 272.579C109.173 271.389 106.403 270.082 103.753 268.509C102.835 268 101.906 269.333 102.823 269.925Z" fill="#212121"/>
<path d="M112.35 269.035C116.255 270.868 120.007 272.817 124.201 273.882C124.719 274.003 125.075 273.369 124.625 273.048C121.027 270.48 117.037 268.898 113.032 267.114C111.78 266.604 111.165 268.491 112.35 269.035Z" fill="#212121"/>
<path d="M117.909 266.008C120.278 267.095 122.648 268.098 125.136 269.001C125.838 269.24 126.397 268.173 125.713 267.8C123.345 266.546 120.942 265.392 118.489 264.305C117.42 263.913 116.857 265.566 117.909 266.008Z" fill="#212121"/>
<path d="M136.502 258.53C140.716 259.043 145.461 260.296 149.684 259.554C150.22 259.457 150.208 258.754 149.757 258.517C145.835 256.817 140.914 256.986 136.683 256.523C135.378 256.414 135.215 258.371 136.502 258.53Z" fill="#212121"/>
<path d="M143.974 254.479C146.576 255.784 149.21 257.408 152.068 258.046C152.536 258.15 153.159 257.551 152.659 257.13C150.496 255.191 147.726 253.968 145.174 252.595C143.923 251.918 142.706 253.851 143.974 254.479Z" fill="#212121"/>
<path d="M152.011 251.737C152.632 253.934 153.889 256.318 156.143 257.17C156.76 257.408 157.167 256.624 156.819 256.17C155.59 254.606 154.293 253.409 153.72 251.397C153.375 250.357 151.7 250.681 152.011 251.737Z" fill="#212121"/>
<path d="M159.839 252.306C160.712 251.877 160.052 250.533 159.178 250.963C158.339 251.376 159 252.719 159.839 252.306Z" fill="#212121"/>
<path d="M252.992 237.101C253.126 237.035 253.027 236.834 252.893 236.9C252.758 236.966 252.858 237.167 252.992 237.101Z" fill="#212121"/>
<path d="M252.458 236.777C253.93 236.803 255.669 237.032 257.094 236.707C257.614 236.576 257.786 235.741 257.168 235.586C255.731 235.208 254.006 235.431 252.55 235.439C251.663 235.416 251.571 236.754 252.458 236.777Z" fill="#212121"/>
<path d="M255.474 233.92C256.426 234.161 257.361 234.451 258.314 234.608C258.649 234.694 258.836 234.143 258.536 233.957C257.686 233.499 256.751 233.125 255.85 232.734C255.165 232.445 254.739 233.698 255.474 233.92Z" fill="#212121"/>
<path d="M256.336 232.369C256.74 231.92 257.162 231.504 257.566 231.055C257.887 230.689 258.341 230.256 258.445 229.789C258.513 229.588 258.347 229.336 258.129 229.402C257.643 229.516 257.222 229.931 256.869 230.23C256.397 230.629 255.976 231.044 255.555 231.46C254.983 231.992 255.813 232.918 256.336 232.369Z" fill="#212121"/>
<path d="M281.971 181.557C284.698 184.302 288.467 186.285 292.42 185.842C293.056 185.78 292.894 184.942 292.376 184.821C288.883 184.162 285.642 183.171 283.014 180.626C282.382 180.019 281.356 180.9 281.971 181.557Z" fill="#212121"/>
<path d="M287.856 180.037C289.522 181.136 291.139 182.134 292.874 183.033C293.708 183.457 294.435 182.39 293.685 181.799C292.12 180.567 290.554 179.503 288.87 178.454C287.871 177.778 286.806 179.344 287.856 180.037Z" fill="#212121"/>
<path d="M293.686 178.922C294.828 178.36 293.969 176.614 292.827 177.176C291.703 177.687 292.578 179.467 293.686 178.922Z" fill="#212121"/>
</g>
<g clip-path="url(#clip1)">
<path d="M197.426 179.657C199.921 177.862 202.294 175.896 204.29 173.544C205.061 172.635 205.736 171.68 206.385 170.683C207.564 168.875 210.171 166.465 212.185 168.523C215.202 171.61 210.511 176.125 208.195 178.024C206.823 179.151 205.144 180.416 203.41 180.912C201.221 181.538 199.412 180.597 197.659 179.356C197.235 179.055 196.299 180.106 196.673 180.371C200.469 183.059 203.551 182.295 207.158 179.735C209.875 177.808 214.183 174.074 214.332 170.398C214.47 167.023 210.786 165.491 208.262 167.282C206.544 168.5 205.663 170.59 204.422 172.226C202.419 174.864 199.866 176.981 197.196 178.905C196.651 179.3 196.653 180.212 197.426 179.657Z" fill="#212121"/>
<path d="M201.499 175.999L196.999 179.499L197.5 180.5L200.5 181.5L203 181.5L206 180L209.5 177.5L212.5 174L213.5 171L213.5 169L211 167L208.5 167.5L206 170.999L201.499 175.999Z" fill="#212121"/>
<path d="M196.977 180.783C198.589 181.312 199.216 184.149 200.405 185.374C201.75 186.76 203.616 187.955 205.591 187.981C207.364 188.004 208.974 187.181 210.46 186.302C212.248 185.245 214.466 184.312 215.926 182.805C217.918 180.749 218.314 177.161 217.507 174.496C217.032 172.935 215.748 168.632 213.455 169.233C213.017 169.347 212.348 170.505 213.119 170.303C214.841 169.852 216.231 174.608 216.542 175.746C216.849 176.875 216.836 177.911 216.657 179.078C216.223 181.893 214.446 182.995 212.179 184.348C208.895 186.309 205.891 188.003 202.404 185.274C201.081 184.24 200.342 183.018 199.576 181.554C199.144 180.73 198.725 179.976 197.796 179.672C197.342 179.525 196.472 180.618 196.977 180.783Z" fill="#212121"/>
<path d="M198.125 181.985C199.445 184.201 200.734 186.438 202.083 188.636C202.95 190.046 204.117 191.826 205.69 192.514C206.962 193.069 209.104 192.699 210.457 192.666C212.416 192.619 213.677 191.782 215.338 190.803C218.186 189.123 220.759 186.94 221.179 183.379C221.377 181.705 220.69 180.227 219.944 178.779C219.311 177.558 218.786 175.94 217.394 175.432C216.954 175.271 216.073 176.36 216.581 176.543C218.371 177.196 220.105 181.554 220.107 183.369C220.114 187.438 214.92 191.407 211.049 191.535C209.966 191.57 208.784 191.636 207.706 191.589C206.17 191.526 204.962 190.293 204.045 189.101C202.139 186.624 200.707 183.65 199.11 180.968C198.894 180.605 197.852 181.527 198.125 181.985Z" fill="#212121"/>
<path d="M207.129 192.974C210.106 197.639 215.129 198.454 219.59 195.25C221.115 194.155 222.463 191.714 222.803 189.898C223.186 187.853 221.824 186.045 220.819 184.393C220.597 184.029 219.556 184.952 219.833 185.408C220.603 186.674 221.779 188.219 221.768 189.791C221.751 192.136 219.469 194.603 217.56 195.442C213.617 197.172 210.282 195.364 208.111 191.961C207.881 191.593 206.843 192.526 207.129 192.974Z" fill="#212121"/>
<path d="M198.892 178.126C197.627 176.002 196.361 174.006 193.829 173.407C190.376 172.592 186.853 173.044 183.397 172.04C180.547 171.213 177.7 170.386 174.866 169.504C171.3 168.392 167.661 167.804 164.266 166.179C152.771 160.673 141.122 147.497 144.147 133.781C145.803 126.273 149.624 119.104 155.613 114.249C158.471 111.935 161.542 109.694 165.087 108.594C168.567 107.514 172.191 107.381 175.806 107.702C182.453 108.294 188.615 110.196 193.968 114.368C198.768 118.107 202.455 123.422 204.302 129.218C205.561 133.165 206.339 137.369 206.737 141.481C206.914 143.306 207.143 144.905 206.795 146.726C206.554 147.984 206.392 149.235 206.242 150.507C205.894 153.464 204.474 156.685 205.073 159.71C205.655 162.649 207.262 165.175 208.799 167.692C209.021 168.056 210.061 167.133 209.784 166.677C208.078 163.88 205.99 160.653 206.096 157.235C206.19 154.223 207.132 151.043 207.561 148.043C207.76 146.656 208.295 145.245 208.227 143.826C208.154 142.302 207.877 140.721 207.685 139.2C207.225 135.563 206.504 131.866 205.392 128.368C203.498 122.408 199.648 116.905 194.667 113.128C192.208 111.262 189.328 109.799 186.507 108.577C183.138 107.118 179.347 106.789 175.727 106.512C169.343 106.024 163.736 107.503 158.525 111.154C152.696 115.238 148.418 120.175 145.543 126.74C142.837 132.921 141.866 138.944 143.653 145.551C145.337 151.778 150.175 157.977 155.029 162.088C157.97 164.578 161.453 166.495 164.988 167.989C168.847 169.62 173.217 170.401 177.238 171.608C180.602 172.62 184.071 173.887 187.593 174.043C189.771 174.139 192.781 173.933 194.742 175.171C196.186 176.082 197.062 177.705 197.91 179.13C198.125 179.504 199.166 178.586 198.892 178.126Z" fill="#212121"/>
<path d="M152.399 105.832C150.943 102.981 149.925 100.019 148.276 97.2455C146.395 94.0815 144.504 90.9203 142.621 87.7575C142.404 87.3932 141.362 88.3146 141.635 88.773C143.374 91.6935 145.114 94.6161 146.856 97.5355C148.627 100.505 149.756 103.626 151.313 106.679C151.568 107.175 152.609 106.244 152.399 105.832Z" fill="#212121"/>
<path d="M173.912 94.8868C172.677 93.0299 173.296 88.9137 173.204 86.7478C173.116 84.6796 173.017 82.6153 172.882 80.5505C172.776 78.9435 172.251 76.9323 172.436 75.3444C172.087 75.6172 171.739 75.8921 171.39 76.1649C171.467 76.2304 171.545 76.2979 171.62 76.3646C172.002 76.6953 172.969 75.6666 172.605 75.3491C172.529 75.2836 172.451 75.2161 172.376 75.1494C171.987 74.8119 171.367 75.6503 171.331 75.9699C171.124 77.747 171.684 79.7673 171.803 81.5757C171.968 84.1129 172.092 86.653 172.183 89.1914C172.256 91.2439 171.733 94.1019 172.93 95.8999C173.171 96.2688 174.207 95.329 173.912 94.8868Z" fill="#212121"/>
<path d="M202.944 105.027C203.849 104.477 204.388 103.679 204.876 102.749C205.896 100.807 206.73 98.8676 207.898 96.9924C209.274 94.7825 210.781 92.6539 212.4 90.6187C213.58 89.1348 215.241 87.8152 216.073 86.0909C216.475 85.2605 215.365 85.7017 215.138 86.1736C214.389 87.7178 212.724 89.0533 211.647 90.4079C210.37 92.0144 209.16 93.6839 208.03 95.3958C207.051 96.8791 206.062 98.4006 205.256 99.9895C204.656 101.174 204.186 103.366 203.002 104.084C202.565 104.35 202.159 105.503 202.944 105.027Z" fill="#212121"/>
<path d="M224.566 136.276C224.57 136.412 224.57 136.548 224.573 136.684C224.577 136.918 224.761 136.973 224.959 136.907C227.841 135.923 230.409 133.61 232.79 131.783C234.407 130.543 236.096 129.431 237.763 128.262C239.299 127.185 240.656 125.74 242.227 124.745C242.657 124.473 243.058 123.312 242.284 123.802C241.067 124.573 240.095 125.616 238.946 126.493C237.445 127.638 235.833 128.623 234.302 129.722C232.886 130.741 231.544 131.86 230.135 132.887C230.035 132.959 225.673 135.712 225.673 135.652C225.664 135.009 224.559 135.825 224.566 136.276Z" fill="#212121"/>
<path d="M170.707 182.2C171.038 182.006 171.364 181.809 171.689 181.604C171.662 181.323 171.631 181.04 171.603 180.759C167.971 183.355 165.71 187.543 162.217 190.35C160.432 191.785 158.557 193.102 156.745 194.493C155.996 195.069 155.531 195.436 155.177 196.316C154.891 197.032 156.069 196.357 156.235 195.949C156.591 195.065 159.391 193.489 160.098 192.941C161.555 191.813 163.054 190.703 164.41 189.451C167.055 187.005 168.885 183.619 171.835 181.51C172.216 181.237 172.48 180.212 171.748 180.664C171.425 180.867 171.097 181.065 170.766 181.26C170.323 181.52 169.918 182.67 170.707 182.2Z" fill="#212121"/>
<path d="M138.918 168.254C137.91 167.338 136.56 167.673 135.375 168.043C133.268 168.698 131.276 169.548 129.115 170.068C123.256 171.472 117.465 171.748 111.546 170.608C111.204 170.544 110.233 171.363 110.646 171.673C110.763 171.76 110.879 171.846 110.996 171.934C111.409 172.244 112.353 171.199 111.981 170.918C111.865 170.831 111.749 170.745 111.632 170.657C111.332 171.012 111.032 171.367 110.732 171.722C115.593 172.659 120.509 172.798 125.401 171.865C127.752 171.416 130.129 170.906 132.389 170.111C133.905 169.579 136.492 167.963 137.934 169.271C138.303 169.607 139.279 168.584 138.918 168.254Z" fill="#212121"/>
<path d="M132.984 125.529C130.288 126.013 127.65 125.189 125.127 124.265C122.121 123.167 119.16 121.887 116.251 120.55C113.703 119.38 110.063 116.992 107.377 118.917C106.83 119.308 106.832 120.221 107.606 119.667C109.085 118.608 111.793 119.97 113.226 120.613C115.124 121.468 117.003 122.359 118.914 123.187C122.98 124.949 127.841 127.472 132.392 126.655C132.824 126.579 133.575 125.424 132.984 125.529Z" fill="#212121"/>
<path d="M120.953 144.792C122.338 145.445 124.173 144.713 125.509 144.259C127.356 143.631 129.556 143.319 131.207 142.295C131.642 142.025 132.043 140.87 131.265 141.352C129.883 142.208 127.85 142.483 126.285 143.035C124.97 143.498 123.138 144.326 121.768 143.68C121.353 143.485 120.447 144.554 120.953 144.792Z" fill="#212121"/>
<path d="M135.318 110.373C137.085 112.102 139.008 113.479 140.981 114.929C141.398 115.237 142.34 114.188 141.967 113.914C139.994 112.463 138.07 111.09 136.304 109.357C135.95 109.012 134.962 110.023 135.318 110.373Z" fill="#212121"/>
<path d="M160.68 92.6773C161.155 93.7471 161.653 94.8091 162.087 95.8987C162.463 96.8462 162.708 97.8228 163.272 98.6799C163.512 99.0468 164.548 98.1071 164.258 97.6645C163.661 96.7565 163.409 95.6156 162.995 94.6175C162.606 93.6802 162.178 92.7582 161.766 91.8299C161.543 91.3304 160.488 92.2465 160.68 92.6773Z" fill="#212121"/>
<path d="M188.133 99.0375C188.354 97.3877 188.674 95.7569 189.059 94.1393C189.394 92.7307 189.552 91.0801 190.169 89.7798C189.847 89.9631 189.528 90.1452 189.21 90.3293C189.278 90.4027 189.344 90.4741 189.412 90.5476C189.742 90.9019 190.743 89.9041 190.398 89.5321C190.33 89.4587 190.263 89.3873 190.195 89.3138C189.914 89.0125 189.335 89.6498 189.236 89.8633C188.558 91.2951 188.371 92.9707 188.007 94.5055C187.602 96.2111 187.262 97.9267 187.029 99.6649C186.946 100.262 188.073 99.4829 188.133 99.0375Z" fill="#212121"/>
<path d="M207.468 125.553C208.9 125.522 210.042 124.199 211.032 123.317C212.028 122.428 213.1 121.657 214.138 120.819C215.488 119.733 216.645 118.165 218.118 117.294C218.56 117.033 218.965 115.884 218.176 116.351C216.108 117.574 214.569 119.564 212.658 121.031C211.492 121.926 209.515 124.394 208.06 124.423C207.617 124.434 206.828 125.568 207.468 125.553Z" fill="#212121"/>
<path d="M156.03 173.04C155.355 171.113 153.306 173.491 152.684 174.246C151.286 175.947 148.75 181.229 146.236 180.641C145.77 180.531 144.929 181.636 145.423 181.751C147.587 182.258 149.497 179.726 150.663 178.259C151.332 177.416 154.505 172.636 154.943 173.886C155.119 174.385 156.189 173.493 156.03 173.04Z" fill="#212121"/>
<path d="M157.189 140.288C150.986 144.171 157.879 151.087 161.214 154.567C163.776 157.242 166.704 159.566 169.958 161.365C171.679 162.316 174.603 163.968 176.594 163.045C181.668 160.693 169.744 154.263 168.277 153.141C166.903 152.091 165.365 151.008 164.281 149.639C163.126 148.179 162.257 146.327 161.302 144.729C160.553 143.475 159.164 139.348 157.116 140.581C156.676 140.846 156.27 141.995 157.058 141.524C158.051 140.927 163.256 150.748 164.345 151.754C166.035 153.313 167.937 154.599 169.818 155.897C171.7 157.195 174.295 158.43 175.765 160.184C176.392 160.934 176.854 161.277 175.978 161.785C175.24 162.213 174.813 161.953 174.055 161.683C172.983 161.302 171.903 160.862 170.909 160.313C168.814 159.158 166.544 157.684 164.729 156.118C162.87 154.514 161.121 152.567 159.639 150.616C158 148.46 153.232 143.677 157.132 141.233C157.561 140.958 157.965 139.802 157.189 140.288Z" fill="#212121"/>
<path d="M204.5 187.5L201 185L203 189.5L206.5 192L211 192.5L214.5 191L218 188.5L220.5 185L220.5 182L220 180.5L217.5 176L217.5 178L216.5 181L214.5 183.5L209.5 186L206.5 187.5L204.5 187.5Z" fill="#212121"/>
</g>
<defs>
<clipPath id="clip0">
<rect width="317.564" height="212.53" fill="white" transform="translate(0 140.164) rotate(-26.1915)"/>
</clipPath>
<clipPath id="clip1">
<rect width="138" height="132" fill="white" transform="translate(82 123.608) rotate(-30.774)"/>
</clipPath>
</defs>
</svg>
