<svg width="34" height="34" viewBox="0 0 34 34" fill="none" xmlns="http://www.w3.org/2000/svg">
<path d="M17 34C26.3888 34 34 26.3888 34 17C34 7.61116 26.3888 0 17 0C7.61116 0 0 7.61116 0 17C0 26.3888 7.61116 34 17 34Z" fill="#6C27B3"/>
<path d="M24.8828 8.82684C22.8516 9.08396 20.7338 9.075 18.6024 8.87206C15.6259 8.64309 11.2758 7.26935 9.67308 10.0168C7.09838 14.4153 8.36827 20.0465 8.96825 25.0298L17.9156 33.9753C26.5742 33.5156 33.5135 26.5772 33.9747 17.9189L24.8828 8.82684Z" fill="#501A96"/>
<path d="M20.9332 7.26941H13.0671C9.87027 7.26941 7.26953 9.87014 7.26953 13.0669V20.9331C7.26953 24.1298 9.87027 26.7307 13.0671 26.7307H20.9333C24.1299 26.7307 26.7309 24.1299 26.7309 20.9331V13.0669C26.7308 9.87014 24.13 7.26941 20.9332 7.26941ZM24.773 20.9332C24.773 23.0538 23.0539 24.7729 20.9333 24.7729H13.0671C10.9465 24.7729 9.22739 23.0538 9.22739 20.9332V13.067C9.22739 10.9464 10.9465 9.2272 13.0671 9.2272H20.9333C23.0539 9.2272 24.773 10.9465 24.773 13.067V20.9332Z" fill="white"/>
<path d="M17.0003 11.9667C14.2249 11.9667 11.9668 14.2248 11.9668 17.0001C11.9668 19.7753 14.2249 22.0334 17.0003 22.0334C19.7756 22.0334 22.0335 19.7755 22.0335 17.0001C22.0335 14.2248 19.7756 11.9667 17.0003 11.9667ZM17.0003 20.0756C15.3017 20.0756 13.9246 18.6988 13.9246 17.0001C13.9246 15.3015 15.3017 13.9245 17.0003 13.9245C18.6989 13.9245 20.0757 15.3014 20.0757 17.0001C20.0757 18.6987 18.6989 20.0756 17.0003 20.0756Z" fill="white"/>
<path d="M23.2492 12.0045C23.2492 12.6705 22.7092 13.2106 22.043 13.2106C21.377 13.2106 20.8369 12.6705 20.8369 12.0045C20.8369 11.3384 21.377 10.7983 22.043 10.7983C22.7093 10.7983 23.2492 11.3382 23.2492 12.0045Z" fill="#D1D1D1"/>
<path d="M20.9331 7.26941H16.9619V9.2272H20.9331C23.0538 9.2272 24.7729 10.9465 24.7729 13.067V20.9332C24.7729 23.0538 23.0538 24.7729 20.9331 24.7729H16.9619V26.7307H20.9331C24.1298 26.7307 26.7307 24.1299 26.7307 20.9331V13.0669C26.7307 9.87014 24.1299 7.26941 20.9331 7.26941Z" fill="#D1D1D1"/>
<path d="M17 11.9667C16.9872 11.9667 16.9747 11.9676 16.9619 11.9676V13.9254C16.9746 13.9253 16.9872 13.9245 17 13.9245C18.6986 13.9245 20.0755 15.3014 20.0755 17.0001C20.0755 18.6987 18.6987 20.0756 17 20.0756C16.9872 20.0756 16.9746 20.0748 16.9619 20.0747V22.0325C16.9747 22.0326 16.9872 22.0334 17 22.0334C19.7754 22.0334 22.0333 19.7754 22.0333 17.0001C22.0333 14.2248 19.7754 11.9667 17 11.9667Z" fill="#D1D1D1"/>
</svg>
