<svg width="24" height="24" viewBox="0 0 24 24" fill="none" xmlns="http://www.w3.org/2000/svg">
<g clip-path="url(#clip0)">
<path d="M22.0312 8.4375H15.4385C15.4594 8.20624 15.4708 7.97205 15.4708 7.73529C15.4708 3.47003 12.0005 0 7.73529 0C6.37665 0 5.04016 0.357422 3.8703 1.03345C3.64618 1.1629 3.56946 1.44965 3.69891 1.67377C3.82855 1.89807 4.1153 1.97461 4.33942 1.84515C5.36682 1.25134 6.54108 0.9375 7.73529 0.9375C11.4836 0.9375 14.5333 3.98694 14.5333 7.73529C14.5333 11.4836 11.4836 14.5333 7.73529 14.5333C6.16626 14.5333 4.69226 14.0134 3.4726 13.0302C3.35028 12.9316 3.18823 12.9022 3.04065 12.9474L1.79645 13.2728L2.28387 12.2016C2.354 12.0478 2.33569 11.8683 2.23627 11.7316C1.38666 10.5646 0.9375 9.18274 0.9375 7.73529C0.9375 6.53796 1.25299 5.36078 1.84991 4.33118C1.97974 4.10706 1.90338 3.82031 1.67944 3.69049C1.45551 3.56067 1.16876 3.63684 1.03876 3.86096C0.359253 5.0332 0 6.37299 0 7.73529C0 9.28967 0.455383 10.7781 1.31964 12.0571L0.534851 13.7814C0.459778 13.946 0.486328 14.139 0.602783 14.2775C0.719238 14.4159 0.904907 14.4749 1.07996 14.4291L3.07343 13.908C4.40973 14.9174 6.05566 15.4708 7.73529 15.4708C8.10095 15.4708 8.46039 15.4446 8.8125 15.3953V19.5C8.8125 20.5854 9.69562 21.4688 10.7811 21.4688H17.4108L20.3751 23.894C20.4604 23.9639 20.5657 23.9998 20.6719 23.9998C20.7402 23.9998 20.8087 23.985 20.8726 23.9548C21.0363 23.8771 21.1406 23.7123 21.1406 23.5311V21.4688H22.0312C23.1169 21.4688 24 20.5854 24 19.5V10.4062C24 9.32062 23.1169 8.4375 22.0312 8.4375ZM23.0625 19.5C23.0625 20.0685 22.6 20.5312 22.0312 20.5312H20.6719C20.413 20.5312 20.2031 20.7411 20.2031 21V22.5419L17.8879 20.6477C17.7603 20.5312 17.6486 20.5312 17.3976 20.5312H10.7811C10.2125 20.5312 9.75 20.0685 9.75 19.5V15.204C12.5228 14.4553 14.683 12.2005 15.2952 9.375H22.0312C22.6 9.375 23.0625 9.83752 23.0625 10.4062V19.5Z" fill="#212121"/>
<path d="M18.7393 16.3408C18.8983 16.2659 19.0085 16.1046 19.0085 15.9171C19.0085 15.6584 18.7986 15.4484 18.5397 15.4484H18.3478L16.8361 12.0031C16.7612 11.8326 16.5928 11.7225 16.4067 11.7225C16.2207 11.7225 16.0523 11.8326 15.9775 12.0031L14.4658 15.4484H14.2739C14.015 15.4484 13.8052 15.6584 13.8052 15.9171C13.8052 16.1046 13.9154 16.2659 14.0743 16.3408L13.5113 17.624C13.4073 17.8611 13.5151 18.1376 13.7521 18.2416C13.9892 18.3456 14.2657 18.2378 14.3697 18.0007L15.0783 16.3859H17.7354L18.444 18.0007C18.5211 18.1765 18.693 18.2812 18.8735 18.2812C18.9363 18.2812 19.0002 18.2686 19.0616 18.2416C19.2985 18.1376 19.4066 17.8611 19.3024 17.624L18.7393 16.3408ZM15.4896 15.4484L16.4067 13.358L17.3239 15.4484H15.4896Z" fill="#212121"/>
<path d="M2.59668 3.06555C2.71991 3.06555 2.84076 3.01538 2.9281 2.92822C3.01526 2.84107 3.06543 2.72022 3.06543 2.5968C3.06543 2.47357 3.01526 2.35272 2.9281 2.26538C2.84076 2.17822 2.71991 2.12805 2.59668 2.12805C2.4729 2.12805 2.35242 2.17822 2.26526 2.26538C2.1781 2.35272 2.12793 2.47357 2.12793 2.5968C2.12793 2.72022 2.1781 2.84107 2.26526 2.92822C2.35242 3.01556 2.47327 3.06555 2.59668 3.06555Z" fill="#212121"/>
<path d="M4.93687 10.588C4.70982 10.7125 4.62669 10.9974 4.7512 11.2245C4.83653 11.3799 4.99712 11.468 5.16264 11.468C5.23881 11.468 5.31609 11.4493 5.38768 11.4102C6.43303 10.8369 7.23723 9.94513 7.70763 8.89355C8.17821 9.94513 8.98222 10.8369 10.0276 11.4102C10.0992 11.4493 10.1764 11.468 10.2526 11.468C10.4181 11.468 10.5787 11.3799 10.664 11.2245C10.7886 10.9974 10.7054 10.7125 10.4784 10.588C9.25468 9.91693 8.43108 8.71759 8.22655 7.36243H10.3077C10.5666 7.36243 10.7765 7.15259 10.7765 6.89368C10.7765 6.63477 10.5666 6.42493 10.3077 6.42493H8.17638V4.47156C8.17638 4.21265 7.96654 4.00281 7.70763 4.00281C7.44871 4.00281 7.23888 4.21265 7.23888 4.47156V6.42493H5.54552C5.28661 6.42493 5.07677 6.63477 5.07677 6.89368C5.07677 7.15259 5.28661 7.36243 5.54552 7.36243H7.1887C6.98418 8.71759 6.16057 9.91711 4.93687 10.588Z" fill="#212121"/>
</g>
<defs>
<clipPath id="clip0">
<rect width="24" height="24" fill="white"/>
</clipPath>
</defs>
</svg>
