<svg width="203" height="240" viewBox="0 0 203 240" fill="none" xmlns="http://www.w3.org/2000/svg">
<g opacity="0.37">
<path opacity="0.37" d="M122.218 239.772C166.282 239.772 202.003 233.654 202.003 226.106C202.003 218.559 166.282 212.44 122.218 212.44C78.1545 212.44 42.4336 218.559 42.4336 226.106C42.4336 233.654 78.1545 239.772 122.218 239.772Z" fill="#FFA4CD"/>
</g>
<path d="M182.016 108.631C180.301 96.4523 175.631 84.9142 169.829 73.8166C162.327 59.4698 148.268 51.2622 134.636 43.4076C138.984 30.7948 145.859 6.25635 128.7 2.56965C109.132 -1.62943 109.447 26.9893 111.084 39.3835C103.061 36.2811 93.9027 35.8062 85.5365 36.9122C76.6806 38.0838 67.4128 39.3929 59.683 44.0575C59.9793 34.9907 59.1901 24.6773 54.8323 16.7916C51.1795 10.1867 42.6448 6.05639 36.1346 11.3771C28.7729 17.3946 28.8197 26.327 30.4106 34.8845C31.3089 39.7241 32.7189 44.4855 34.6529 49.0127C35.2425 50.3936 35.882 51.8995 36.7585 53.1149C33.9168 55.8424 31.1343 58.6449 28.4516 61.5412C22.0506 68.0367 15.8211 74.8883 11.7441 82.7272C10.2093 85.6766 8.99278 88.7634 8.00705 91.9252C5.93265 96.8835 4.46342 102.089 4.25442 107.191C-0.00355959 124.993 2.22681 144.682 11.0984 160.62C16.0364 169.49 23.2484 177.075 32.0451 182.165C39.3383 186.386 48.4999 189.87 57.2935 191.191C55.5498 198.849 55.7245 206.903 59.7454 213.902C62.0631 217.935 67.2912 223.69 72.6253 224.993C72.6753 226.396 73.0028 227.761 73.7171 229.052C74.6997 230.826 76.7211 232.342 78.8454 231.81C81.1787 231.229 82.0085 228.855 81.9866 226.668C81.9804 226.087 81.9336 225.446 81.8307 224.796C92.9482 225.177 104.113 224.193 114.996 221.847C115.299 224.762 116.562 227.699 119.685 227.789C121.503 227.842 122.561 226.824 123.303 225.234C123.74 224.296 124.005 223.103 124.002 222.056C124.002 221.994 123.877 220.863 123.674 219.938C132.483 213.761 136.645 198.34 132.926 187.898C148.991 181.346 164.747 170.864 174.358 156.136C179.602 148.1 182.912 139.156 183.929 129.614C184.702 122.29 183.894 115.436 182.016 108.631Z" fill="white"/>
<path d="M193.598 188.932C189.933 181.115 183.863 177.863 176.011 174.854C172.552 173.529 168.525 172.851 164.594 173.089C164.445 173.573 164.061 173.998 163.437 174.073C159.719 174.52 156.272 176.407 153.43 178.781C148.208 183.146 141.698 187.517 139.093 193.772C137.374 197.896 135.999 205.351 136.364 209.843C136.707 214.049 139.967 216.732 143.51 219.854C147.519 222.531 151.786 224.868 156.331 226.365C163.253 228.645 170.814 228.599 178.011 228.027C182.961 227.633 190.694 226.393 192.8 221.035C193.698 218.748 192.394 218.007 192.154 215.967C191.82 213.105 194.952 209.487 195.651 206.619C197.095 200.695 196.166 194.412 193.598 188.932Z" fill="#FDE41B"/>
<g opacity="0.43">
<path opacity="0.43" d="M180.854 116.736C180.05 122.648 178.047 129.037 175.47 134.901C174.899 136.167 174.31 137.423 173.705 138.666C172.959 140.156 172.182 141.594 171.384 142.959C167.067 150.348 160.438 157.125 153.803 162.486C153.357 162.845 152.895 163.176 152.44 163.52C151.966 163.545 151.479 163.717 151.027 164.092C149.414 165.423 147.733 166.682 146.011 167.894C140.131 171.462 133.82 174.333 127.506 177.033C105.29 186.537 84.2435 188.358 60.4238 183.538C49.6744 181.363 39.8608 177.642 30.88 171.234C12.1792 157.884 3.30767 131.346 7.2849 109.144C7.68106 106.939 4.49304 105.933 3.86916 108.182C0.297449 121.032 0.0354196 134.37 4.35578 147.08C8.32054 158.743 15.8383 168.513 25.0686 176.505C34.667 184.815 45.8001 189.208 58.1342 191.705C66.1978 193.335 74.1117 194.479 82.0381 194.573C82.1754 194.954 82.4062 195.326 82.7805 195.663C84.2186 196.972 86.2243 198.925 88.3611 200.193C88.2613 200.287 88.1677 200.39 88.0804 200.506C85.5942 203.858 81.0212 205.892 76.8817 205.189C74.5297 204.789 73.4566 208.145 75.8555 208.845C78.7659 209.694 81.6388 209.623 84.1562 208.695C87.7622 208.388 92.1262 207.254 94.2973 204.442C98.8423 205.133 103.403 204.261 107.564 201.609C109.629 200.293 107.973 197.26 105.749 198.275C102.851 199.6 99.0669 201.062 95.8633 200.268C96.8396 189.246 117.986 190.633 125.027 189.258C137.351 186.849 149.199 181.91 158.732 173.59C175.043 159.355 183.013 138.085 183.911 116.78C183.999 114.765 181.113 114.834 180.854 116.736Z" fill="#F7C9B6"/>
</g>
<g opacity="0.43">
<path opacity="0.43" d="M121.456 224.594C120.362 222.619 119.36 220.864 119.023 218.589C118.814 217.186 117.227 216.896 116.157 217.321C108.274 220.457 98.7441 219.598 90.4029 220.22C87.7202 220.42 83.5745 220.179 81.1508 221.495C78.2435 223.076 80.1993 226.525 77.3607 228.468C75.8883 229.477 77.0737 231.821 78.7114 230.952C79.6378 230.458 80.4177 229.965 81.1008 229.152C82.0242 228.056 81.9524 226.565 82.6699 225.575C83.7617 224.063 92.1217 224.594 94.4737 224.391C101.433 223.791 108.792 223.738 115.53 221.673C115.973 223.622 116.787 225.344 118.424 226.822C119.959 228.203 122.542 226.553 121.456 224.594Z" fill="#F7C9B6"/>
</g>
<g opacity="0.43">
<path opacity="0.43" d="M94.4136 102.328C93.1658 102.312 91.8557 102.818 90.6609 103.121C89.4381 103.43 88.6427 104.714 88.9422 105.952C88.9827 106.114 89.0357 106.264 89.1012 106.405C88.8642 107.742 89.6284 108.979 91.0041 109.507C93.6275 110.51 97.6702 108.723 97.7451 105.605C97.7919 103.693 96.2509 102.352 94.4136 102.328Z" fill="#F7C9B6"/>
</g>
<g opacity="0.43">
<path opacity="0.43" d="M92.3949 87.335C90.1614 87.335 90.0959 90.8092 92.3356 90.8092C94.5691 90.8061 94.6315 87.335 92.3949 87.335Z" fill="#F7C9B6"/>
</g>
<path d="M51.4997 39.5613C50.8759 35.5622 50.3861 27.1953 45.5323 25.7018C41.0467 24.324 38.5231 28.9636 38.1487 32.6847C37.6496 37.6399 39.696 45.1132 43.1429 48.8093C43.2333 48.9061 43.3332 48.9905 43.433 49.0686C43.9383 49.7029 44.8305 50.0684 45.8037 49.6747C47.7284 48.8937 50.7043 48.2907 51.7368 46.2349C52.6914 44.3384 51.8086 41.5296 51.4997 39.5613Z" fill="#FFA4CD"/>
<path d="M127.969 17.5465C124.837 15.8062 121.025 17.5808 119.369 20.4771C117.201 24.2731 117.85 29.4595 117.647 33.643C117.529 36.1268 117.154 40.3478 119.949 41.3882C120.115 41.5444 120.299 41.685 120.533 41.7943C123.025 42.9597 126.051 44.828 127.857 41.6506C129.975 37.9233 130.218 31.9152 130.549 27.7036C130.811 24.3669 131.507 19.5148 127.969 17.5465Z" fill="#FFA4CD"/>
<path d="M46.0111 122.733C54.3598 122.733 61.1277 116.907 61.1277 109.72C61.1277 102.533 54.3598 96.707 46.0111 96.707C37.6625 96.707 30.8945 102.533 30.8945 109.72C30.8945 116.907 37.6625 122.733 46.0111 122.733Z" fill="#FFA4CD"/>
<path d="M137.833 114.791C146.127 114.791 152.85 109.354 152.85 102.647C152.85 95.9401 146.127 90.5029 137.833 90.5029C129.54 90.5029 122.816 95.9401 122.816 102.647C122.816 109.354 129.54 114.791 137.833 114.791Z" fill="#FFA4CD"/>
<path d="M193.881 189.926C193.741 189.526 193.207 189.667 193.254 190.079C193.822 195.034 194.028 199.189 192.362 203.973C191.214 207.266 189.982 210.296 189.183 213.699C188.394 217.061 187.34 220.141 184.276 222.081C180.892 224.225 176.796 224.115 172.953 223.797C159.689 222.694 135.358 219.997 139.99 200.511C140.249 199.418 138.593 198.558 138.078 199.692C134.556 207.466 136.391 216.092 143.428 221.238C151.417 227.077 162.612 227.236 172.052 228.492C179.429 229.473 190.905 228.489 192.633 219.241C193.058 216.967 192.112 215.061 192.128 212.827C192.15 209.759 193.915 206.769 194.511 203.792C195.391 199.374 195.378 194.191 193.881 189.926Z" fill="#FDC01B"/>
<path d="M175.103 190.169C175.777 186.416 171.815 183.148 168.259 183.198C166.166 183.23 163.911 184.423 163.184 186.476C162.329 188.888 163.711 191.1 165.239 192.877C166.649 194.518 168.534 195.902 170.795 195.802C173.132 195.699 175.084 194.058 175.237 191.653C175.268 191.159 175.215 190.662 175.103 190.169Z" fill="#FB7F1C"/>
<path d="M159.203 188.597C158.554 187.479 157.422 186.529 156.205 186.104C153.625 185.201 150.459 187.279 151.074 190.191C151.295 191.237 151.913 191.943 152.708 192.396C154.118 193.555 156.377 193.88 157.942 193.049C159.571 192.181 160.123 190.184 159.203 188.597Z" fill="#FFAD12"/>
<path d="M181.75 194.571C180.546 194.549 179.469 195.314 179.026 196.364C178.521 196.936 178.259 197.686 178.44 198.576C178.958 201.132 182.498 202.019 184.286 200.245C186.391 198.148 184.514 194.627 181.75 194.571Z" fill="#FFAD12"/>
<path d="M187.313 182.468C187.313 182.371 187.307 182.271 187.279 182.168C186.889 180.674 185.389 179.237 183.77 179.787C183.034 180.037 182.419 180.64 182.313 181.433C182.188 182.386 182.809 183.002 183.448 183.599C183.997 184.111 184.512 184.67 185.245 184.908C185.991 185.151 186.908 185.02 187.351 184.305C187.747 183.664 187.65 183.036 187.313 182.468Z" fill="white"/>
<path d="M189.042 188.007C188.867 187.776 188.693 187.544 188.521 187.313C188.387 187.135 188.097 187.191 187.978 187.341C187.832 187.526 187.9 187.747 188.075 187.879C188.3 188.047 188.521 188.216 188.746 188.385C188.839 188.457 188.992 188.41 189.058 188.325C189.132 188.222 189.117 188.107 189.042 188.007Z" fill="white"/>
<path d="M58.6959 45.2032C71.6882 39.1014 86.7268 37.0331 100.942 38.639C104.726 39.067 108.475 39.8168 112.131 40.8916C113.728 41.3634 114.408 38.867 112.817 38.3984C98.7864 34.2618 83.2237 34.7242 69.1895 38.6077C65.1406 39.7262 61.1945 41.1853 57.392 42.9724C55.8884 43.6785 57.1986 45.9061 58.6959 45.2032Z" fill="#212121"/>
<path d="M38.4766 50.8925C28.8002 56.7319 20.749 64.9645 14.5976 74.4187C8.37439 83.9822 4.05403 94.8205 1.80495 105.999C-0.456617 117.237 -0.671855 128.913 1.60842 140.164C3.84503 151.193 8.61147 161.672 15.836 170.323C20.0753 175.397 25.1287 179.796 30.8029 183.189C37.3349 187.094 44.5968 189.687 52.021 191.281C53.877 191.678 55.7455 192.012 57.6234 192.299C59.2486 192.546 59.9474 190.056 58.3097 189.806C50.9978 188.691 43.7421 186.797 37.0448 183.601C30.7935 180.617 25.1755 176.559 20.3903 171.551C12.857 163.668 7.68813 153.805 4.96801 143.269C2.22918 132.653 1.90477 121.427 3.59236 110.611C5.31427 99.5726 9.0513 88.8405 14.6849 79.1926C20.1532 69.829 27.4682 61.4371 36.4271 55.2791C37.522 54.5261 38.6419 53.8107 39.7774 53.1233C41.1998 52.2672 39.9053 50.0302 38.4766 50.8925Z" fill="#212121"/>
<path d="M132.912 45.8298C144.36 50.2351 154.623 57.4085 162.74 66.6128C170.401 75.3046 176.063 85.7336 179.307 96.8531C182.488 107.754 183.393 119.392 181.565 130.621C179.728 141.915 175.18 152.766 168.071 161.761C160.116 171.824 149.354 179.316 137.488 184.043C135.8 184.715 134.094 185.331 132.372 185.906C130.803 186.427 131.477 188.924 133.059 188.399C145.973 184.1 158.014 177.017 167.166 166.828C175.142 157.946 180.682 147.039 183.271 135.385C185.829 123.869 185.592 111.812 182.897 100.346C180.14 88.6173 174.784 77.5541 167.328 68.1031C159.586 58.2833 149.492 50.3569 138.096 45.2143C136.615 44.5457 135.114 43.9208 133.598 43.3366C132.045 42.7398 131.374 45.2362 132.912 45.8298Z" fill="#212121"/>
<path d="M123.763 220.235C134.875 213.439 136.996 199.505 133.911 187.723C133.49 186.114 131 186.798 131.422 188.41C134.201 199.036 132.554 211.827 122.46 218.001C121.043 218.866 122.341 221.103 123.763 220.235Z" fill="#212121"/>
<path d="M82.7692 226.79C93.5343 226.69 104.399 225.884 114.896 223.369C116.512 222.981 115.825 220.488 114.21 220.876C103.931 223.341 93.3128 224.109 82.7692 224.206C81.1097 224.222 81.1066 226.806 82.7692 226.79Z" fill="#212121"/>
<path d="M54.5703 191.69C54.5953 201.881 55.6839 214.147 64.0814 221.161C66.5675 223.239 69.4654 224.667 72.5755 225.545C74.1757 225.998 74.8589 223.505 73.2617 223.052C68.383 221.671 64.2997 218.737 61.6888 214.357C59.1839 210.154 58.0734 205.218 57.5649 200.394C57.2592 197.504 57.1563 194.595 57.1501 191.686C57.1469 190.027 54.5641 190.024 54.5703 191.69Z" fill="#212121"/>
<path d="M69.7116 91.8104C59.8419 78.1634 43.228 97.9028 57.3027 104.923C60.9992 106.767 65.5285 105.745 68.3859 102.833C71.3119 99.8493 72.1385 95.1659 69.7116 91.8104ZM55.6681 97.4779C53.4471 97.4779 53.4502 94.0256 55.6681 94.0256C57.8922 94.0256 57.8891 97.4779 55.6681 97.4779Z" fill="#212121"/>
<path d="M126.02 88.7784C123.986 85.0449 119.787 82.5111 115.186 84.1513C107.16 87.0163 106.049 97.9546 113.77 101.804C117.466 103.647 121.993 102.625 124.85 99.7167C127.932 96.5799 127.876 92.1808 126.02 88.7784ZM121.974 91.4841C119.753 91.4841 119.756 88.0317 121.974 88.0317C124.198 88.0317 124.192 91.4841 121.974 91.4841Z" fill="#212121"/>
<path d="M83.7322 93.9705C82.6872 96.5668 84.3654 99.8223 87.0418 100.55C90.0333 101.363 92.9843 98.9632 93.2526 95.9982C92.5195 96.3044 91.7833 96.6074 91.0503 96.9136C93.0217 98.5633 95.4642 100.191 98.0907 98.9538C100.727 97.7103 100.34 94.6328 99.4477 92.3865C99.1919 91.7397 98.5836 91.2836 97.8599 91.4835C97.2454 91.6523 96.6995 92.4208 96.9584 93.0738C97.3327 94.0205 98.253 96.0419 96.9272 96.6605C95.4767 97.3385 93.8952 95.9388 92.8751 95.0859C91.9861 94.3423 90.7758 94.8516 90.6728 96.0013C90.5481 97.3698 88.8667 98.5008 87.5659 98.0134C86.2183 97.5072 85.7286 95.892 86.2215 94.6641C86.4835 94.0174 85.9376 93.2457 85.3199 93.0738C84.5806 92.8676 83.9911 93.3206 83.7322 93.9705Z" fill="#212121"/>
<path d="M70.1905 194.784C73.5781 195.844 77.0625 196.531 80.497 197.415C83.4947 198.187 87.1881 198.996 89.537 201.158C90.5289 202.07 91.5521 203.573 90.2482 204.663C89.0503 205.663 87.3097 206.204 85.8405 206.635C82.5963 207.585 79.165 207.725 75.8553 207.047C74.2332 206.716 73.5407 209.206 75.169 209.541C78.2728 210.175 81.4265 210.212 84.5366 209.609C86.1181 209.303 87.6466 208.816 89.1283 208.185C90.3886 207.647 91.6987 207.035 92.5846 205.948C94.6122 203.454 92.778 200.361 90.6007 198.705C88.18 196.862 85.0232 195.962 82.1315 195.175C78.3914 194.16 74.5764 193.447 70.8736 192.291C69.2859 191.794 68.6058 194.288 70.1905 194.784Z" fill="#212121"/>
<path d="M104.12 188.284C102.126 190.421 99.4529 191.945 97.2132 193.807C94.9829 195.663 92.2035 198.156 92.0569 201.284C91.9227 204.102 94.0252 206.117 96.7016 206.398C99.4186 206.686 102.257 205.683 104.725 204.658C107.311 203.586 109.844 202.312 112.193 200.787C113.581 199.884 112.289 197.647 110.889 198.556C109.123 199.703 107.245 200.7 105.339 201.587C103.14 202.612 100.691 203.627 98.2613 203.83C97.7466 203.874 97.2101 203.893 96.6985 203.818C96.4552 203.783 95.8812 203.602 95.6566 203.468C95.0983 203.137 94.6647 202.405 94.6304 201.599C94.5368 199.328 97.2475 197.144 98.8634 195.785C101.153 193.86 103.895 192.311 105.941 190.117C107.077 188.896 105.255 187.062 104.12 188.284Z" fill="#212121"/>
<path d="M70.6983 225.454C71.3627 227.254 72.1051 229.034 73.3841 230.49C74.585 231.859 76.3101 232.749 78.1411 232.818C79.9629 232.887 81.6567 231.934 82.5738 230.362C83.4285 228.894 83.6094 227.104 83.5471 225.435C83.5221 224.739 82.9731 224.142 82.2556 224.142C81.5756 224.142 80.9392 224.732 80.9642 225.435C80.9829 225.988 80.9704 226.779 80.9205 227.172C80.8768 227.513 80.802 227.853 80.7084 228.185C80.6304 228.453 80.5524 228.663 80.4776 228.813C80.2062 229.347 79.9722 229.65 79.5417 229.909C79.0645 230.2 78.5935 230.269 77.9883 230.228C77.5672 230.197 76.9152 229.981 76.4691 229.728C75.8921 229.4 75.4772 229.016 75.0467 228.472C74.1826 227.388 73.6617 226.054 73.1875 224.767C72.9473 224.114 72.3141 223.667 71.5998 223.864C70.9697 224.036 70.455 224.795 70.6983 225.454Z" fill="#212121"/>
<path d="M114.281 223.685C115.257 225.638 116.882 227.844 119.191 228.222C121.858 228.659 124.126 226.785 124.884 224.301C125.367 222.717 125.23 221.042 124.968 219.436C124.859 218.768 123.995 218.333 123.38 218.533C122.656 218.768 122.36 219.405 122.479 220.124C122.681 221.358 122.706 222.651 122.301 223.898C122.245 224.038 122.245 224.045 122.295 223.92C122.26 223.992 122.226 224.063 122.189 224.135C122.132 224.241 122.073 224.348 122.011 224.448C121.986 224.488 121.708 224.866 121.864 224.676C121.789 224.769 121.708 224.86 121.627 224.944C121.518 225.06 121.402 225.166 121.281 225.269C121.468 225.11 121.209 225.319 121.162 225.347C121.031 225.432 120.894 225.507 120.754 225.576C120.988 225.457 120.632 225.616 120.573 225.635C120.442 225.672 120.308 225.707 120.173 225.726C120.457 225.685 120.045 225.716 119.986 225.716C119.918 225.716 119.525 225.66 119.815 225.716C119.684 225.691 119.556 225.663 119.431 225.626C119.372 225.607 119.013 225.457 119.266 225.576C119.144 225.519 119.029 225.457 118.913 225.388C118.798 225.319 118.685 225.244 118.573 225.166C118.455 225.079 118.448 225.073 118.554 225.154C118.508 225.116 118.464 225.079 118.42 225.038C118.208 224.851 118.009 224.651 117.821 224.438C117.725 224.329 117.634 224.22 117.544 224.107C117.684 224.285 117.438 223.957 117.413 223.92C117.07 223.429 116.773 222.911 116.508 222.376C116.196 221.751 115.316 221.576 114.742 221.914C114.109 222.289 113.969 223.06 114.281 223.685Z" fill="#212121"/>
<path d="M164.368 175.044C172.173 173.726 180.514 176.322 186.316 181.683C192.411 187.32 195.219 195.849 194.177 204.044C193.918 206.072 193.403 208.078 192.67 209.987C191.915 211.961 190.571 213.786 191.211 215.992C191.463 216.87 191.997 217.673 192.071 218.6C192.146 219.535 191.731 220.419 191.186 221.153C190.031 222.703 188.231 223.746 186.5 224.515C179.376 227.677 171.2 228.58 163.513 227.449C154.739 226.158 146.382 222.328 139.949 216.176C138.749 215.026 136.921 216.851 138.125 218.004C150.515 229.857 169.877 233.803 185.876 227.552C189.482 226.143 194.099 223.79 194.611 219.453C194.735 218.391 194.517 217.404 194.124 216.42C193.94 215.954 193.697 215.489 193.625 214.989C193.528 214.326 193.821 213.727 194.093 213.142C195.029 211.108 195.821 209.053 196.298 206.859C198.195 198.111 195.971 188.579 190.05 181.818C183.584 174.435 173.308 170.93 163.688 172.557C162.047 172.829 162.74 175.319 164.368 175.044Z" fill="#212121"/>
<path d="M165.888 186.497C167.654 185.401 169.834 185.176 171.778 185.988C172.533 186.303 173.403 186.966 173.849 187.659C173.98 187.863 174.095 188.072 174.195 188.294C174.099 188.078 174.261 188.469 174.261 188.472C174.289 188.553 174.317 188.637 174.342 188.722C174.52 189.325 174.535 189.478 174.538 190.071C174.541 190.94 174.357 191.721 173.958 192.446C173.696 192.924 173.64 193.014 173.238 193.405C173.147 193.493 173.054 193.58 172.954 193.658C173.1 193.539 172.935 193.671 172.91 193.686C172.804 193.758 172.695 193.827 172.586 193.889C172.545 193.914 172.124 194.111 172.308 194.036C170.156 194.908 167.273 194.033 165.639 192.462C163.889 190.784 163.44 187.928 165.115 186.172C166.263 184.969 164.441 183.139 163.29 184.345C161.091 186.647 160.938 190.431 162.747 193.018C164.634 195.72 168.175 197.276 171.45 196.873C172.957 196.686 174.367 196.073 175.368 194.902C176.217 193.911 176.8 192.693 177 191.396C177.443 188.553 176.379 185.822 173.943 184.226C171.188 182.42 167.345 182.545 164.587 184.26C163.177 185.141 164.472 187.378 165.888 186.497Z" fill="#212121"/>
<path d="M158.288 187.299C158.338 187.339 158.379 187.383 158.419 187.43C158.35 187.342 158.285 187.255 158.216 187.167C158.263 187.23 158.301 187.296 158.335 187.364C158.291 187.261 158.248 187.158 158.204 187.055C158.241 187.142 158.263 187.23 158.279 187.324C158.263 187.208 158.248 187.096 158.232 186.98C158.244 187.083 158.244 187.183 158.232 187.283C158.248 187.167 158.263 187.055 158.279 186.939C158.263 187.039 158.238 187.139 158.198 187.233C158.241 187.13 158.285 187.027 158.329 186.924C158.294 187.002 158.251 187.074 158.201 187.142C158.269 187.055 158.335 186.968 158.403 186.88C158.36 186.933 158.313 186.983 158.257 187.027C158.344 186.958 158.432 186.893 158.519 186.824C158.475 186.858 158.432 186.886 158.382 186.911C159.015 187.399 159.645 187.883 160.278 188.37C160.49 187.695 160.702 187.024 160.911 186.349C161.011 186.036 160.946 185.633 160.78 185.352C160.624 185.084 160.316 184.827 160.01 184.759C159.679 184.684 159.308 184.699 159.015 184.89C158.725 185.077 158.525 185.33 158.422 185.662C158.21 186.336 157.998 187.008 157.789 187.683C157.773 187.799 157.758 187.911 157.742 188.027C157.758 188.142 157.773 188.255 157.789 188.37C157.833 188.473 157.876 188.577 157.92 188.68C158.001 188.83 158.113 188.951 158.254 189.042C158.335 189.123 158.428 189.176 158.538 189.208C158.637 189.267 158.747 189.295 158.862 189.295C158.977 189.326 159.09 189.326 159.205 189.295C159.377 189.289 159.536 189.236 159.686 189.142C160.016 188.967 160.294 188.673 160.49 188.358C160.59 188.195 160.662 188.008 160.721 187.827C160.78 187.645 160.799 187.442 160.818 187.255C160.827 187.167 160.827 187.083 160.818 186.996C160.799 186.808 160.784 186.605 160.721 186.427C160.596 186.071 160.412 185.708 160.116 185.462C160.001 185.337 159.86 185.246 159.701 185.193C159.548 185.112 159.383 185.074 159.205 185.08C158.89 185.08 158.51 185.221 158.291 185.458C158.067 185.705 157.898 186.027 157.914 186.374C157.926 186.708 158.029 187.086 158.288 187.299Z" fill="#212121"/>
<path d="M178.872 192.855C178.907 192.977 178.932 193.099 178.95 193.224C178.935 193.109 178.919 192.996 178.903 192.88C178.932 193.109 178.928 193.337 178.9 193.565C178.916 193.449 178.932 193.337 178.947 193.221C178.913 193.449 178.854 193.668 178.763 193.88C178.807 193.777 178.85 193.674 178.894 193.571C178.838 193.696 178.776 193.818 178.701 193.933C179.502 194.152 180.304 194.368 181.106 194.586C181.062 194.036 181.015 193.487 180.972 192.94C180.978 192.762 180.94 192.596 180.859 192.443C180.806 192.284 180.719 192.143 180.591 192.027C180.366 191.803 180.002 191.634 179.677 191.649C179.343 191.665 178.997 191.774 178.763 192.027C178.542 192.268 178.358 192.602 178.386 192.943C178.429 193.493 178.476 194.043 178.52 194.589C178.535 194.705 178.551 194.818 178.567 194.933C178.607 195.102 178.682 195.249 178.797 195.374C178.963 195.586 179.197 195.777 179.468 195.836C179.696 195.889 179.927 195.889 180.154 195.836C180.473 195.764 180.756 195.511 180.925 195.242C181.081 194.999 181.19 194.73 181.293 194.458C181.358 194.28 181.402 194.099 181.43 193.911C181.471 193.627 181.514 193.343 181.496 193.055C181.477 192.759 181.436 192.459 181.355 192.171C181.268 191.856 181.043 191.565 180.763 191.4C180.485 191.237 180.08 191.168 179.768 191.268C179.456 191.368 179.153 191.562 178.997 191.862C178.841 192.168 178.776 192.515 178.872 192.855Z" fill="#212121"/>
<path d="M37.421 52.0085C34.3671 45.613 31.3038 38.9332 30.5053 31.8097C29.8221 25.7267 30.7049 18.7595 34.7352 13.8949C38.0792 9.85827 43.4352 8.98346 48.0394 11.3642C52.9899 13.923 55.8067 18.9219 57.1044 24.1802C58.6048 30.2632 58.402 36.6243 58.3053 42.8417C58.2804 44.507 60.8601 44.507 60.8851 42.8417C61.066 31.438 61.4341 16.5256 50.3509 9.70518C45.469 6.69958 39.2895 6.59335 34.7352 10.2676C29.4821 14.5041 27.6198 22.1681 27.7228 28.6323C27.8631 37.3898 31.4848 45.5474 35.1937 53.3113C35.9112 54.811 38.1353 53.5019 37.421 52.0085Z" fill="#212121"/>
<path d="M112.152 38.0313C111.413 31.5765 110.773 24.7061 111.906 18.2606C112.882 12.7181 115.509 7.47545 120.649 4.76978C122.889 3.59191 125.534 3.04203 128.027 3.62316C130.525 4.20741 132.659 5.77582 134.244 7.76288C137.981 12.4462 138.424 19.1104 137.956 24.8623C137.429 31.3234 135.491 37.6908 133.532 43.8394C133.027 45.4266 135.516 46.1077 136.022 44.5268C137.946 38.4937 139.724 32.3294 140.426 26.0152C141.128 19.6915 140.67 12.3056 136.858 6.96618C133.426 2.16098 127.743 -0.407215 121.953 1.43613C116.067 3.31073 112.012 8.39087 110.231 14.1552C107.888 21.738 108.68 30.2736 109.569 38.0282C109.76 39.6653 112.342 39.6841 112.152 38.0313Z" fill="#212121"/>
<path d="M164.53 172.568C160.46 172.636 156.392 174.589 153.004 176.714C149.545 178.882 146.444 181.744 143.83 184.871C138.39 191.379 134.818 199.621 135.058 208.21C135.124 210.553 135.274 213.153 136.471 215.221C137.691 217.324 139.588 218.97 141.4 220.545C142.651 221.629 144.482 219.807 143.225 218.717C141.737 217.427 140.159 216.108 139.045 214.465C137.978 212.89 137.797 211.069 137.682 209.213C137.442 205.354 138.012 201.514 139.266 197.859C141.74 190.654 146.85 184.115 153.073 179.757C156.317 177.485 160.475 175.22 164.527 175.148C166.19 175.123 166.193 172.536 164.53 172.568Z" fill="#212121"/>
</svg>
