<svg width="29" height="30" viewBox="0 0 29 30" fill="none" xmlns="http://www.w3.org/2000/svg">
<g clip-path="url(#clip0)">
<path d="M24.1262 6.30443C24.1377 6.25261 24.1422 6.19954 24.1398 6.14669L23.9905 1.6036C23.9829 1.37239 23.8354 1.16911 23.6181 1.08998C23.4008 1.01086 23.1571 1.07192 23.0027 1.2441L19.959 4.63846C19.9117 4.69284 19.8742 4.7552 19.8487 4.82266L17.5574 11.1169V0.992676C17.5574 0.67985 17.3038 0.42627 16.991 0.42627H12.4597C12.1469 0.42627 11.8933 0.67985 11.8933 0.992676V3.49931C11.8933 3.50021 11.8932 3.50112 11.8932 3.50203C11.8932 3.50293 11.8933 3.50384 11.8933 3.50474V5.76487C11.8933 5.76578 11.8932 5.76669 11.8932 5.76759C11.8932 5.7685 11.8933 5.76941 11.8933 5.77031V8.03044C11.8933 8.03135 11.8932 8.03226 11.8932 8.03316C11.8932 8.03407 11.8933 8.03497 11.8933 8.03588V10.296C11.8933 10.2969 11.8932 10.2978 11.8932 10.2987C11.8932 10.2996 11.8933 10.3005 11.8933 10.3014V10.9952C11.3694 9.71839 10.7941 8.44596 10.21 7.27854C10.7487 6.09011 10.3039 4.65189 9.1517 3.94212C8.9918 3.84317 8.82867 3.75657 8.67093 3.6728C7.99238 3.31251 7.29065 2.93992 6.64371 1.39029C6.55625 1.18084 6.35223 1.04382 6.12533 1.04212C6.12391 1.04212 6.12244 1.04212 6.12103 1.04212C5.89577 1.04212 5.69175 1.17563 5.60174 1.38242C5.10472 2.52401 4.45783 4.98629 5.18595 6.97398C5.44502 7.68137 5.96509 8.24143 6.61369 8.55539C6.84597 9.52383 7.10663 10.4958 7.39034 11.449C7.59566 12.1388 7.81702 12.8312 8.05032 13.5163H6.62569C5.68874 13.5163 4.92648 14.2786 4.92648 15.2155C4.92648 15.84 5.2653 16.3865 5.76855 16.6818C5.2167 17.9096 4.92648 19.2543 4.92648 20.61C4.92648 22.4558 5.45312 24.2478 6.44954 25.7924C7.41957 27.296 8.78478 28.4956 10.3977 29.2616C10.6245 29.3692 10.8772 29.4262 11.1284 29.4262H17.8691C18.1203 29.4262 18.373 29.3692 18.5997 29.2616C20.2126 28.4956 21.5779 27.296 22.5479 25.7924C23.5444 24.2478 24.071 22.4558 24.071 20.61C24.071 19.2543 23.7808 17.9096 23.2289 16.6818C23.7322 16.3865 24.071 15.84 24.071 15.2155C24.071 14.2786 23.3087 13.5163 22.3718 13.5163H21.5065L24.1066 6.37223C24.1135 6.34992 24.1211 6.3272 24.1262 6.30443ZM22.9046 3.05032L22.9806 5.36012L21.3617 4.77095L22.9046 3.05032ZM16.4246 1.55908V13.5165H13.0261V13.131H14.7252C15.038 13.131 15.2916 12.8774 15.2916 12.5646C15.2916 12.2518 15.038 11.9982 14.7252 11.9982H13.0261V10.8654H13.5924C13.9052 10.8654 14.1588 10.6118 14.1588 10.299C14.1588 9.98613 13.9052 9.73255 13.5924 9.73255H13.0261V8.59974H14.7252C15.038 8.59974 15.2916 8.34616 15.2916 8.03333C15.2916 7.72051 15.038 7.46693 14.7252 7.46693H13.0261V6.33411H13.5924C13.9052 6.33411 14.1588 6.08053 14.1588 5.76771C14.1588 5.45488 13.9052 5.2013 13.5924 5.2013H13.0261V4.06849H14.7252C15.038 4.06849 15.2916 3.81491 15.2916 3.50208C15.2916 3.18926 15.038 2.93568 14.7252 2.93568H13.0261V1.55908H16.4246ZM6.24071 3.0485C6.88239 4.00584 7.56349 4.36755 8.1397 4.67352C8.28776 4.75214 8.4276 4.8264 8.55572 4.90569C8.55612 4.90592 8.55652 4.9062 8.55691 4.90643C9.24957 5.33265 9.50496 6.20548 9.13623 6.89746C8.85354 7.43821 8.32406 7.73738 7.71778 7.69785C7.19255 7.66353 6.53105 7.35302 6.24954 6.58452C5.83782 5.46049 5.98101 4.09624 6.24071 3.0485ZM8.47603 11.126C8.251 10.37 8.04069 9.60182 7.84794 8.83332C8.44029 8.82783 8.99373 8.62857 9.43869 8.27541C10.2466 9.93787 11.0253 11.7804 11.654 13.5165H9.24929C8.97401 12.7267 8.71381 11.9249 8.47603 11.126ZM22.9382 15.2157C22.9382 15.528 22.6841 15.7821 22.3718 15.7821H20.1679C19.8551 15.7821 19.6015 16.0357 19.6015 16.3485C19.6015 16.6613 19.8551 16.9149 20.1679 16.9149H22.0874C22.6444 18.0583 22.9382 19.3284 22.9382 20.6102C22.9382 23.8524 21.0445 26.8466 18.1139 28.2383C18.0379 28.2744 17.9533 28.2935 17.8691 28.2935H11.1284C11.0442 28.2935 10.9596 28.2744 10.8837 28.2383C7.95295 26.8466 6.05929 23.8524 6.05929 20.6102C6.05929 19.3284 6.35308 18.0582 6.91009 16.9149H15.6367C15.9495 16.9149 16.2031 16.6613 16.2031 16.3485C16.2031 16.0357 15.9495 15.7821 15.6367 15.7821H6.62569C6.31338 15.7821 6.05929 15.528 6.05929 15.2157C6.05929 14.9034 6.31338 14.6493 6.62569 14.6493H8.84295C8.84436 14.6493 8.84578 14.6495 8.84725 14.6495C8.84856 14.6495 8.84986 14.6493 8.85116 14.6493H12.4504C12.4518 14.6493 12.4532 14.6495 12.4546 14.6495C12.456 14.6495 12.4574 14.6493 12.4587 14.6493H17.0767C17.0779 14.6493 17.0792 14.6495 17.0805 14.6495C17.082 14.6495 17.0834 14.6493 17.0848 14.6493H20.6938C20.695 14.6493 20.6963 14.6495 20.6976 14.6495C20.699 14.6495 20.7005 14.6493 20.7019 14.6493H22.3718C22.6841 14.6493 22.9382 14.9034 22.9382 15.2157ZM17.8894 13.5165L20.7194 5.74262L22.8483 6.51746L20.3009 13.5165H17.8894Z" fill="#7B65F3"/>
<path d="M17.9023 16.915C18.2152 16.915 18.4688 16.6615 18.4688 16.3486C18.4688 16.0358 18.2152 15.7822 17.9023 15.7822C17.5895 15.7822 17.3359 16.0358 17.3359 16.3486C17.3359 16.6615 17.5895 16.915 17.9023 16.915Z" fill="#7B65F3"/>
</g>
<defs>
<clipPath id="clip0">
<rect width="29" height="29" fill="white" transform="translate(0 0.42627)"/>
</clipPath>
</defs>
</svg>
