<svg width="22" height="22" viewBox="0 0 22 22" fill="none" xmlns="http://www.w3.org/2000/svg">
<g clip-path="url(#clip0)">
<path d="M21.295 17.8934L15.5335 12.1315C16.1645 10.9503 16.4999 9.62504 16.4999 8.25094C16.4999 6.08026 15.6637 4.0307 14.1453 2.47983C12.6292 0.931418 10.6025 0.0518943 8.43868 0.00329687C8.37595 0.0018789 8.31322 0.000976562 8.24997 0.000976562C3.70093 0.000976562 0 3.7019 0 8.25094C0 12.8 3.70093 16.5009 8.24997 16.5009C8.31266 16.5009 8.37586 16.5 8.43804 16.4986C9.74669 16.4694 11.0049 16.1358 12.1306 15.5345L17.892 21.2956C18.3462 21.7503 18.9505 22.0008 19.5936 22.0008C20.2367 22.0008 20.841 21.7503 21.2947 21.296C21.7495 20.8416 22 20.2373 22 19.5946C22 18.9519 21.7496 18.3477 21.295 17.8934ZM8.40732 15.1239C8.35528 15.1251 8.30243 15.1259 8.24997 15.1259C4.45911 15.1259 1.37499 12.0418 1.37499 8.25094C1.37499 4.46008 4.45911 1.37597 8.24997 1.37597C8.30277 1.37597 8.3552 1.37679 8.4077 1.37795C12.1116 1.46109 15.1249 4.5443 15.1249 8.25094C15.1249 11.958 12.1114 15.0412 8.40732 15.1239Z" fill="#212121"/>
</g>
<defs>
<clipPath id="clip0">
<rect width="22" height="22" fill="white"/>
</clipPath>
</defs>
</svg>
