<svg width="34" height="34" viewBox="0 0 34 34" fill="none" xmlns="http://www.w3.org/2000/svg">
<path d="M17 34C26.3888 34 34 26.3888 34 17C34 7.61116 26.3888 0 17 0C7.61116 0 0 7.61116 0 17C0 26.3888 7.61116 34 17 34Z" fill="#5644BA"/>
<path d="M5.58594 20.0634L19.1689 33.863C27.5338 32.798 34.0005 25.6542 34.0005 17C34.0005 16.1527 33.9385 15.32 33.8188 14.506L25.5584 6.1322L5.58594 20.0634Z" fill="#7B65F3"/>
<path d="M9.64551 15.6158L22.3357 22.9427L20.0136 26.9647L7.32338 19.6378L9.64551 15.6158Z" fill="white"/>
<path d="M7.32324 14.3613L20.0134 7.03443L22.3356 11.0564L9.64537 18.3833L7.32324 14.3613Z" fill="white"/>
<path d="M8.35619 21.1306C10.6375 21.1306 12.4868 19.2813 12.4868 17C12.4868 14.7187 10.6375 12.8694 8.35619 12.8694C6.07492 12.8694 4.22559 14.7187 4.22559 17C4.22559 19.2813 6.07492 21.1306 8.35619 21.1306Z" fill="#FFCE00"/>
<path d="M12.4868 17C12.4868 19.2813 10.6374 21.1306 8.35619 21.1306C6.07493 21.1306 4.22559 19.2813 4.22559 17H12.4868Z" fill="#FFAA00"/>
<path d="M22.1755 12.6336C24.4568 12.6336 26.3061 10.7843 26.3061 8.50304C26.3061 6.22177 24.4568 4.37244 22.1755 4.37244C19.8943 4.37244 18.0449 6.22177 18.0449 8.50304C18.0449 10.7843 19.8943 12.6336 22.1755 12.6336Z" fill="#FFCE00"/>
<path d="M22.1755 29.6275C24.4568 29.6275 26.3061 27.7782 26.3061 25.4969C26.3061 23.2157 24.4568 21.3663 22.1755 21.3663C19.8943 21.3663 18.0449 23.2157 18.0449 25.4969C18.0449 27.7782 19.8943 29.6275 22.1755 29.6275Z" fill="#FFAA00"/>
</svg>
