<svg width="25" height="26" viewBox="0 0 25 26" fill="none" xmlns="http://www.w3.org/2000/svg">
<g clip-path="url(#clip0)">
<path d="M19.7744 17.2269C18.4686 17.2269 17.3043 17.8413 16.553 18.7954L9.02899 14.4515C9.21883 13.9797 9.32435 13.4653 9.32435 12.9263C9.32435 12.3874 9.21879 11.8729 9.02899 11.4011L16.553 7.05716C17.3044 8.01126 18.4686 8.62572 19.7744 8.62572C22.035 8.62572 23.8741 6.78656 23.8741 4.52602C23.8741 2.26543 22.0351 0.42627 19.7744 0.42627C17.5138 0.42627 15.6747 2.26538 15.6747 4.52592C15.6747 5.06488 15.7803 5.57943 15.9702 6.05131L8.44628 10.3952C7.69496 9.44105 6.53061 8.82655 5.2247 8.82655C2.96411 8.82655 1.125 10.6657 1.125 12.9262C1.125 15.1868 2.96411 17.0259 5.2247 17.0259C6.53061 17.0259 7.69496 16.4114 8.44628 15.4572L15.9702 19.8012C15.7803 20.2731 15.6747 20.7876 15.6747 21.3266C15.6747 23.5872 17.5138 25.4263 19.7744 25.4263C22.035 25.4263 23.8741 23.5872 23.8741 21.3266C23.8741 19.0661 22.0351 17.2269 19.7744 17.2269ZM19.7744 1.58877C21.394 1.58877 22.7117 2.90639 22.7117 4.52592C22.7117 6.1455 21.3941 7.46317 19.7744 7.46317C18.1549 7.46317 16.8372 6.1455 16.8372 4.52592C16.8372 2.90634 18.1549 1.58877 19.7744 1.58877ZM5.2247 15.8635C3.60512 15.8635 2.28745 14.5458 2.28745 12.9262C2.28745 11.3067 3.60507 9.989 5.2247 9.989C6.84428 9.989 8.16195 11.3067 8.16195 12.9262C8.16195 14.5458 6.84428 15.8635 5.2247 15.8635ZM19.7744 24.2637C18.1549 24.2637 16.8372 22.9461 16.8372 21.3266C16.8372 19.707 18.1548 18.3893 19.7744 18.3893C21.394 18.3893 22.7117 19.707 22.7117 21.3266C22.7117 22.9461 21.394 24.2637 19.7744 24.2637Z" fill="#7B65F3"/>
<path d="M5.22431 11.1982C4.27139 11.1982 3.49609 11.9735 3.49609 12.9265C3.49609 13.2474 3.7563 13.5077 4.07734 13.5077C4.39839 13.5077 4.65859 13.2474 4.65859 12.9265C4.65859 12.6145 4.91235 12.3607 5.22431 12.3607C5.54531 12.3607 5.80556 12.1004 5.80556 11.7795C5.80556 11.4585 5.54531 11.1982 5.22431 11.1982Z" fill="#7B65F3"/>
</g>
<defs>
<clipPath id="clip0">
<rect width="25" height="25" fill="white" transform="translate(0 0.42627)"/>
</clipPath>
</defs>
</svg>
