<svg width="28" height="29" viewBox="0 0 28 29" fill="none" xmlns="http://www.w3.org/2000/svg">
<g clip-path="url(#clip0)">
<path d="M9.62165 16.1583L14.0005 14.0323L18.3795 16.1583C19.468 16.6868 20.8136 16.2152 21.2876 15.0666C21.9943 13.3546 22.0623 11.4566 21.526 9.73288C21.1365 8.48113 19.7245 7.86633 18.5437 8.43952L14.0005 10.6452L9.45737 8.43946C8.27826 7.86699 6.86508 8.47955 6.4751 9.73277C5.94015 11.4522 6.00512 13.3504 6.71343 15.0666C7.1885 16.2174 8.53556 16.6856 9.62165 16.1583ZM7.25839 9.97651C7.49912 9.20295 8.37101 8.8238 9.09912 9.17741L13.8214 11.4701C13.9345 11.525 14.0666 11.525 14.1797 11.4701L18.9021 9.17741C19.631 8.82353 20.5023 9.20366 20.7427 9.97651C21.2207 11.5127 21.1648 13.2142 20.5295 14.7536C20.2363 15.4637 19.4024 15.743 18.7378 15.4204L14.1797 13.2074C14.0681 13.1532 13.9362 13.1517 13.8214 13.2074L9.2634 15.4204C8.59867 15.7431 7.76485 15.4636 7.47173 14.7536C6.8379 13.2179 6.77922 11.5166 7.25839 9.97651Z" fill="#212121"/>
<path d="M10.2959 13.8955C10.933 13.8589 11.5046 13.5084 11.8249 12.958C12.1324 12.4296 11.8985 11.7411 11.3273 11.5025C10.7656 11.2679 10.1556 11.0903 9.51433 10.9746C8.89062 10.8621 8.31322 11.3358 8.30114 11.9709C8.27987 13.0756 9.21015 13.9578 10.2959 13.8955ZM9.33036 11.7784C9.41895 11.7784 10.2397 11.9374 11.0111 12.2595C11.1229 12.3062 11.1752 12.4435 11.1158 12.5455C10.9344 12.8572 10.6104 13.0558 10.2489 13.0765C9.64098 13.1113 9.10915 12.6197 9.12123 11.9866C9.12353 11.867 9.22208 11.7784 9.33036 11.7784Z" fill="#212121"/>
<path d="M17.7041 13.8954C18.7913 13.9577 19.7202 13.0747 19.699 11.971C19.6869 11.3346 19.1085 10.8622 18.4858 10.9746C17.8444 11.0904 17.2344 11.268 16.6728 11.5026C16.1021 11.7409 15.8674 12.4291 16.1752 12.958C16.4955 13.5084 17.067 13.8589 17.7041 13.8954ZM16.9889 12.2595C17.7457 11.9434 18.5785 11.7784 18.6697 11.7784C18.7765 11.7784 18.8765 11.8655 18.8788 11.9866C18.8909 12.6204 18.3583 13.1114 17.7511 13.0765C17.3897 13.0558 17.0656 12.8572 16.8842 12.5455C16.8248 12.4433 16.8772 12.3062 16.9889 12.2595Z" fill="#212121"/>
<path d="M15.3054 15.1341C15.1345 14.9853 14.8755 15.0031 14.7267 15.1739C14.3417 15.6157 13.6563 15.617 13.2702 15.1739C13.1213 15.0032 12.8623 14.9854 12.6915 15.1342C12.5207 15.283 12.5029 15.5421 12.6517 15.7129C13.366 16.5325 14.6346 16.5282 15.3451 15.7129C15.494 15.542 15.4762 15.283 15.3054 15.1341Z" fill="#212121"/>
<path d="M15.7514 24.0359L15.1658 23.7157L14.8455 23.1301C14.4808 22.4631 13.5207 22.4632 13.156 23.1301L12.8358 23.7157L12.2502 24.0359C11.5832 24.4007 11.5833 25.3607 12.2502 25.7255L12.8358 26.0457L13.156 26.6313C13.5207 27.2983 14.4808 27.2982 14.8455 26.6313L15.1658 26.0457L15.7514 25.7255C16.0603 25.5565 16.2522 25.2328 16.2522 24.8807C16.2522 24.5286 16.0603 24.2049 15.7514 24.0359ZM15.3578 25.0057L14.6667 25.3837C14.4907 25.4799 14.4965 25.5966 14.1258 26.2377C14.0717 26.3364 13.9302 26.3375 13.8756 26.2377C13.5041 25.5953 13.5106 25.4799 13.3346 25.3837L12.6436 25.0057C12.545 24.9518 12.5438 24.8102 12.6436 24.7556C13.2858 24.3842 13.4015 24.3906 13.4977 24.2146L13.8756 23.5236C13.9296 23.4249 14.0711 23.4238 14.1258 23.5236C14.4972 24.166 14.4908 24.2815 14.6667 24.3777L15.3578 24.7555C15.4557 24.8092 15.455 24.9526 15.3578 25.0057Z" fill="#212121"/>
<path d="M1.70854 17.9231C3.10209 18.796 5.17962 20.2885 7.28935 22.4993C6.32833 23.6895 5.33083 25.5246 5.33083 28.0161C5.33083 28.2426 5.51447 28.4263 5.74098 28.4263H22.5662C22.7927 28.4263 22.9764 28.2426 22.9764 28.0161C22.9764 25.4308 21.895 23.5199 20.8962 22.3061C21.6397 21.5416 22.4342 20.8075 23.2629 20.121C23.4374 19.9765 23.4616 19.7179 23.3171 19.5435C23.1726 19.3691 22.9141 19.3448 22.7396 19.4893C21.9032 20.1822 21.1002 20.9221 20.3478 21.6928C19.8999 21.231 19.415 20.819 18.9493 20.4868C20.74 19.4301 22.2578 17.7522 23.0862 15.6466C23.8913 15.7281 24.7115 15.4387 25.2846 14.81C25.5597 15.0908 25.8369 15.4077 26.1121 15.7563C26.4923 16.2376 26.3465 16.92 25.8549 17.2279C25.2536 17.6045 24.6407 18.0239 24.0334 18.4744C23.8514 18.6094 23.8133 18.8662 23.9483 19.0482C24.0832 19.2301 24.34 19.2682 24.522 19.1333C25.1122 18.6955 25.7071 18.2884 26.2903 17.9231C27.2061 17.3494 27.4302 16.1018 26.7559 15.2479C26.4206 14.8234 26.081 14.4421 25.7432 14.1091C26.0809 13.3582 26.0476 12.4851 25.6371 11.7559C25.5568 8.73429 24.3253 5.90295 22.1605 3.77293C19.9672 1.61479 17.0688 0.42627 13.9995 0.42627C12.3456 0.42627 10.7464 0.767793 9.24618 1.44132C9.03951 1.53413 8.9472 1.77683 9.03995 1.9835C9.13276 2.19011 9.37546 2.28247 9.58212 2.18972C10.976 1.56388 12.4622 1.24658 13.9995 1.24658C19.6063 1.24658 24.1377 5.49864 24.7502 10.8178C24.3992 10.5961 23.9977 10.468 23.6245 10.4294C23.3656 8.889 22.7538 7.47303 21.7815 6.17655C21.0217 5.17484 19.6589 4.80258 18.4794 5.28044C18.0236 5.46529 16.2951 6.36818 13.9995 6.36818C11.4871 6.36818 9.76166 5.32457 9.20199 5.17309C8.10151 4.87493 6.89948 5.27147 6.19905 6.20083C5.27165 7.43108 4.63684 8.86685 4.37429 10.4294C3.98743 10.4697 3.59297 10.6004 3.24931 10.8174C3.61993 7.62867 5.3953 4.75167 8.13493 2.97793C8.32508 2.85483 8.37944 2.60086 8.25633 2.41071C8.13318 2.22057 7.87926 2.16621 7.68912 2.28931C4.44954 4.38679 2.46476 7.91911 2.36206 11.7552C1.95229 12.4828 1.91696 13.3559 2.25558 14.1091C1.91778 14.4421 1.57812 14.8234 1.24294 15.2478C0.567764 16.103 0.793732 17.3501 1.70854 17.9231ZM19.3978 27.606V25.4277C19.3978 25.2011 19.2142 25.0175 18.9877 25.0175C18.7611 25.0175 18.5775 25.2011 18.5775 25.4277V27.606H9.4214V25.4277C9.4214 25.2011 9.23776 25.0175 9.01124 25.0175C8.78473 25.0175 8.60108 25.2011 8.60108 25.4277V27.606H6.16082C6.24832 25.7699 6.92776 24.1259 8.18322 22.7127C8.73239 22.0941 9.45508 21.4738 10.1534 21.0526C12.6534 22.1182 15.5889 22.1045 18.1249 20.9211C18.766 21.3268 19.4761 21.9263 20.0682 22.5984C21.3593 24.064 22.0573 25.7468 22.1463 27.606H19.3978ZM3.14179 14.0252C2.44431 12.9648 3.04352 11.536 4.26978 11.276C4.24665 11.5664 4.23604 11.8618 4.23828 12.1485C4.25556 13.091 4.36729 13.9342 4.63143 14.8392C4.05967 14.834 3.48747 14.5532 3.14179 14.0252ZM6.94214 6.58665C7.45314 5.99783 8.27116 5.75671 9.02048 5.97448C9.86366 6.21888 13.5518 8.50985 18.6852 6.08495C19.4382 5.7297 20.3598 5.87533 20.9578 6.47673C21.0621 6.58162 21.1329 6.67907 21.1288 6.67361C22.6552 8.68638 22.7984 10.6494 22.8619 10.8816C23.2272 13.6336 22.248 16.3851 20.5725 18.1304C15.9739 23.1144 7.76841 21.34 5.5627 15.0511C5.56265 15.0509 5.56259 15.0506 5.56254 15.0504C4.63963 12.4191 4.9689 9.37462 6.67554 6.94075C6.75489 6.82766 6.85633 6.68531 6.94214 6.58665ZM24.7798 11.9416C25.6848 13.1216 24.8451 14.8284 23.3635 14.8393C23.7089 13.6664 23.8231 12.4521 23.7294 11.2761C24.1335 11.362 24.5114 11.5925 24.7798 11.9416ZM1.88677 15.7563C2.16196 15.4077 2.43917 15.0909 2.7143 14.81C3.28262 15.4334 4.09894 15.7272 4.90645 15.6472C5.75777 17.8261 7.35924 19.5718 9.2919 20.6337C8.76143 21.0028 8.25726 21.4405 7.83404 21.8817C5.68247 19.6374 3.56699 18.1193 2.14402 17.2279C1.65205 16.9198 1.50702 16.2372 1.88677 15.7563Z" fill="#212121"/>
</g>
<defs>
<clipPath id="clip0">
<rect width="28" height="28" fill="white" transform="translate(0 0.42627)"/>
</clipPath>
</defs>
</svg>
