<svg width="31" height="37" viewBox="0 0 31 37" fill="none" xmlns="http://www.w3.org/2000/svg">
<path d="M1.37628 18.9467C2.26083 19.8084 3.43179 20.2831 4.67456 20.2831C5.92916 20.2831 7.10857 19.8009 7.99566 18.9242L10.7575 16.1981L10.7575 32.3286C10.7575 34.9045 12.8797 37 15.4886 37C18.0975 37 20.2198 34.9045 20.2198 32.3286L20.2198 16.1981L22.9393 18.8833C23.8264 19.7592 25.059 20.2605 26.3229 20.2605L26.339 20.2605C27.6012 20.2564 28.7755 19.7734 29.6466 18.9017C30.5193 18.0283 31 16.8721 31 15.645C31 14.4063 30.5117 13.2418 29.6237 12.3659L18.2369 1.12197C17.4791 0.373713 16.4838 2.54565e-06 15.4886 2.45865e-06C14.4934 2.37164e-06 13.4981 0.373713 12.7403 1.12197L1.39487 12.3242C0.504397 13.2034 -0.00419992 14.4271 2.4752e-05 15.6809C0.00424942 16.9272 0.493414 18.0867 1.37628 18.9467Z" fill="#7B65F3"/>
</svg>
