<svg width="130" height="130" viewBox="0 0 130 130" fill="none" xmlns="http://www.w3.org/2000/svg">
<g filter="url(#filter0_d)">
<path d="M64.9146 99.8293C84.1974 99.8293 99.8293 84.1974 99.8293 64.9146C99.8293 45.6318 84.1974 30 64.9146 30C45.6318 30 30 45.6318 30 64.9146C30 84.1974 45.6318 99.8293 64.9146 99.8293Z" fill="#F7F5FF"/>
<path d="M83.6017 49.0029C79.9598 52.1628 76.3388 54.9323 73.3791 58.8025C66.0987 67.5819 57.2021 80.0377 45.0947 78.1809L66.7268 99.7838C85.0646 98.8464 99.6634 83.7595 99.8256 65.227L83.6017 49.0029Z" fill="#F7F5FF"/>
<path d="M84.2631 52.1595C83.3748 52.5535 82.4531 52.8642 81.507 53.0889C82.5496 52.0986 83.3332 50.8596 83.7752 49.4769C83.9015 49.0823 83.4726 48.7407 83.1162 48.9521C81.8001 49.7329 80.3825 50.3181 78.9027 50.6926C78.8171 50.7145 78.7287 50.7254 78.6397 50.7254C78.3698 50.7254 78.1083 50.6254 77.9017 50.4437C76.3275 49.0562 74.3025 48.292 72.2001 48.292C71.2901 48.292 70.3718 48.4338 69.4702 48.7136C66.6761 49.58 64.5201 51.8851 63.8434 54.7286C63.5897 55.7948 63.5212 56.8627 63.6393 57.9014C63.6526 58.0209 63.5965 58.1041 63.5617 58.1431C63.5004 58.2116 63.4139 58.251 63.3237 58.251C63.3139 58.251 63.3033 58.2506 63.2932 58.2496C57.1769 57.6812 51.6613 54.7347 47.7631 49.9523C47.5647 49.7084 47.1831 49.7384 47.0246 50.0099C46.2614 51.32 45.858 52.8179 45.858 54.3423C45.858 56.6782 46.7968 58.8799 48.4271 60.485C47.7414 60.3223 47.0778 60.0663 46.4612 59.7237C46.1628 59.5581 45.796 59.7714 45.7918 60.1125C45.7495 63.5828 47.7814 66.6709 50.8251 68.0613C50.7637 68.0627 50.7024 68.0632 50.641 68.0632C50.1586 68.0632 49.6698 68.0171 49.1892 67.9248C48.8533 67.8611 48.5711 68.1794 48.6753 68.5048C49.6635 71.5896 52.3191 73.8631 55.4974 74.379C52.8598 76.1496 49.7879 77.0835 46.5912 77.0835L45.5947 77.0831C45.2872 77.0831 45.0274 77.2834 44.9496 77.5809C44.8726 77.8734 45.0143 78.1827 45.2764 78.3351C48.8786 80.4316 52.9878 81.5395 57.1608 81.5395C60.8137 81.5395 64.2307 80.8148 67.3168 79.3848C70.1461 78.0743 72.6462 76.2009 74.7479 73.8166C76.706 71.5955 78.2368 69.0316 79.2984 66.1956C80.3101 63.4929 80.845 60.6083 80.845 57.8551V57.7236C80.845 57.2816 81.0448 56.8656 81.3938 56.582C82.7176 55.507 83.8706 54.2419 84.8201 52.8216C85.071 52.4468 84.6755 51.9766 84.2631 52.1595Z" fill="#27B0FD"/>
<path d="M84.2637 52.1595C83.3752 52.5535 82.4538 52.8642 81.5077 53.0889C82.5502 52.0986 83.3339 50.8596 83.776 49.4769C83.9023 49.0823 83.4734 48.7407 83.117 48.9521C81.8009 49.7329 80.3833 50.3181 78.9035 50.6926C78.8179 50.7145 78.7295 50.7254 78.6404 50.7254C78.3705 50.7254 78.1091 50.6254 77.9025 50.4437C76.3283 49.0562 74.3033 48.292 72.2009 48.292C71.2911 48.292 70.3726 48.4338 69.471 48.7136C67.5177 49.3192 65.8782 50.6295 64.8359 52.334V80.3581C65.6845 80.0813 66.5125 79.7576 67.3179 79.3844C70.1472 78.0739 72.6473 76.2005 74.749 73.8162C76.707 71.5949 78.2378 69.0311 79.2995 66.1951C80.3112 63.4925 80.8461 60.6079 80.8461 57.8546V57.7232C80.8461 57.2811 81.0459 56.8652 81.3949 56.5816C82.7186 55.5066 83.8716 54.2415 84.8212 52.8212C85.0717 52.4468 84.6762 51.9766 84.2637 52.1595Z" fill="#27B0FD"/>
</g>
<defs>
<filter id="filter0_d" x="0" y="0" width="129.829" height="129.829" filterUnits="userSpaceOnUse" color-interpolation-filters="sRGB">
<feFlood flood-opacity="0" result="BackgroundImageFix"/>
<feColorMatrix in="SourceAlpha" type="matrix" values="0 0 0 0 0 0 0 0 0 0 0 0 0 0 0 0 0 0 127 0"/>
<feOffset/>
<feGaussianBlur stdDeviation="15"/>
<feColorMatrix type="matrix" values="0 0 0 0 1 0 0 0 0 1 0 0 0 0 1 0 0 0 0.7 0"/>
<feBlend mode="normal" in2="BackgroundImageFix" result="effect1_dropShadow"/>
<feBlend mode="normal" in="SourceGraphic" in2="effect1_dropShadow" result="shape"/>
</filter>
</defs>
</svg>
