<svg width="34" height="34" viewBox="0 0 34 34" fill="none" xmlns="http://www.w3.org/2000/svg">
<path d="M17 34C26.3888 34 34 26.3888 34 17C34 7.61116 26.3888 0 17 0C7.61116 0 0 7.61116 0 17C0 26.3888 7.61116 34 17 34Z" fill="#0087D3"/>
<path d="M26.0987 9.2522C24.3255 10.7908 22.5624 12.1392 21.1213 14.0236C17.5765 18.2983 13.2447 24.3631 7.34961 23.459L17.8823 33.9775C26.811 33.5211 33.9192 26.1752 33.9982 17.1518L26.0987 9.2522Z" fill="#27B0FD"/>
<path d="M26.4215 10.7891C25.989 10.9809 25.5402 11.1322 25.0796 11.2416C25.5872 10.7595 25.9688 10.1562 26.184 9.48294C26.2455 9.29083 26.0366 9.12448 25.8631 9.22741C25.2223 9.60759 24.5321 9.89254 23.8116 10.0749C23.7699 10.0855 23.7268 10.0908 23.6835 10.0908C23.552 10.0908 23.4247 10.0422 23.3241 9.9537C22.5577 9.27808 21.5717 8.90601 20.548 8.90601C20.105 8.90601 19.6578 8.97507 19.2188 9.11127C17.8584 9.53315 16.8086 10.6555 16.4791 12.04C16.3556 12.5591 16.3223 13.0791 16.3798 13.5849C16.3862 13.643 16.3589 13.6835 16.342 13.7025C16.3121 13.7359 16.27 13.7551 16.2261 13.7551C16.2213 13.7551 16.2161 13.7549 16.2112 13.7544C13.2332 13.4776 10.5476 12.043 8.64962 9.71444C8.55299 9.59563 8.36719 9.61024 8.29003 9.74246C7.91842 10.3804 7.72199 11.1097 7.72199 11.8519C7.72199 12.9893 8.17913 14.0613 8.97288 14.8428C8.63906 14.7636 8.31592 14.6389 8.0157 14.4721C7.87041 14.3915 7.69184 14.4954 7.68978 14.6614C7.66919 16.3511 8.65851 17.8547 10.1405 18.5317C10.1106 18.5324 10.0807 18.5327 10.0509 18.5327C9.81598 18.5327 9.57797 18.5102 9.34396 18.4653C9.1804 18.4342 9.04301 18.5892 9.09374 18.7477C9.57492 20.2497 10.8679 21.3567 12.4154 21.6078C11.1312 22.47 9.63548 22.9246 8.07899 22.9246L7.59382 22.9244C7.44408 22.9244 7.31757 23.022 7.27972 23.1668C7.2422 23.3093 7.3112 23.4599 7.43883 23.534C9.19275 24.5548 11.1935 25.0943 13.2253 25.0943C15.004 25.0943 16.6677 24.7414 18.1703 24.0452C19.5479 23.4071 20.7652 22.4949 21.7886 21.334C22.742 20.2525 23.4873 19.0041 24.0042 17.6233C24.4968 16.3074 24.7572 14.9028 24.7572 13.5623V13.4983C24.7572 13.283 24.8545 13.0805 25.0245 12.9424C25.669 12.419 26.2304 11.803 26.6927 11.1115C26.8149 10.929 26.6223 10.7 26.4215 10.7891Z" fill="white"/>
<path d="M26.4214 10.7891C25.9887 10.9809 25.5401 11.1322 25.0794 11.2416C25.587 10.7595 25.9686 10.1562 26.1839 9.48294C26.2454 9.29083 26.0365 9.12448 25.863 9.22741C25.2222 9.60759 24.532 9.89254 23.8115 10.0749C23.7698 10.0855 23.7267 10.0908 23.6834 10.0908C23.5519 10.0908 23.4246 10.0422 23.324 9.9537C22.5576 9.27808 21.5716 8.90601 20.5479 8.90601C20.1049 8.90601 19.6577 8.97507 19.2187 9.11127C18.2677 9.40618 17.4694 10.0441 16.9619 10.8741V24.519C17.3751 24.3843 17.7782 24.2266 18.1704 24.045C19.548 23.4069 20.7653 22.4947 21.7886 21.3338C22.742 20.2522 23.4873 19.0039 24.0042 17.6231C24.4968 16.3072 24.7573 14.9026 24.7573 13.5621V13.4981C24.7573 13.2828 24.8546 13.0803 25.0245 12.9422C25.669 12.4188 26.2304 11.8028 26.6928 11.1113C26.8147 10.929 26.6222 10.7 26.4214 10.7891Z" fill="#DCE1EB"/>
</svg>
