<svg width="1805" height="153" fill="none" xmlns="http://www.w3.org/2000/svg"><path d="M39.507 51.46l.933-.359-.246-.64h-.687v1zm-18.62 0v-1h-.686l-.247.641.933.36zM17.597 60v1h.686l.247-.64-.933-.36zm-16.8 0l-.916-.4-.612 1.4H.797v-1zm21.42-49v-1h-.654l-.262.6.916.4zm16.24 0l.916-.4-.262-.6h-.654v1zm21.42 49v1h1.529l-.613-1.4-.916.4zm-17.08 0l-.933.36.247.64h.686v-1zm-7.84-20.44v1h1.459l-.526-1.36-.933.36zm-4.76-12.32l.933-.36-.933-2.415-.933 2.415.933.36zm-4.76 12.32l-.933-.36-.525 1.36h1.458v-1zm14.07 10.9h-18.62v2h18.62v-2zm-19.553.641l-3.29 8.54 1.866.718 3.29-8.54-1.866-.718zm-2.357 7.9H.797v2h16.8v-2zM1.713 60.4l21.42-49-1.832-.802-21.42 49 1.832.802zM22.217 12h16.24v-2h-16.24v2zm15.324-.6l21.42 49 1.832-.802-21.42-49-1.832.802zM59.877 59h-17.08v2h17.08v-2zm-16.147.64l-3.29-8.54-1.866.718 3.29 8.54 1.866-.718zM35.89 39.2l-4.76-12.32-1.866.72 4.76 12.32 1.866-.72zm-6.626-12.32l-4.76 12.32 1.866.72 4.76-12.32-1.866-.72zm-3.827 13.68h9.52v-2h-9.52v2zm61.576 7.12l.829-.56-.297-.44h-.532v1zm-4.48 0v-1h-1v1h1zm0 12.32v1h1v-1h-1zm-16.52 0h-1v1h1v-1zm0-49v-1h-1v1h1zm35.42 2.24l-.406.913.406-.914zm7.77 6.44l-.838.544.838-.545zm.35 18.97l-.854-.52.854.52zm-6.86 6.23l-.458-.89-1.004.518.636.934.826-.563zM112.983 60v1h1.891l-1.064-1.564-.827.563zm-17.64 0l-.828.56.297.44h.532v-1zm-1.75-34.72l-.675.736.008.008.009.008.659-.753zm-11.06-1.54v-1h-1v1h1zm0 11.48h-1v1h1v-1zm11.06-1.47l.659.752.009-.008.008-.008-.675-.737zm-6.58 12.93h-4.48v2h4.48v-2zm-5.48 1V60h2V47.68h-2zm1 11.32h-16.52v2h16.52v-2zm-15.52 1V11h-2v49h2zm-1-48h23.59v-2h-23.59v2zm23.59 0c4.419 0 8.218.728 11.424 2.153l.813-1.828C98.326 10.764 94.239 10 89.603 10v2zm11.424 2.153c3.202 1.423 5.634 3.45 7.338 6.071l1.677-1.09c-1.936-2.978-4.684-5.245-8.202-6.809l-.813 1.828zm7.338 6.071c1.702 2.62 2.568 5.692 2.568 9.255h2c0-3.903-.954-7.364-2.891-10.345l-1.677 1.09zm2.568 9.255c0 3.344-.756 6.216-2.234 8.651l1.709 1.038c1.695-2.79 2.525-6.033 2.525-9.689h-2zm-2.234 8.651c-1.482 2.441-3.624 4.396-6.464 5.86l.917 1.778c3.133-1.616 5.565-3.814 7.256-6.6l-1.709-1.038zm-6.832 7.312l10.29 15.12 1.653-1.126-10.29-15.12-1.653 1.126zM112.983 59h-17.64v2h17.64v-2zm-16.811.44l-8.33-12.32-1.657 1.12 8.33 12.32 1.657-1.12zm.102-29.96c0-2.038-.637-3.74-2.022-4.953l-1.317 1.506c.855.748 1.338 1.845 1.338 3.447h2zm-2.005-4.937c-1.375-1.26-3.342-1.803-5.716-1.803v2c2.107 0 3.5.485 4.365 1.277l1.351-1.474zm-5.716-1.803h-6.02v2h6.02v-2zm-7.02 1v11.48h2V23.74h-2zm1 12.48h6.02v-2h-6.02v2zm6.02 0c2.364 0 4.324-.514 5.699-1.717l-1.317-1.506c-.865.757-2.265 1.223-4.382 1.223v2zm5.716-1.733c1.367-1.253 2.004-2.967 2.004-5.007h-2c0 1.6-.482 2.733-1.355 3.533l1.351 1.474zm37.359-10.677h1v-1h-1v1zm-14.35 0h-1v1h1v-1zm0-12.81v-1h-1v1h1zm45.22 0h1v-1h-1v1zm0 12.81v1h1v-1h-1zm-14.35 0v-1h-1v1h1zm0 36.19v1h1v-1h-1zm-16.52 0h-1v1h1v-1zm0-37.19h-14.35v2h14.35v-2zm-13.35 1V11h-2v12.81h2zm-1-11.81h45.22v-2h-45.22v2zm44.22-1v12.81h2V11h-2zm1 11.81h-14.35v2h14.35v-2zm-15.35 1V60h2V23.81h-2zm1 35.19h-16.52v2h16.52v-2zm-15.52 1V23.81h-2V60h2zm37.661-49v-1h-1v1h1zm16.52 0h1v-1h-1v1zm0 49v1h1v-1h-1zm-16.52 0h-1v1h1v-1zm0-48h16.52v-2h-16.52v2zm15.52-1v49h2V11h-2zm1 48h-16.52v2h16.52v-2zm-15.52 1V11h-2v49h2zm33.342-.21l-.236.972.006.001.007.002.223-.975zm-9.45-3.71l-.914-.404-.351.794.737.459.528-.849zm5.32-12.04l.502-.865-.965-.56-.451 1.021.914.404zm7.84 3.29l-.278.96.007.002.007.002.264-.964zm13.23.56l.394.92.019-.009.017-.008-.43-.903zm-.49-4.34l-.377.926.012.005.365-.931zm-6.3-1.68l-.205.98h.003l.202-.98zm-9.45-2.52l-.347.938.008.003.008.002.331-.943zm-6.58-4.48l-.747.664.008.01.739-.674zm-.21-16.87l.825.565-.825-.565zm7.7-5.95l-.386-.922-.004.002.39.92zm22.4-1.05l-.225.974.008.002.008.002.209-.978zm8.61 3.15l.924.383.34-.817-.771-.436-.493.87zm-4.97 11.97l-.45.893.961.485.413-.995-.924-.383zm-18.13 1.68l-.377.926.015.006.015.006.347-.938zm6.23 1.54l-.19.982.006.001.184-.983zm9.45 2.45l-.341.94.007.003.008.002.326-.945zm6.65 4.41l-.74.673.009.009.731-.682zm.28 16.8l.82.572.005-.007-.825-.565zm-7.77 5.95l.391.92.006-.002-.397-.918zm-12.46 1.17c-3.986 0-7.878-.435-11.676-1.305l-.447 1.95a54.146 54.146 0 0012.123 1.355v-2zm-11.663-1.302c-3.757-.916-6.8-2.119-9.158-3.587l-1.057 1.698c2.589 1.612 5.846 2.882 9.742 3.833l.473-1.944zm-8.772-2.334l5.32-12.04-1.829-.808-5.32 12.04 1.829.808zM200 44.905c2.411 1.398 5.1 2.525 8.063 3.385l.557-1.92c-2.824-.82-5.361-1.887-7.617-3.195L200 44.905zm8.077 3.39c2.969.813 5.835 1.225 8.594 1.225v-2c-2.56 0-5.247-.382-8.065-1.154l-.529 1.928zm8.594 1.225c2.303 0 4.114-.205 5.294-.71l-.787-1.839c-.78.334-2.235.55-4.507.55v2zm5.33-.727c.598-.285 1.115-.665 1.483-1.174a2.95 2.95 0 00.557-1.759h-2c0 .246-.063.43-.177.586-.122.168-.34.36-.722.541l.859 1.806zm2.04-2.933c0-.746-.244-1.425-.727-1.994-.467-.55-1.117-.952-1.867-1.247l-.731 1.862c.556.218.887.46 1.073.678.171.201.252.42.252.701h2zm-2.582-3.236c-1.352-.55-3.529-1.125-6.475-1.733l-.405 1.958c2.934.606 4.957 1.151 6.125 1.627l.755-1.852zm-6.472-1.733c-3.754-.788-6.859-1.617-9.324-2.484L205 40.293c2.575.906 5.77 1.757 9.576 2.556l.411-1.958zm-9.308-2.479c-2.365-.876-4.425-2.276-6.188-4.215l-1.479 1.346c1.97 2.168 4.297 3.754 6.972 4.745l.695-1.876zm-6.18-4.206c-1.665-1.873-2.548-4.438-2.548-7.806h-2c0 3.725.984 6.807 3.053 9.134l1.495-1.328zm-2.548-7.806c0-2.88.804-5.483 2.415-7.835l-1.649-1.13c-1.842 2.688-2.766 5.685-2.766 8.965h2zm2.415-7.835c1.598-2.332 3.998-4.207 7.266-5.595l-.781-1.84c-3.545 1.505-6.279 3.597-8.134 6.305l1.649 1.13zm7.262-5.593c3.299-1.382 7.337-2.092 12.143-2.092v-2c-4.993 0-9.309.737-12.916 2.248l.773 1.844zm12.143-2.092c3.286 0 6.5.365 9.645 1.094l.451-1.948a44.553 44.553 0 00-10.096-1.146v2zm9.661 1.098c3.184.682 5.956 1.7 8.327 3.042l.985-1.74c-2.576-1.458-5.544-2.54-8.893-3.258l-.419 1.956zm7.896 1.79l-4.97 11.97 1.847.765 4.97-11.97-1.847-.766zm-3.596 11.46c-4.912-2.48-9.616-3.748-14.101-3.748v2c4.103 0 8.498 1.16 13.2 3.533l.901-1.786zm-14.101-3.748c-2.171 0-3.946.257-5.212.87-.647.312-1.196.735-1.583 1.295a3.32 3.32 0 00-.575 1.915h2c0-.33.083-.578.222-.78.145-.21.391-.429.806-.63.857-.414 2.268-.67 4.342-.67v-2zm-7.37 4.08c0 .725.241 1.386.709 1.94.452.536 1.08.931 1.804 1.226l.755-1.852c-.536-.218-.853-.453-1.031-.664a.95.95 0 01-.237-.65h-2zm2.543 3.178c1.343.497 3.488 1.023 6.387 1.584l.381-1.964c-2.888-.559-4.896-1.06-6.073-1.496l-.695 1.876zm6.393 1.585c3.699.693 6.793 1.498 9.293 2.407l.683-1.88c-2.633-.957-5.839-1.786-9.607-2.493l-.369 1.966zm9.308 2.412c2.405.831 4.48 2.206 6.237 4.138l1.479-1.346c-1.976-2.174-4.334-3.74-7.063-4.682l-.653 1.89zm6.245 4.147c1.699 1.823 2.601 4.355 2.601 7.718h2c0-3.73-1.01-6.798-3.138-9.082l-1.463 1.364zm2.601 7.718c0 2.88-.803 5.483-2.414 7.835l1.649 1.13c1.842-2.688 2.765-5.685 2.765-8.965h-2zm-2.409 7.828c-1.597 2.287-4.023 4.166-7.347 5.604l.793 1.836c3.582-1.549 6.337-3.637 8.193-6.296l-1.639-1.144zm-7.341 5.602c-3.25 1.38-7.263 2.09-12.07 2.09v2c4.994 0 9.288-.736 12.851-2.25l-.781-1.84zm29.123-34.22h1v-1h-1v1zm-14.35 0h-1v1h1v-1zm0-12.81v-1h-1v1h1zm45.22 0h1v-1h-1v1zm0 12.81v1h1v-1h-1zm-14.35 0v-1h-1v1h1zm0 36.19v1h1v-1h-1zm-16.52 0h-1v1h1v-1zm0-37.19h-14.35v2h14.35v-2zm-13.35 1V11h-2v12.81h2zm-1-11.81h45.22v-2h-45.22v2zm44.22-1v12.81h2V11h-2zm1 11.81h-14.35v2h14.35v-2zm-15.35 1V60h2V23.81h-2zm1 35.19h-16.52v2h16.52v-2zm-15.52 1V23.81h-2V60h2zm78.457-58.94v-1h-.709l-.235.67.944.33zm14 0l.944.331.466-1.33h-1.41v1zM328.081 67v1h.709l.235-.669-.944-.33zm-14 0l-.944-.33-.466 1.33h1.41v-1zm23.1-64.94h14v-2h-14v2zM350.237.73l-23.1 65.94 1.888.661 23.1-65.94-1.888-.662zM328.081 66h-14v2h14v-2zm-13.056 1.331l23.1-65.94-1.888-.662-23.1 65.94 1.888.662zm144.392-56.33l.953.304.417-1.305h-1.37v1zm-15.68 49v1h.73l.223-.696-.953-.305zm-17.71 0l-.957.288.215.711h.742v-1zm-7.91-26.18l.958-.29-.933-3.087-.978 3.073.953.303zM409.787 60v1h.731l.222-.698-.953-.303zm-17.71 0l-.952.304.222.695h.73v-1zm-15.68-49v-1h-1.37l.418 1.304.952-.305zm17.01 0l.956-.294-.216-.707h-.74v1zm8.54 27.859l-.956.293.93 3.032.978-3.017-.952-.308zm9.03-27.86v-1h-.727l-.224.692.951.308zm15.19 0l.957-.29-.215-.71h-.742v1zm8.54 28.21l-.957.29.931 3.073.979-3.058-.953-.305zm9.03-28.21v-1h-.73l-.222.695.952.305zm14.728-.305l-15.68 49 1.905.61 15.68-49-1.905-.61zM443.737 59h-17.71v2h17.71v-2zm-16.752.711l-7.91-26.18-1.915.578 7.91 26.18 1.915-.578zm-9.821-26.194l-8.33 26.18 1.906.606 8.33-26.18-1.906-.606zM409.787 59h-17.71v2h17.71v-2zm-16.757.695l-15.68-49-1.905.61 15.68 49 1.905-.61zM376.397 12h17.01v-2h-17.01v2zm16.054-.707l8.54 27.86 1.912-.586-8.54-27.86-1.912.586zm10.448 27.875l9.03-27.86-1.903-.616-9.03 27.86 1.903.616zM410.977 12h15.19v-2h-15.19v2zm14.233-.71l8.54 28.21 1.914-.58-8.54-28.21-1.914.58zm10.45 28.225l9.03-28.21-1.905-.61-9.03 28.21 1.905.61zM443.737 12h15.68v-2h-15.68v2zm43.849 35.68l.828-.56-.297-.44h-.531v1zm-4.48 0v-1h-1v1h1zm0 12.32v1h1v-1h-1zm-16.52 0h-1v1h1v-1zm0-49v-1h-1v1h1zm35.42 2.24l-.406.914.406-.914zm7.77 6.44l-.839.545.839-.545zm.35 18.97l-.855-.519.855.52zm-6.86 6.23l-.459-.889-1.003.518.635.934.827-.563zM513.556 60v1h1.89l-1.064-1.563-.826.563zm-17.64 0l-.829.56.298.44h.531v-1zm-1.75-34.72l-.676.737.009.008.008.008.659-.753zm-11.06-1.54v-1h-1v1h1zm0 11.48h-1v1h1v-1zm11.06-1.47l.658.753.009-.008.008-.008-.675-.737zm-6.58 12.93h-4.48v2h4.48v-2zm-5.48 1V60h2V47.68h-2zm1 11.32h-16.52v2h16.52v-2zm-15.52 1V11h-2v49h2zm-1-48h23.59v-2h-23.59v2zm23.59 0c4.418 0 8.217.73 11.424 2.154l.812-1.828C498.898 10.764 494.811 10 490.176 10v2zm11.424 2.154c3.201 1.423 5.633 3.45 7.337 6.071l1.677-1.09c-1.936-2.978-4.684-5.245-8.202-6.809l-.812 1.828zm7.337 6.071c1.703 2.62 2.569 5.692 2.569 9.255h2c0-3.903-.954-7.364-2.892-10.345l-1.677 1.09zm2.569 9.255c0 3.344-.757 6.216-2.235 8.651l1.709 1.038c1.695-2.79 2.526-6.033 2.526-9.689h-2zm-2.235 8.651c-1.482 2.441-3.624 4.396-6.464 5.86l.917 1.778c3.134-1.616 5.565-3.814 7.256-6.6l-1.709-1.038zm-6.832 7.312l10.29 15.12 1.653-1.126-10.29-15.12-1.653 1.126zM513.556 59h-17.64v2h17.64v-2zm-16.812.44l-8.33-12.32-1.657 1.12 8.33 12.32 1.657-1.12zm.102-29.96c0-2.038-.637-3.74-2.022-4.953l-1.317 1.506c.856.748 1.339 1.845 1.339 3.447h2zm-2.005-4.937c-1.375-1.26-3.342-1.803-5.715-1.803v2c2.106 0 3.499.485 4.364 1.277l1.351-1.474zm-5.715-1.803h-6.02v2h6.02v-2zm-7.02 1v11.48h2V23.74h-2zm1 12.48h6.02v-2h-6.02v2zm6.02 0c2.363 0 4.323-.514 5.698-1.717l-1.317-1.506c-.865.757-2.265 1.223-4.381 1.223v2zm5.715-1.733c1.368-1.253 2.005-2.967 2.005-5.007h-2c0 1.6-.483 2.733-1.356 3.533l1.351 1.474zM522.244 11v-1h-1v1h1zm16.52 0h1v-1h-1v1zm0 49v1h1v-1h-1zm-16.52 0h-1v1h1v-1zm0-48h16.52v-2h-16.52v2zm15.52-1v49h2V11h-2zm1 48h-16.52v2h16.52v-2zm-15.52 1V11h-2v49h2zm37.613-36.19h1v-1h-1v1zm-14.35 0h-1v1h1v-1zm0-12.81v-1h-1v1h1zm45.22 0h1v-1h-1v1zm0 12.81v1h1v-1h-1zm-14.35 0v-1h-1v1h1zm0 36.19v1h1v-1h-1zm-16.52 0h-1v1h1v-1zm0-37.19h-14.35v2h14.35v-2zm-13.35 1V11h-2v12.81h2zm-1-11.81h45.22v-2h-45.22v2zm44.22-1v12.81h2V11h-2zm1 11.81h-14.35v2h14.35v-2zm-15.35 1V60h2V23.81h-2zm1 35.19h-16.52v2h16.52v-2zm-15.52 1V23.81h-2V60h2zm78.4-12.46h1v-1h-1v1zm0 12.46v1h1v-1h-1zm-40.74 0h-1v1h1v-1zm0-49v-1h-1v1h1zm39.83 0h1v-1h-1v1zm0 12.46v1h1v-1h-1zm-23.59 0v-1h-1v1h1zm0 5.74h-1v1h1v-1zm20.72 0h1v-1h-1v1zm0 11.9v1h1v-1h-1zm-20.72 0v-1h-1v1h1zm0 6.44h-1v1h1v-1zm23.5 0V60h2V47.54h-2zm1 11.46h-40.74v2h40.74v-2zm-39.74 1V11h-2v49h2zm-1-48h39.83v-2h-39.83v2zm38.83-1v12.46h2V11h-2zm1 11.46h-23.59v2h23.59v-2zm-24.59 1v5.74h2v-5.74h-2zm1 6.74h20.72v-2h-20.72v2zm19.72-1v11.9h2V29.2h-2zm1 10.9h-20.72v2h20.72v-2zm-21.72 1v6.44h2V41.1h-2zm1 7.44h24.5v-2h-24.5v2zm55.36-.86l.828-.56-.297-.44h-.531v1zm-4.48 0v-1h-1v1h1zm0 12.32v1h1v-1h-1zm-16.52 0h-1v1h1v-1zm0-49v-1h-1v1h1zm35.42 2.24l-.406.914.406-.914zm7.77 6.44l-.838.545.838-.545zm.35 18.97l-.855-.519.855.52zm-6.86 6.23l-.458-.889-1.004.518.635.934.827-.563zM697.087 60v1h1.89l-1.063-1.563-.827.563zm-17.64 0l-.828.56.297.44h.531v-1zm-1.75-34.72l-.676.737.009.008.008.008.659-.753zm-11.06-1.54v-1h-1v1h1zm0 11.48h-1v1h1v-1zm11.06-1.47l.658.753.009-.008.009-.008-.676-.737zm-6.58 12.93h-4.48v2h4.48v-2zm-5.48 1V60h2V47.68h-2zm1 11.32h-16.52v2h16.52v-2zm-15.52 1V11h-2v49h2zm-1-48h23.59v-2h-23.59v2zm23.59 0c4.418 0 8.218.73 11.424 2.154l.812-1.828C682.429 10.764 678.342 10 673.707 10v2zm11.424 2.154c3.202 1.423 5.633 3.45 7.338 6.071l1.676-1.09c-1.936-2.978-4.684-5.245-8.202-6.809l-.812 1.828zm7.338 6.071c1.702 2.62 2.568 5.692 2.568 9.255h2c0-3.903-.954-7.364-2.892-10.345l-1.676 1.09zm2.568 9.255c0 3.344-.756 6.216-2.235 8.651l1.71 1.038c1.695-2.79 2.525-6.033 2.525-9.689h-2zm-2.235 8.651c-1.482 2.441-3.624 4.396-6.463 5.86l.916 1.778c3.134-1.616 5.565-3.814 7.257-6.6l-1.71-1.038zm-6.832 7.312l10.29 15.12 1.654-1.126-10.29-15.12-1.654 1.126zM697.087 59h-17.64v2h17.64v-2zm-16.812.44l-8.33-12.32-1.656 1.12 8.33 12.32 1.656-1.12zm.102-29.96c0-2.038-.637-3.74-2.022-4.953l-1.317 1.506c.856.748 1.339 1.845 1.339 3.447h2zm-2.004-4.937c-1.376-1.26-3.342-1.803-5.716-1.803v2c2.106 0 3.5.485 4.364 1.277l1.352-1.474zm-5.716-1.803h-6.02v2h6.02v-2zm-7.02 1v11.48h2V23.74h-2zm1 12.48h6.02v-2h-6.02v2zm6.02 0c2.364 0 4.323-.514 5.698-1.717l-1.317-1.506c-.864.757-2.265 1.223-4.381 1.223v2zm5.716-1.733c1.367-1.253 2.004-2.967 2.004-5.007h-2c0 1.6-.483 2.733-1.356 3.533l1.352 1.474zM746.571 1.06v-1h-.709l-.234.67.943.33zm14 0l.944.331.466-1.33h-1.41v1zM737.471 67v1h.71l.234-.669-.944-.33zm-14 0l-.943-.33-.466 1.33h1.409v-1zm23.1-64.94h14v-2h-14v2zM759.628.73l-23.1 65.94 1.887.661 23.1-65.94-1.887-.662zM737.471 66h-14v2h14v-2zm-13.056 1.331l23.1-65.94-1.887-.662-23.1 65.94 1.887.662zm76.003-9.43l-.467.883.008.004.459-.888zm-9.8-9.101l-.859.512.007.012.852-.524zm0-26.53l-.855-.519-.002.003.857.516zm9.8-9.1l.459.888.008-.004-.467-.884zm26.74-.77l-.41.912.41-.912zm9.24 7.28l.666.746.691-.617-.563-.736-.794.607zm-10.43 9.31l-.784.621.659.831.791-.706-.666-.746zm-19.04-2.38l.722.692.007-.008-.729-.684zm0 17.85l-.73.684.008.008.722-.692zm19.04-2.45l.666-.746-.791-.706-.659.831.784.621zm10.43 9.31l.794.607.563-.736-.691-.617-.666.746zm-9.24 7.28l-.41-.912.41.912zm-12.74 1.52c-5.038 0-9.544-1.043-13.541-3.108l-.918 1.776c4.31 2.228 9.137 3.332 14.459 3.332v-2zm-13.533-3.104c-4.001-2.113-7.132-5.024-9.415-8.74l-1.704 1.048c2.477 4.031 5.879 7.186 10.185 9.46l.934-1.768zm-9.408-8.727c-2.233-3.753-3.359-8.007-3.359-12.789h-2c0 5.111 1.207 9.724 3.641 13.811l1.718-1.022zM788.118 35.5c0-4.782 1.126-9.01 3.356-12.714l-1.713-1.032c-2.436 4.044-3.643 8.635-3.643 13.746h2zm3.355-12.71c2.282-3.76 5.411-6.668 9.404-8.732l-.918-1.776c-4.314 2.23-7.719 5.39-10.196 9.47l1.71 1.037zm9.412-8.736c3.995-2.109 8.499-3.174 13.533-3.174v-2c-5.326 0-10.155 1.13-14.467 3.406l.934 1.768zm13.533-3.174c4.641 0 8.745.82 12.33 2.432l.82-1.824c-3.881-1.747-8.271-2.608-13.15-2.608v2zm12.33 2.432c3.585 1.614 6.532 3.937 8.856 6.975l1.588-1.214c-2.53-3.309-5.743-5.839-9.624-7.585l-.82 1.824zm8.984 5.622l-10.43 9.31 1.332 1.492 10.43-9.31-1.332-1.492zm-8.98 9.435c-3.183-4.016-7.023-6.119-11.494-6.119v2c3.742 0 7.043 1.723 9.926 5.361l1.568-1.242zm-11.494-6.119c-3.692 0-6.746 1.208-9.06 3.676l1.459 1.368c1.887-2.012 4.386-3.044 7.601-3.044v-2zm-9.052 3.668c-2.318 2.421-3.428 5.653-3.428 9.582h2c0-3.538.989-6.232 2.872-8.198l-1.444-1.384zm-3.428 9.582c0 3.93 1.111 7.18 3.42 9.644l1.459-1.368c-1.89-2.016-2.879-4.739-2.879-8.276h-2zm3.428 9.652c2.315 2.418 5.367 3.598 9.052 3.598v-2c-3.222 0-5.723-1.013-7.608-2.982l-1.444 1.384zm9.052 3.598c4.471 0 8.311-2.103 11.494-6.119l-1.568-1.242c-2.883 3.638-6.184 5.361-9.926 5.361v2zm10.044-5.994l10.43 9.31 1.332-1.492-10.43-9.31-1.332 1.492zm10.302 7.957c-2.324 3.038-5.271 5.361-8.856 6.975l.82 1.824c3.881-1.746 7.094-4.276 9.624-7.585l-1.588-1.214zm-8.856 6.975c-3.585 1.613-7.689 2.432-12.33 2.432v2c4.879 0 9.269-.86 13.15-2.608l-.82-1.824zm28.374.142l.463-.886-.463.886zm-9.87-9.1l-.854.52.002.004.852-.524zm0-26.39l.852.524.003-.005-.855-.519zm38.29-9.17l.463-.886-.463.886zm9.87 9.17l-.854.52.002.004.852-.524zm0 26.39l.852.524.003-.005-.855-.519zm-9.87 9.1l.463.886-.463-.886zm-8.68-11.55l.515.858.007-.005-.522-.853zm3.99-4.27l.881.474.005-.009-.886-.465zm0-12.95l-.885.465.005.01.88-.475zm-3.99-4.27l-.532.847.014.008.014.01.504-.865zm-11.13 0l.515.858.007-.005-.522-.853zm-3.92 4.27l.881.474.005-.009-.886-.465zm0 12.95l-.885.465.005.01.88-.475zm3.92 4.27l-.532.847.014.008.014.01.504-.865zm5.6 13.84c-5.13 0-9.705-1.066-13.747-3.176l-.926 1.772c4.359 2.276 9.257 3.404 14.673 3.404v-2zm-13.747-3.176c-4.047-2.114-7.199-5.025-9.481-8.738l-1.704 1.048c2.479 4.033 5.906 7.19 10.259 9.462l.926-1.772zm-9.478-8.733c-2.278-3.753-3.425-7.98-3.425-12.71h-2c0 5.07 1.234 9.661 3.716 13.748l1.709-1.038zm-3.425-12.71c0-4.73 1.147-8.934 3.422-12.637l-1.704-1.048c-2.484 4.044-3.718 8.614-3.718 13.684h2zm3.425-12.642c2.282-3.759 5.434-6.69 9.478-8.803l-.926-1.772c-4.356 2.274-7.784 5.456-10.261 9.537l1.709 1.038zm9.478-8.803c4.042-2.11 8.617-3.176 13.747-3.176v-2c-5.416 0-10.314 1.128-14.673 3.404l.926 1.772zm13.747-3.176c5.131 0 9.706 1.066 13.747 3.176l.926-1.772c-4.358-2.276-9.257-3.404-14.673-3.404v2zm13.747 3.176c4.044 2.112 7.196 5.044 9.479 8.803l1.709-1.038c-2.478-4.08-5.906-7.263-10.262-9.537l-.926 1.772zm9.481 8.808c2.276 3.703 3.422 7.906 3.422 12.636h2c0-5.07-1.233-9.64-3.718-13.684l-1.704 1.048zm3.422 12.636c0 4.73-1.146 8.958-3.424 12.711l1.709 1.038c2.482-4.087 3.715-8.679 3.715-13.749h-2zm-3.422 12.706c-2.281 3.713-5.434 6.624-9.481 8.738l.926 1.772c4.353-2.273 7.781-5.429 10.259-9.462l-1.704-1.048zm-9.481 8.738c-4.041 2.11-8.616 3.176-13.747 3.176v2c5.416 0 10.315-1.128 14.673-3.404l-.926-1.772zm-13.747-8.194c2.22 0 4.244-.532 6.045-1.613l-1.029-1.714c-1.466.88-3.129 1.327-5.016 1.327v2zm6.052-1.617c1.839-1.123 3.289-2.68 4.349-4.649l-1.761-.948c-.901 1.672-2.11 2.961-3.631 3.891l1.043 1.706zm4.354-4.658c1.067-2.033 1.584-4.368 1.584-6.975h-2c0 2.34-.462 4.345-1.355 6.045l1.771.93zm1.584-6.975c0-2.606-.517-4.922-1.589-6.914l-1.761.948c.887 1.648 1.35 3.626 1.35 5.966h2zm-1.584-6.905c-1.06-2.018-2.516-3.586-4.372-4.669l-1.008 1.728c1.505.877 2.709 2.156 3.609 3.871l1.771-.93zm-4.343-4.652c-1.804-1.133-3.834-1.693-6.063-1.693v2c1.878 0 3.535.467 4.998 1.387l1.065-1.694zm-6.063-1.693c-2.229 0-4.277.56-6.121 1.687l1.043 1.706c1.516-.926 3.201-1.393 5.078-1.393v-2zm-6.114 1.683c-1.807 1.084-3.235 2.651-4.291 4.662l1.771.93c.904-1.722 2.089-3.002 3.549-3.878l-1.029-1.714zm-4.286 4.653c-1.073 1.992-1.59 4.308-1.59 6.914h2c0-2.34.463-4.318 1.351-5.966l-1.761-.948zm-1.59 6.914c0 2.607.518 4.942 1.585 6.975l1.771-.93c-.893-1.7-1.356-3.706-1.356-6.045h-2zm1.59 6.984c1.056 1.961 2.478 3.517 4.268 4.643l1.065-1.694c-1.477-.928-2.668-2.218-3.572-3.897l-1.761.948zm4.296 4.66c1.842 1.074 3.884 1.606 6.104 1.606v-2c-1.886 0-3.577-.448-5.096-1.334l-1.008 1.728zM906.478 11v-1h-1v1h1zm16.52 0h1v-1h-1v1zm0 36.19h-1v1h1v-1zm22.12 0h1v-1h-1v1zm0 12.81v1h1v-1h-1zm-38.64 0h-1v1h1v-1zm0-48h16.52v-2h-16.52v2zm15.52-1v36.19h2V11h-2zm1 37.19h22.12v-2h-22.12v2zm21.12-1V60h2V47.19h-2zm1 11.81h-38.64v2h38.64v-2zm-37.64 1V11h-2v49h2zm45.703-49v-1h-1v1h1zm16.52 0h1v-1h-1v1zm0 36.19h-1v1h1v-1zm22.12 0h1v-1h-1v1zm0 12.81v1h1v-1h-1zm-38.64 0h-1v1h1v-1zm0-48h16.52v-2h-16.52v2zm15.52-1v36.19h2V11h-2zm1 37.19h22.12v-2h-22.12v2zm21.12-1V60h2V47.19h-2zm1 11.81h-38.64v2h38.64v-2zm-37.64 1V11h-2v49h2zm79.779-8.54l.93-.359-.25-.64h-.68v1zm-18.62 0v-1h-.69l-.25.641.94.36zm-3.29 8.54v1h.68l.25-.64-.93-.36zm-16.802 0l-.916-.4-.612 1.4h1.528v-1zm21.422-49v-1h-.66l-.26.6.92.4zm16.24 0l.91-.4-.26-.6h-.65v1zm21.42 49v1h1.53l-.62-1.4-.91.4zm-17.08 0l-.94.36.25.64h.69v-1zm-7.84-20.44v1h1.46l-.53-1.36-.93.36zm-4.76-12.32l.93-.36-.93-2.415-.93 2.415.93.36zm-4.76 12.32l-.93-.36-.53 1.36h1.46v-1zm14.07 10.9h-18.62v2h18.62v-2zm-19.56.641l-3.29 8.54 1.87.718 3.29-8.54-1.87-.718zm-2.35 7.9h-16.802v2h16.802v-2zm-15.886 1.4l21.416-49-1.83-.802-21.418 49 1.832.802zm20.506-48.4h16.24v-2h-16.24v2zm15.32-.6l21.42 49 1.83-.802-21.42-49-1.83.802zm22.34 47.6h-17.08v2h17.08v-2zm-16.15.64l-3.29-8.54-1.87.718 3.29 8.54 1.87-.718zm-7.84-20.44l-4.76-12.32-1.86.72 4.76 12.32 1.86-.72zm-6.62-12.32l-4.76 12.32 1.86.72 4.76-12.32-1.86-.72zm-3.83 13.68h9.52v-2h-9.52v2zm79.77-6.18l-.44-.895-2.06 1.03 2.16.802.34-.938zm6.72 4.69l.8-.612-.8.611zm-2.94 17.43l.55.834.01-.005-.56-.83zm-42.98 3.5h-1v1h1v-1zm0-49v-1h-1v1h1zm40.95 3.5l-.57.817v.003l.57-.82zm3.29 15.47l-.84-.54v.007l-.01.008.85.524zm-28-7.421v-1h-1v1h1zm0 7.28h-1v1h1v-1zm0 10.92v-1h-1v1h1zm0 7.7h-1v1h1v-1zm22.62-13.132c2.75 1.02 4.82 2.484 6.27 4.363l1.59-1.222c-1.73-2.228-4.13-3.891-7.17-5.017l-.69 1.876zm6.27 4.363c1.44 1.86 2.17 4.11 2.17 6.81h2c0-3.089-.85-5.784-2.58-8.032l-1.59 1.222zm2.17 6.81c0 3.961-1.6 6.986-4.87 9.18l1.11 1.659c3.83-2.567 5.76-6.215 5.76-10.84h-2zm-4.87 9.174c-3.31 2.18-8.22 3.335-14.85 3.335v2c6.82 0 12.17-1.178 15.95-3.665l-1.1-1.67zM1088.04 59h-27.58v2h27.58v-2zm-26.58 1V11h-2v49h2zm-1-48h26.18v-2h-26.18v2zm26.18 0c6.45 0 11.13 1.156 14.2 3.318l1.15-1.636c-3.56-2.504-8.72-3.682-15.35-3.682v2zm14.2 3.321c3.11 2.16 4.61 4.964 4.61 8.49h2c0-4.223-1.85-7.625-5.46-10.132l-1.15 1.642zm4.61 8.49c0 2.106-.53 3.97-1.59 5.62l1.69 1.08c1.27-1.992 1.9-4.235 1.9-6.7h-2zm-1.6 5.635c-1 1.636-2.53 2.988-4.63 4.04l.89 1.788c2.38-1.188 4.21-2.776 5.45-4.78l-1.71-1.048zm-28.15-6.896v7.28h2v-7.28h-2zm1 8.28h7.7v-2h-7.7v2zm7.7 0c1.88 0 3.47-.31 4.61-1.08 1.21-.818 1.78-2.06 1.78-3.56h-2c0 .928-.32 1.505-.9 1.901-.66.444-1.77.739-3.49.739v2zm6.39-4.64c0-1.499-.57-2.742-1.78-3.559-1.14-.77-2.73-1.081-4.61-1.081v2c1.72 0 2.83.295 3.49.74.58.395.9.972.9 1.9h2zm-6.39-4.64h-7.7v2h7.7v-2zm2.24 27.9c1.91 0 3.52-.33 4.68-1.145 1.22-.86 1.78-2.154 1.78-3.705h-2c0 1.015-.34 1.647-.94 2.07-.66.47-1.78.78-3.52.78v2zm6.46-4.85c0-1.55-.56-2.845-1.78-3.705-1.16-.814-2.77-1.145-4.68-1.145v2c1.74 0 2.86.311 3.52.78.6.423.94 1.055.94 2.07h2zm-6.46-4.85h-9.94v2h9.94v-2zm-10.94 1v7.7h2v-7.7h-2zm1 8.7h9.94v-2h-9.94v2zm52.89 8.38l.46-.886-.46.886zm-9.87-9.1l-.86.52v.004l.86-.524zm0-26.39l.85.524v-.005l-.85-.519zm38.29-9.17l.46-.886-.46.886zm9.87 9.17l-.86.52v.004l.86-.524zm0 26.39l.85.524v-.005l-.85-.519zm-9.87 9.1l.46.886-.46-.886zm-8.68-11.55l.51.858.01-.005-.52-.853zm3.99-4.27l.88.474v-.009l-.88-.465zm0-12.95l-.89.465v.01l.89-.475zm-3.99-4.27l-.54.847.02.008.01.01.51-.865zm-11.13 0l.51.858.01-.005-.52-.853zm-3.92 4.27l.88.474v-.009l-.88-.465zm0 12.95l-.89.465v.01l.89-.475zm3.92 4.27l-.54.847.02.008.01.01.51-.865zm5.6 13.84c-5.14 0-9.71-1.066-13.75-3.176l-.93 1.772c4.36 2.276 9.26 3.404 14.68 3.404v-2zm-13.75-3.176c-4.05-2.114-7.2-5.025-9.48-8.738l-1.71 1.048c2.48 4.033 5.91 7.19 10.26 9.462l.93-1.772zm-9.48-8.733c-2.28-3.753-3.42-7.98-3.42-12.71h-2c0 5.07 1.23 9.661 3.71 13.748l1.71-1.038zm-3.42-12.71c0-4.73 1.14-8.934 3.42-12.637l-1.71-1.048c-2.48 4.044-3.71 8.614-3.71 13.684h2zm3.42-12.642c2.28-3.759 5.43-6.69 9.48-8.803l-.93-1.772c-4.35 2.274-7.78 5.456-10.26 9.537l1.71 1.038zm9.48-8.803c4.04-2.11 8.61-3.176 13.75-3.176v-2c-5.42 0-10.32 1.128-14.68 3.404l.93 1.772zm13.75-3.176c5.13 0 9.7 1.066 13.74 3.176l.93-1.772c-4.36-2.276-9.26-3.404-14.67-3.404v2zm13.74 3.176c4.05 2.112 7.2 5.044 9.48 8.803l1.71-1.038c-2.48-4.08-5.91-7.263-10.26-9.537l-.93 1.772zm9.48 8.808c2.28 3.703 3.43 7.906 3.43 12.636h2c0-5.07-1.24-9.64-3.72-13.684l-1.71 1.048zm3.43 12.636c0 4.73-1.15 8.958-3.43 12.711l1.71 1.038c2.48-4.087 3.72-8.679 3.72-13.749h-2zm-3.43 12.706c-2.28 3.713-5.43 6.624-9.48 8.738l.93 1.772c4.35-2.273 7.78-5.429 10.26-9.462l-1.71-1.048zm-9.48 8.738c-4.04 2.11-8.61 3.176-13.74 3.176v2c5.41 0 10.31-1.128 14.67-3.404l-.93-1.772zm-13.74-8.194c2.22 0 4.24-.532 6.04-1.613l-1.03-1.714c-1.47.88-3.13 1.327-5.01 1.327v2zm6.05-1.617c1.84-1.123 3.29-2.68 4.35-4.649l-1.77-.948c-.9 1.672-2.11 2.961-3.63 3.891l1.05 1.706zm4.35-4.658c1.07-2.033 1.59-4.368 1.59-6.975h-2c0 2.34-.47 4.345-1.36 6.045l1.77.93zm1.59-6.975c0-2.606-.52-4.922-1.59-6.914l-1.77.948c.89 1.648 1.36 3.626 1.36 5.966h2zm-1.59-6.905c-1.06-2.018-2.52-3.586-4.37-4.669l-1.01 1.728c1.51.877 2.71 2.156 3.61 3.871l1.77-.93zm-4.34-4.652c-1.81-1.133-3.84-1.693-6.06-1.693v2c1.87 0 3.53.467 4.99 1.387l1.07-1.694zm-6.06-1.693c-2.23 0-4.28.56-6.13 1.687l1.05 1.706c1.51-.926 3.2-1.393 5.08-1.393v-2zm-6.12 1.683c-1.81 1.084-3.23 2.651-4.29 4.662l1.77.93c.9-1.722 2.09-3.002 3.55-3.878l-1.03-1.714zm-4.29 4.653c-1.07 1.992-1.58 4.308-1.58 6.914h2c0-2.34.46-4.318 1.35-5.966l-1.77-.948zm-1.58 6.914c0 2.607.51 4.942 1.58 6.975l1.77-.93c-.89-1.7-1.35-3.706-1.35-6.045h-2zm1.58 6.984c1.06 1.961 2.48 3.517 4.27 4.643l1.07-1.694c-1.48-.928-2.67-2.218-3.57-3.897l-1.77.948zm4.3 4.66c1.84 1.074 3.89 1.606 6.11 1.606v-2c-1.89 0-3.58-.448-5.1-1.334l-1.01 1.728zm64.25.536l.83-.56-.3-.44h-.53v1zm-4.48 0v-1h-1v1h1zm0 12.32v1h1v-1h-1zm-16.52 0h-1v1h1v-1zm0-49v-1h-1v1h1zm35.42 2.24l-.4.914.4-.914zm7.77 6.44l-.84.545.84-.545zm.35 18.97l-.85-.519.85.52zm-6.86 6.23l-.46-.889-1 .518.63.934.83-.563zM1227.91 60v1h1.89l-1.06-1.563-.83.563zm-17.64 0l-.83.56.3.44h.53v-1zm-1.75-34.72l-.67.737v.008l.01.008.66-.753zm-11.06-1.54v-1h-1v1h1zm0 11.48h-1v1h1v-1zm11.06-1.47l.66.753.01-.008.01-.008-.68-.737zm-6.58 12.93h-4.48v2h4.48v-2zm-5.48 1V60h2V47.68h-2zm1 11.32h-16.52v2h16.52v-2zm-15.52 1V11h-2v49h2zm-1-48h23.59v-2h-23.59v2zm23.59 0c4.42 0 8.22.73 11.43 2.154l.81-1.828c-3.52-1.562-7.6-2.326-12.24-2.326v2zm11.43 2.154c3.2 1.423 5.63 3.45 7.33 6.071l1.68-1.09c-1.94-2.978-4.68-5.245-8.2-6.809l-.81 1.828zm7.33 6.071c1.71 2.62 2.57 5.692 2.57 9.255h2c0-3.903-.95-7.364-2.89-10.345l-1.68 1.09zm2.57 9.255c0 3.344-.76 6.216-2.23 8.651l1.71 1.038c1.69-2.79 2.52-6.033 2.52-9.689h-2zm-2.23 8.651c-1.49 2.441-3.63 4.396-6.47 5.86l.92 1.778c3.13-1.616 5.56-3.814 7.26-6.6l-1.71-1.038zm-6.84 7.312l10.29 15.12 1.66-1.126-10.29-15.12-1.66 1.126zM1227.91 59h-17.64v2h17.64v-2zm-16.81.44l-8.33-12.32-1.66 1.12 8.33 12.32 1.66-1.12zm.1-29.96c0-2.038-.64-3.74-2.02-4.953l-1.32 1.506c.86.748 1.34 1.845 1.34 3.447h2zm-2-4.937c-1.38-1.26-3.35-1.803-5.72-1.803v2c2.11 0 3.5.485 4.37 1.277l1.35-1.474zm-5.72-1.803h-6.02v2h6.02v-2zm-7.02 1v11.48h2V23.74h-2zm1 12.48h6.02v-2h-6.02v2zm6.02 0c2.36 0 4.32-.514 5.7-1.717l-1.32-1.506c-.86.757-2.26 1.223-4.38 1.223v2zm5.72-1.733c1.36-1.253 2-2.967 2-5.007h-2c0 1.6-.48 2.733-1.35 3.533l1.35 1.474zm60.79 16.973l.93-.359-.24-.64h-.69v1zm-18.62 0v-1h-.69l-.24.641.93.36zm-3.29 8.54v1h.69l.24-.64-.93-.36zm-16.8 0l-.92-.4-.61 1.4h1.53v-1zm21.42-49v-1h-.65l-.27.6.92.4zm16.24 0l.92-.4-.27-.6h-.65v1zm21.42 49v1h1.53l-.61-1.4-.92.4zm-17.08 0l-.93.36.24.64h.69v-1zm-7.84-20.44v1h1.46l-.53-1.36-.93.36zm-4.76-12.32l.93-.36-.93-2.415-.93 2.415.93.36zm-4.76 12.32l-.93-.36-.53 1.36h1.46v-1zm14.07 10.9h-18.62v2h18.62v-2zm-19.55.641l-3.29 8.54 1.86.718 3.29-8.54-1.86-.718zm-2.36 7.9h-16.8v2h16.8v-2zm-15.88 1.4l21.42-49-1.84-.802-21.42 49 1.84.802zm20.5-48.4h16.24v-2h-16.24v2zm15.32-.6l21.42 49 1.84-.802-21.42-49-1.84.802zm22.34 47.6h-17.08v2h17.08v-2zm-16.15.64l-3.29-8.54-1.86.718 3.29 8.54 1.86-.718zm-7.84-20.44l-4.76-12.32-1.86.72 4.76 12.32 1.86-.72zm-6.62-12.32l-4.76 12.32 1.86.72 4.76-12.32-1.86-.72zm-3.83 13.68h9.52v-2h-9.52v2zm48.75-16.75h1v-1h-1v1zm-14.35 0h-1v1h1v-1zm0-12.81v-1h-1v1h1zm45.22 0h1v-1h-1v1zm0 12.81v1h1v-1h-1zm-14.35 0v-1h-1v1h1zm0 36.19v1h1v-1h-1zm-16.52 0h-1v1h1v-1zm0-37.19h-14.35v2h14.35v-2zm-13.35 1V11h-2v12.81h2zm-1-11.81h45.22v-2h-45.22v2zm44.22-1v12.81h2V11h-2zm1 11.81h-14.35v2h14.35v-2zm-15.35 1V60h2V23.81h-2zm1 35.19h-16.52v2h16.52v-2zm-15.52 1V23.81h-2V60h2zm78.41-12.46h1v-1h-1v1zm0 12.46v1h1v-1h-1zm-40.74 0h-1v1h1v-1zm0-49v-1h-1v1h1zm39.83 0h1v-1h-1v1zm0 12.46v1h1v-1h-1zm-23.59 0v-1h-1v1h1zm0 5.74h-1v1h1v-1zm20.72 0h1v-1h-1v1zm0 11.9v1h1v-1h-1zm-20.72 0v-1h-1v1h1zm0 6.44h-1v1h1v-1zm23.5 0V60h2V47.54h-2zm1 11.46h-40.74v2h40.74v-2zm-39.74 1V11h-2v49h2zm-1-48h39.83v-2h-39.83v2zm38.83-1v12.46h2V11h-2zm1 11.46h-23.59v2h23.59v-2zm-24.59 1v5.74h2v-5.74h-2zm1 6.74h20.72v-2h-20.72v2zm19.72-1v11.9h2V29.2h-2zm1 10.9h-20.72v2h20.72v-2zm-21.72 1v6.44h2V41.1h-2zm1 7.44h24.5v-2h-24.5v2zm75.15-47.48v-1h-.71l-.23.668.94.331zm14 0l.95.33.46-1.33h-1.41v1zM1425.63 67v1h.71l.24-.67-.95-.33zm-14 0l-.94-.332-.47 1.331h1.41v-1zm23.1-64.94h14v-2h-14v2zm13.06-1.332l-23.1 65.94 1.89.662 23.1-65.94-1.89-.662zM1425.63 66h-14v2h14v-2zm-13.05 1.331l23.1-65.94-1.89-.662-23.1 65.94 1.89.662zm85.66-19.65l.83-.56-.3-.44h-.53v1zm-4.48 0v-1h-1v1h1zm0 12.32v1h1v-1h-1zm-16.52 0h-1v1h1v-1zm0-49v-1h-1v1h1zm35.42 2.24l-.41.913.41-.914zm7.77 6.44l-.84.544.84-.545zm.35 18.97l-.86-.52.86.52zm-6.86 6.23l-.46-.89-1 .518.63.934.83-.563zM1524.21 60v1h1.89l-1.07-1.564-.82.563zm-17.64 0l-.83.56.3.44h.53v-1zm-1.75-34.72l-.68.736.01.008.01.008.66-.753zm-11.06-1.54v-1h-1v1h1zm0 11.48h-1v1h1v-1zm11.06-1.47l.66.752.01-.008v-.008l-.67-.737zm-6.58 12.93h-4.48v2h4.48v-2zm-5.48 1V60h2V47.68h-2zm1 11.32h-16.52v2h16.52v-2zm-15.52 1V11h-2v49h2zm-1-48h23.59v-2h-23.59v2zm23.59 0c4.42 0 8.22.728 11.42 2.153l.81-1.828c-3.51-1.562-7.6-2.326-12.23-2.326v2zm11.42 2.153c3.2 1.423 5.64 3.45 7.34 6.071l1.68-1.09c-1.94-2.978-4.69-5.245-8.21-6.809l-.81 1.828zm7.34 6.071c1.7 2.62 2.57 5.692 2.57 9.255h2c0-3.903-.96-7.364-2.89-10.345l-1.68 1.09zm2.57 9.255c0 3.344-.76 6.216-2.24 8.651l1.71 1.038c1.7-2.79 2.53-6.033 2.53-9.689h-2zm-2.24 8.651c-1.48 2.441-3.62 4.396-6.46 5.86l.92 1.778c3.13-1.616 5.56-3.814 7.25-6.6l-1.71-1.038zm-6.83 7.312l10.29 15.12 1.65-1.126-10.29-15.12-1.65 1.126zM1524.21 59h-17.64v2h17.64v-2zm-16.81.44l-8.33-12.32-1.66 1.12 8.33 12.32 1.66-1.12zm.1-29.96c0-2.038-.64-3.74-2.02-4.953l-1.32 1.506c.85.748 1.34 1.845 1.34 3.447h2zm-2.01-4.937c-1.37-1.26-3.34-1.803-5.71-1.803v2c2.1 0 3.5.485 4.36 1.277l1.35-1.474zm-5.71-1.803h-6.02v2h6.02v-2zm-7.02 1v11.48h2V23.74h-2zm1 12.48h6.02v-2h-6.02v2zm6.02 0c2.36 0 4.32-.514 5.7-1.717l-1.32-1.506c-.87.757-2.27 1.223-4.38 1.223v2zm5.71-1.733c1.37-1.253 2.01-2.967 2.01-5.007h-2c0 1.6-.48 2.733-1.36 3.533l1.35 1.474zm68.15 13.053h1v-1h-1v1zm0 12.46v1h1v-1h-1zm-40.74 0h-1v1h1v-1zm0-49v-1h-1v1h1zm39.83 0h1v-1h-1v1zm0 12.46v1h1v-1h-1zm-23.59 0v-1h-1v1h1zm0 5.74h-1v1h1v-1zm20.72 0h1v-1h-1v1zm0 11.9v1h1v-1h-1zm-20.72 0v-1h-1v1h1zm0 6.44h-1v1h1v-1zm23.5 0V60h2V47.54h-2zm1 11.46h-40.74v2h40.74v-2zm-39.74 1V11h-2v49h2zm-1-48h39.83v-2h-39.83v2zm38.83-1v12.46h2V11h-2zm1 11.46h-23.59v2h23.59v-2zm-24.59 1v5.74h2v-5.74h-2zm1 6.74h20.72v-2h-20.72v2zm19.72-1v11.9h2V29.2h-2zm1 10.9h-20.72v2h20.72v-2zm-21.72 1v6.44h2V41.1h-2zm1 7.44h24.5v-2h-24.5v2zm67.75 2.92l.93-.359-.25-.64h-.68v1zm-18.62 0v-1h-.69l-.25.641.94.36zm-3.29 8.54v1h.68l.25-.64-.93-.36zm-16.8 0l-.92-.4-.61 1.4h1.53v-1zm21.42-49v-1h-.66l-.26.6.92.4zm16.24 0l.91-.4-.26-.6h-.65v1zm21.42 49v1h1.52l-.61-1.4-.91.4zm-17.08 0l-.94.36.25.64h.69v-1zm-7.84-20.44v1h1.45l-.52-1.36-.93.36zm-4.76-12.32l.93-.36-.93-2.415-.94 2.415.94.36zm-4.76 12.32l-.94-.36-.52 1.36h1.46v-1zm14.07 10.9h-18.62v2h18.62v-2zm-19.56.641l-3.29 8.54 1.87.718 3.29-8.54-1.87-.718zm-2.35 7.9h-16.8v2h16.8v-2zm-15.89 1.4l21.42-49-1.83-.802-21.42 49 1.83.802zm20.51-48.4h16.24v-2h-16.24v2zm15.32-.6l21.42 49 1.83-.802-21.42-49-1.83.802zm22.34 47.6h-17.08v2h17.08v-2zm-16.15.64l-3.29-8.54-1.87.718 3.29 8.54 1.87-.718zm-7.84-20.44l-4.76-12.32-1.87.72 4.76 12.32 1.87-.72zm-6.63-12.32l-4.76 12.32 1.87.72 4.76-12.32-1.87-.72zm-3.82 13.68h9.52v-2h-9.52v2zM1643.39 11v-1h-1v1h1zm38.57 3.01l-.43.9.01.005.42-.906zm9.73 8.47l-.85.526.01.008.84-.535zm0 26.04l-.84-.536-.01.008.85.527zm-9.73 8.54l.43.903v-.002l-.43-.902zM1643.39 60h-1v1h1v-1zm31.92-15.891l.69.723-.69-.723zm0-17.15l-.7.715.01.008.01.008.68-.73zm-15.4-3.08v-1h-1v1h1zm0 23.24h-1v1h1v-1zM1643.39 12h24.15v-2h-24.15v2zm24.15 0c5.34 0 9.99.98 13.99 2.91l.87-1.8c-4.31-2.084-9.27-3.11-14.86-3.11v2zm14 2.916c4.04 1.884 7.13 4.581 9.3 8.091l1.7-1.054c-2.39-3.863-5.79-6.813-10.15-8.849l-.85 1.812zm9.31 8.1c2.22 3.503 3.34 7.652 3.34 12.484h2c0-5.155-1.2-9.686-3.65-13.555l-1.69 1.07zm3.34 12.484c0 4.832-1.12 8.981-3.34 12.485l1.69 1.07c2.45-3.869 3.65-8.4 3.65-13.555h-2zm-3.35 12.493c-2.18 3.512-5.27 6.234-9.31 8.165l.86 1.804c4.36-2.083 7.76-5.054 10.15-8.915l-1.7-1.054zm-9.3 8.163c-4 1.886-8.66 2.844-14 2.844v2c5.58 0 10.54-1.002 14.85-3.036l-.85-1.808zm-14 2.844h-24.15v2h24.15v-2zm-23.15 1V11h-2v49h2zm22.45-11.88c3.75 0 6.84-1.065 9.16-3.287l-1.38-1.446c-1.87 1.791-4.43 2.733-7.78 2.733v2zm9.16-3.287c2.39-2.286 3.53-5.444 3.53-9.333h-2c0 3.484-1 6.066-2.91 7.887l1.38 1.446zm3.53-9.333c0-3.888-1.14-7.029-3.53-9.27l-1.37 1.461c1.89 1.771 2.9 4.324 2.9 7.81h2zm-3.52-9.255c-2.32-2.273-5.42-3.365-9.17-3.365v2c3.35 0 5.9.961 7.77 2.795l1.4-1.43zm-9.17-3.365h-6.93v2h6.93v-2zm-7.93 1v23.24h2V23.88h-2zm1 24.24h6.93v-2h-6.93v2zm85.55-.58h1v-1h-1v1zm0 12.46v1h1v-1h-1zm-40.74 0h-1v1h1v-1zm0-49v-1h-1v1h1zm39.83 0h1v-1h-1v1zm0 12.46v1h1v-1h-1zm-23.59 0v-1h-1v1h1zm0 5.74h-1v1h1v-1zm20.72 0h1v-1h-1v1zm0 11.9v1h1v-1h-1zm-20.72 0v-1h-1v1h1zm0 6.44h-1v1h1v-1zm23.5 0V60h2V47.54h-2zm1 11.46h-40.74v2h40.74v-2zm-39.74 1V11h-2v49h2zm-1-48h39.83v-2h-39.83v2zm38.83-1v12.46h2V11h-2zm1 11.46h-23.59v2h23.59v-2zm-24.59 1v5.74h2v-5.74h-2zm1 6.74h20.72v-2h-20.72v2zm19.72-1v11.9h2V29.2h-2zm1 10.9h-20.72v2h20.72v-2zm-21.72 1v6.44h2V41.1h-2zm1 7.44h24.5v-2h-24.5v2zm55.36-.86l.83-.56-.3-.44h-.53v1zm-4.48 0v-1h-1v1h1zm0 12.32v1h1v-1h-1zm-16.52 0h-1v1h1v-1zm0-49v-1h-1v1h1zm35.42 2.24l-.4.914.4-.914zm7.77 6.44l-.83.545.83-.545zm.35 18.97l-.85-.519.85.52zm-6.86 6.23l-.45-.889-1.01.518.64.934.82-.563zM1802.29 60v1h1.89l-1.06-1.563-.83.563zm-17.64 0l-.82.56.29.44h.53v-1zm-1.75-34.72l-.67.737.01.008.01.008.65-.753zm-11.06-1.54v-1h-1v1h1zm0 11.48h-1v1h1v-1zm11.06-1.47l.66.753.01-.008.01-.008-.68-.737zm-6.58 12.93h-4.48v2h4.48v-2zm-5.48 1V60h2V47.68h-2zm1 11.32h-16.52v2h16.52v-2zm-15.52 1V11h-2v49h2zm-1-48h23.59v-2h-23.59v2zm23.59 0c4.42 0 8.22.73 11.43 2.154l.81-1.828c-3.51-1.562-7.6-2.326-12.24-2.326v2zm11.43 2.154c3.2 1.423 5.63 3.45 7.34 6.071l1.67-1.09c-1.93-2.978-4.68-5.245-8.2-6.809l-.81 1.828zm7.34 6.071c1.7 2.62 2.56 5.692 2.56 9.255h2c0-3.903-.95-7.364-2.89-10.345l-1.67 1.09zm2.56 9.255c0 3.344-.75 6.216-2.23 8.651l1.71 1.038c1.69-2.79 2.52-6.033 2.52-9.689h-2zm-2.23 8.651c-1.48 2.441-3.62 4.396-6.46 5.86l.91 1.778c3.14-1.616 5.57-3.814 7.26-6.6l-1.71-1.038zm-6.83 7.312l10.29 15.12 1.65-1.126-10.29-15.12-1.65 1.126zM1802.29 59h-17.64v2h17.64v-2zm-16.81.44l-8.33-12.32-1.65 1.12 8.33 12.32 1.65-1.12zm.1-29.96c0-2.038-.63-3.74-2.02-4.953l-1.31 1.506c.85.748 1.33 1.845 1.33 3.447h2zm-2-4.937c-1.38-1.26-3.34-1.803-5.72-1.803v2c2.11 0 3.5.485 4.37 1.277l1.35-1.474zm-5.72-1.803h-6.02v2h6.02v-2zm-7.02 1v11.48h2V23.74h-2zm1 12.48h6.02v-2h-6.02v2zm6.02 0c2.37 0 4.33-.514 5.7-1.717l-1.31-1.506c-.87.757-2.27 1.223-4.39 1.223v2zm5.72-1.733c1.37-1.253 2-2.967 2-5.007h-2c0 1.6-.48 2.733-1.35 3.533l1.35 1.474zM46.913 86.06v-1h-.709l-.234.67.943.33zm14 0l.944.331.466-1.33h-1.41v1zM37.813 152v1h.71l.234-.669-.944-.331zm-14 0l-.943-.331-.466 1.331h1.41v-1zm23.1-64.94h14v-2h-14v2zm13.057-1.33l-23.1 65.939 1.887.662 23.1-65.94-1.887-.662zM37.813 151h-14v2h14v-2zm-13.056 1.331l23.1-65.94-1.887-.662-23.1 65.94 1.887.662zm75.303-43.521h1v-1h-1v1zm-14.35 0h-1v1h1v-1zm0-12.81v-1h-1v1h1zm45.22 0h1v-1h-1v1zm0 12.81v1h1v-1h-1zm-14.35 0v-1h-1v1h1zm0 36.19v1h1v-1h-1zm-16.52 0h-1v1h1v-1zm0-37.19H85.71v2h14.35v-2zm-13.35 1V96h-2v12.81h2zm-1-11.81h45.22v-2H85.71v2zm44.22-1v12.81h2V96h-2zm1 11.81h-14.35v2h14.35v-2zm-15.35 1V145h2v-36.19h-2zm1 35.19h-16.52v2h16.52v-2zm-15.52 1v-36.19h-2V145h2zm58.66-12.32l.829-.56-.298-.44h-.531v1zm-4.48 0v-1h-1v1h1zm0 12.32v1h1v-1h-1zm-16.52 0h-1v1h1v-1zm0-49v-1h-1v1h1zm35.42 2.24l-.406.914.406-.914zm7.77 6.44l-.838.545.838-.545zm.35 18.97l-.854-.519.854.519zm-6.86 6.23l-.458-.889-1.004.518.636.934.826-.563zM185.69 145v1h1.891l-1.064-1.563-.827.563zm-17.64 0l-.828.56.297.44h.531v-1zm-1.75-34.72l-.675.737.008.008.009.008.658-.753zm-11.06-1.54v-1h-1v1h1zm0 11.48h-1v1h1v-1zm11.06-1.47l.659.753.009-.008.008-.008-.676-.737zm-6.58 12.93h-4.48v2h4.48v-2zm-5.48 1V145h2v-12.32h-2zm1 11.32h-16.52v2h16.52v-2zm-15.52 1V96h-2v49h2zm-1-48h23.59v-2h-23.59v2zm23.59 0c4.419 0 8.218.73 11.424 2.154l.813-1.828C171.033 95.764 166.946 95 162.31 95v2zm11.424 2.154c3.202 1.423 5.634 3.449 7.338 6.071l1.677-1.09c-1.936-2.978-4.684-5.245-8.202-6.809l-.813 1.828zm7.338 6.071c1.702 2.619 2.568 5.692 2.568 9.255h2c0-3.903-.953-7.364-2.891-10.345l-1.677 1.09zm2.568 9.255c0 3.344-.756 6.216-2.234 8.651l1.709 1.038c1.695-2.791 2.525-6.033 2.525-9.689h-2zm-2.234 8.651c-1.482 2.441-3.624 4.396-6.464 5.86l.917 1.778c3.133-1.616 5.565-3.814 7.256-6.6l-1.709-1.038zm-6.832 7.312l10.29 15.12 1.653-1.126-10.29-15.12-1.653 1.126zM185.69 144h-17.64v2h17.64v-2zm-16.811.44l-8.33-12.32-1.657 1.12 8.33 12.32 1.657-1.12zm.101-29.96c0-2.038-.636-3.741-2.021-4.953l-1.317 1.506c.855.748 1.338 1.845 1.338 3.447h2zm-2.004-4.937c-1.375-1.261-3.342-1.803-5.716-1.803v2c2.107 0 3.5.485 4.365 1.277l1.351-1.474zm-5.716-1.803h-6.02v2h6.02v-2zm-7.02 1v11.48h2v-11.48h-2zm1 12.48h6.02v-2h-6.02v2zm6.02 0c2.364 0 4.324-.514 5.699-1.717l-1.317-1.506c-.865.757-2.265 1.223-4.382 1.223v2zm5.716-1.733c1.367-1.253 2.004-2.967 2.004-5.007h-2c0 1.6-.482 2.733-1.355 3.533l1.351 1.474zm60.793 16.973l.933-.359-.247-.641h-.686v1zm-18.62 0v-1h-.687l-.246.641.933.359zm-3.29 8.54v1h.686l.247-.641-.933-.359zm-16.8 0l-.917-.401-.612 1.401h1.529v-1zm21.42-49v-1h-.655l-.262.6.917.4zm16.24 0l.916-.4-.262-.6h-.654v1zm21.42 49v1h1.528l-.612-1.401-.916.401zm-17.08 0l-.933.359.246.641h.687v-1zm-7.84-20.44v1h1.458l-.526-1.36-.932.36zm-4.76-12.32l.932-.36-.932-2.415-.933 2.415.933.36zm-4.76 12.32l-.933-.36-.526 1.36h1.459v-1zm14.07 10.9h-18.62v2h18.62v-2zm-19.553.641l-3.29 8.54 1.866.718 3.29-8.54-1.866-.718zM205.859 144h-16.8v2h16.8v-2zm-15.884 1.401l21.42-49-1.833-.802-21.42 49 1.833.802zm20.504-48.4h16.24v-2h-16.24v2zm15.323-.6l21.42 49 1.833-.802-21.42-49-1.833.802zM248.139 144h-17.08v2h17.08v-2zm-16.147.641l-3.29-8.54-1.866.718 3.29 8.54 1.866-.718zm-7.841-20.441l-4.76-12.32-1.865.72 4.76 12.32 1.865-.72zm-6.625-12.32l-4.76 12.32 1.865.72 4.76-12.32-1.865-.72zm-3.827 13.68h9.52v-2h-9.52v2zM302.575 96h1v-1h-1v1zm0 49v1h1v-1h-1zm-13.58 0l-.767.642.3.358h.467v-1zm-18.62-22.26l.767-.642-1.767-2.112v2.754h1zm0 22.26v1h1v-1h-1zm-16.1 0h-1v1h1v-1zm0-49v-1h-1v1h1zm13.58 0l.767-.642-.3-.358h-.467v1zm18.62 22.26l-.767.642 1.767 2.112v-2.754h-1zm0-22.26v-1h-1v1h1zm15.1 0v49h2V96h-2zm1 48h-13.58v2h13.58v-2zm-12.813.358l-18.62-22.26-1.534 1.284 18.62 22.26 1.534-1.284zm-20.387-21.618V145h2v-22.26h-2zm1 21.26h-16.1v2h16.1v-2zm-15.1 1V96h-2v49h2zm-1-48h13.58v-2h-13.58v2zm12.813-.358l18.62 22.26 1.534-1.284-18.62-22.26-1.534 1.284zm20.387 21.618V96h-2v22.26h2zm-1-21.26h16.1v-2h-16.1v2zm33.93 47.79l-.237.972.007.001.007.002.223-.975zm-9.45-3.71l-.915-.404-.351.794.737.459.529-.849zm5.32-12.04l.502-.865-.966-.56-.451 1.021.915.404zm7.84 3.29l-.279.96.007.002.007.002.265-.964zm13.23.56l.394.919.018-.008.018-.008-.43-.903zm-.49-4.34l-.377.926.011.005.366-.931zm-6.3-1.68l-.205.979h.003l.202-.979zm-9.45-2.52l-.347.938.007.003.008.002.332-.943zm-6.58-4.48l-.748.664.008.009.74-.673zm-.21-16.87l.825.565-.825-.565zm7.7-5.95l-.386-.922-.005.002.391.92zm22.4-1.05l-.226.974.008.002.008.002.21-.978zm8.61 3.15l.923.383.34-.817-.77-.436-.493.87zm-4.97 11.97l-.451.893.962.485.412-.995-.923-.383zm-18.13 1.68l-.377.926.015.006.015.006.347-.938zm6.23 1.54l-.19.982.006.001.184-.983zm9.45 2.45l-.342.94.008.003.007.002.327-.945zm6.65 4.41l-.74.673.008.009.732-.682zm.28 16.8l.82.572.005-.007-.825-.565zm-7.77 5.95l.391.92.006-.002-.397-.918zm-12.46 1.17c-3.987 0-7.878-.435-11.677-1.305l-.446 1.95a54.14 54.14 0 0012.123 1.355v-2zm-11.663-1.302c-3.757-.916-6.801-2.119-9.159-3.587l-1.057 1.698c2.589 1.612 5.846 2.882 9.742 3.833l.474-1.944zm-8.772-2.334l5.32-12.04-1.83-.808-5.32 12.04 1.83.808zm3.903-11.579c2.411 1.398 5.101 2.525 8.063 3.385l.558-1.92c-2.825-.82-5.362-1.887-7.617-3.195l-1.004 1.73zm8.077 3.389c2.969.814 5.835 1.226 8.595 1.226v-2c-2.56 0-5.248-.382-8.066-1.154l-.529 1.928zm8.595 1.226c2.302 0 4.113-.205 5.294-.711l-.788-1.838c-.779.334-2.235.549-4.506.549v2zm5.33-.727c.597-.285 1.114-.665 1.482-1.174.377-.52.558-1.119.558-1.759h-2a.948.948 0 01-.178.586c-.121.168-.339.359-.722.541l.86 1.806zm2.04-2.933c0-.746-.245-1.425-.728-1.994-.467-.551-1.116-.952-1.866-1.247l-.732 1.862c.557.218.887.459 1.073.678.171.201.253.42.253.701h2zm-2.583-3.236c-1.351-.551-3.529-1.125-6.475-1.733l-.404 1.958c2.934.606 4.956 1.151 6.125 1.627l.754-1.852zm-6.472-1.733c-3.754-.788-6.858-1.617-9.323-2.484l-.664 1.886c2.575.906 5.771 1.757 9.577 2.556l.41-1.958zm-9.308-2.479c-2.365-.876-4.425-2.276-6.187-4.215l-1.48 1.346c1.971 2.168 4.297 3.754 6.973 4.745l.694-1.876zm-6.18-4.206c-1.664-1.873-2.547-4.438-2.547-7.806h-2c0 3.725.984 6.807 3.053 9.134l1.494-1.328zm-2.547-7.806c0-2.88.803-5.483 2.415-7.835l-1.65-1.13c-1.842 2.688-2.765 5.685-2.765 8.965h2zm2.415-7.835c1.598-2.332 3.997-4.207 7.266-5.595l-.782-1.84c-3.545 1.505-6.279 3.597-8.134 6.305l1.65 1.13zm7.261-5.593c3.3-1.382 7.338-2.092 12.144-2.092v-2c-4.994 0-9.309.737-12.916 2.248l.772 1.844zm12.144-2.092c3.285 0 6.499.365 9.644 1.094l.452-1.948a44.555 44.555 0 00-10.096-1.146v2zm9.66 1.098c3.185.682 5.956 1.7 8.327 3.042l.986-1.74c-2.576-1.458-5.545-2.54-8.894-3.258l-.419 1.956zm7.896 1.79l-4.97 11.969 1.847.766 4.97-11.97-1.847-.766zm-3.595 11.459c-4.912-2.479-9.616-3.747-14.101-3.747v2c4.102 0 8.498 1.159 13.199 3.533l.902-1.786zm-14.101-3.747c-2.172 0-3.947.257-5.213.87-.647.312-1.196.735-1.582 1.295-.392.568-.575 1.22-.575 1.915h2c0-.331.082-.578.221-.78.145-.21.392-.429.807-.63.857-.414 2.267-.67 4.342-.67v-2zm-7.37 4.08c0 .725.24 1.386.708 1.94.452.536 1.08.931 1.805 1.226l.754-1.852c-.536-.218-.852-.453-1.03-.664a.946.946 0 01-.237-.65h-2zm2.543 3.178c1.342.497 3.488 1.023 6.387 1.584l.38-1.964c-2.888-.559-4.895-1.06-6.073-1.496l-.694 1.876zm6.393 1.585c3.698.693 6.792 1.498 9.292 2.407l.684-1.88c-2.634-.957-5.84-1.786-9.608-2.493l-.368 1.966zm9.307 2.412c2.405.831 4.481 2.206 6.237 4.138l1.48-1.346c-1.977-2.174-4.335-3.74-7.064-4.682l-.653 1.89zm6.245 4.147c1.699 1.823 2.602 4.355 2.602 7.718h2c0-3.73-1.011-6.798-3.138-9.082l-1.464 1.364zm2.602 7.718c0 2.88-.803 5.483-2.415 7.835l1.65 1.13c1.842-2.688 2.765-5.685 2.765-8.965h-2zm-2.41 7.828c-1.597 2.287-4.022 4.166-7.347 5.604l.794 1.836c3.582-1.549 6.337-3.637 8.193-6.296l-1.64-1.144zm-7.341 5.602c-3.25 1.38-7.262 2.09-12.069 2.09v2c4.993 0 9.287-.736 12.851-2.25l-.782-1.84zM363.541 96v-1h-1v1h1zm16.52 0h1v-1h-1v1zm0 36.19h-1v1h1v-1zm22.12 0h1v-1h-1v1zm0 12.81v1h1v-1h-1zm-38.64 0h-1v1h1v-1zm0-48h16.52v-2h-16.52v2zm15.52-1v36.19h2V96h-2zm1 37.19h22.12v-2h-22.12v2zm21.12-1V145h2v-12.81h-2zm1 11.81h-38.64v2h38.64v-2zm-37.64 1V96h-2v49h2zm79.777-8.54l.933-.359-.247-.641h-.686v1zm-18.62 0v-1h-.687l-.247.641.934.359zm-3.29 8.54v1h.686l.247-.641-.933-.359zm-16.801 0l-.916-.401-.612 1.401h1.528v-1zm21.421-49v-1h-.655l-.262.6.917.4zm16.24 0l.916-.4-.262-.6h-.654v1zm21.42 49v1h1.528l-.612-1.401-.916.401zm-17.08 0l-.934.359.247.641h.687v-1zm-7.84-20.44v1h1.458l-.526-1.36-.932.36zm-4.76-12.32l.932-.36-.932-2.415-.933 2.415.933.36zm-4.76 12.32l-.933-.36-.526 1.36h1.459v-1zm14.07 10.9h-18.62v2h18.62v-2zm-19.554.641l-3.29 8.54 1.867.718 3.29-8.54-1.867-.718zM422.408 144h-16.801v2h16.801v-2zm-15.884 1.401l21.42-49-1.833-.802-21.42 49 1.833.802zm20.504-48.4h16.24v-2h-16.24v2zm15.323-.6l21.42 49 1.833-.802-21.42-49-1.833.802zM464.688 144h-17.08v2h17.08v-2zm-16.147.641l-3.29-8.54-1.867.718 3.29 8.54 1.867-.718zM440.7 124.2l-4.76-12.32-1.865.72 4.76 12.32 1.865-.72zm-6.625-12.32l-4.76 12.32 1.865.72 4.76-12.32-1.865-.72zm-3.827 13.68h9.52v-2h-9.52v2zm48.755-16.75h1v-1h-1v1zm-14.35 0h-1v1h1v-1zm0-12.81v-1h-1v1h1zm45.22 0h1v-1h-1v1zm0 12.81v1h1v-1h-1zm-14.35 0v-1h-1v1h1zm0 36.19v1h1v-1h-1zm-16.52 0h-1v1h1v-1zm0-37.19h-14.35v2h14.35v-2zm-13.35 1V96h-2v12.81h2zm-1-11.81h45.22v-2h-45.22v2zm44.22-1v12.81h2V96h-2zm1 11.81h-14.35v2h14.35v-2zm-15.35 1V145h2v-36.19h-2zm1 35.19h-16.52v2h16.52v-2zm-15.52 1v-36.19h-2V145h2zm48.457-2.17l.463-.886-.463.886zm-9.87-9.1l-.855.519.003.005.852-.524zm0-26.39l.852.524.003-.005-.855-.519zm38.29-9.17l.463-.886-.463.886zm9.87 9.17l-.855.519.003.005.852-.524zm0 26.39l.852.524.003-.005-.855-.519zm-9.87 9.1l.463.886-.463-.886zm-8.68-11.55l.515.858.007-.005-.522-.853zm3.99-4.27l.881.474.005-.009-.886-.465zm0-12.95l-.885.465.005.009.88-.474zm-3.99-4.27l-.532.847.014.008.014.009.504-.864zm-11.13 0l.515.858.007-.005-.522-.853zm-3.92 4.27l.881.474.005-.009-.886-.465zm0 12.95l-.885.465.005.009.88-.474zm3.92 4.27l-.532.847.014.008.014.009.504-.864zm5.6 13.84c-5.13 0-9.705-1.066-13.747-3.176l-.926 1.772c4.359 2.276 9.257 3.404 14.673 3.404v-2zm-13.747-3.176c-4.047-2.114-7.199-5.025-9.481-8.738l-1.704 1.048c2.479 4.033 5.906 7.189 10.259 9.462l.926-1.772zm-9.478-8.733c-2.278-3.753-3.425-7.981-3.425-12.711h-2c0 5.07 1.234 9.662 3.715 13.749l1.71-1.038zM516.02 120.5c0-4.73 1.147-8.933 3.422-12.636l-1.704-1.048c-2.484 4.044-3.718 8.614-3.718 13.684h2zm3.425-12.641c2.282-3.759 5.434-6.691 9.478-8.803l-.926-1.772c-4.356 2.274-7.784 5.456-10.262 9.537l1.71 1.038zm9.478-8.803c4.042-2.11 8.617-3.176 13.747-3.176v-2c-5.416 0-10.314 1.128-14.673 3.404l.926 1.772zm13.747-3.176c5.131 0 9.706 1.066 13.747 3.176l.926-1.772c-4.358-2.276-9.257-3.404-14.673-3.404v2zm13.747 3.176c4.044 2.112 7.196 5.044 9.478 8.803l1.71-1.038c-2.478-4.081-5.906-7.263-10.262-9.537l-.926 1.772zm9.481 8.808c2.276 3.703 3.422 7.906 3.422 12.636h2c0-5.07-1.233-9.64-3.718-13.684l-1.704 1.048zm3.422 12.636c0 4.73-1.146 8.958-3.425 12.711l1.71 1.038c2.482-4.087 3.715-8.679 3.715-13.749h-2zm-3.422 12.706c-2.281 3.713-5.434 6.624-9.481 8.738l.926 1.772c4.353-2.273 7.781-5.429 10.259-9.462l-1.704-1.048zm-9.481 8.738c-4.041 2.11-8.616 3.176-13.747 3.176v2c5.416 0 10.315-1.128 14.673-3.404l-.926-1.772zm-13.747-8.194c2.22 0 4.244-.532 6.045-1.613l-1.029-1.714c-1.466.879-3.129 1.327-5.016 1.327v2zm6.052-1.617c1.838-1.123 3.289-2.681 4.349-4.649l-1.761-.948c-.901 1.672-2.11 2.961-3.631 3.891l1.043 1.706zm4.354-4.658c1.067-2.033 1.584-4.368 1.584-6.975h-2c0 2.339-.462 4.345-1.355 6.045l1.771.93zm1.584-6.975c0-2.606-.517-4.922-1.589-6.914l-1.761.948c.887 1.648 1.35 3.626 1.35 5.966h2zm-1.584-6.905c-1.06-2.018-2.516-3.586-4.372-4.669l-1.008 1.728c1.505.877 2.708 2.156 3.609 3.871l1.771-.93zm-4.344-4.652c-1.803-1.133-3.833-1.693-6.062-1.693v2c1.878 0 3.535.467 4.998 1.387l1.064-1.694zm-6.062-1.693c-2.229 0-4.277.56-6.121 1.687l1.043 1.706c1.516-.926 3.201-1.393 5.078-1.393v-2zm-6.114 1.683c-1.807 1.084-3.235 2.651-4.291 4.662l1.771.93c.904-1.722 2.089-3.002 3.549-3.878l-1.029-1.714zm-4.286 4.653c-1.073 1.992-1.59 4.308-1.59 6.914h2c0-2.34.463-4.318 1.351-5.966l-1.761-.948zm-1.59 6.914c0 2.607.518 4.942 1.585 6.975l1.771-.93c-.893-1.7-1.356-3.706-1.356-6.045h-2zm1.59 6.984c1.056 1.961 2.478 3.517 4.268 4.643l1.064-1.694c-1.476-.928-2.667-2.218-3.571-3.897l-1.761.948zm4.296 4.66c1.842 1.074 3.884 1.606 6.104 1.606v-2c-1.886 0-3.577-.448-5.096-1.334l-1.008 1.728zm64.25.536l.829-.56-.298-.44h-.531v1zm-4.48 0v-1h-1v1h1zm0 12.32v1h1v-1h-1zm-16.52 0h-1v1h1v-1zm0-49v-1h-1v1h1zm35.42 2.24l-.406.914.406-.914zm7.77 6.44l-.838.545.838-.545zm.35 18.97l-.855-.519.855.519zm-6.86 6.23l-.458-.889-1.004.518.635.934.827-.563zm10.29 15.12v1h1.89l-1.063-1.563-.827.563zm-17.64 0l-.828.56.297.44h.531v-1zm-1.75-34.72l-.676.737.009.008.009.008.658-.753zm-11.06-1.54v-1h-1v1h1zm0 11.48h-1v1h1v-1zm11.06-1.47l.659.753.008-.008.009-.008-.676-.737zm-6.58 12.93h-4.48v2h4.48v-2zm-5.48 1V145h2v-12.32h-2zm1 11.32h-16.52v2h16.52v-2zm-15.52 1V96h-2v49h2zm-1-48h23.59v-2h-23.59v2zm23.59 0c4.418 0 8.218.73 11.424 2.154l.812-1.828C612.128 95.764 608.041 95 603.406 95v2zm11.424 2.154c3.202 1.423 5.634 3.449 7.338 6.071l1.677-1.09c-1.936-2.978-4.684-5.245-8.203-6.809l-.812 1.828zm7.338 6.071c1.702 2.619 2.568 5.692 2.568 9.255h2c0-3.903-.954-7.364-2.891-10.345l-1.677 1.09zm2.568 9.255c0 3.344-.756 6.216-2.235 8.651l1.71 1.038c1.695-2.791 2.525-6.033 2.525-9.689h-2zm-2.235 8.651c-1.481 2.441-3.623 4.396-6.463 5.86l.916 1.778c3.134-1.616 5.565-3.814 7.257-6.6l-1.71-1.038zm-6.832 7.312l10.29 15.12 1.654-1.126-10.29-15.12-1.654 1.126zM626.786 144h-17.64v2h17.64v-2zm-16.811.44l-8.33-12.32-1.657 1.12 8.33 12.32 1.657-1.12zm.101-29.96c0-2.038-.637-3.741-2.021-4.953l-1.317 1.506c.855.748 1.338 1.845 1.338 3.447h2zm-2.004-4.937c-1.375-1.261-3.342-1.803-5.716-1.803v2c2.107 0 3.5.485 4.364 1.277l1.352-1.474zm-5.716-1.803h-6.02v2h6.02v-2zm-7.02 1v11.48h2v-11.48h-2zm1 12.48h6.02v-2h-6.02v2zm6.02 0c2.364 0 4.324-.514 5.699-1.717l-1.317-1.506c-.865.757-2.266 1.223-4.382 1.223v2zm5.716-1.733c1.367-1.253 2.004-2.967 2.004-5.007h-2c0 1.6-.483 2.733-1.356 3.533l1.352 1.474zm68.199-33.427v-1h-.71l-.234.67.944.33zm14 0l.943.331.467-1.33h-1.41v1zm-23.1 65.94v1h.709l.234-.669-.943-.331zm-14 0l-.944-.331-.466 1.331h1.41v-1zm23.1-64.94h14v-2h-14v2zm13.056-1.33l-23.1 65.939 1.887.662 23.1-65.94-1.887-.662zM667.171 151h-14v2h14v-2zm-13.057 1.331l23.1-65.94-1.887-.662-23.1 65.94 1.887.662zM762.527 145l-1 .006.006.994h.994v-1zm-.14-22.33l1-.006-.022-3.599-1.838 3.094.86.511zm-10.64 17.92v1h.569l.291-.489-.86-.511zm-7.28 0l-.85.527.294.473h.556v-1zm-10.64-17.15l.85-.527-1.85-2.982v3.509h1zm0 21.56v1h1v-1h-1zm-15.05 0h-1v1h1v-1zm0-49v-1h-1v1h1zm13.58 0l.853-.522-.292-.478h-.561v1zm15.96 26.11l-.853.522.865 1.414.847-1.425-.859-.511zM763.857 96v-1h-.568l-.291.49.859.51zm13.58 0l1-.003-.003-.997h-.997v1zm.14 49v1h1.003l-.003-1.003-1 .003zm-14.05-.006l-.14-22.33-2 .012.14 22.33 2-.012zm-2-22.835l-10.64 17.92 1.72 1.022 10.64-17.92-1.72-1.022zm-9.78 17.431h-7.28v2h7.28v-2zm-6.43.473l-10.64-17.15-1.7 1.054 10.64 17.15 1.7-1.054zm-12.49-16.623V145h2v-21.56h-2zm1 20.56h-15.05v2h15.05v-2zm-14.05 1V96h-2v49h2zm-1-48h13.58v-2h-13.58v2zm12.727-.478l15.96 26.11 1.706-1.044-15.96-26.11-1.706 1.044zm17.672 26.099l15.54-26.11-1.718-1.022-15.54 26.11 1.718 1.022zm14.681-25.62h13.58v-2h-13.58v2zm12.58-.998l.14 49 2-.006-.14-49-2 .006zm1.14 47.997h-15.05v2h15.05v-2zm52.227-11.46h1v-1h-1v1zm0 12.46v1h1v-1h-1zm-40.74 0h-1v1h1v-1zm0-49v-1h-1v1h1zm39.83 0h1v-1h-1v1zm0 12.46v1h1v-1h-1zm-23.59 0v-1h-1v1h1zm0 5.74h-1v1h1v-1zm20.72 0h1v-1h-1v1zm0 11.9v1h1v-1h-1zm-20.72 0v-1h-1v1h1zm0 6.44h-1v1h1v-1zm23.5 0V145h2v-12.46h-2zm1 11.46h-40.74v2h40.74v-2zm-39.74 1V96h-2v49h2zm-1-48h39.83v-2h-39.83v2zm38.83-1v12.46h2V96h-2zm1 11.46h-23.59v2h23.59v-2zm-24.59 1v5.74h2v-5.74h-2zm1 6.74h20.72v-2h-20.72v2zm19.72-1v11.9h2v-11.9h-2zm1 10.9h-20.72v2h20.72v-2zm-21.72 1v6.44h2v-6.44h-2zm1 7.44h24.5v-2h-24.5v2zM887.964 96h1v-1h-1v1zm0 49v1h1v-1h-1zm-13.58 0l-.767.642.3.358h.467v-1zm-18.62-22.26l.767-.642-1.767-2.112v2.754h1zm0 22.26v1h1v-1h-1zm-16.1 0h-1v1h1v-1zm0-49v-1h-1v1h1zm13.58 0l.767-.642-.3-.358h-.467v1zm18.62 22.26l-.767.642 1.767 2.112v-2.754h-1zm0-22.26v-1h-1v1h1zm15.1 0v49h2V96h-2zm1 48h-13.58v2h13.58v-2zm-12.813.358l-18.62-22.26-1.534 1.284 18.62 22.26 1.534-1.284zm-20.387-21.618V145h2v-22.26h-2zm1 21.26h-16.1v2h16.1v-2zm-15.1 1V96h-2v49h2zm-1-48h13.58v-2h-13.58v2zm12.813-.358l18.62 22.26 1.534-1.284-18.62-22.26-1.534 1.284zm20.387 21.618V96h-2v22.26h2zm-1-21.26h16.1v-2h-16.1v2zm38.2 11.81h1v-1h-1v1zm-14.35 0h-1v1h1v-1zm0-12.81v-1h-1v1h1zm45.22 0h1v-1h-1v1zm0 12.81v1h1v-1h-1zm-14.35 0v-1h-1v1h1zm0 36.19v1h1v-1h-1zm-16.52 0h-1v1h1v-1zm0-37.19h-14.35v2h14.35v-2zm-13.35 1V96h-2v12.81h2zm-1-11.81h45.22v-2h-45.22v2zm44.22-1v12.81h2V96h-2zm1 11.81h-14.35v2h14.35v-2zm-15.35 1V145h2v-36.19h-2zm1 35.19h-16.52v2h16.52v-2zm-15.52 1v-36.19h-2V145h2zm48.457-2.17l.463-.886-.463.886zm-9.87-9.1l-.855.519.003.005.852-.524zm0-26.39l.852.524.003-.005-.855-.519zm38.29-9.17l.463-.886-.463.886zm9.87 9.17l-.855.519.003.005.852-.524zm0 26.39l.852.524.003-.005-.855-.519zm-9.87 9.1l.463.886-.463-.886zm-8.68-11.55l.514.858.007-.005-.521-.853zm3.99-4.27l.88.474.005-.009-.885-.465zm0-12.95l-.886.465.005.009.881-.474zm-3.99-4.27l-.532.847.014.008.014.009.504-.864zm-11.13 0l.514.858.007-.005-.521-.853zm-3.92 4.27l.88.474.005-.009-.885-.465zm0 12.95l-.886.465.005.009.881-.474zm3.92 4.27l-.532.847.014.008.014.009.504-.864zm5.6 13.84c-5.131 0-9.706-1.066-13.747-3.176l-.926 1.772c4.358 2.276 9.257 3.404 14.673 3.404v-2zm-13.747-3.176c-4.047-2.114-7.2-5.025-9.481-8.738l-1.704 1.048c2.478 4.033 5.906 7.189 10.259 9.462l.926-1.772zm-9.478-8.733c-2.279-3.753-3.425-7.981-3.425-12.711h-2c0 5.07 1.233 9.662 3.715 13.749l1.71-1.038zm-3.425-12.711c0-4.73 1.146-8.933 3.422-12.636l-1.704-1.048c-2.485 4.044-3.718 8.614-3.718 13.684h2zm3.425-12.641c2.282-3.759 5.434-6.691 9.478-8.803l-.926-1.772c-4.356 2.274-7.784 5.456-10.262 9.537l1.71 1.038zm9.478-8.803c4.041-2.11 8.616-3.176 13.747-3.176v-2c-5.416 0-10.315 1.128-14.673 3.404l.926 1.772zm13.747-3.176c5.13 0 9.705 1.066 13.747 3.176l.926-1.772c-4.359-2.276-9.257-3.404-14.673-3.404v2zm13.747 3.176c4.044 2.112 7.196 5.044 9.478 8.803l1.71-1.038c-2.478-4.081-5.906-7.263-10.262-9.537l-.926 1.772zm9.481 8.808c2.275 3.703 3.421 7.906 3.421 12.636h2c0-5.07-1.23-9.64-3.717-13.684l-1.704 1.048zm3.421 12.636c0 4.73-1.146 8.958-3.424 12.711l1.71 1.038c2.484-4.087 3.714-8.679 3.714-13.749h-2zm-3.421 12.706c-2.282 3.713-5.434 6.624-9.481 8.738l.926 1.772c4.353-2.273 7.78-5.429 10.259-9.462l-1.704-1.048zm-9.481 8.738c-4.042 2.11-8.617 3.176-13.747 3.176v2c5.416 0 10.314-1.128 14.673-3.404l-.926-1.772zm-13.747-8.194c2.22 0 4.243-.532 6.044-1.613l-1.029-1.714c-1.466.879-3.128 1.327-5.015 1.327v2zm6.051-1.617c1.839-1.123 3.29-2.681 4.349-4.649l-1.761-.948c-.9 1.672-2.109 2.961-3.631 3.891l1.043 1.706zm4.354-4.658c1.067-2.033 1.585-4.368 1.585-6.975h-2c0 2.339-.463 4.345-1.356 6.045l1.771.93zm1.585-6.975c0-2.606-.517-4.922-1.59-6.914l-1.761.948c.888 1.648 1.351 3.626 1.351 5.966h2zm-1.585-6.905c-1.059-2.018-2.516-3.586-4.371-4.669l-1.008 1.728c1.504.877 2.708 2.156 3.608 3.871l1.771-.93zm-4.343-4.652c-1.803-1.133-3.833-1.693-6.062-1.693v2c1.877 0 3.534.467 4.998 1.387l1.064-1.694zm-6.062-1.693c-2.229 0-4.278.56-6.122 1.687l1.043 1.706c1.516-.926 3.201-1.393 5.079-1.393v-2zm-6.115 1.683c-1.807 1.084-3.235 2.651-4.291 4.662l1.771.93c.904-1.722 2.09-3.002 3.549-3.878l-1.029-1.714zm-4.286 4.653c-1.072 1.992-1.589 4.308-1.589 6.914h2c0-2.34.463-4.318 1.35-5.966l-1.761-.948zm-1.589 6.914c0 2.607.517 4.942 1.584 6.975l1.771-.93c-.893-1.7-1.355-3.706-1.355-6.045h-2zm1.589 6.984c1.056 1.961 2.478 3.517 4.269 4.643l1.064-1.694c-1.477-.928-2.668-2.218-3.572-3.897l-1.761.948zm4.297 4.66c1.841 1.074 3.884 1.606 6.104 1.606v-2c-1.887 0-3.578-.448-5.096-1.334l-1.008 1.728zm64.253.536l.83-.56-.3-.44h-.53v1zm-4.48 0v-1h-1v1h1zm0 12.32v1h1v-1h-1zm-16.52 0h-1v1h1v-1zm0-49v-1h-1v1h1zm35.42 2.24l-.41.914.41-.914zm7.77 6.44l-.84.545.84-.545zm.35 18.97l-.86-.519.86.519zm-6.86 6.23l-.46-.889-1.01.518.64.934.83-.563zm10.29 15.12v1h1.89l-1.07-1.563-.82.563zm-17.64 0l-.83.56.3.44h.53v-1zm-1.75-34.72l-.68.737.01.008.01.008.66-.753zm-11.06-1.54v-1h-1v1h1zm0 11.48h-1v1h1v-1zm11.06-1.47l.66.753v-.008l.01-.008-.67-.737zm-6.58 12.93h-4.48v2h4.48v-2zm-5.48 1V145h2v-12.32h-2zm1 11.32h-16.52v2h16.52v-2zm-15.52 1V96h-2v49h2zm-1-48h23.59v-2h-23.59v2zm23.59 0c4.41 0 8.21.73 11.42 2.154l.81-1.828c-3.51-1.562-7.6-2.326-12.23-2.326v2zm11.42 2.154c3.2 1.423 5.63 3.449 7.34 6.071l1.68-1.09c-1.94-2.978-4.69-5.245-8.21-6.809l-.81 1.828zm7.34 6.071c1.7 2.619 2.57 5.692 2.57 9.255h2c0-3.903-.96-7.364-2.89-10.345l-1.68 1.09zm2.57 9.255c0 3.344-.76 6.216-2.24 8.651l1.71 1.038c1.7-2.791 2.53-6.033 2.53-9.689h-2zm-2.24 8.651c-1.48 2.441-3.62 4.396-6.46 5.86l.92 1.778c3.13-1.616 5.56-3.814 7.25-6.6l-1.71-1.038zm-6.83 7.312l10.29 15.12 1.65-1.126-10.29-15.12-1.65 1.126zM1057.85 144h-17.64v2h17.64v-2zm-16.81.44l-8.33-12.32-1.66 1.12 8.33 12.32 1.66-1.12zm.1-29.96c0-2.038-.64-3.741-2.02-4.953l-1.32 1.506c.85.748 1.34 1.845 1.34 3.447h2zm-2.01-4.937c-1.37-1.261-3.34-1.803-5.71-1.803v2c2.1 0 3.5.485 4.36 1.277l1.35-1.474zm-5.71-1.803h-6.02v2h6.02v-2zm-7.02 1v11.48h2v-11.48h-2zm1 12.48h6.02v-2h-6.02v2zm6.02 0c2.36 0 4.32-.514 5.7-1.717l-1.32-1.506c-.87.757-2.27 1.223-4.38 1.223v2zm5.71-1.733c1.37-1.253 2.01-2.967 2.01-5.007h-2c0 1.6-.49 2.733-1.36 3.533l1.35 1.474zm68.2-33.427v-1h-.71l-.23.67.94.33zm14 0l.95.331.46-1.33h-1.41v1zm-23.1 65.94v1h.71l.24-.669-.95-.331zm-14 0l-.94-.331-.47 1.331h1.41v-1zm23.1-64.94h14v-2h-14v2zm13.06-1.33l-23.1 65.939 1.89.662 23.1-65.94-1.89-.662zM1098.23 151h-14v2h14v-2zm-13.05 1.331l23.1-65.94-1.89-.662-23.1 65.94 1.89.662zm81.18-43.871v-1h-1v1h1zm0 8.4h-1v1h1v-1zm20.44 0h1v-1h-1v1zm0 12.46v1h1v-1h-1zm-20.44 0v-1h-1v1h1zm0 15.68v1h1v-1h-1zm-16.52 0h-1v1h1v-1zm0-49v-1h-1v1h1zm39.83 0h1v-1h-1v1zm0 12.46v1h1v-1h-1zm-24.31 0v8.4h2v-8.4h-2zm1 9.4h20.44v-2h-20.44v2zm19.44-1v12.46h2v-12.46h-2zm1 11.46h-20.44v2h20.44v-2zm-21.44 1V145h2v-15.68h-2zm1 14.68h-16.52v2h16.52v-2zm-15.52 1V96h-2v49h2zm-1-48h39.83v-2h-39.83v2zm38.83-1v12.46h2V96h-2zm1 11.46h-23.31v2h23.31v-2zm40.33 29l.93-.359-.24-.641h-.69v1zm-18.62 0v-1h-.69l-.24.641.93.359zm-3.29 8.54v1h.69l.24-.641-.93-.359zm-16.8 0l-.92-.401-.61 1.401h1.53v-1zm21.42-49v-1h-.66l-.26.6.92.4zm16.24 0l.92-.4-.27-.6h-.65v1zm21.42 49v1h1.53l-.61-1.401-.92.401zm-17.08 0l-.93.359.24.641h.69v-1zm-7.84-20.44v1h1.46l-.53-1.36-.93.36zm-4.76-12.32l.93-.36-.93-2.415-.93 2.415.93.36zm-4.76 12.32l-.93-.36-.53 1.36h1.46v-1zm14.07 10.9h-18.62v2H1230v-2zm-19.55.641l-3.29 8.54 1.86.718 3.29-8.54-1.86-.718zm-2.36 7.899h-16.8v2h16.8v-2zm-15.88 1.401l21.42-49-1.84-.802-21.42 49 1.84.802zm20.5-48.4h16.24v-2h-16.24v2zm15.32-.6l21.42 49 1.84-.802-21.42-49-1.84.802zM1250.37 144h-17.08v2h17.08v-2zm-16.15.641l-3.29-8.54-1.86.718 3.29 8.54 1.86-.718zm-7.84-20.441l-4.76-12.32-1.86.72 4.76 12.32 1.86-.72zm-6.62-12.32L1215 124.2l1.86.72 4.76-12.32-1.86-.72zm-3.83 13.68h9.52v-2h-9.52v2zM1304.81 96h1v-1h-1v1zm0 49v1h1v-1h-1zm-13.58 0l-.77.642.3.358h.47v-1zm-18.62-22.26l.76-.642-1.76-2.112v2.754h1zm0 22.26v1h1v-1h-1zm-16.1 0h-1v1h1v-1zm0-49v-1h-1v1h1zm13.58 0l.76-.642-.3-.358h-.46v1zm18.62 22.26l-.77.642 1.77 2.112v-2.754h-1zm0-22.26v-1h-1v1h1zm15.1 0v49h2V96h-2zm1 48h-13.58v2h13.58v-2zm-12.82.358l-18.62-22.26-1.53 1.284 18.62 22.26 1.53-1.284zm-20.38-21.618V145h2v-22.26h-2zm1 21.26h-16.1v2h16.1v-2zm-15.1 1V96h-2v49h2zm-1-48h13.58v-2h-13.58v2zm12.81-.358l18.62 22.26 1.53-1.284-18.62-22.26-1.53 1.284zm20.39 21.618V96h-2v22.26h2zm-1-21.26h16.1v-2h-16.1v2zm68.35-10.94v-1h-.71l-.23.67.94.33zm14 0l.95.331.46-1.33h-1.41v1zm-23.1 65.94v1h.71l.24-.669-.95-.331zm-14 0l-.94-.331-.47 1.331h1.41v-1zm23.1-64.94h14v-2h-14v2zm13.06-1.33l-23.1 65.939 1.89.662 23.1-65.94-1.89-.662zM1347.96 151h-14v2h14v-2zm-13.05 1.331l23.1-65.94-1.89-.662-23.1 65.94 1.89.662zm71.03-7.541l-.24.972.01.001v.002l.23-.975zm-9.45-3.71l-.92-.404-.35.794.74.459.53-.849zm5.32-12.04l.5-.865-.97-.56-.45 1.021.92.404zm7.84 3.29l-.28.96.01.002v.002l.27-.964zm13.23.56l.39.919.02-.008.02-.008-.43-.903zm-.49-4.34l-.38.926.01.005.37-.931zm-6.3-1.68l-.21.979h.01l.2-.979zm-9.45-2.52l-.35.938.01.003.01.002.33-.943zm-6.58-4.48l-.75.664.01.009.74-.673zm-.21-16.87l.82.565-.82-.565zm7.7-5.95l-.39-.922v.002l.39.92zm22.4-1.05l-.23.974.01.002.01.002.21-.978zm8.61 3.15l.92.383.34-.817-.77-.436-.49.87zm-4.97 11.97l-.45.893.96.485.41-.995-.92-.383zm-18.13 1.68l-.38.926.02.006.01.006.35-.938zm6.23 1.54l-.19.982v.001l.19-.983zm9.45 2.45l-.34.94v.003l.01.002.33-.945zm6.65 4.41l-.74.673.01.009.73-.682zm.28 16.8l.82.572v-.007l-.82-.565zm-7.77 5.95l.39.92.01-.002-.4-.918zm-12.46 1.17c-3.99 0-7.88-.435-11.68-1.305l-.45 1.95c3.95.904 7.99 1.355 12.13 1.355v-2zm-11.66-1.302c-3.76-.916-6.81-2.119-9.16-3.587l-1.06 1.698c2.59 1.612 5.85 2.882 9.74 3.833l.48-1.944zm-8.78-2.334l5.32-12.04-1.83-.808-5.32 12.04 1.83.808zm3.91-11.579c2.41 1.398 5.1 2.525 8.06 3.385l.56-1.92c-2.83-.82-5.36-1.887-7.62-3.195l-1 1.73zm8.07 3.389c2.97.814 5.84 1.226 8.6 1.226v-2c-2.56 0-5.25-.382-8.07-1.154l-.53 1.928zm8.6 1.226c2.3 0 4.11-.205 5.29-.711l-.79-1.838c-.78.334-2.23.549-4.5.549v2zm5.33-.727c.6-.285 1.11-.665 1.48-1.174.38-.52.56-1.119.56-1.759h-2c0 .246-.07.429-.18.586-.12.168-.34.359-.72.541l.86 1.806zm2.04-2.933c0-.746-.25-1.425-.73-1.994-.47-.551-1.12-.952-1.87-1.247l-.73 1.862c.56.218.89.459 1.08.678.17.201.25.42.25.701h2zm-2.58-3.236c-1.36-.551-3.53-1.125-6.48-1.733l-.4 1.958c2.93.606 4.95 1.151 6.12 1.627l.76-1.852zm-6.48-1.733c-3.75-.788-6.86-1.617-9.32-2.484l-.66 1.886c2.57.906 5.77 1.757 9.57 2.556l.41-1.958zm-9.3-2.479c-2.37-.876-4.43-2.276-6.19-4.215l-1.48 1.346c1.97 2.168 4.3 3.754 6.97 4.745l.7-1.876zm-6.18-4.206c-1.67-1.873-2.55-4.438-2.55-7.806h-2c0 3.725.98 6.807 3.05 9.134l1.5-1.328zm-2.55-7.806c0-2.88.8-5.483 2.41-7.835l-1.65-1.13c-1.84 2.688-2.76 5.685-2.76 8.965h2zm2.41-7.835c1.6-2.332 4-4.207 7.27-5.595l-.78-1.84c-3.55 1.505-6.28 3.597-8.14 6.305l1.65 1.13zm7.26-5.593c3.3-1.382 7.34-2.092 12.15-2.092v-2c-5 0-9.31.737-12.92 2.248l.77 1.844zm12.15-2.092c3.28 0 6.5.365 9.64 1.094l.45-1.948a44.503 44.503 0 00-10.09-1.146v2zm9.66 1.098c3.18.682 5.95 1.7 8.33 3.042l.98-1.74c-2.57-1.458-5.54-2.54-8.89-3.258l-.42 1.956zm7.89 1.79l-4.97 11.969 1.85.766 4.97-11.97-1.85-.766zm-3.59 11.459c-4.91-2.479-9.62-3.747-14.1-3.747v2c4.1 0 8.5 1.159 13.2 3.533l.9-1.786zm-14.1-3.747c-2.17 0-3.95.257-5.21.87-.65.312-1.2.735-1.59 1.295-.39.568-.57 1.22-.57 1.915h2c0-.331.08-.578.22-.78.14-.21.39-.429.81-.63.85-.414 2.26-.67 4.34-.67v-2zm-7.37 4.08c0 .725.24 1.386.71 1.94.45.536 1.08.931 1.8 1.226l.76-1.852c-.54-.218-.86-.453-1.04-.664a.954.954 0 01-.23-.65h-2zm2.54 3.178c1.34.497 3.49 1.023 6.39 1.584l.38-1.964c-2.89-.559-4.9-1.06-6.07-1.496l-.7 1.876zm6.39 1.585c3.7.693 6.8 1.498 9.3 2.407l.68-1.88c-2.63-.957-5.84-1.786-9.61-2.493l-.37 1.966zm9.31 2.412c2.41.831 4.48 2.206 6.24 4.138l1.48-1.346c-1.98-2.174-4.34-3.74-7.07-4.682l-.65 1.89zm6.25 4.147c1.7 1.823 2.6 4.355 2.6 7.718h2c0-3.73-1.01-6.798-3.14-9.082l-1.46 1.364zm2.6 7.718c0 2.88-.81 5.483-2.42 7.835l1.65 1.13c1.84-2.688 2.77-5.685 2.77-8.965h-2zm-2.41 7.828c-1.6 2.287-4.02 4.166-7.35 5.604l.8 1.836c3.58-1.549 6.33-3.637 8.19-6.296l-1.64-1.144zm-7.34 5.602c-3.25 1.38-7.26 2.09-12.07 2.09v2c4.99 0 9.29-.736 12.85-2.25l-.78-1.84zm25.04-3l-.69.719.69-.719zm-6.3-44.03v-1h-1v1h1zm16.52 0h1v-1h-1v1zm1.89 34.3l-.79.611.01.007v.007l.78-.625zm11.13 0l-.78-.625v.007l-.01.007.79.611zm1.96-34.3v-1h-1v1h1zm16.24 0h1v-1h-1v1zm-6.3 44.03l-.69-.719.69.719zm-17.57 5.09c-7.33 0-12.91-1.977-16.87-5.809l-1.39 1.438c4.43 4.288 10.57 6.371 18.26 6.371v-2zm-16.87-5.809c-3.96-3.826-6-9.232-6-16.361h-2c0 7.525 2.17 13.505 6.61 17.799l1.39-1.438zm-6-16.361V96h-2v26.95h2zm-1-25.95h16.52v-2h-16.52v2zm15.52-1v26.46h2V96h-2zm0 26.46c0 3.667.64 6.554 2.1 8.451l1.59-1.222c-1.06-1.37-1.69-3.71-1.69-7.229h-2zm2.11 8.465c1.53 1.91 3.71 2.825 6.38 2.825v-2c-2.17 0-3.73-.718-4.82-2.075l-1.56 1.25zm6.38 2.825c2.68 0 4.84-.916 6.33-2.839l-1.59-1.222c-1.03 1.343-2.56 2.061-4.74 2.061v2zm6.31-2.825c1.52-1.899 2.18-4.792 2.18-8.465h-2c0 3.514-.64 5.848-1.74 7.215l1.56 1.25zm2.18-8.465V96h-2v26.46h2zm-1-25.46h16.24v-2h-16.24v2zm15.24-1v26.95h2V96h-2zm0 26.95c0 7.129-2.03 12.535-5.99 16.361l1.39 1.438c4.44-4.294 6.6-10.274 6.6-17.799h-2zm-5.99 16.361c-3.97 3.832-9.54 5.809-16.88 5.809v2c7.7 0 13.83-2.083 18.27-6.371l-1.39-1.438zm53.49-41.07l-.41.913.41-.914zm7.77 6.439l-.84.545.84-.545zm0 19.6l-.84-.545.84.545zm-7.77 6.44l-.41-.914.41.914zm-18.9 2.24v-1h-1v1h1zm0 12.04v1h1v-1h-1zm-16.52 0h-1v1h1v-1zm0-49v-1h-1v1h1zm27.58 22.75l.66.753v-.008l.01-.008-.67-.737zm0-8.47l-.68.737.01.008.01.008.66-.753zm-11.06-1.54v-1h-1v1h1zm0 11.48h-1v1h1v-1zm7.07-23.22c4.41 0 8.21.73 11.42 2.154l.81-1.828c-3.51-1.562-7.6-2.326-12.23-2.326v2zm11.42 2.154c3.2 1.423 5.63 3.449 7.34 6.071l1.68-1.09c-1.94-2.978-4.69-5.245-8.21-6.809l-.81 1.828zm7.34 6.071c1.7 2.619 2.57 5.692 2.57 9.255h2c0-3.903-.96-7.364-2.89-10.345l-1.68 1.09zm2.57 9.255c0 3.563-.87 6.636-2.57 9.255l1.68 1.09c1.93-2.981 2.89-6.442 2.89-10.345h-2zm-2.57 9.255c-1.71 2.622-4.14 4.648-7.34 6.071l.81 1.828c3.52-1.564 6.27-3.831 8.21-6.809l-1.68-1.09zm-7.34 6.071c-3.21 1.425-7.01 2.154-11.42 2.154v2c4.63 0 8.72-.764 12.23-2.326l-.81-1.828zm-11.42 2.154h-7.07v2h7.07v-2zm-8.07 1V145h2v-12.04h-2zm1 11.04h-16.52v2h16.52v-2zm-15.52 1V96h-2v49h2zm-1-48h23.59v-2h-23.59v2zm22.54 24.22c2.36 0 4.32-.514 5.7-1.717l-1.32-1.506c-.87.757-2.27 1.223-4.38 1.223v2zm5.71-1.733c1.37-1.253 2.01-2.967 2.01-5.007h-2c0 1.6-.49 2.733-1.36 3.533l1.35 1.474zm2.01-5.007c0-2.038-.64-3.741-2.02-4.953l-1.32 1.506c.85.748 1.34 1.845 1.34 3.447h2zm-2.01-4.937c-1.37-1.261-3.34-1.803-5.71-1.803v2c2.1 0 3.5.485 4.36 1.277l1.35-1.474zm-5.71-1.803h-6.02v2h6.02v-2zm-7.02 1v11.48h2v-11.48h-2zm1 12.48h6.02v-2h-6.02v2zm73.73-22.98l-.4.914.4-.914zm7.77 6.44l-.83.545.83-.545zm0 19.6l-.83-.545.83.545zm-7.77 6.44l-.4-.914.4.914zm-18.9 2.24v-1h-1v1h1zm0 12.04v1h1v-1h-1zm-16.52 0h-1v1h1v-1zm0-49v-1h-1v1h1zm27.58 22.75l.66.753.01-.008.01-.008-.68-.737zm0-8.47l-.67.737.01.008.01.008.65-.753zm-11.06-1.54v-1h-1v1h1zm0 11.48h-1v1h1v-1zm7.07-23.22c4.42 0 8.22.73 11.43 2.154l.81-1.828c-3.51-1.562-7.6-2.326-12.24-2.326v2zm11.43 2.154c3.2 1.423 5.63 3.449 7.34 6.071l1.67-1.09c-1.93-2.978-4.68-5.245-8.2-6.809l-.81 1.828zm7.34 6.071c1.7 2.619 2.56 5.692 2.56 9.255h2c0-3.903-.95-7.364-2.89-10.345l-1.67 1.09zm2.56 9.255c0 3.563-.86 6.636-2.56 9.255l1.67 1.09c1.94-2.981 2.89-6.442 2.89-10.345h-2zm-2.56 9.255c-1.71 2.622-4.14 4.648-7.34 6.071l.81 1.828c3.52-1.564 6.27-3.831 8.2-6.809l-1.67-1.09zm-7.34 6.071c-3.21 1.425-7.01 2.154-11.43 2.154v2c4.64 0 8.73-.764 12.24-2.326l-.81-1.828zm-11.43 2.154h-7.07v2h7.07v-2zm-8.07 1V145h2v-12.04h-2zm1 11.04h-16.52v2h16.52v-2zm-15.52 1V96h-2v49h2zm-1-48h23.59v-2h-23.59v2zm22.54 24.22c2.37 0 4.33-.514 5.7-1.717l-1.31-1.506c-.87.757-2.27 1.223-4.39 1.223v2zm5.72-1.733c1.37-1.253 2-2.967 2-5.007h-2c0 1.6-.48 2.733-1.35 3.533l1.35 1.474zm2-5.007c0-2.038-.63-3.741-2.02-4.953l-1.31 1.506c.85.748 1.33 1.845 1.33 3.447h2zm-2-4.937c-1.38-1.261-3.34-1.803-5.72-1.803v2c2.11 0 3.5.485 4.37 1.277l1.35-1.474zm-5.72-1.803h-6.02v2h6.02v-2zm-7.02 1v11.48h2v-11.48h-2zm1 12.48h6.02v-2h-6.02v2zm50.49 21.61l.46-.886-.46.886zm-9.87-9.1l-.86.519v.005l.86-.524zm0-26.39l.85.524v-.005l-.85-.519zm38.29-9.17l.46-.886-.46.886zm9.87 9.17l-.86.519v.005l.86-.524zm0 26.39l.85.524v-.005l-.85-.519zm-9.87 9.1l.46.886-.46-.886zm-8.68-11.55l.51.858.01-.005-.52-.853zm3.99-4.27l.88.474v-.009l-.88-.465zm0-12.95l-.89.465.01.009.88-.474zm-3.99-4.27l-.54.847.02.008.01.009.51-.864zm-11.13 0l.51.858.01-.005-.52-.853zm-3.92 4.27l.88.474v-.009l-.88-.465zm0 12.95l-.89.465.01.009.88-.474zm3.92 4.27l-.54.847.02.008.01.009.51-.864zm5.6 13.84c-5.13 0-9.71-1.066-13.75-3.176l-.93 1.772c4.36 2.276 9.26 3.404 14.68 3.404v-2zm-13.75-3.176c-4.05-2.114-7.2-5.025-9.48-8.738l-1.71 1.048c2.48 4.033 5.91 7.189 10.26 9.462l.93-1.772zm-9.48-8.733c-2.28-3.753-3.42-7.981-3.42-12.711h-2c0 5.07 1.23 9.662 3.71 13.749l1.71-1.038zm-3.42-12.711c0-4.73 1.14-8.933 3.42-12.636l-1.71-1.048c-2.48 4.044-3.71 8.614-3.71 13.684h2zm3.42-12.641c2.28-3.759 5.43-6.691 9.48-8.803l-.93-1.772c-4.35 2.274-7.78 5.456-10.26 9.537l1.71 1.038zm9.48-8.803c4.04-2.11 8.62-3.176 13.75-3.176v-2c-5.42 0-10.32 1.128-14.68 3.404l.93 1.772zm13.75-3.176c5.13 0 9.7 1.066 13.74 3.176l.93-1.772c-4.36-2.276-9.26-3.404-14.67-3.404v2zm13.74 3.176c4.05 2.112 7.2 5.044 9.48 8.803l1.71-1.038c-2.48-4.081-5.91-7.263-10.26-9.537l-.93 1.772zm9.48 8.808c2.28 3.703 3.43 7.906 3.43 12.636h2c0-5.07-1.24-9.64-3.72-13.684l-1.71 1.048zm3.43 12.636c0 4.73-1.15 8.958-3.43 12.711l1.71 1.038c2.48-4.087 3.72-8.679 3.72-13.749h-2zm-3.43 12.706c-2.28 3.713-5.43 6.624-9.48 8.738l.93 1.772c4.35-2.273 7.78-5.429 10.26-9.462l-1.71-1.048zm-9.48 8.738c-4.04 2.11-8.61 3.176-13.74 3.176v2c5.41 0 10.31-1.128 14.67-3.404l-.93-1.772zm-13.74-8.194c2.22 0 4.24-.532 6.04-1.613l-1.03-1.714c-1.46.879-3.13 1.327-5.01 1.327v2zm6.05-1.617c1.84-1.123 3.29-2.681 4.35-4.649l-1.76-.948c-.9 1.672-2.11 2.961-3.64 3.891l1.05 1.706zm4.35-4.658c1.07-2.033 1.59-4.368 1.59-6.975h-2c0 2.339-.47 4.345-1.36 6.045l1.77.93zm1.59-6.975c0-2.606-.52-4.922-1.59-6.914l-1.76.948c.88 1.648 1.35 3.626 1.35 5.966h2zm-1.59-6.905c-1.06-2.018-2.51-3.586-4.37-4.669l-1.01 1.728c1.51.877 2.71 2.156 3.61 3.871l1.77-.93zm-4.34-4.652c-1.81-1.133-3.84-1.693-6.06-1.693v2c1.87 0 3.53.467 4.99 1.387l1.07-1.694zm-6.06-1.693c-2.23 0-4.28.56-6.13 1.687l1.05 1.706c1.51-.926 3.2-1.393 5.08-1.393v-2zm-6.12 1.683c-1.81 1.084-3.23 2.651-4.29 4.662l1.77.93c.91-1.722 2.09-3.002 3.55-3.878l-1.03-1.714zm-4.28 4.653c-1.08 1.992-1.59 4.308-1.59 6.914h2c0-2.34.46-4.318 1.35-5.966l-1.76-.948zm-1.59 6.914c0 2.607.51 4.942 1.58 6.975l1.77-.93c-.89-1.7-1.35-3.706-1.35-6.045h-2zm1.59 6.984c1.05 1.961 2.47 3.517 4.26 4.643l1.07-1.694c-1.48-.928-2.67-2.218-3.57-3.897l-1.76.948zm4.29 4.66c1.84 1.074 3.89 1.606 6.11 1.606v-2c-1.89 0-3.58-.448-5.1-1.334l-1.01 1.728zm64.25.536l.83-.56-.3-.44h-.53v1zm-4.48 0v-1h-1v1h1zm0 12.32v1h1v-1h-1zm-16.52 0h-1v1h1v-1zm0-49v-1h-1v1h1zm35.42 2.24l-.4.914.4-.914zm7.77 6.44l-.84.545.84-.545zm.35 18.97l-.85-.519.85.519zm-6.86 6.23l-.46-.889-1 .518.64.934.82-.563zm10.29 15.12v1h1.89l-1.06-1.563-.83.563zm-17.64 0l-.83.56.3.44h.53v-1zm-1.75-34.72l-.67.737v.008l.01.008.66-.753zm-11.06-1.54v-1h-1v1h1zm0 11.48h-1v1h1v-1zm11.06-1.47l.66.753.01-.008.01-.008-.68-.737zm-6.58 12.93h-4.48v2h4.48v-2zm-5.48 1V145h2v-12.32h-2zm1 11.32h-16.52v2h16.52v-2zm-15.52 1V96h-2v49h2zm-1-48h23.59v-2h-23.59v2zm23.59 0c4.42 0 8.22.73 11.43 2.154l.81-1.828c-3.52-1.562-7.6-2.326-12.24-2.326v2zm11.43 2.154c3.2 1.423 5.63 3.449 7.33 6.071l1.68-1.09c-1.94-2.978-4.68-5.245-8.2-6.809l-.81 1.828zm7.33 6.071c1.71 2.619 2.57 5.692 2.57 9.255h2c0-3.903-.95-7.364-2.89-10.345l-1.68 1.09zm2.57 9.255c0 3.344-.75 6.216-2.23 8.651l1.71 1.038c1.69-2.791 2.52-6.033 2.52-9.689h-2zm-2.23 8.651c-1.48 2.441-3.63 4.396-6.47 5.86l.92 1.778c3.13-1.616 5.57-3.814 7.26-6.6l-1.71-1.038zm-6.83 7.312l10.29 15.12 1.65-1.126-10.29-15.12-1.65 1.126zM1727.63 144h-17.64v2h17.64v-2zm-16.81.44l-8.33-12.32-1.66 1.12 8.33 12.32 1.66-1.12zm.1-29.96c0-2.038-.64-3.741-2.02-4.953l-1.32 1.506c.86.748 1.34 1.845 1.34 3.447h2zm-2-4.937c-1.38-1.261-3.34-1.803-5.72-1.803v2c2.11 0 3.5.485 4.37 1.277l1.35-1.474zm-5.72-1.803h-6.02v2h6.02v-2zm-7.02 1v11.48h2v-11.48h-2zm1 12.48h6.02v-2h-6.02v2zm6.02 0c2.37 0 4.33-.514 5.7-1.717l-1.32-1.506c-.86.757-2.26 1.223-4.38 1.223v2zm5.72-1.733c1.36-1.253 2-2.967 2-5.007h-2c0 1.6-.48 2.733-1.35 3.533l1.35 1.474zm37.36-10.677h1v-1h-1v1zm-14.35 0h-1v1h1v-1zm0-12.81v-1h-1v1h1zm45.22 0h1v-1h-1v1zm0 12.81v1h1v-1h-1zm-14.35 0v-1h-1v1h1zm0 36.19v1h1v-1h-1zm-16.52 0h-1v1h1v-1zm0-37.19h-14.35v2h14.35v-2zm-13.35 1V96h-2v12.81h2zm-1-11.81h45.22v-2h-45.22v2zm44.22-1v12.81h2V96h-2zm1 11.81h-14.35v2h14.35v-2zm-15.35 1V145h2v-36.19h-2zm1 35.19h-16.52v2h16.52v-2zm-15.52 1v-36.19h-2V145h2z" fill="#fff"/></svg>