<svg width="1673" height="151" fill="none" xmlns="http://www.w3.org/2000/svg"><path d="M-65.62 50.46l.933-.36-.247-.64h-.686v1zm-18.62 0v-1h-.686l-.247.64.933.36zM-87.53 59v1h.686l.247-.64-.933-.36zm-16.8 0l-.916-.4-.613 1.4h1.529v-1zm21.42-49V9h-.654l-.262.6.916.4zm16.24 0l.916-.4-.262-.6h-.654v1zm21.42 49v1h1.529l-.613-1.4-.916.4zm-17.08 0l-.933.36.247.64h.686v-1zm-7.84-20.44v1h1.458l-.525-1.36-.933.36zm-4.76-12.32l.933-.36-.933-2.415-.933 2.415.933.36zm-4.76 12.32l-.933-.36-.525 1.36h1.458v-1zm14.07 10.9h-18.62v2h18.62v-2zm-19.553.64l-3.29 8.54 1.866.72 3.29-8.54-1.866-.72zM-87.53 58h-16.8v2h16.8v-2zm-15.884 1.4l21.42-49-1.832-.8-21.42 49 1.832.8zM-82.91 11h16.24V9h-16.24v2zm15.324-.6l21.42 49 1.832-.8-21.42-49-1.832.8zM-45.25 58h-17.08v2h17.08v-2zm-16.147.64l-3.29-8.54-1.866.72 3.29 8.54 1.866-.72zm-7.84-20.44l-4.76-12.32-1.866.72 4.76 12.32 1.866-.72zm-6.626-12.32l-4.76 12.32 1.866.72 4.76-12.32-1.866-.72zm-3.827 13.68h9.52v-2h-9.52v2zm61.576 7.12l.829-.56-.297-.44h-.531v1zm-4.48 0v-1h-1v1h1zm0 12.32v1h1v-1h-1zm-16.52 0h-1v1h1v-1zm0-49V9h-1v1h1zm35.42 2.24l-.406.914.406-.914zm7.77 6.44l-.838.545.838-.545zm.35 18.97l-.854-.519.854.519zm-6.86 6.23l-.458-.889-1.004.518.636.934.826-.563zM7.856 59v1h1.89l-1.063-1.563-.827.563zm-17.64 0l-.828.56.297.44h.531v-1zm-1.75-34.72l-.675.737.008.008.009.008.659-.753zm-11.06-1.54v-1h-1v1h1zm0 11.48h-1v1h1v-1zm11.06-1.47l.659.753.009-.008.008-.008-.675-.737zm-6.58 12.93h-4.48v2h4.48v-2zm-5.48 1V59h2V46.68h-2zm1 11.32h-16.52v2h16.52v-2zm-15.52 1V10h-2v49h2zm-1-48h23.59V9h-23.59v2zm23.59 0c4.419 0 8.218.729 11.424 2.154l.813-1.828C-6.801 9.764-10.888 9-15.523 9v2zM-4.1 13.154c3.202 1.423 5.634 3.45 7.338 6.071l1.677-1.09C2.979 15.157.23 12.89-3.287 11.326l-.813 1.828zm7.338 6.071c1.702 2.62 2.568 5.691 2.568 9.255h2c0-3.903-.953-7.364-2.891-10.345l-1.677 1.09zm2.568 9.255c0 3.344-.756 6.216-2.234 8.651l1.71 1.038c1.694-2.791 2.524-6.033 2.524-9.689h-2zm-2.234 8.651c-1.482 2.44-3.624 4.396-6.464 5.86l.917 1.778c3.133-1.616 5.565-3.814 7.256-6.6l-1.71-1.038zm-6.832 7.312l10.29 15.12 1.653-1.126-10.29-15.12-1.653 1.126zM7.856 58h-17.64v2h17.64v-2zm-16.811.44l-8.33-12.32-1.657 1.12 8.33 12.32 1.657-1.12zm.101-29.96c0-2.038-.636-3.741-2.021-4.953l-1.317 1.506c.855.748 1.338 1.845 1.338 3.447h2zm-2.004-4.937c-1.375-1.26-3.342-1.803-5.715-1.803v2c2.106 0 3.5.485 4.364 1.277l1.351-1.474zm-5.715-1.803h-6.02v2h6.02v-2zm-7.02 1v11.48h2V22.74h-2zm1 12.48h6.02v-2h-6.02v2zm6.02 0c2.363 0 4.323-.514 5.698-1.717l-1.317-1.506c-.865.757-2.265 1.223-4.381 1.223v2zm5.715-1.733c1.367-1.253 2.004-2.967 2.004-5.007h-2c0 1.6-.482 2.733-1.355 3.533l1.351 1.474zm37.36-10.677h1v-1h-1v1zm-14.35 0h-1v1h1v-1zm0-12.81V9h-1v1h1zm45.22 0h1V9h-1v1zm0 12.81v1h1v-1h-1zm-14.35 0v-1h-1v1h1zm0 36.19v1h1v-1h-1zm-16.52 0h-1v1h1v-1zm0-37.19h-14.35v2h14.35v-2zm-13.35 1V10h-2v12.81h2zm-1-11.81h45.22V9h-45.22v2zm44.22-1v12.81h2V10h-2zm1 11.81h-14.35v2h14.35v-2zm-15.35 1V59h2V22.81h-2zm1 35.19h-16.52v2h16.52v-2zm-15.52 1V22.81h-2V59h2zm37.66-49V9h-1v1h1zm16.52 0h1V9h-1v1zm0 49v1h1v-1h-1zm-16.52 0h-1v1h1v-1zm0-48h16.52V9h-16.52v2zm15.52-1v49h2V10h-2zm1 48h-16.52v2h16.52v-2zm-15.52 1V10h-2v49h2zm33.342-.21l-.236.971.007.002.006.002.223-.975zm-9.45-3.71l-.914-.404-.351.794.737.459.529-.849zm5.32-12.04l.502-.865-.965-.56-.451 1.02.915.405zm7.841 3.29l-.279.96.007.002.007.002.265-.964zm13.23.56l.393.92.019-.009.017-.008-.429-.903zm-.49-4.34l-.378.926.012.005.366-.931zm-6.3-1.68l-.206.979h.003l.203-.979zm-9.45-2.52l-.348.938.008.003.008.002.332-.943zm-6.58-4.48l-.748.664.008.009.74-.673zM93.415 17l.825.565-.825-.565zm7.7-5.95l-.387-.922-.004.002.391.92zm22.4-1.05l-.226.974.008.002.008.002.21-.978zm8.61 3.15l.923.383.34-.817-.771-.436-.492.87zm-4.97 11.97l-.451.893.961.485.413-.995-.923-.383zm-18.13 1.68l-.378.926.015.006.015.006.348-.938zm6.23 1.54l-.19.982h.005l.185-.982zm9.45 2.45l-.342.94.007.003.008.002.327-.945zm6.65 4.41l-.74.673.008.009.732-.682zm.28 16.8l.82.572.004-.007-.824-.565zm-7.77 5.95l.39.92.006-.002-.396-.918zm-12.46 1.17c-3.987 0-7.879-.435-11.677-1.305l-.447 1.95a54.16 54.16 0 0012.124 1.355v-2zm-11.663-1.301c-3.758-.917-6.801-2.12-9.159-3.588l-1.057 1.698c2.589 1.612 5.846 2.882 9.742 3.832l.474-1.943zm-8.773-2.335l5.32-12.04-1.83-.808-5.32 12.04 1.83.808zm3.904-11.579c2.41 1.398 5.1 2.525 8.063 3.385l.557-1.92c-2.824-.82-5.361-1.887-7.617-3.195l-1.003 1.73zm8.077 3.39c2.969.813 5.835 1.225 8.595 1.225v-2c-2.561 0-5.248-.382-8.066-1.154l-.529 1.928zm8.595 1.225c2.302 0 4.113-.205 5.293-.71l-.787-1.84c-.78.335-2.235.55-4.506.55v2zm5.329-.727c.598-.285 1.115-.666 1.483-1.174a2.95 2.95 0 00.558-1.759h-2a.947.947 0 01-.178.586c-.122.168-.34.359-.722.541l.859 1.806zm2.041-2.933a3.02 3.02 0 00-.728-1.995c-.467-.55-1.117-.951-1.867-1.246l-.731 1.862c.556.218.887.459 1.073.678.171.202.253.42.253.701h2zm-2.583-3.236c-1.352-.55-3.529-1.126-6.475-1.733l-.405 1.958c2.934.606 4.957 1.151 6.125 1.627l.755-1.852zm-6.472-1.733c-3.754-.788-6.859-1.617-9.324-2.484l-.663 1.886c2.575.906 5.77 1.757 9.576 2.556l.411-1.958zm-9.308-2.479c-2.365-.876-4.425-2.276-6.188-4.215l-1.48 1.346c1.971 2.168 4.298 3.754 6.973 4.745l.695-1.876zm-6.18-4.206c-1.665-1.873-2.547-4.438-2.547-7.806h-2c0 3.725.983 6.807 3.052 9.134l1.495-1.328zM91.825 25.4c0-2.88.803-5.483 2.415-7.835l-1.65-1.13c-1.842 2.688-2.766 5.685-2.766 8.965h2zm2.415-7.835c1.597-2.332 3.997-4.207 7.265-5.595l-.781-1.84c-3.545 1.505-6.279 3.597-8.134 6.305l1.65 1.13zm7.261-5.593c3.299-1.382 7.337-2.092 12.144-2.092v-2c-4.994 0-9.31.737-12.917 2.248l.773 1.844zm12.144-2.092c3.285 0 6.499.365 9.644 1.094l.451-1.948a44.545 44.545 0 00-10.095-1.146v2zm9.66 1.098c3.184.682 5.956 1.7 8.327 3.042l.985-1.74c-2.575-1.458-5.544-2.54-8.893-3.258l-.419 1.956zm7.896 1.789l-4.97 11.97 1.847.766 4.97-11.97-1.847-.766zm-3.596 11.46c-4.912-2.48-9.616-3.747-14.1-3.747v2c4.102 0 8.497 1.16 13.199 3.533l.901-1.786zm-14.1-3.747c-2.172 0-3.947.257-5.213.87-.647.312-1.196.735-1.583 1.295a3.319 3.319 0 00-.574 1.915h2c0-.331.082-.578.221-.78.145-.21.391-.43.806-.63.857-.414 2.268-.67 4.343-.67v-2zm-7.37 4.08c0 .725.24 1.386.708 1.94.452.536 1.08.931 1.804 1.226l.755-1.852c-.536-.218-.853-.453-1.031-.664a.951.951 0 01-.236-.65h-2zm2.542 3.178c1.343.497 3.488 1.023 6.388 1.584l.38-1.964c-2.888-.559-4.896-1.06-6.073-1.496l-.695 1.876zm6.393 1.585c3.699.693 6.793 1.498 9.293 2.407l.683-1.88c-2.633-.957-5.839-1.786-9.607-2.493l-.369 1.966zm9.308 2.412c2.405.83 4.48 2.206 6.237 4.138l1.479-1.346c-1.976-2.174-4.334-3.74-7.063-4.682l-.653 1.89zm6.245 4.147c1.699 1.823 2.602 4.355 2.602 7.718h2c0-3.73-1.011-6.798-3.139-9.082l-1.463 1.364zm2.602 7.718c0 2.88-.804 5.483-2.415 7.835l1.649 1.13c1.842-2.688 2.766-5.685 2.766-8.965h-2zm-2.41 7.828c-1.597 2.287-4.022 4.166-7.347 5.604l.793 1.836c3.582-1.549 6.337-3.637 8.193-6.296l-1.639-1.144zm-7.341 5.602c-3.25 1.38-7.262 2.09-12.069 2.09v2c4.993 0 9.287-.736 12.85-2.25l-.781-1.84zm29.123-34.22h1v-1h-1v1zm-14.35 0h-1v1h1v-1zm0-12.81V9h-1v1h1zm45.22 0h1V9h-1v1zm0 12.81v1h1v-1h-1zm-14.35 0v-1h-1v1h1zm0 36.19v1h1v-1h-1zm-16.52 0h-1v1h1v-1zm0-37.19h-14.35v2h14.35v-2zm-13.35 1V10h-2v12.81h2zm-1-11.81h45.22V9h-45.22v2zm44.22-1v12.81h2V10h-2zm1 11.81h-14.35v2h14.35v-2zm-15.35 1V59h2V22.81h-2zm1 35.19h-16.52v2h16.52v-2zm-15.52 1V22.81h-2V59h2zM232.054.06v-1h-.709l-.235.67.944.33zm14 0l.944.33.466-1.33h-1.41v1zM222.954 66v1h.709l.235-.67-.944-.33zm-14 0l-.944-.33-.466 1.33h1.41v-1zm23.1-64.94h14v-2h-14v2zM245.11-.27l-23.1 65.94 1.888.66 23.1-65.94-1.888-.66zM222.954 65h-14v2h14v-2zm-13.056 1.33l23.1-65.94-1.888-.66-23.1 65.94 1.888.66zM354.29 10l.953.305L355.66 9h-1.37v1zm-15.68 49v1h.73l.223-.695-.953-.305zm-17.71 0l-.957.29.215.71h.742v-1zm-7.91-26.18l.958-.29-.933-3.086-.978 3.073.953.303zM304.66 59v1h.732l.221-.697-.953-.303zm-17.71 0l-.952.305.222.695h.73v-1zm-15.68-49V9h-1.37l.418 1.305.952-.305zm17.01 0l.956-.293L289.02 9h-.74v1zm8.54 27.86l-.956.293.93 3.032.978-3.017-.952-.308zM305.85 10V9h-.727l-.224.692.951.308zm15.19 0l.957-.29-.215-.71h-.742v1zm8.54 28.21l-.957.29.931 3.073.979-3.058-.953-.305zM338.61 10V9h-.73l-.222.695.952.305zm14.728-.305l-15.68 49 1.905.61 15.68-49-1.905-.61zM338.61 58H320.9v2h17.71v-2zm-16.752.71l-7.91-26.18-1.915.58 7.91 26.18 1.915-.58zm-9.821-26.193l-8.33 26.18 1.906.606 8.33-26.18-1.906-.606zM304.66 58h-17.71v2h17.71v-2zm-16.757.695l-15.68-49-1.905.61 15.68 49 1.905-.61zM271.27 11h17.01V9h-17.01v2zm16.054-.707l8.54 27.86 1.912-.586-8.54-27.86-1.912.586zm10.448 27.875l9.03-27.86-1.903-.616-9.03 27.86 1.903.616zM305.85 11h15.19V9h-15.19v2zm14.233-.71l8.54 28.21 1.914-.58-8.54-28.21-1.914.58zm10.45 28.225l9.03-28.21-1.905-.61-9.03 28.21 1.905.61zM338.61 11h15.68V9h-15.68v2zm43.849 35.68l.828-.56-.297-.44h-.531v1zm-4.48 0v-1h-1v1h1zm0 12.32v1h1v-1h-1zm-16.52 0h-1v1h1v-1zm0-49V9h-1v1h1zm35.42 2.24l-.406.914.406-.914zm7.77 6.44l-.839.545.839-.545zm.35 18.97l-.855-.519.855.519zm-6.86 6.23l-.459-.889-1.003.518.635.934.827-.563zM408.429 59v1h1.89l-1.064-1.563-.826.563zm-17.64 0l-.829.56.298.44h.531v-1zm-1.75-34.72l-.676.737.009.008.008.008.659-.753zm-11.06-1.54v-1h-1v1h1zm0 11.48h-1v1h1v-1zm11.06-1.47l.658.753.009-.008.008-.008-.675-.737zm-6.58 12.93h-4.48v2h4.48v-2zm-5.48 1V59h2V46.68h-2zm1 11.32h-16.52v2h16.52v-2zm-15.52 1V10h-2v49h2zm-1-48h23.59V9h-23.59v2zm23.59 0c4.418 0 8.217.729 11.424 2.154l.812-1.828C393.771 9.764 389.684 9 385.049 9v2zm11.424 2.154c3.201 1.423 5.633 3.45 7.337 6.071l1.677-1.09c-1.936-2.978-4.684-5.245-8.202-6.809l-.812 1.828zm7.337 6.071c1.703 2.62 2.569 5.691 2.569 9.255h2c0-3.903-.954-7.364-2.892-10.345l-1.677 1.09zm2.569 9.255c0 3.344-.756 6.216-2.235 8.651l1.71 1.038c1.694-2.791 2.525-6.033 2.525-9.689h-2zm-2.235 8.651c-1.482 2.44-3.624 4.396-6.464 5.86l.917 1.778c3.134-1.616 5.565-3.814 7.257-6.6l-1.71-1.038zm-6.832 7.312l10.29 15.12 1.653-1.126-10.29-15.12-1.653 1.126zM408.429 58h-17.64v2h17.64v-2zm-16.812.44l-8.33-12.32-1.657 1.12 8.33 12.32 1.657-1.12zm.102-29.96c0-2.038-.637-3.741-2.022-4.953l-1.317 1.506c.856.748 1.339 1.845 1.339 3.447h2zm-2.005-4.937c-1.375-1.26-3.342-1.803-5.715-1.803v2c2.106 0 3.499.485 4.364 1.277l1.351-1.474zm-5.715-1.803h-6.02v2h6.02v-2zm-7.02 1v11.48h2V22.74h-2zm1 12.48h6.02v-2h-6.02v2zm6.02 0c2.364 0 4.323-.514 5.698-1.717l-1.317-1.506c-.865.757-2.265 1.223-4.381 1.223v2zm5.715-1.733c1.368-1.253 2.005-2.967 2.005-5.007h-2c0 1.6-.483 2.733-1.356 3.533l1.351 1.474zM417.117 10V9h-1v1h1zm16.52 0h1V9h-1v1zm0 49v1h1v-1h-1zm-16.52 0h-1v1h1v-1zm0-48h16.52V9h-16.52v2zm15.52-1v49h2V10h-2zm1 48h-16.52v2h16.52v-2zm-15.52 1V10h-2v49h2zm37.613-36.19h1v-1h-1v1zm-14.35 0h-1v1h1v-1zm0-12.81V9h-1v1h1zm45.22 0h1V9h-1v1zm0 12.81v1h1v-1h-1zm-14.35 0v-1h-1v1h1zm0 36.19v1h1v-1h-1zm-16.52 0h-1v1h1v-1zm0-37.19h-14.35v2h14.35v-2zm-13.35 1V10h-2v12.81h2zm-1-11.81h45.22V9h-45.22v2zm44.22-1v12.81h2V10h-2zm1 11.81h-14.35v2h14.35v-2zm-15.35 1V59h2V22.81h-2zm1 35.19h-16.52v2h16.52v-2zm-15.52 1V22.81h-2V59h2zm78.4-12.46h1v-1h-1v1zm0 12.46v1h1v-1h-1zm-40.74 0h-1v1h1v-1zm0-49V9h-1v1h1zm39.83 0h1V9h-1v1zm0 12.46v1h1v-1h-1zm-23.59 0v-1h-1v1h1zm0 5.74h-1v1h1v-1zm20.72 0h1v-1h-1v1zm0 11.9v1h1v-1h-1zm-20.72 0v-1h-1v1h1zm0 6.44h-1v1h1v-1zm23.5 0V59h2V46.54h-2zm1 11.46h-40.74v2h40.74v-2zm-39.74 1V10h-2v49h2zm-1-48h39.83V9h-39.83v2zm38.83-1v12.46h2V10h-2zm1 11.46h-23.59v2h23.59v-2zm-24.59 1v5.74h2v-5.74h-2zm1 6.74h20.72v-2h-20.72v2zm19.72-1v11.9h2V28.2h-2zm1 10.9h-20.72v2h20.72v-2zm-21.72 1v6.44h2V40.1h-2zm1 7.44h24.5v-2h-24.5v2zm55.36-.86l.828-.56-.297-.44h-.531v1zm-4.48 0v-1h-1v1h1zm0 12.32v1h1v-1h-1zm-16.52 0h-1v1h1v-1zm0-49V9h-1v1h1zm35.42 2.24l-.406.914.406-.914zm7.77 6.44l-.838.545.838-.545zm.35 18.97l-.855-.519.855.519zm-6.86 6.23l-.458-.889-1.004.518.635.934.827-.563zM591.96 59v1h1.89l-1.063-1.563-.827.563zm-17.64 0l-.828.56.297.44h.531v-1zm-1.75-34.72l-.676.737.009.008.008.008.659-.753zm-11.06-1.54v-1h-1v1h1zm0 11.48h-1v1h1v-1zm11.06-1.47l.659.753.008-.008.009-.008-.676-.737zm-6.58 12.93h-4.48v2h4.48v-2zm-5.48 1V59h2V46.68h-2zm1 11.32h-16.52v2h16.52v-2zm-15.52 1V10h-2v49h2zm-1-48h23.59V9h-23.59v2zm23.59 0c4.418 0 8.218.729 11.424 2.154l.812-1.828C577.302 9.764 573.215 9 568.58 9v2zm11.424 2.154c3.202 1.423 5.634 3.45 7.338 6.071l1.676-1.09c-1.935-2.978-4.684-5.245-8.202-6.809l-.812 1.828zm7.338 6.071c1.702 2.62 2.568 5.691 2.568 9.255h2c0-3.903-.954-7.364-2.892-10.345l-1.676 1.09zm2.568 9.255c0 3.344-.756 6.216-2.235 8.651l1.71 1.038c1.695-2.791 2.525-6.033 2.525-9.689h-2zm-2.235 8.651c-1.482 2.44-3.624 4.396-6.463 5.86l.916 1.778c3.134-1.616 5.565-3.814 7.257-6.6l-1.71-1.038zm-6.832 7.312l10.29 15.12 1.654-1.126-10.29-15.12-1.654 1.126zM591.96 58h-17.64v2h17.64v-2zm-16.812.44l-8.33-12.32-1.656 1.12 8.33 12.32 1.656-1.12zm.102-29.96c0-2.038-.637-3.741-2.021-4.953l-1.318 1.506c.856.748 1.339 1.845 1.339 3.447h2zm-2.004-4.937c-1.376-1.26-3.342-1.803-5.716-1.803v2c2.106 0 3.5.485 4.364 1.277l1.352-1.474zm-5.716-1.803h-6.02v2h6.02v-2zm-7.02 1v11.48h2V22.74h-2zm1 12.48h6.02v-2h-6.02v2zm6.02 0c2.364 0 4.323-.514 5.699-1.717l-1.318-1.506c-.864.757-2.265 1.223-4.381 1.223v2zm5.716-1.733c1.367-1.253 2.004-2.967 2.004-5.007h-2c0 1.6-.483 2.733-1.356 3.533l1.352 1.474zM641.445.06v-1h-.71l-.234.67.944.33zm14 0l.943.33.466-1.33h-1.409v1zM632.345 66v1h.709l.234-.67-.943-.33zm-14 0l-.944-.33-.466 1.33h1.41v-1zm23.1-64.94h14v-2h-14v2zm13.056-1.33l-23.1 65.94 1.887.66 23.1-65.94-1.887-.66zM632.345 65h-14v2h14v-2zm-13.057 1.33l23.1-65.94-1.887-.66-23.1 65.94 1.887.66zm76.003-9.43l-.467.884.008.004.459-.888zm-9.8-9.1l-.859.512.007.012.852-.524zm0-26.53l-.855-.519-.002.003.857.516zm9.8-9.1l.459.888.008-.004-.467-.884zm26.74-.77l-.41.912.41-.912zm9.24 7.28l.666.746.691-.617-.563-.736-.794.607zm-10.43 9.31l-.784.621.659.831.791-.706-.666-.746zm-19.04-2.38l.722.692.007-.008-.729-.684zm0 17.85l-.73.684.008.008.722-.692zm19.04-2.45l.666-.746-.791-.706-.659.83.784.622zm10.43 9.31l.794.608.563-.737-.691-.617-.666.746zm-9.24 7.28l-.41-.912.41.912zm-12.74 1.52c-5.038 0-9.544-1.043-13.541-3.108l-.918 1.776c4.31 2.228 9.137 3.332 14.459 3.332v-2zm-13.533-3.104c-4.001-2.113-7.132-5.024-9.415-8.74l-1.704 1.047c2.477 4.032 5.879 7.187 10.185 9.461l.934-1.768zm-9.408-8.727c-2.233-3.753-3.359-8.007-3.359-12.789h-2c0 5.111 1.207 9.724 3.641 13.812l1.718-1.023zM682.991 34.5c0-4.782 1.126-9.01 3.357-12.714l-1.714-1.032c-2.436 4.043-3.643 8.635-3.643 13.746h2zm3.355-12.711c2.282-3.76 5.411-6.667 9.404-8.73l-.918-1.777c-4.314 2.229-7.718 5.389-10.196 9.469l1.71 1.038zm9.412-8.735c3.995-2.11 8.499-3.174 13.533-3.174v-2c-5.326 0-10.155 1.129-14.467 3.406l.934 1.768zm13.533-3.174c4.641 0 8.745.819 12.33 2.432l.82-1.824c-3.881-1.747-8.271-2.608-13.15-2.608v2zm12.33 2.432c3.586 1.614 6.532 3.937 8.856 6.975l1.588-1.214c-2.53-3.309-5.743-5.839-9.624-7.585l-.82 1.824zm8.984 5.622l-10.43 9.31 1.332 1.492 10.43-9.31-1.332-1.492zm-8.98 9.435c-3.183-4.016-7.023-6.119-11.494-6.119v2c3.742 0 7.043 1.723 9.926 5.361l1.568-1.242zm-11.494-6.119c-3.692 0-6.746 1.208-9.06 3.676l1.459 1.368c1.887-2.012 4.386-3.044 7.601-3.044v-2zm-9.052 3.668c-2.318 2.42-3.428 5.653-3.428 9.582h2c0-3.538.989-6.232 2.872-8.198l-1.444-1.384zm-3.428 9.582c0 3.93 1.111 7.18 3.42 9.644l1.459-1.368c-1.89-2.016-2.879-4.739-2.879-8.276h-2zm3.428 9.652c2.315 2.418 5.367 3.598 9.052 3.598v-2c-3.222 0-5.723-1.013-7.608-2.982l-1.444 1.384zm9.052 3.598c4.471 0 8.311-2.103 11.494-6.119l-1.568-1.242c-2.883 3.638-6.184 5.361-9.926 5.361v2zm10.044-5.994l10.43 9.31 1.332-1.492-10.43-9.31-1.332 1.492zm10.302 7.957c-2.324 3.038-5.27 5.361-8.856 6.975l.82 1.824c3.881-1.746 7.094-4.276 9.624-7.584l-1.588-1.215zm-8.856 6.975c-3.585 1.613-7.689 2.432-12.33 2.432v2c4.879 0 9.269-.861 13.15-2.608l-.82-1.824zm28.374.142l.463-.886-.463.886zm-9.87-9.1l-.854.519.002.005.852-.524zm0-26.39l.852.523.003-.004-.855-.519zm38.29-9.17l.463-.886-.463.886zm9.87 9.17l-.854.519.002.004.852-.523zm0 26.39l.852.524.003-.005-.855-.519zm-9.87 9.1l.463.886-.463-.886zm-8.68-11.55l.515.858.007-.005-.522-.853zm3.99-4.27l.881.474.005-.01-.886-.464zm0-12.95l-.885.465.005.01.88-.475zm-3.99-4.27l-.532.847.014.008.015.009.503-.864zm-11.13 0l.515.858.007-.005-.522-.853zm-3.92 4.27l.881.474.005-.01-.886-.464zm0 12.95l-.885.465.005.01.88-.475zm3.92 4.27l-.532.847.014.008.015.009.503-.864zm5.6 13.84c-5.13 0-9.705-1.066-13.747-3.176l-.926 1.772c4.359 2.276 9.257 3.404 14.673 3.404v-2zm-13.747-3.176c-4.047-2.114-7.199-5.025-9.481-8.738l-1.704 1.047c2.479 4.034 5.906 7.19 10.259 9.463l.926-1.772zm-9.478-8.733c-2.278-3.753-3.425-7.981-3.425-12.711h-2c0 5.07 1.234 9.662 3.716 13.749l1.709-1.038zM737.555 34.5c0-4.73 1.147-8.933 3.422-12.637l-1.704-1.046c-2.484 4.043-3.718 8.613-3.718 13.683h2zm3.425-12.641c2.282-3.759 5.434-6.69 9.478-8.803l-.926-1.772c-4.356 2.274-7.783 5.456-10.261 9.537l1.709 1.038zm9.478-8.803c4.042-2.11 8.617-3.176 13.747-3.176v-2c-5.416 0-10.314 1.128-14.673 3.404l.926 1.772zm13.747-3.176c5.131 0 9.706 1.066 13.748 3.176l.925-1.772c-4.358-2.276-9.257-3.404-14.673-3.404v2zm13.748 3.176c4.043 2.112 7.195 5.044 9.478 8.803l1.709-1.038c-2.478-4.081-5.906-7.263-10.262-9.537l-.925 1.772zm9.48 8.807c2.276 3.704 3.422 7.907 3.422 12.637h2c0-5.07-1.233-9.64-3.718-13.683l-1.704 1.046zm3.422 12.637c0 4.73-1.146 8.958-3.424 12.711l1.709 1.038c2.482-4.087 3.715-8.679 3.715-13.749h-2zm-3.422 12.706c-2.281 3.713-5.434 6.624-9.48 8.738l.925 1.772c4.353-2.273 7.781-5.429 10.259-9.462l-1.704-1.047zm-9.48 8.738c-4.042 2.11-8.617 3.176-13.748 3.176v2c5.416 0 10.315-1.127 14.673-3.404l-.925-1.772zm-13.748-8.194c2.22 0 4.244-.532 6.045-1.612l-1.029-1.715c-1.466.879-3.129 1.327-5.016 1.327v2zm6.052-1.617c1.839-1.123 3.289-2.681 4.349-4.649l-1.761-.948c-.9 1.672-2.11 2.961-3.631 3.89l1.043 1.707zm4.354-4.658c1.067-2.033 1.584-4.368 1.584-6.975h-2c0 2.34-.462 4.345-1.355 6.045l1.771.93zm1.584-6.975c0-2.606-.517-4.922-1.589-6.914l-1.761.948c.887 1.648 1.35 3.626 1.35 5.966h2zm-1.584-6.905c-1.06-2.018-2.516-3.586-4.372-4.669l-1.007 1.728c1.504.877 2.708 2.156 3.608 3.87l1.771-.929zm-4.343-4.652c-1.804-1.133-3.834-1.693-6.063-1.693v2c1.878 0 3.535.467 4.998 1.387l1.065-1.694zm-6.063-1.693c-2.229 0-4.277.56-6.121 1.687l1.043 1.706c1.516-.926 3.201-1.393 5.078-1.393v-2zm-6.114 1.683c-1.807 1.084-3.235 2.651-4.291 4.662l1.771.93c.904-1.722 2.089-3.002 3.549-3.877l-1.029-1.715zm-4.286 4.653c-1.073 1.992-1.59 4.308-1.59 6.914h2c0-2.34.463-4.318 1.351-5.966l-1.761-.948zm-1.59 6.914c0 2.607.518 4.942 1.585 6.975l1.771-.93c-.893-1.7-1.356-3.706-1.356-6.045h-2zm1.59 6.984c1.056 1.961 2.478 3.517 4.268 4.643l1.065-1.694c-1.477-.928-2.668-2.218-3.572-3.897l-1.761.948zm4.297 4.66c1.841 1.074 3.883 1.606 6.103 1.606v-2c-1.886 0-3.577-.448-5.096-1.334l-1.007 1.728zM801.351 10V9h-1v1h1zm16.52 0h1V9h-1v1zm0 36.19h-1v1h1v-1zm22.12 0h1v-1h-1v1zm0 12.81v1h1v-1h-1zm-38.64 0h-1v1h1v-1zm0-48h16.52V9h-16.52v2zm15.52-1v36.19h2V10h-2zm1 37.19h22.12v-2h-22.12v2zm21.12-1V59h2V46.19h-2zm1 11.81h-38.64v2h38.64v-2zm-37.64 1V10h-2v49h2zm45.703-49V9h-1v1h1zm16.52 0h1V9h-1v1zm0 36.19h-1v1h1v-1zm22.12 0h1v-1h-1v1zm0 12.81v1h1v-1h-1zm-38.64 0h-1v1h1v-1zm0-48h16.52V9h-16.52v2zm15.52-1v36.19h2V10h-2zm1 37.19h22.12v-2h-22.12v2zm21.12-1V59h2V46.19h-2zm1 11.81h-38.64v2h38.64v-2zm-37.64 1V10h-2v49h2zm79.777-8.54l.933-.36-.246-.64h-.687v1zm-18.62 0v-1h-.686l-.247.64.933.36zm-3.29 8.54v1h.687l.246-.64-.933-.36zm-16.8 0l-.916-.4-.612 1.4h1.528v-1zm21.42-49V9h-.654l-.262.6.916.4zm16.24 0l.917-.4-.263-.6h-.654v1zm21.42 49v1h1.529l-.613-1.4-.916.4zm-17.08 0l-.933.36.247.64h.686v-1zm-7.84-20.44v1h1.459l-.526-1.36-.933.36zm-4.76-12.32l.933-.36-.933-2.415-.933 2.415.933.36zm-4.76 12.32l-.933-.36-.525 1.36h1.458v-1zm14.07 10.9h-18.62v2h18.62v-2zm-19.553.64l-3.29 8.54 1.866.72 3.29-8.54-1.866-.72zm-2.357 7.9h-16.8v2h16.8v-2zm-15.884 1.4l21.42-49-1.832-.8-21.42 49 1.832.8zM911.541 11h16.24V9h-16.24v2zm15.324-.6l21.42 49 1.832-.8-21.419-49-1.833.8zM949.201 58h-17.08v2h17.08v-2zm-16.147.64l-3.29-8.54-1.866.72 3.29 8.54 1.866-.72zm-7.84-20.44l-4.76-12.32-1.866.72 4.76 12.32 1.866-.72zm-6.626-12.32l-4.76 12.32 1.866.72 4.76-12.32-1.866-.72zm-3.827 13.68h9.52v-2h-9.52v2zm79.777-6.18l-.448-.894-2.061 1.03 2.161.802.348-.938zm6.722 4.69l.79-.611-.79.611zm-2.942 17.43l.549.835.008-.005-.557-.83zm-42.98 3.5h-1v1h1v-1zm0-49V9h-1v1h1zm40.95 3.5l-.576.818.005.003.571-.821zm3.29 15.47l-.842-.54-.005.008-.005.008.852.524zm-28-7.42v-1h-1v1h1zm0 7.28h-1v1h1v-1zm0 10.92v-1h-1v1h1zm0 7.7h-1v1h1v-1zm22.612-13.132c2.751 1.02 4.824 2.484 6.28 4.364l1.58-1.223c-1.72-2.228-4.129-3.89-7.165-5.017l-.695 1.876zm6.28 4.364c1.43 1.858 2.17 4.11 2.17 6.808h2c0-3.088-.85-5.783-2.59-8.031l-1.58 1.222zm2.17 6.808c0 3.962-1.61 6.986-4.88 9.18l1.115 1.66c3.825-2.566 5.765-6.215 5.765-10.84h-2zm-4.872 9.175c-3.314 2.18-8.221 3.335-14.85 3.335v2c6.811 0 12.17-1.178 15.949-3.665l-1.099-1.67zM982.918 58h-27.58v2h27.58v-2zm-26.58 1V10h-2v49h2zm-1-48h26.18V9h-26.18v2zm26.18 0c6.443 0 11.124 1.156 14.194 3.318l1.151-1.636C993.307 10.178 988.141 9 981.518 9v2zm14.199 3.321c3.109 2.16 4.613 4.964 4.613 8.489h2c0-4.222-1.86-7.624-5.472-10.131l-1.141 1.642zm4.613 8.489c0 2.107-.537 3.97-1.594 5.62l1.684 1.08c1.28-1.99 1.91-4.234 1.91-6.7h-2zm-1.604 5.636c-1.007 1.636-2.533 2.988-4.636 4.04l.895 1.788c2.377-1.188 4.211-2.776 5.445-4.78l-1.704-1.048zm-28.148-6.896v7.28h2v-7.28h-2zm1 8.28h7.7v-2h-7.7v2zm7.7 0c1.878 0 3.462-.311 4.602-1.081 1.21-.817 1.788-2.06 1.788-3.559h-2c0 .927-.321 1.505-.908 1.901-.656.444-1.767.739-3.482.739v2zm6.39-4.64c0-1.5-.578-2.742-1.788-3.559-1.14-.77-2.724-1.081-4.602-1.081v2c1.715 0 2.826.295 3.482.739.587.396.908.973.908 1.901h2zm-6.39-4.64h-7.7v2h7.7v-2zm2.24 27.9c1.907 0 3.516-.33 4.671-1.145 1.219-.86 1.789-2.154 1.789-3.705h-2c0 1.015-.341 1.647-.942 2.07-.664.469-1.785.78-3.518.78v2zm6.46-4.85c0-1.551-.57-2.845-1.789-3.705-1.155-.814-2.764-1.145-4.671-1.145v2c1.733 0 2.854.311 3.518.78.601.423.942 1.055.942 2.07h2zm-6.46-4.85h-9.94v2h9.94v-2zm-10.94 1v7.7h2v-7.7h-2zm1 8.7h9.94v-2h-9.94v2zm52.882 8.38l.46-.886-.46.886zm-9.87-9.1l-.86.519.01.005.85-.524zm0-26.39l.85.523v-.004l-.85-.519zm38.29-9.17l.46-.886-.46.886zm9.87 9.17l-.86.519.01.004.85-.523zm0 26.39l.85.524v-.005l-.85-.519zm-9.87 9.1l.46.886-.46-.886zm-8.68-11.55l.51.858.01-.005-.52-.853zm3.99-4.27l.88.474v-.01l-.88-.464zm0-12.95l-.89.465.01.01.88-.475zm-3.99-4.27l-.53.847.01.008.01.009.51-.864zm-11.13 0l.51.858.01-.005-.52-.853zm-3.92 4.27l.88.474v-.01l-.88-.464zm0 12.95l-.89.465.01.01.88-.475zm3.92 4.27l-.53.847.01.008.01.009.51-.864zm5.6 13.84c-5.13 0-9.71-1.066-13.75-3.176l-.92 1.772c4.35 2.276 9.25 3.404 14.67 3.404v-2zm-13.75-3.176c-4.05-2.114-7.2-5.025-9.48-8.738l-1.7 1.047c2.47 4.034 5.9 7.19 10.26 9.463l.92-1.772zm-9.48-8.733c-2.28-3.753-3.42-7.981-3.42-12.711h-2c0 5.07 1.23 9.662 3.71 13.749l1.71-1.038zm-3.42-12.711c0-4.73 1.14-8.933 3.42-12.637l-1.7-1.046c-2.49 4.043-3.72 8.613-3.72 13.683h2zm3.42-12.641c2.29-3.759 5.44-6.69 9.48-8.803l-.92-1.772c-4.36 2.274-7.79 5.456-10.27 9.537l1.71 1.038zm9.48-8.803c4.04-2.11 8.62-3.176 13.75-3.176v-2c-5.42 0-10.32 1.128-14.67 3.404l.92 1.772zm13.75-3.176c5.13 0 9.7 1.066 13.75 3.176l.92-1.772c-4.36-2.276-9.26-3.404-14.67-3.404v2zm13.75 3.176c4.04 2.112 7.19 5.044 9.47 8.803l1.71-1.038c-2.47-4.081-5.9-7.263-10.26-9.537l-.92 1.772zm9.48 8.807c2.27 3.704 3.42 7.907 3.42 12.637h2c0-5.07-1.24-9.64-3.72-13.683l-1.7 1.046zm3.42 12.637c0 4.73-1.15 8.958-3.43 12.711l1.71 1.038c2.48-4.087 3.72-8.679 3.72-13.749h-2zm-3.42 12.706c-2.29 3.713-5.44 6.624-9.48 8.738l.92 1.772c4.35-2.273 7.78-5.429 10.26-9.462l-1.7-1.047zm-9.48 8.738c-4.05 2.11-8.62 3.176-13.75 3.176v2c5.41 0 10.31-1.127 14.67-3.404l-.92-1.772zm-13.75-8.194c2.22 0 4.24-.532 6.04-1.612l-1.03-1.715c-1.46.879-3.12 1.327-5.01 1.327v2zm6.05-1.617c1.84-1.123 3.29-2.681 4.35-4.649l-1.76-.948c-.9 1.672-2.11 2.961-3.63 3.89l1.04 1.707zm4.35-4.658c1.07-2.033 1.59-4.368 1.59-6.975h-2c0 2.34-.46 4.345-1.36 6.045l1.77.93zm1.59-6.975c0-2.606-.52-4.922-1.59-6.914l-1.76.948c.89 1.648 1.35 3.626 1.35 5.966h2zm-1.59-6.905c-1.06-2.018-2.51-3.586-4.37-4.669l-1.01 1.728c1.51.877 2.71 2.156 3.61 3.87l1.77-.929zm-4.34-4.652c-1.8-1.133-3.83-1.693-6.06-1.693v2c1.88 0 3.53.467 5 1.387l1.06-1.694zm-6.06-1.693c-2.23 0-4.28.56-6.12 1.687l1.04 1.706c1.52-.926 3.2-1.393 5.08-1.393v-2zm-6.12 1.683c-1.8 1.084-3.23 2.651-4.29 4.662l1.77.93c.91-1.722 2.09-3.002 3.55-3.877l-1.03-1.715zm-4.28 4.653c-1.07 1.992-1.59 4.308-1.59 6.914h2c0-2.34.46-4.318 1.35-5.966l-1.76-.948zm-1.59 6.914c0 2.607.52 4.942 1.58 6.975l1.77-.93c-.89-1.7-1.35-3.706-1.35-6.045h-2zm1.59 6.984c1.05 1.961 2.48 3.517 4.27 4.643l1.06-1.694c-1.48-.928-2.67-2.218-3.57-3.897l-1.76.948zm4.29 4.66c1.85 1.074 3.89 1.606 6.11 1.606v-2c-1.89 0-3.58-.448-5.1-1.334l-1.01 1.728zm64.25.536l.83-.56-.29-.44h-.54v1zm-4.48 0v-1h-1v1h1zm0 12.32v1h1v-1h-1zm-16.52 0h-1v1h1v-1zm0-49V9h-1v1h1zm35.42 2.24l-.4.914.4-.914zm7.77 6.44l-.83.545.83-.545zm.35 18.97l-.85-.519.85.519zm-6.86 6.23l-.45-.889-1.01.518.64.934.82-.563zM1122.78 59v1h1.89l-1.06-1.563-.83.563zm-17.64 0l-.82.56.29.44h.53v-1zm-1.75-34.72l-.67.737.01.008.01.008.65-.753zm-11.06-1.54v-1h-1v1h1zm0 11.48h-1v1h1v-1zm11.06-1.47l.66.753.01-.008.01-.008-.68-.737zm-6.58 12.93h-4.48v2h4.48v-2zm-5.48 1V59h2V46.68h-2zm1 11.32h-16.52v2h16.52v-2zm-15.52 1V10h-2v49h2zm-1-48h23.59V9h-23.59v2zm23.59 0c4.42 0 8.22.729 11.43 2.154l.81-1.828C1108.13 9.764 1104.04 9 1099.4 9v2zm11.43 2.154c3.2 1.423 5.63 3.45 7.34 6.071l1.67-1.09c-1.93-2.978-4.68-5.245-8.2-6.809l-.81 1.828zm7.34 6.071c1.7 2.62 2.56 5.691 2.56 9.255h2c0-3.903-.95-7.364-2.89-10.345l-1.67 1.09zm2.56 9.255c0 3.344-.75 6.216-2.23 8.651l1.71 1.038c1.69-2.791 2.52-6.033 2.52-9.689h-2zm-2.23 8.651c-1.48 2.44-3.62 4.396-6.46 5.86l.91 1.778c3.14-1.616 5.57-3.814 7.26-6.6l-1.71-1.038zm-6.83 7.312l10.29 15.12 1.65-1.126-10.29-15.12-1.65 1.126zM1122.78 58h-17.64v2h17.64v-2zm-16.81.44l-8.33-12.32-1.65 1.12 8.33 12.32 1.65-1.12zm.1-29.96c0-2.038-.63-3.741-2.02-4.953l-1.31 1.506c.85.748 1.33 1.845 1.33 3.447h2zm-2-4.937c-1.38-1.26-3.34-1.803-5.72-1.803v2c2.11 0 3.5.485 4.37 1.277l1.35-1.474zm-5.72-1.803h-6.02v2h6.02v-2zm-7.02 1v11.48h2V22.74h-2zm1 12.48h6.02v-2h-6.02v2zm6.02 0c2.37 0 4.33-.514 5.7-1.717l-1.31-1.506c-.87.757-2.27 1.223-4.39 1.223v2zm5.72-1.733c1.37-1.253 2-2.967 2-5.007h-2c0 1.6-.48 2.733-1.35 3.533l1.35 1.474zm60.79 16.973l.94-.36-.25-.64h-.69v1zm-18.62 0v-1h-.68l-.25.64.93.36zm-3.29 8.54v1h.69l.25-.64-.94-.36zm-16.8 0l-.91-.4-.62 1.4h1.53v-1zm21.42-49V9h-.65l-.26.6.91.4zm16.24 0l.92-.4-.26-.6h-.66v1zm21.42 49v1h1.53l-.61-1.4-.92.4zm-17.08 0l-.93.36.25.64h.68v-1zm-7.84-20.44v1h1.46l-.52-1.36-.94.36zm-4.76-12.32l.94-.36-.94-2.415-.93 2.415.93.36zm-4.76 12.32l-.93-.36-.53 1.36h1.46v-1zm14.07 10.9h-18.62v2h18.62v-2zm-19.55.64l-3.29 8.54 1.87.72 3.29-8.54-1.87-.72zm-2.36 7.9h-16.8v2h16.8v-2zm-15.88 1.4l21.42-49-1.83-.8-21.42 49 1.83.8zm20.5-48.4h16.24V9h-16.24v2zm15.33-.6l21.42 49 1.83-.8-21.42-49-1.83.8zm22.33 47.6h-17.08v2h17.08v-2zm-16.14.64l-3.29-8.54-1.87.72 3.29 8.54 1.87-.72zm-7.84-20.44l-4.76-12.32-1.87.72 4.76 12.32 1.87-.72zm-6.63-12.32l-4.76 12.32 1.87.72 4.76-12.32-1.87-.72zm-3.83 13.68h9.52v-2h-9.52v2zm48.76-16.75h1v-1h-1v1zm-14.35 0h-1v1h1v-1zm0-12.81V9h-1v1h1zm45.22 0h1V9h-1v1zm0 12.81v1h1v-1h-1zm-14.35 0v-1h-1v1h1zm0 36.19v1h1v-1h-1zm-16.52 0h-1v1h1v-1zm0-37.19h-14.35v2h14.35v-2zm-13.35 1V10h-2v12.81h2zm-1-11.81h45.22V9h-45.22v2zm44.22-1v12.81h2V10h-2zm1 11.81h-14.35v2h14.35v-2zm-15.35 1V59h2V22.81h-2zm1 35.19h-16.52v2h16.52v-2zm-15.52 1V22.81h-2V59h2zm78.4-12.46h1v-1h-1v1zm0 12.46v1h1v-1h-1zm-40.74 0h-1v1h1v-1zm0-49V9h-1v1h1zm39.83 0h1V9h-1v1zm0 12.46v1h1v-1h-1zm-23.59 0v-1h-1v1h1zm0 5.74h-1v1h1v-1zm20.72 0h1v-1h-1v1zm0 11.9v1h1v-1h-1zm-20.72 0v-1h-1v1h1zm0 6.44h-1v1h1v-1zm23.5 0V59h2V46.54h-2zm1 11.46h-40.74v2h40.74v-2zm-39.74 1V10h-2v49h2zm-1-48h39.83V9h-39.83v2zm38.83-1v12.46h2V10h-2zm1 11.46h-23.59v2h23.59v-2zm-24.59 1v5.74h2v-5.74h-2zm1 6.74h20.72v-2h-20.72v2zm19.72-1v11.9h2V28.2h-2zm1 10.9h-20.72v2h20.72v-2zm-21.72 1v6.44h2V40.1h-2zm1 7.44h24.5v-2h-24.5v2zM1329.6.06v-1h-.7l-.24.67.94.33zm14 0l.95.33.46-1.33h-1.41v1zM1320.5 66v1h.71l.24-.67-.95-.33zm-14 0l-.94-.33-.47 1.33h1.41v-1zm23.1-64.94h14v-2h-14v2zm13.06-1.33l-23.1 65.94 1.89.66 23.1-65.94-1.89-.66zM1320.5 65h-14v2h14v-2zm-13.05 1.33l23.1-65.94-1.89-.66-23.1 65.94 1.89.66zm85.66-19.65l.83-.56-.3-.44h-.53v1zm-4.48 0v-1h-1v1h1zm0 12.32v1h1v-1h-1zm-16.52 0h-1v1h1v-1zm0-49V9h-1v1h1zm35.42 2.24l-.41.914.41-.914zm7.77 6.44l-.84.545.84-.545zm.35 18.97l-.85-.519.85.519zm-6.86 6.23l-.46-.889-1 .518.63.934.83-.563zM1419.08 59v1h1.89l-1.06-1.563-.83.563zm-17.64 0l-.83.56.3.44h.53v-1zm-1.75-34.72l-.67.737v.008l.01.008.66-.753zm-11.06-1.54v-1h-1v1h1zm0 11.48h-1v1h1v-1zm11.06-1.47l.66.753.01-.008.01-.008-.68-.737zm-6.58 12.93h-4.48v2h4.48v-2zm-5.48 1V59h2V46.68h-2zm1 11.32h-16.52v2h16.52v-2zm-15.52 1V10h-2v49h2zm-1-48h23.59V9h-23.59v2zm23.59 0c4.42 0 8.22.729 11.42 2.154l.82-1.828C1404.42 9.764 1400.34 9 1395.7 9v2zm11.42 2.154c3.21 1.423 5.64 3.45 7.34 6.071l1.68-1.09c-1.94-2.978-4.68-5.245-8.2-6.809l-.82 1.828zm7.34 6.071c1.71 2.62 2.57 5.691 2.57 9.255h2c0-3.903-.95-7.364-2.89-10.345l-1.68 1.09zm2.57 9.255c0 3.344-.76 6.216-2.23 8.651l1.71 1.038c1.69-2.791 2.52-6.033 2.52-9.689h-2zm-2.23 8.651c-1.49 2.44-3.63 4.396-6.47 5.86l.92 1.778c3.13-1.616 5.56-3.814 7.26-6.6l-1.71-1.038zm-6.84 7.312l10.29 15.12 1.66-1.126-10.29-15.12-1.66 1.126zM1419.08 58h-17.64v2h17.64v-2zm-16.81.44l-8.33-12.32-1.66 1.12 8.33 12.32 1.66-1.12zm.1-29.96c0-2.038-.64-3.741-2.02-4.953l-1.32 1.506c.86.748 1.34 1.845 1.34 3.447h2zm-2-4.937c-1.38-1.26-3.35-1.803-5.72-1.803v2c2.11 0 3.5.485 4.37 1.277l1.35-1.474zm-5.72-1.803h-6.02v2h6.02v-2zm-7.02 1v11.48h2V22.74h-2zm1 12.48h6.02v-2h-6.02v2zm6.02 0c2.36 0 4.32-.514 5.7-1.717l-1.32-1.506c-.86.757-2.26 1.223-4.38 1.223v2zm5.72-1.733c1.36-1.253 2-2.967 2-5.007h-2c0 1.6-.48 2.733-1.35 3.533l1.35 1.474zm68.14 13.053h1v-1h-1v1zm0 12.46v1h1v-1h-1zm-40.74 0h-1v1h1v-1zm0-49V9h-1v1h1zm39.83 0h1V9h-1v1zm0 12.46v1h1v-1h-1zm-23.59 0v-1h-1v1h1zm0 5.74h-1v1h1v-1zm20.72 0h1v-1h-1v1zm0 11.9v1h1v-1h-1zm-20.72 0v-1h-1v1h1zm0 6.44h-1v1h1v-1zm23.5 0V59h2V46.54h-2zm1 11.46h-40.74v2h40.74v-2zm-39.74 1V10h-2v49h2zm-1-48h39.83V9h-39.83v2zm38.83-1v12.46h2V10h-2zm1 11.46h-23.59v2h23.59v-2zm-24.59 1v5.74h2v-5.74h-2zm1 6.74h20.72v-2h-20.72v2zm19.72-1v11.9h2V28.2h-2zm1 10.9h-20.72v2h20.72v-2zm-21.72 1v6.44h2V40.1h-2zm1 7.44h24.5v-2h-24.5v2zm67.75 2.92l.93-.36-.24-.64h-.69v1zm-18.62 0v-1h-.69l-.24.64.93.36zm-3.29 8.54v1h.69l.24-.64-.93-.36zm-16.8 0l-.92-.4-.61 1.4h1.53v-1zm21.42-49V9h-.66l-.26.6.92.4zm16.24 0l.92-.4-.27-.6h-.65v1zm21.42 49v1h1.53l-.61-1.4-.92.4zm-17.08 0l-.93.36.24.64h.69v-1zm-7.84-20.44v1h1.46l-.53-1.36-.93.36zm-4.76-12.32l.93-.36-.93-2.415-.93 2.415.93.36zm-4.76 12.32l-.93-.36-.53 1.36h1.46v-1zm14.07 10.9h-18.62v2h18.62v-2zm-19.55.64l-3.29 8.54 1.86.72 3.29-8.54-1.86-.72zm-2.36 7.9h-16.8v2h16.8v-2zm-15.88 1.4l21.42-49-1.84-.8-21.42 49 1.84.8zm20.5-48.4h16.24V9h-16.24v2zm15.32-.6l21.42 49 1.84-.8-21.42-49-1.84.8zm22.34 47.6h-17.08v2h17.08v-2zm-16.15.64l-3.29-8.54-1.86.72 3.29 8.54 1.86-.72zm-7.84-20.44l-4.76-12.32-1.86.72 4.76 12.32 1.86-.72zm-6.62-12.32l-4.76 12.32 1.86.72 4.76-12.32-1.86-.72zm-3.83 13.68h9.52v-2h-9.52v2zM1538.27 10V9h-1v1h1zm38.57 3.01l-.44.9.01.006.43-.906zm9.73 8.47l-.85.527v.008l.85-.535zm0 26.04l-.85-.535v.008l.85.527zm-9.73 8.54l.42.904.01-.002-.43-.902zM1538.27 59h-1v1h1v-1zm31.92-15.89l.69.723-.69-.723zm0-17.15l-.7.715v.008l.01.008.69-.731zm-15.4-3.08v-1h-1v1h1zm0 23.24h-1v1h1v-1zM1538.27 11h24.15V9h-24.15v2zm24.15 0c5.33 0 9.99.98 13.98 2.91l.87-1.8C1572.96 10.026 1568 9 1562.42 9v2zm13.99 2.916c4.04 1.884 7.13 4.581 9.31 8.091l1.7-1.054c-2.4-3.863-5.8-6.813-10.16-8.85l-.85 1.813zm9.31 8.099c2.22 3.504 3.35 7.653 3.35 12.485h2c0-5.155-1.21-9.686-3.66-13.555l-1.69 1.07zm3.35 12.485c0 4.832-1.13 8.98-3.35 12.485l1.69 1.07c2.45-3.869 3.66-8.4 3.66-13.555h-2zm-3.35 12.493c-2.18 3.512-5.28 6.234-9.32 8.165l.87 1.804c4.36-2.083 7.75-5.054 10.15-8.915l-1.7-1.054zm-9.31 8.163c-4 1.886-8.65 2.844-13.99 2.844v2c5.58 0 10.53-1.002 14.84-3.036l-.85-1.808zM1562.42 58h-24.15v2h24.15v-2zm-23.15 1V10h-2v49h2zm22.45-11.88c3.74 0 6.83-1.065 9.16-3.287l-1.39-1.446c-1.87 1.791-4.43 2.733-7.77 2.733v2zm9.16-3.287c2.39-2.286 3.53-5.444 3.53-9.333h-2c0 3.484-1.01 6.066-2.92 7.887l1.39 1.446zm3.53-9.333c0-3.888-1.14-7.029-3.54-9.27l-1.37 1.46c1.9 1.772 2.91 4.325 2.91 7.81h2zm-3.53-9.255c-2.32-2.273-5.41-3.365-9.16-3.365v2c3.34 0 5.89.961 7.77 2.795l1.39-1.43zm-9.16-3.365h-6.93v2h6.93v-2zm-7.93 1v23.24h2V22.88h-2zm1 24.24h6.93v-2h-6.93v2zm85.55-.58h1v-1h-1v1zm0 12.46v1h1v-1h-1zm-40.74 0h-1v1h1v-1zm0-49V9h-1v1h1zm39.83 0h1V9h-1v1zm0 12.46v1h1v-1h-1zm-23.59 0v-1h-1v1h1zm0 5.74h-1v1h1v-1zm20.72 0h1v-1h-1v1zm0 11.9v1h1v-1h-1zm-20.72 0v-1h-1v1h1zm0 6.44h-1v1h1v-1zm23.5 0V59h2V46.54h-2zm1 11.46h-40.74v2h40.74v-2zm-39.74 1V10h-2v49h2zm-1-48h39.83V9h-39.83v2zm38.83-1v12.46h2V10h-2zm1 11.46h-23.59v2h23.59v-2zm-24.59 1v5.74h2v-5.74h-2zm1 6.74h20.72v-2h-20.72v2zm19.72-1v11.9h2V28.2h-2zm1 10.9h-20.72v2h20.72v-2zm-21.72 1v6.44h2V40.1h-2zm1 7.44h24.5v-2h-24.5v2zm55.36-.86l.83-.56-.3-.44h-.53v1zm-4.48 0v-1h-1v1h1zm0 12.32v1h1v-1h-1zm-16.52 0h-1v1h1v-1zm0-49V9h-1v1h1zm35.42 2.24l-.41.914.41-.914zm7.77 6.44l-.84.545.84-.545zm.35 18.97l-.86-.519.86.519zm-6.86 6.23l-.46-.889-1.01.518.64.934.83-.563zM1697.17 59v1h1.89l-1.07-1.563-.82.563zm-17.64 0l-.83.56.3.44h.53v-1zm-1.75-34.72l-.68.737.01.008.01.008.66-.753zm-11.06-1.54v-1h-1v1h1zm0 11.48h-1v1h1v-1zm11.06-1.47l.66.753v-.008l.01-.008-.67-.737zm-6.58 12.93h-4.48v2h4.48v-2zm-5.48 1V59h2V46.68h-2zm1 11.32h-16.52v2h16.52v-2zm-15.52 1V10h-2v49h2zm-1-48h23.59V9h-23.59v2zm23.59 0c4.42 0 8.21.729 11.42 2.154l.81-1.828c-3.51-1.562-7.6-2.326-12.23-2.326v2zm11.42 2.154c3.2 1.423 5.63 3.45 7.34 6.071l1.68-1.09c-1.94-2.978-4.69-5.245-8.21-6.809l-.81 1.828zm7.34 6.071c1.7 2.62 2.57 5.691 2.57 9.255h2c0-3.903-.96-7.364-2.89-10.345l-1.68 1.09zm2.57 9.255c0 3.344-.76 6.216-2.24 8.651l1.71 1.038c1.7-2.791 2.53-6.033 2.53-9.689h-2zm-2.24 8.651c-1.48 2.44-3.62 4.396-6.46 5.86l.92 1.778c3.13-1.616 5.56-3.814 7.25-6.6l-1.71-1.038zm-6.83 7.312l10.29 15.12 1.65-1.126-10.29-15.12-1.65 1.126zM1697.17 58h-17.64v2h17.64v-2zm-16.81.44l-8.33-12.32-1.66 1.12 8.33 12.32 1.66-1.12zm.1-29.96c0-2.038-.64-3.741-2.02-4.953l-1.32 1.506c.85.748 1.34 1.845 1.34 3.447h2zm-2.01-4.937c-1.37-1.26-3.34-1.803-5.71-1.803v2c2.1 0 3.5.485 4.36 1.277l1.35-1.474zm-5.71-1.803h-6.02v2h6.02v-2zm-7.02 1v11.48h2V22.74h-2zm1 12.48h6.02v-2h-6.02v2zm6.02 0c2.36 0 4.32-.514 5.7-1.717l-1.32-1.506c-.87.757-2.27 1.223-4.38 1.223v2zm5.71-1.733c1.37-1.253 2.01-2.967 2.01-5.007h-2c0 1.6-.49 2.733-1.36 3.533l1.35 1.474zM-58.214 85.06v-1h-.709l-.234.67.943.33zm14 0l.944.33.466-1.33h-1.41v1zm-23.1 65.94v1h.71l.234-.669-.944-.331zm-14 0l-.943-.331-.467 1.331h1.41v-1zm23.1-64.94h14v-2h-14v2zm13.057-1.33l-23.1 65.939 1.887.662 23.1-65.94-1.887-.662zM-67.314 150h-14v2h14v-2zm-13.056 1.331l23.1-65.94-1.887-.662-23.1 65.94 1.887.662zm75.303-43.521h1v-1h-1v1zm-14.35 0h-1v1h1v-1zm0-12.81v-1h-1v1h1zm45.22 0h1v-1h-1v1zm0 12.81v1h1v-1h-1zm-14.35 0v-1h-1v1h1zm0 36.19v1h1v-1h-1zm-16.52 0h-1v1h1v-1zm0-37.19h-14.35v2h14.35v-2zm-13.35 1V95h-2v12.81h2zm-1-11.81h45.22v-2h-45.22v2zm44.22-1v12.81h2V95h-2zm1 11.81h-14.35v2h14.35v-2zm-15.35 1V144h2v-36.19h-2zm1 35.19h-16.52v2h16.52v-2zm-15.52 1v-36.19h-2V144h2zm58.66-12.32l.829-.56-.297-.44h-.532v1zm-4.48 0v-1h-1v1h1zm0 12.32v1h1v-1h-1zm-16.52 0h-1v1h1v-1zm0-49v-1h-1v1h1zm35.42 2.24l-.406.914.406-.914zm7.77 6.44l-.838.545.839-.545zm.35 18.97l-.854-.519.855.519zm-6.86 6.23l-.458-.889-1.004.518.636.934.826-.563zM80.564 144v1h1.89l-1.063-1.563-.826.563zm-17.64 0l-.828.56.297.44h.531v-1zm-1.75-34.72l-.675.737.008.008.009.008.658-.753zm-11.06-1.54v-1h-1v1h1zm0 11.48h-1v1h1v-1zm11.06-1.47l.659.753.009-.008.008-.008-.675-.737zm-6.58 12.93h-4.48v2h4.48v-2zm-5.48 1V144h2v-12.32h-2zm1 11.32h-16.52v2h16.52v-2zm-15.52 1V95h-2v49h2zm-1-48h23.59v-2h-23.59v2zm23.59 0c4.419 0 8.218.729 11.424 2.154l.813-1.828C65.906 94.765 61.819 94 57.184 94v2zm11.424 2.154c3.202 1.423 5.634 3.449 7.338 6.071l1.677-1.09c-1.936-2.978-4.684-5.245-8.202-6.809l-.813 1.828zm7.338 6.071c1.703 2.619 2.569 5.692 2.569 9.255h2c0-3.903-.954-7.364-2.892-10.345l-1.677 1.09zm2.569 9.255c0 3.344-.757 6.216-2.235 8.651l1.71 1.038c1.694-2.791 2.524-6.033 2.524-9.689h-2zm-2.235 8.651c-1.482 2.441-3.624 4.396-6.464 5.86l.917 1.778c3.133-1.616 5.565-3.814 7.256-6.6l-1.71-1.038zm-6.832 7.312l10.29 15.12 1.653-1.126-10.29-15.12-1.653 1.126zM80.564 143h-17.64v2h17.64v-2zm-16.812.44l-8.33-12.32-1.657 1.12 8.33 12.32 1.657-1.12zm.101-29.96c0-2.038-.636-3.741-2.021-4.953l-1.317 1.506c.855.748 1.338 1.845 1.338 3.447h2zm-2.004-4.937c-1.375-1.261-3.342-1.803-5.715-1.803v2c2.106 0 3.5.485 4.364 1.277l1.351-1.474zm-5.715-1.803h-6.02v2h6.02v-2zm-7.02 1v11.48h2v-11.48h-2zm1 12.48h6.02v-2h-6.02v2zm6.02 0c2.363 0 4.323-.514 5.698-1.717l-1.317-1.506c-.865.757-2.265 1.223-4.382 1.223v2zm5.715-1.733c1.367-1.253 2.005-2.967 2.005-5.007h-2c0 1.6-.483 2.733-1.356 3.533l1.351 1.474zm60.793 16.973l.933-.36-.247-.64h-.686v1zm-18.62 0v-1h-.687l-.246.64.933.36zm-3.29 8.54v1h.686l.247-.641-.933-.359zm-16.8 0l-.917-.401-.612 1.401h1.529v-1zm21.42-49v-1h-.655l-.262.6.917.4zm16.24 0l.916-.4-.262-.6h-.654v1zm21.42 49v1h1.528l-.612-1.401-.916.401zm-17.08 0l-.933.359.246.641h.687v-1zm-7.84-20.44v1h1.458l-.525-1.36-.933.36zm-4.76-12.32l.933-.36-.933-2.415-.933 2.415.933.36zm-4.76 12.32l-.933-.36-.526 1.36h1.459v-1zm14.07 10.9h-18.62v2h18.62v-2zm-19.553.64l-3.29 8.541 1.866.718 3.29-8.54-1.866-.719zm-2.357 7.9h-16.8v2h16.8v-2zm-15.884 1.401l21.42-49-1.833-.801-21.42 48.999 1.833.802zM105.352 96h16.24v-2h-16.24v2zm15.323-.6l21.42 49.001 1.833-.802-21.42-49-1.833.801zm22.337 47.6h-17.08v2h17.08v-2zm-16.147.641l-3.29-8.541-1.866.719 3.29 8.54 1.866-.718zm-7.84-20.441l-4.76-12.32-1.866.72 4.76 12.32 1.866-.72zm-6.626-12.32l-4.76 12.32 1.866.72 4.76-12.32-1.866-.72zm-3.827 13.68h9.52v-2h-9.52v2zM197.448 95h1v-1h-1v1zm0 49v1h1v-1h-1zm-13.58 0l-.767.642.3.358h.467v-1zm-18.62-22.26l.767-.642-1.767-2.112v2.754h1zm0 22.26v1h1v-1h-1zm-16.1 0h-1v1h1v-1zm0-49v-1h-1v1h1zm13.58 0l.767-.642-.3-.358h-.467v1zm18.62 22.26l-.767.642 1.767 2.112v-2.754h-1zm0-22.26v-1h-1v1h1zm15.1 0v49h2V95h-2zm1 48h-13.58v2h13.58v-2zm-12.813.358l-18.62-22.26-1.534 1.284 18.62 22.26 1.534-1.284zm-20.387-21.618V144h2v-22.26h-2zm1 21.26h-16.1v2h16.1v-2zm-15.1 1V95h-2v49h2zm-1-48h13.58v-2h-13.58v2zm12.813-.358l18.62 22.26 1.534-1.284-18.62-22.26-1.534 1.284zm20.387 21.618V95h-2v22.26h2zm-1-21.26h16.1v-2h-16.1v2zm33.93 47.79l-.237.972.007.001.007.002.223-.975zm-9.45-3.71l-.915-.404-.351.794.737.459.529-.849zm5.32-12.04l.502-.865-.966-.56-.451 1.021.915.404zm7.84 3.29l-.279.96.007.002.008.002.264-.964zm13.23.56l.394.919.018-.008.018-.008-.43-.903zm-.49-4.34l-.377.926.011.005.366-.931zm-6.3-1.68l-.205.979h.003l.202-.979zm-9.45-2.52l-.347.938.007.003.008.002.332-.943zm-6.58-4.48l-.747.664.007.009.74-.673zm-.21-16.87l.825.565-.825-.565zm7.7-5.95l-.386-.922-.005.001.391.921zm22.4-1.05l-.226.974.008.002.008.002.21-.978zm8.61 3.15l.924.383.339-.817-.77-.436-.493.87zm-4.97 11.97l-.451.893.962.485.413-.995-.924-.383zm-18.13 1.68l-.377.926.015.006.015.006.347-.938zm6.23 1.54l-.19.982.006.001.184-.983zm9.45 2.45l-.342.94.008.003.007.002.327-.945zm6.65 4.41l-.74.673.008.009.732-.682zm.28 16.8l.82.572.005-.007-.825-.565zm-7.77 5.95l.391.92.006-.002-.397-.918zm-12.46 1.17c-3.987 0-7.878-.435-11.677-1.305l-.446 1.95a54.146 54.146 0 0012.123 1.355v-2zm-11.663-1.302c-3.757-.916-6.801-2.119-9.158-3.587l-1.058 1.698c2.589 1.612 5.846 2.882 9.742 3.833l.474-1.944zm-8.772-2.334l5.32-12.04-1.83-.808-5.32 12.04 1.83.808zm3.903-11.579c2.411 1.398 5.101 2.525 8.063 3.385l.558-1.92c-2.825-.82-5.362-1.887-7.617-3.195l-1.004 1.73zm8.078 3.389c2.968.814 5.834 1.226 8.594 1.226v-2c-2.56 0-5.248-.382-8.066-1.154l-.528 1.928zm8.594 1.226c2.302 0 4.113-.205 5.294-.711l-.788-1.838c-.779.334-2.235.549-4.506.549v2zm5.33-.727c.597-.285 1.114-.665 1.482-1.174.377-.52.558-1.119.558-1.759h-2a.954.954 0 01-.177.586c-.122.168-.34.359-.723.541l.86 1.806zm2.04-2.933c0-.746-.245-1.425-.728-1.994-.467-.551-1.116-.952-1.866-1.247l-.732 1.862c.557.218.887.459 1.073.678.171.202.253.42.253.701h2zm-2.583-3.236c-1.351-.551-3.529-1.125-6.475-1.733l-.404 1.958c2.934.606 4.956 1.151 6.125 1.627l.754-1.852zm-6.472-1.733c-3.754-.788-6.858-1.617-9.323-2.484l-.664 1.886c2.575.906 5.771 1.757 9.577 2.556l.41-1.958zm-9.308-2.479c-2.364-.876-4.425-2.276-6.187-4.215l-1.48 1.346c1.971 2.168 4.297 3.754 6.973 4.745l.694-1.876zm-6.18-4.206c-1.664-1.873-2.547-4.438-2.547-7.806h-2c0 3.725.984 6.807 3.053 9.134l1.494-1.328zm-2.547-7.806c0-2.88.803-5.483 2.415-7.835l-1.65-1.13c-1.842 2.688-2.765 5.685-2.765 8.965h2zm2.415-7.835c1.598-2.332 3.997-4.207 7.266-5.595l-.782-1.84c-3.545 1.505-6.279 3.597-8.134 6.305l1.65 1.13zm7.261-5.593c3.3-1.382 7.338-2.092 12.144-2.092v-2c-4.994 0-9.309.737-12.916 2.248l.772 1.844zm12.144-2.092c3.285 0 6.499.365 9.644 1.094l.452-1.948a44.55 44.55 0 00-10.096-1.146v2zm9.66 1.098c3.185.682 5.956 1.7 8.327 3.042l.986-1.74c-2.576-1.458-5.545-2.54-8.894-3.258l-.419 1.956zm7.896 1.788l-4.97 11.971 1.848.766 4.97-11.97-1.848-.767zm-3.595 11.461c-4.912-2.479-9.616-3.747-14.101-3.747v2c4.102 0 8.498 1.159 13.199 3.533l.902-1.786zm-14.101-3.747c-2.172 0-3.946.257-5.213.87-.647.312-1.196.735-1.582 1.295-.392.568-.575 1.22-.575 1.915h2c0-.331.082-.578.221-.78.145-.21.392-.429.807-.63.857-.414 2.267-.67 4.342-.67v-2zm-7.37 4.08c0 .725.24 1.386.708 1.94.452.536 1.08.931 1.805 1.226l.754-1.852c-.535-.218-.852-.453-1.03-.664a.946.946 0 01-.237-.65h-2zm2.543 3.178c1.342.497 3.488 1.023 6.387 1.584l.38-1.964c-2.887-.559-4.895-1.06-6.073-1.496l-.694 1.876zm6.393 1.585c3.698.693 6.792 1.498 9.292 2.407l.684-1.88c-2.634-.957-5.84-1.786-9.608-2.493l-.368 1.966zm9.307 2.412c2.405.831 4.481 2.206 6.237 4.138l1.48-1.346c-1.977-2.174-4.335-3.74-7.063-4.682l-.654 1.89zm6.245 4.147c1.699 1.823 2.602 4.355 2.602 7.718h2c0-3.73-1.01-6.798-3.138-9.082l-1.464 1.364zm2.602 7.718c0 2.88-.803 5.483-2.415 7.835l1.65 1.13c1.842-2.688 2.765-5.685 2.765-8.965h-2zm-2.41 7.828c-1.597 2.287-4.022 4.166-7.347 5.604l.794 1.836c3.582-1.549 6.337-3.637 8.193-6.296l-1.64-1.144zm-7.341 5.602c-3.25 1.38-7.262 2.09-12.069 2.09v2c4.993 0 9.288-.736 12.851-2.25l-.782-1.84zM258.414 95v-1h-1v1h1zm16.52 0h1v-1h-1v1zm0 36.19h-1v1h1v-1zm22.12 0h1v-1h-1v1zm0 12.81v1h1v-1h-1zm-38.64 0h-1v1h1v-1zm0-48h16.52v-2h-16.52v2zm15.52-1v36.19h2V95h-2zm1 37.19h22.12v-2h-22.12v2zm21.12-1V144h2v-12.81h-2zm1 11.81h-38.64v2h38.64v-2zm-37.64 1V95h-2v49h2zm79.777-8.54l.933-.36-.247-.64h-.686v1zm-18.62 0v-1h-.687l-.247.64.934.36zm-3.29 8.54v1h.686l.247-.641-.933-.359zm-16.8 0l-.917-.401-.612 1.401h1.529v-1zm21.42-49v-1h-.655l-.262.6.917.4zm16.24 0l.916-.4-.262-.6h-.654v1zm21.42 49v1h1.528l-.612-1.401-.916.401zm-17.08 0l-.934.359.247.641h.687v-1zm-7.84-20.44v1h1.458l-.526-1.36-.932.36zm-4.76-12.32l.932-.36-.932-2.415-.933 2.415.933.36zm-4.76 12.32l-.933-.36-.526 1.36h1.459v-1zm14.07 10.9h-18.62v2h18.62v-2zm-19.554.64l-3.29 8.541 1.867.718 3.29-8.54-1.867-.719zm-2.356 7.9h-16.8v2h16.8v-2zm-15.884 1.401l21.42-49-1.833-.801-21.42 48.999 1.833.802zM321.901 96h16.24v-2h-16.24v2zm15.323-.6l21.42 49.001 1.833-.802-21.42-49-1.833.801zm22.337 47.6h-17.08v2h17.08v-2zm-16.147.641l-3.29-8.541-1.867.719 3.29 8.54 1.867-.718zm-7.841-20.441l-4.76-12.32-1.865.72 4.76 12.32 1.865-.72zm-6.625-12.32l-4.76 12.32 1.865.72 4.76-12.32-1.865-.72zm-3.827 13.68h9.52v-2h-9.52v2zm48.755-16.75h1v-1h-1v1zm-14.35 0h-1v1h1v-1zm0-12.81v-1h-1v1h1zm45.22 0h1v-1h-1v1zm0 12.81v1h1v-1h-1zm-14.35 0v-1h-1v1h1zm0 36.19v1h1v-1h-1zm-16.52 0h-1v1h1v-1zm0-37.19h-14.35v2h14.35v-2zm-13.35 1V95h-2v12.81h2zm-1-11.81h45.22v-2h-45.22v2zm44.22-1v12.81h2V95h-2zm1 11.81h-14.35v2h14.35v-2zm-15.35 1V144h2v-36.19h-2zm1 35.19h-16.52v2h16.52v-2zm-15.52 1v-36.19h-2V144h2zm48.457-2.17l.463-.886-.463.886zm-9.87-9.1l-.855.519.003.005.852-.524zm0-26.39l.852.524.003-.005-.855-.519zm38.29-9.17l.463-.886-.463.886zm9.87 9.17l-.855.519.003.005.852-.524zm0 26.39l.852.524.003-.005-.855-.519zm-9.87 9.1l.463.886-.463-.886zm-8.68-11.55l.515.858.007-.005-.522-.853zm3.99-4.27l.881.474.005-.009-.886-.465zm0-12.95l-.885.465.005.009.88-.474zm-3.99-4.27l-.532.847.014.008.014.009.504-.864zm-11.13 0l.515.858.007-.005-.522-.853zm-3.92 4.27l.881.474.005-.009-.886-.465zm0 12.95l-.885.465.005.009.88-.474zm3.92 4.27l-.532.847.014.008.014.009.504-.864zm5.6 13.84c-5.13 0-9.705-1.066-13.747-3.176l-.926 1.772c4.359 2.276 9.257 3.404 14.673 3.404v-2zm-13.747-3.176c-4.047-2.114-7.199-5.025-9.481-8.738l-1.704 1.048c2.479 4.033 5.906 7.189 10.259 9.462l.926-1.772zm-9.478-8.733c-2.278-3.753-3.425-7.981-3.425-12.711h-2c0 5.07 1.234 9.662 3.716 13.749l1.709-1.038zm-3.425-12.711c0-4.73 1.147-8.933 3.422-12.636l-1.704-1.048c-2.484 4.044-3.718 8.614-3.718 13.684h2zm3.425-12.641c2.282-3.759 5.434-6.691 9.478-8.803l-.926-1.772c-4.356 2.274-7.784 5.456-10.261 9.537l1.709 1.038zm9.478-8.803c4.042-2.11 8.617-3.176 13.747-3.176v-2c-5.416 0-10.314 1.127-14.673 3.404l.926 1.772zm13.747-3.176c5.131 0 9.706 1.066 13.747 3.176l.926-1.772c-4.358-2.277-9.257-3.404-14.673-3.404v2zm13.747 3.176c4.044 2.112 7.196 5.044 9.478 8.803l1.71-1.038c-2.478-4.081-5.906-7.263-10.262-9.537l-.926 1.772zm9.481 8.808c2.276 3.703 3.422 7.906 3.422 12.636h2c0-5.07-1.233-9.64-3.718-13.684l-1.704 1.048zm3.422 12.636c0 4.73-1.146 8.958-3.425 12.711l1.71 1.038c2.482-4.087 3.715-8.679 3.715-13.749h-2zm-3.422 12.706c-2.281 3.713-5.434 6.624-9.481 8.738l.926 1.772c4.353-2.273 7.781-5.429 10.259-9.462l-1.704-1.048zm-9.481 8.738c-4.041 2.11-8.616 3.176-13.747 3.176v2c5.416 0 10.315-1.128 14.673-3.404l-.926-1.772zm-13.747-8.194c2.22 0 4.244-.532 6.045-1.613l-1.029-1.714c-1.466.879-3.129 1.327-5.016 1.327v2zm6.052-1.617c1.839-1.123 3.289-2.681 4.349-4.649l-1.761-.948c-.901 1.672-2.11 2.961-3.631 3.891l1.043 1.706zm4.354-4.658c1.067-2.033 1.584-4.368 1.584-6.975h-2c0 2.339-.462 4.345-1.355 6.045l1.771.93zm1.584-6.975c0-2.606-.517-4.922-1.589-6.914l-1.761.948c.887 1.648 1.35 3.626 1.35 5.966h2zm-1.584-6.905c-1.06-2.018-2.516-3.586-4.372-4.669l-1.008 1.728c1.505.877 2.709 2.156 3.609 3.871l1.771-.93zm-4.344-4.652c-1.803-1.133-3.833-1.693-6.062-1.693v2c1.878 0 3.535.467 4.998 1.387l1.064-1.694zm-6.062-1.693c-2.229 0-4.277.56-6.121 1.687l1.043 1.706c1.516-.926 3.201-1.393 5.078-1.393v-2zm-6.114 1.682c-1.807 1.085-3.235 2.652-4.291 4.663l1.771.93c.904-1.722 2.089-3.002 3.549-3.878l-1.029-1.715zm-4.286 4.654c-1.073 1.992-1.59 4.308-1.59 6.914h2c0-2.34.463-4.318 1.351-5.966l-1.761-.948zm-1.59 6.914c0 2.607.518 4.942 1.585 6.975l1.771-.93c-.893-1.7-1.356-3.706-1.356-6.045h-2zm1.59 6.984c1.056 1.961 2.478 3.517 4.268 4.643l1.064-1.694c-1.476-.928-2.667-2.218-3.571-3.897l-1.761.948zm4.296 4.66c1.842 1.074 3.884 1.606 6.104 1.606v-2c-1.886 0-3.577-.448-5.096-1.334l-1.008 1.728zm64.25.536l.829-.56-.298-.44h-.531v1zm-4.48 0v-1h-1v1h1zm0 12.32v1h1v-1h-1zm-16.52 0h-1v1h1v-1zm0-49v-1h-1v1h1zm35.42 2.24l-.406.914.406-.914zm7.77 6.44l-.838.545.838-.545zm.35 18.97l-.855-.519.855.519zm-6.86 6.23l-.458-.889-1.004.518.635.934.827-.563zm10.29 15.12v1h1.89l-1.063-1.563-.827.563zm-17.64 0l-.828.56.297.44h.531v-1zm-1.75-34.72l-.675.737.008.008.009.008.658-.753zm-11.06-1.54v-1h-1v1h1zm0 11.48h-1v1h1v-1zm11.06-1.47l.659.753.008-.008.009-.008-.676-.737zm-6.58 12.93h-4.48v2h4.48v-2zm-5.48 1V144h2v-12.32h-2zm1 11.32h-16.52v2h16.52v-2zm-15.52 1V95h-2v49h2zm-1-48h23.59v-2h-23.59v2zm23.59 0c4.418 0 8.218.729 11.424 2.154l.812-1.828C507.002 94.765 502.914 94 498.279 94v2zm11.424 2.154c3.202 1.423 5.634 3.449 7.338 6.071l1.677-1.09c-1.936-2.978-4.684-5.245-8.203-6.809l-.812 1.828zm7.338 6.071c1.702 2.619 2.568 5.692 2.568 9.255h2c0-3.903-.954-7.364-2.891-10.345l-1.677 1.09zm2.568 9.255c0 3.344-.756 6.216-2.235 8.651l1.71 1.038c1.695-2.791 2.525-6.033 2.525-9.689h-2zm-2.235 8.651c-1.481 2.441-3.623 4.396-6.463 5.86l.917 1.778c3.133-1.616 5.564-3.814 7.256-6.6l-1.71-1.038zm-6.832 7.312l10.291 15.12 1.653-1.126-10.29-15.12-1.654 1.126zM521.659 143h-17.64v2h17.64v-2zm-16.811.44l-8.33-12.32-1.657 1.12 8.33 12.32 1.657-1.12zm.101-29.96c0-2.038-.637-3.741-2.021-4.953l-1.317 1.506c.855.748 1.338 1.845 1.338 3.447h2zm-2.004-4.937c-1.375-1.261-3.342-1.803-5.716-1.803v2c2.107 0 3.5.485 4.365 1.277l1.351-1.474zm-5.716-1.803h-6.02v2h6.02v-2zm-7.02 1v11.48h2v-11.48h-2zm1 12.48h6.02v-2h-6.02v2zm6.02 0c2.364 0 4.324-.514 5.699-1.717l-1.317-1.506c-.865.757-2.266 1.223-4.382 1.223v2zm5.716-1.733c1.367-1.253 2.004-2.967 2.004-5.007h-2c0 1.6-.483 2.733-1.355 3.533l1.351 1.474zm68.199-33.427v-1h-.709l-.235.67.944.33zm14 0l.944.33.466-1.33h-1.41v1zm-23.1 65.94v1h.709l.234-.669-.943-.331zm-14 0l-.944-.331-.466 1.331h1.41v-1zm23.1-64.94h14v-2h-14v2zm13.056-1.33l-23.1 65.939 1.887.662 23.101-65.94-1.888-.662zM562.044 150h-14v2h14v-2zm-13.057 1.331l23.101-65.94-1.888-.662-23.1 65.94 1.887.662zM657.4 144l-1 .006.006.994h.994v-1zm-.14-22.33l1-.006-.022-3.599-1.838 3.094.86.511zm-10.64 17.92v1h.569l.291-.489-.86-.511zm-7.28 0l-.85.527.294.473h.556v-1zm-10.64-17.15l.85-.527-1.85-2.982v3.509h1zm0 21.56v1h1v-1h-1zm-15.05 0h-1v1h1v-1zm0-49v-1h-1v1h1zm13.58 0l.853-.522-.292-.478h-.561v1zm15.96 26.11l-.853.522.865 1.414.847-1.425-.859-.511zM658.73 95v-1h-.568l-.291.489.859.511zm13.58 0l1-.003-.003-.997h-.997v1zm.14 49v1h1.003l-.003-1.003-1 .003zm-14.05-.006l-.14-22.33-2 .012.14 22.33 2-.012zm-2-22.835l-10.64 17.92 1.72 1.022 10.64-17.92-1.72-1.022zm-9.78 17.431h-7.28v2h7.28v-2zm-6.43.473l-10.64-17.15-1.7 1.054 10.64 17.15 1.7-1.054zM627.7 122.44V144h2v-21.56h-2zm1 20.56h-15.05v2h15.05v-2zm-14.05 1V95h-2v49h2zm-1-48h13.58v-2h-13.58v2zm12.727-.478l15.96 26.11 1.706-1.044-15.96-26.11-1.706 1.044zm17.672 26.099l15.54-26.11-1.718-1.022-15.54 26.11 1.718 1.022zM658.73 96h13.58v-2h-13.58v2zm12.58-.997l.14 49 2-.006-.14-49-2 .006zM672.45 143H657.4v2h15.05v-2zm52.227-11.46h1v-1h-1v1zm0 12.46v1h1v-1h-1zm-40.74 0h-1v1h1v-1zm0-49v-1h-1v1h1zm39.83 0h1v-1h-1v1zm0 12.46v1h1v-1h-1zm-23.59 0v-1h-1v1h1zm0 5.74h-1v1h1v-1zm20.72 0h1v-1h-1v1zm0 11.9v1h1v-1h-1zm-20.72 0v-1h-1v1h1zm0 6.44h-1v1h1v-1zm23.5 0V144h2v-12.46h-2zm1 11.46h-40.74v2h40.74v-2zm-39.74 1V95h-2v49h2zm-1-48h39.83v-2h-39.83v2zm38.83-1v12.46h2V95h-2zm1 11.46h-23.59v2h23.59v-2zm-24.59 1v5.74h2v-5.74h-2zm1 6.74h20.72v-2h-20.72v2zm19.72-1v11.9h2v-11.9h-2zm1 10.9h-20.72v2h20.72v-2zm-21.72 1v6.44h2v-6.44h-2zm1 7.44h24.5v-2h-24.5v2zM782.837 95h1v-1h-1v1zm0 49v1h1v-1h-1zm-13.58 0l-.767.642.3.358h.467v-1zm-18.62-22.26l.767-.642-1.767-2.112v2.754h1zm0 22.26v1h1v-1h-1zm-16.1 0h-1v1h1v-1zm0-49v-1h-1v1h1zm13.58 0l.767-.642-.3-.358h-.467v1zm18.62 22.26l-.767.642 1.767 2.112v-2.754h-1zm0-22.26v-1h-1v1h1zm15.1 0v49h2V95h-2zm1 48h-13.58v2h13.58v-2zm-12.813.358l-18.62-22.26-1.534 1.284 18.62 22.26 1.534-1.284zm-20.387-21.618V144h2v-22.26h-2zm1 21.26h-16.1v2h16.1v-2zm-15.1 1V95h-2v49h2zm-1-48h13.58v-2h-13.58v2zm12.813-.358l18.62 22.26 1.534-1.284-18.62-22.26-1.534 1.284zm20.387 21.618V95h-2v22.26h2zm-1-21.26h16.1v-2h-16.1v2zm38.2 11.81h1v-1h-1v1zm-14.35 0h-1v1h1v-1zm0-12.81v-1h-1v1h1zm45.22 0h1v-1h-1v1zm0 12.81v1h1v-1h-1zm-14.35 0v-1h-1v1h1zm0 36.19v1h1v-1h-1zm-16.52 0h-1v1h1v-1zm0-37.19h-14.35v2h14.35v-2zm-13.35 1V95h-2v12.81h2zm-1-11.81h45.22v-2h-45.22v2zm44.22-1v12.81h2V95h-2zm1 11.81h-14.35v2h14.35v-2zm-15.35 1V144h2v-36.19h-2zm1 35.19h-16.52v2h16.52v-2zm-15.52 1v-36.19h-2V144h2zm48.457-2.17l.463-.886-.463.886zm-9.87-9.1l-.855.519.003.005.852-.524zm0-26.39l.852.524.003-.005-.855-.519zm38.29-9.17l.463-.886-.463.886zm9.87 9.17l-.855.519.003.005.852-.524zm0 26.39l.852.524.003-.005-.855-.519zm-9.87 9.1l.463.886-.463-.886zm-8.68-11.55l.514.858.007-.005-.521-.853zm3.99-4.27l.88.474.005-.009-.885-.465zm0-12.95l-.886.465.005.009.881-.474zm-3.99-4.27l-.532.847.014.008.014.009.504-.864zm-11.13 0l.514.858.007-.005-.521-.853zm-3.92 4.27l.88.474.005-.009-.885-.465zm0 12.95l-.886.465.005.009.881-.474zm3.92 4.27l-.532.847.014.008.014.009.504-.864zm5.6 13.84c-5.131 0-9.706-1.066-13.747-3.176l-.926 1.772c4.358 2.276 9.257 3.404 14.673 3.404v-2zm-13.747-3.176c-4.047-2.114-7.2-5.025-9.481-8.738l-1.704 1.048c2.478 4.033 5.906 7.189 10.259 9.462l.926-1.772zm-9.478-8.733c-2.279-3.753-3.425-7.981-3.425-12.711h-2c0 5.07 1.234 9.662 3.715 13.749l1.71-1.038zm-3.425-12.711c0-4.73 1.146-8.933 3.422-12.636l-1.704-1.048c-2.484 4.044-3.718 8.614-3.718 13.684h2zm3.425-12.641c2.282-3.759 5.434-6.691 9.478-8.803l-.926-1.772c-4.356 2.274-7.784 5.456-10.262 9.537l1.71 1.038zm9.478-8.803c4.041-2.11 8.616-3.176 13.747-3.176v-2c-5.416 0-10.315 1.127-14.673 3.404l.926 1.772zm13.747-3.176c5.13 0 9.705 1.066 13.747 3.176l.926-1.772c-4.359-2.277-9.257-3.404-14.673-3.404v2zm13.747 3.176c4.044 2.112 7.196 5.044 9.478 8.803l1.71-1.038c-2.478-4.081-5.906-7.263-10.262-9.537l-.926 1.772zm9.481 8.808c2.276 3.703 3.422 7.906 3.422 12.636h2c0-5.07-1.234-9.64-3.718-13.684l-1.704 1.048zm3.422 12.636c0 4.73-1.146 8.958-3.425 12.711l1.71 1.038c2.481-4.087 3.715-8.679 3.715-13.749h-2zm-3.422 12.706c-2.282 3.713-5.434 6.624-9.481 8.738l.926 1.772c4.353-2.273 7.78-5.429 10.259-9.462l-1.704-1.048zm-9.481 8.738c-4.042 2.11-8.617 3.176-13.747 3.176v2c5.416 0 10.314-1.128 14.673-3.404l-.926-1.772zm-13.747-8.194c2.22 0 4.243-.532 6.044-1.613l-1.029-1.714c-1.465.879-3.128 1.327-5.015 1.327v2zm6.051-1.617c1.839-1.123 3.29-2.681 4.349-4.649l-1.761-.948c-.9 1.672-2.109 2.961-3.631 3.891l1.043 1.706zm4.354-4.658c1.068-2.033 1.585-4.368 1.585-6.975h-2c0 2.339-.463 4.345-1.356 6.045l1.771.93zm1.585-6.975c0-2.606-.517-4.922-1.59-6.914l-1.761.948c.888 1.648 1.351 3.626 1.351 5.966h2zm-1.585-6.905c-1.059-2.018-2.516-3.586-4.371-4.669l-1.008 1.728c1.504.877 2.708 2.156 3.608 3.871l1.771-.93zm-4.343-4.652c-1.803-1.133-3.833-1.693-6.062-1.693v2c1.878 0 3.534.467 4.998 1.387l1.064-1.694zm-6.062-1.693c-2.229 0-4.278.56-6.122 1.687l1.043 1.706c1.516-.926 3.201-1.393 5.079-1.393v-2zm-6.115 1.682c-1.807 1.085-3.235 2.652-4.291 4.663l1.771.93c.904-1.722 2.09-3.002 3.549-3.878l-1.029-1.715zm-4.286 4.654c-1.072 1.992-1.589 4.308-1.589 6.914h2c0-2.34.463-4.318 1.35-5.966l-1.761-.948zm-1.589 6.914c0 2.607.517 4.942 1.584 6.975l1.771-.93c-.892-1.7-1.355-3.706-1.355-6.045h-2zm1.589 6.984c1.056 1.961 2.479 3.517 4.269 4.643l1.064-1.694c-1.477-.928-2.668-2.218-3.572-3.897l-1.761.948zm4.297 4.66c1.841 1.074 3.884 1.606 6.104 1.606v-2c-1.887 0-3.578-.448-5.096-1.334l-1.008 1.728zm64.25.536l.828-.56-.297-.44h-.531v1zm-4.48 0v-1h-1v1h1zm0 12.32v1h1v-1h-1zm-16.52 0h-1v1h1v-1zm0-49v-1h-1v1h1zm35.42 2.24l-.406.914.406-.914zm7.77 6.44l-.839.545.839-.545zm.35 18.97l-.855-.519.855.519zm-6.86 6.23l-.459-.889-1.003.518.635.934.827-.563zM952.72 144v1h1.89l-1.063-1.563-.827.563zm-17.64 0l-.829.56.298.44h.531v-1zm-1.75-34.72l-.676.737.009.008.008.008.659-.753zm-11.06-1.54v-1h-1v1h1zm0 11.48h-1v1h1v-1zm11.06-1.47l.658.753.009-.008.008-.008-.675-.737zm-6.58 12.93h-4.48v2h4.48v-2zm-5.48 1V144h2v-12.32h-2zm1 11.32h-16.52v2h16.52v-2zm-15.52 1V95h-2v49h2zm-1-48h23.59v-2h-23.59v2zm23.59 0c4.418 0 8.217.729 11.424 2.154l.812-1.828C938.062 94.765 933.975 94 929.34 94v2zm11.424 2.154c3.201 1.423 5.633 3.449 7.337 6.071l1.677-1.09c-1.936-2.978-4.684-5.245-8.202-6.809l-.812 1.828zm7.337 6.071c1.703 2.619 2.569 5.692 2.569 9.255h2c0-3.903-.954-7.364-2.892-10.345l-1.677 1.09zm2.569 9.255c0 3.344-.756 6.216-2.235 8.651l1.71 1.038c1.694-2.791 2.525-6.033 2.525-9.689h-2zm-2.235 8.651c-1.482 2.441-3.624 4.396-6.464 5.86l.917 1.778c3.134-1.616 5.565-3.814 7.257-6.6l-1.71-1.038zm-6.832 7.312l10.29 15.12 1.654-1.126-10.291-15.12-1.653 1.126zM952.72 143h-17.64v2h17.64v-2zm-16.812.44l-8.33-12.32-1.657 1.12 8.33 12.32 1.657-1.12zm.102-29.96c0-2.038-.637-3.741-2.022-4.953l-1.317 1.506c.856.748 1.339 1.845 1.339 3.447h2zm-2.005-4.937c-1.375-1.261-3.342-1.803-5.715-1.803v2c2.106 0 3.499.485 4.364 1.277l1.351-1.474zm-5.715-1.803h-6.02v2h6.02v-2zm-7.02 1v11.48h2v-11.48h-2zm1 12.48h6.02v-2h-6.02v2zm6.02 0c2.364 0 4.323-.514 5.698-1.717l-1.317-1.506c-.865.757-2.265 1.223-4.381 1.223v2zm5.715-1.733c1.368-1.253 2.005-2.967 2.005-5.007h-2c0 1.6-.483 2.733-1.356 3.533l1.351 1.474zM1002.2 85.06v-1h-.71l-.23.67.94.33zm14 0l.95.33.46-1.33h-1.41v1zM993.104 151v1h.71l.234-.669-.944-.331zm-14 0l-.943-.331-.467 1.331h1.41v-1zm23.096-64.94h14v-2h-14v2zm13.06-1.33l-23.099 65.939 1.887.662 23.102-65.94-1.89-.662zM993.104 150h-14v2h14v-2zm-13.056 1.331l23.102-65.94-1.89-.662-23.099 65.94 1.887.662zm81.182-43.871v-1h-1v1h1zm0 8.4h-1v1h1v-1zm20.44 0h1v-1h-1v1zm0 12.46v1h1v-1h-1zm-20.44 0v-1h-1v1h1zm0 15.68v1h1v-1h-1zm-16.52 0h-1v1h1v-1zm0-49v-1h-1v1h1zm39.83 0h1v-1h-1v1zm0 12.46v1h1v-1h-1zm-24.31 0v8.4h2v-8.4h-2zm1 9.4h20.44v-2h-20.44v2zm19.44-1v12.46h2v-12.46h-2zm1 11.46h-20.44v2h20.44v-2zm-21.44 1V144h2v-15.68h-2zm1 14.68h-16.52v2h16.52v-2zm-15.52 1V95h-2v49h2zm-1-48h39.83v-2h-39.83v2zm38.83-1v12.46h2V95h-2zm1 11.46h-23.31v2h23.31v-2zm40.33 29l.94-.36-.25-.64h-.69v1zm-18.62 0v-1h-.68l-.25.64.93.36zm-3.29 8.54v1h.69l.25-.641-.94-.359zm-16.8 0l-.91-.401-.62 1.401h1.53v-1zm21.42-49v-1h-.65l-.26.6.91.4zm16.24 0l.92-.4-.26-.6h-.66v1zm21.42 49v1h1.53l-.61-1.401-.92.401zm-17.08 0l-.93.359.25.641h.68v-1zm-7.84-20.44v1h1.46l-.52-1.36-.94.36zm-4.76-12.32l.93-.36-.93-2.415-.93 2.415.93.36zm-4.76 12.32l-.93-.36-.53 1.36h1.46v-1zm14.07 10.9h-18.62v2h18.62v-2zm-19.55.64l-3.29 8.541 1.87.718 3.29-8.54-1.87-.719zm-2.36 7.9h-16.8v2h16.8v-2zm-15.88 1.401l21.42-49-1.83-.801-21.42 48.999 1.83.802zM1107.58 96h16.24v-2h-16.24v2zm15.33-.6l21.42 49.001 1.83-.802-21.42-49-1.83.801zm22.33 47.6h-17.08v2h17.08v-2zm-16.14.641l-3.29-8.541-1.87.719 3.29 8.54 1.87-.718zm-7.84-20.441l-4.77-12.32-1.86.72 4.76 12.32 1.87-.72zm-6.63-12.32l-4.76 12.32 1.86.72 4.76-12.32-1.86-.72zm-3.83 13.68h9.52v-2h-9.52v2zM1199.68 95h1v-1h-1v1zm0 49v1h1v-1h-1zm-13.58 0l-.77.642.3.358h.47v-1zm-18.62-22.26l.77-.642-1.77-2.112v2.754h1zm0 22.26v1h1v-1h-1zm-16.1 0h-1v1h1v-1zm0-49v-1h-1v1h1zm13.58 0l.77-.642-.3-.358h-.47v1zm18.62 22.26l-.77.642 1.77 2.112v-2.754h-1zm0-22.26v-1h-1v1h1zm15.1 0v49h2V95h-2zm1 48h-13.58v2h13.58v-2zm-12.81.358l-18.62-22.26-1.54 1.284 18.62 22.26 1.54-1.284zm-20.39-21.618V144h2v-22.26h-2zm1 21.26h-16.1v2h16.1v-2zm-15.1 1V95h-2v49h2zm-1-48h13.58v-2h-13.58v2zm12.81-.358l18.62 22.26 1.54-1.284-18.62-22.26-1.54 1.284zm20.39 21.618V95h-2v22.26h2zm-1-21.26h16.1v-2h-16.1v2zm68.35-10.94v-1h-.7l-.24.67.94.33zm14 0l.95.33.46-1.33h-1.41v1zm-23.1 65.94v1h.71l.24-.669-.95-.331zm-14 0l-.94-.331-.47 1.331h1.41v-1zm23.1-64.94h14v-2h-14v2zm13.06-1.33l-23.1 65.939 1.89.662 23.1-65.94-1.89-.662zM1242.83 150h-14v2h14v-2zm-13.05 1.331l23.1-65.94-1.89-.662-23.1 65.94 1.89.662zm71.03-7.541l-.24.972.01.001.01.002.22-.975zm-9.45-3.71l-.91-.404-.35.794.73.459.53-.849zm5.32-12.04l.5-.865-.96-.56-.45 1.021.91.404zm7.84 3.29l-.28.96.01.002.01.002.26-.964zm13.23.56l.4.919.01-.008.02-.008-.43-.903zm-.49-4.34l-.38.926.02.005.36-.931zm-6.3-1.68l-.2.979.2-.979zm-9.45-2.52l-.35.938.01.003.01.002.33-.943zm-6.58-4.48l-.75.664.01.009.74-.673zm-.21-16.87l.83.565-.83-.565zm7.7-5.95l-.39-.922v.001l.39.921zm22.4-1.05l-.22.974v.002l.01.002.21-.978zm8.61 3.15l.92.383.34-.817-.77-.436-.49.87zm-4.97 11.97l-.45.893.96.485.41-.995-.92-.383zm-18.13 1.68l-.38.926.02.006.01.006.35-.938zm6.23 1.54l-.19.982.01.001.18-.983zm9.45 2.45l-.34.94.01.003v.002l.33-.945zm6.65 4.41l-.74.673.01.009.73-.682zm.28 16.8l.82.572.01-.007-.83-.565zm-7.77 5.95l.39.92.01-.002-.4-.918zm-12.46 1.17c-3.99 0-7.88-.435-11.68-1.305l-.44 1.95c3.95.904 7.99 1.355 12.12 1.355v-2zm-11.66-1.302c-3.76-.916-6.8-2.119-9.16-3.587l-1.06 1.698c2.59 1.612 5.85 2.882 9.74 3.833l.48-1.944zm-8.77-2.334l5.32-12.04-1.83-.808-5.32 12.04 1.83.808zm3.9-11.579c2.41 1.398 5.1 2.525 8.06 3.385l.56-1.92c-2.82-.82-5.36-1.887-7.62-3.195l-1 1.73zm8.08 3.389c2.97.814 5.83 1.226 8.59 1.226v-2c-2.56 0-5.25-.382-8.06-1.154l-.53 1.928zm8.59 1.226c2.3 0 4.11-.205 5.3-.711l-.79-1.838c-.78.334-2.24.549-4.51.549v2zm5.33-.727c.6-.285 1.12-.665 1.48-1.174.38-.52.56-1.119.56-1.759h-2c0 .246-.06.429-.18.586-.12.168-.34.359-.72.541l.86 1.806zm2.04-2.933c0-.746-.24-1.425-.73-1.994-.46-.551-1.11-.952-1.86-1.247l-.73 1.862c.55.218.88.459 1.07.678.17.202.25.42.25.701h2zm-2.58-3.236c-1.35-.551-3.53-1.125-6.48-1.733l-.4 1.958c2.93.606 4.96 1.151 6.12 1.627l.76-1.852zm-6.47-1.733c-3.76-.788-6.86-1.617-9.33-2.484l-.66 1.886c2.57.906 5.77 1.757 9.58 2.556l.41-1.958zm-9.31-2.479c-2.37-.876-4.43-2.276-6.19-4.215l-1.48 1.346c1.97 2.168 4.3 3.754 6.97 4.745l.7-1.876zm-6.18-4.206c-1.67-1.873-2.55-4.438-2.55-7.806h-2c0 3.725.99 6.807 3.05 9.134l1.5-1.328zm-2.55-7.806c0-2.88.8-5.483 2.42-7.835l-1.65-1.13c-1.85 2.688-2.77 5.685-2.77 8.965h2zm2.42-7.835c1.59-2.332 3.99-4.207 7.26-5.595l-.78-1.84c-3.54 1.505-6.28 3.597-8.13 6.305l1.65 1.13zm7.26-5.593c3.3-1.382 7.33-2.092 12.14-2.092v-2c-4.99 0-9.31.737-12.92 2.248l.78 1.844zm12.14-2.092c3.29 0 6.5.365 9.65 1.094l.45-1.948a44.584 44.584 0 00-10.1-1.146v2zm9.66 1.098c3.19.682 5.96 1.7 8.33 3.042l.98-1.74c-2.57-1.458-5.54-2.54-8.89-3.258l-.42 1.956zm7.9 1.788l-4.97 11.971 1.84.766 4.97-11.97-1.84-.767zm-3.6 11.461c-4.91-2.479-9.61-3.747-14.1-3.747v2c4.1 0 8.5 1.159 13.2 3.533l.9-1.786zm-14.1-3.747c-2.17 0-3.95.257-5.21.87-.65.312-1.2.735-1.58 1.295-.4.568-.58 1.22-.58 1.915h2c0-.331.08-.578.22-.78.15-.21.39-.429.81-.63.86-.414 2.27-.67 4.34-.67v-2zm-7.37 4.08c0 .725.24 1.386.71 1.94.45.536 1.08.931 1.8 1.226l.76-1.852c-.54-.218-.85-.453-1.03-.664a.963.963 0 01-.24-.65h-2zm2.54 3.178c1.35.497 3.49 1.023 6.39 1.584l.38-1.964c-2.89-.559-4.89-1.06-6.07-1.496l-.7 1.876zm6.4 1.585c3.7.693 6.79 1.498 9.29 2.407l.68-1.88c-2.63-.957-5.84-1.786-9.6-2.493l-.37 1.966zm9.3 2.412c2.41.831 4.48 2.206 6.24 4.138l1.48-1.346c-1.98-2.174-4.33-3.74-7.06-4.682l-.66 1.89zm6.25 4.147c1.7 1.823 2.6 4.355 2.6 7.718h2c0-3.73-1.01-6.798-3.14-9.082l-1.46 1.364zm2.6 7.718c0 2.88-.8 5.483-2.41 7.835l1.65 1.13c1.84-2.688 2.76-5.685 2.76-8.965h-2zm-2.41 7.828c-1.6 2.287-4.02 4.166-7.35 5.604l.8 1.836c3.58-1.549 6.33-3.637 8.19-6.296l-1.64-1.144zm-7.34 5.602c-3.25 1.38-7.26 2.09-12.07 2.09v2c4.99 0 9.29-.736 12.85-2.25l-.78-1.84zm25.05-3l-.7.719.7-.719zm-6.3-44.03v-1h-1v1h1zm16.52 0h1v-1h-1v1zm1.89 34.3l-.79.611v.007l.01.007.78-.625zm11.13 0l-.78-.625-.01.007v.007l.79.611zm1.96-34.3v-1h-1v1h1zm16.24 0h1v-1h-1v1zm-6.3 44.03l-.7-.719.7.719zm-17.57 5.09c-7.33 0-12.91-1.977-16.88-5.809l-1.39 1.438c4.44 4.288 10.57 6.371 18.27 6.371v-2zm-16.88-5.809c-3.96-3.826-5.99-9.232-5.99-16.361h-2c0 7.525 2.16 13.505 6.6 17.799l1.39-1.438zm-5.99-16.361V95h-2v26.95h2zm-1-25.95h16.52v-2h-16.52v2zm15.52-1v26.46h2V95h-2zm0 26.46c0 3.668.63 6.554 2.1 8.451l1.58-1.222c-1.06-1.37-1.68-3.71-1.68-7.229h-2zm2.11 8.465c1.52 1.91 3.7 2.825 6.38 2.825v-2c-2.18 0-3.74-.718-4.82-2.075l-1.56 1.25zm6.38 2.825c2.67 0 4.83-.915 6.32-2.839l-1.58-1.222c-1.04 1.343-2.56 2.061-4.74 2.061v2zm6.31-2.825c1.52-1.899 2.18-4.792 2.18-8.465h-2c0 3.514-.65 5.848-1.74 7.215l1.56 1.25zm2.18-8.465V95h-2v26.46h2zm-1-25.46h16.24v-2h-16.24v2zm15.24-1v26.95h2V95h-2zm0 26.95c0 7.129-2.04 12.535-6 16.361l1.39 1.438c4.44-4.294 6.61-10.274 6.61-17.799h-2zm-6 16.361c-3.96 3.832-9.54 5.809-16.87 5.809v2c7.69 0 13.83-2.083 18.26-6.371l-1.39-1.438zm53.49-41.071l-.41.914.41-.914zm7.77 6.44l-.84.545.84-.545zm0 19.6l-.84-.545.84.545zm-7.77 6.44l-.41-.914.41.914zm-18.9 2.24v-1h-1v1h1zm0 12.04v1h1v-1h-1zm-16.52 0h-1v1h1v-1zm0-49v-1h-1v1h1zm27.58 22.75l.66.753.01-.008.01-.008-.68-.737zm0-8.47l-.68.737.01.008.01.008.66-.753zm-11.06-1.54v-1h-1v1h1zm0 11.48h-1v1h1v-1zm7.07-23.22c4.42 0 8.22.729 11.42 2.154l.82-1.828c-3.52-1.561-7.61-2.326-12.24-2.326v2zm11.42 2.154c3.21 1.423 5.64 3.449 7.34 6.071l1.68-1.09c-1.94-2.978-4.69-5.245-8.2-6.809l-.82 1.828zm7.34 6.071c1.7 2.619 2.57 5.692 2.57 9.255h2c0-3.903-.95-7.364-2.89-10.345l-1.68 1.09zm2.57 9.255c0 3.563-.87 6.636-2.57 9.255l1.68 1.09c1.94-2.981 2.89-6.442 2.89-10.345h-2zm-2.57 9.255c-1.7 2.622-4.13 4.648-7.34 6.071l.82 1.828c3.51-1.564 6.26-3.831 8.2-6.809l-1.68-1.09zm-7.34 6.071c-3.2 1.425-7 2.154-11.42 2.154v2c4.63 0 8.72-.765 12.24-2.326l-.82-1.828zm-11.42 2.154h-7.07v2h7.07v-2zm-8.07 1V144h2v-12.04h-2zm1 11.04h-16.52v2h16.52v-2zm-15.52 1V95h-2v49h2zm-1-48h23.59v-2h-23.59v2zm22.54 24.22c2.36 0 4.32-.514 5.7-1.717l-1.32-1.506c-.86.757-2.26 1.223-4.38 1.223v2zm5.72-1.733c1.36-1.253 2-2.967 2-5.007h-2c0 1.6-.48 2.733-1.36 3.533l1.36 1.474zm2-5.007c0-2.038-.64-3.741-2.02-4.953l-1.32 1.506c.86.748 1.34 1.845 1.34 3.447h2zm-2-4.937c-1.38-1.261-3.35-1.803-5.72-1.803v2c2.11 0 3.5.485 4.36 1.277l1.36-1.474zm-5.72-1.803h-6.02v2h6.02v-2zm-7.02 1v11.48h2v-11.48h-2zm1 12.48h6.02v-2h-6.02v2zm73.74-22.98l-.41.914.41-.914zm7.77 6.44l-.84.545.84-.545zm0 19.6l-.84-.545.84.545zm-7.77 6.44l-.41-.914.41.914zm-18.9 2.24v-1h-1v1h1zm0 12.04v1h1v-1h-1zm-16.52 0h-1v1h1v-1zm0-49v-1h-1v1h1zm27.58 22.75l.66.753v-.008l.01-.008-.67-.737zm0-8.47l-.68.737.01.008.01.008.66-.753zm-11.06-1.54v-1h-1v1h1zm0 11.48h-1v1h1v-1zm7.07-23.22c4.42 0 8.22.729 11.42 2.154l.81-1.828c-3.51-1.561-7.6-2.326-12.23-2.326v2zm11.42 2.154c3.2 1.423 5.63 3.449 7.34 6.071l1.68-1.09c-1.94-2.978-4.69-5.245-8.21-6.809l-.81 1.828zm7.34 6.071c1.7 2.619 2.57 5.692 2.57 9.255h2c0-3.903-.96-7.364-2.89-10.345l-1.68 1.09zm2.57 9.255c0 3.563-.87 6.636-2.57 9.255l1.68 1.09c1.93-2.981 2.89-6.442 2.89-10.345h-2zm-2.57 9.255c-1.71 2.622-4.14 4.648-7.34 6.071l.81 1.828c3.52-1.564 6.27-3.831 8.21-6.809l-1.68-1.09zm-7.34 6.071c-3.2 1.425-7 2.154-11.42 2.154v2c4.63 0 8.72-.765 12.23-2.326l-.81-1.828zm-11.42 2.154h-7.07v2h7.07v-2zm-8.07 1V144h2v-12.04h-2zm1 11.04h-16.52v2h16.52v-2zm-15.52 1V95h-2v49h2zm-1-48h23.59v-2h-23.59v2zm22.54 24.22c2.36 0 4.32-.514 5.7-1.717l-1.32-1.506c-.87.757-2.27 1.223-4.38 1.223v2zm5.71-1.733c1.37-1.253 2.01-2.967 2.01-5.007h-2c0 1.6-.49 2.733-1.36 3.533l1.35 1.474zm2.01-5.007c0-2.038-.64-3.741-2.02-4.953l-1.32 1.506c.85.748 1.34 1.845 1.34 3.447h2zm-2.01-4.937c-1.37-1.261-3.34-1.803-5.71-1.803v2c2.1 0 3.5.485 4.36 1.277l1.35-1.474zm-5.71-1.803h-6.02v2h6.02v-2zm-7.02 1v11.48h2v-11.48h-2zm1 12.48h6.02v-2h-6.02v2zm50.48 21.61l.46-.886-.46.886zm-9.87-9.1l-.86.519.01.005.85-.524zm0-26.39l.85.524v-.005l-.85-.519zm38.29-9.17l.46-.886-.46.886zm9.87 9.17l-.86.519.01.005.85-.524zm0 26.39l.85.524v-.005l-.85-.519zm-9.87 9.1l.46.886-.46-.886zm-8.68-11.55l.51.858.01-.005-.52-.853zm3.99-4.27l.88.474v-.009l-.88-.465zm0-12.95l-.89.465.01.009.88-.474zm-3.99-4.27l-.53.847.01.008.02.009.5-.864zm-11.13 0l.51.858.01-.005-.52-.853zm-3.92 4.27l.88.474v-.009l-.88-.465zm0 12.95l-.89.465.01.009.88-.474zm3.92 4.27l-.53.847.01.008.02.009.5-.864zm5.6 13.84c-5.13 0-9.71-1.066-13.75-3.176l-.92 1.772c4.35 2.276 9.25 3.404 14.67 3.404v-2zm-13.75-3.176c-4.05-2.114-7.2-5.025-9.48-8.738l-1.7 1.048c2.48 4.033 5.9 7.189 10.26 9.462l.92-1.772zm-9.48-8.733c-2.27-3.753-3.42-7.981-3.42-12.711h-2c0 5.07 1.23 9.662 3.71 13.749l1.71-1.038zm-3.42-12.711c0-4.73 1.15-8.933 3.42-12.636l-1.7-1.048c-2.49 4.044-3.72 8.614-3.72 13.684h2zm3.42-12.641c2.29-3.759 5.44-6.691 9.48-8.803l-.92-1.772c-4.36 2.274-7.79 5.456-10.27 9.537l1.71 1.038zm9.48-8.803c4.04-2.11 8.62-3.176 13.75-3.176v-2c-5.42 0-10.32 1.127-14.67 3.404l.92 1.772zm13.75-3.176c5.13 0 9.7 1.066 13.75 3.176l.92-1.772c-4.36-2.277-9.25-3.404-14.67-3.404v2zm13.75 3.176c4.04 2.112 7.19 5.044 9.47 8.803l1.71-1.038c-2.47-4.081-5.9-7.263-10.26-9.537l-.92 1.772zm9.48 8.808c2.27 3.703 3.42 7.906 3.42 12.636h2c0-5.07-1.23-9.64-3.72-13.684l-1.7 1.048zm3.42 12.636c0 4.73-1.15 8.958-3.43 12.711l1.71 1.038c2.49-4.087 3.72-8.679 3.72-13.749h-2zm-3.42 12.706c-2.28 3.713-5.44 6.624-9.48 8.738l.92 1.772c4.35-2.273 7.78-5.429 10.26-9.462l-1.7-1.048zm-9.48 8.738c-4.05 2.11-8.62 3.176-13.75 3.176v2c5.42 0 10.31-1.128 14.67-3.404l-.92-1.772zm-13.75-8.194c2.22 0 4.24-.532 6.04-1.613l-1.03-1.714c-1.46.879-3.12 1.327-5.01 1.327v2zm6.05-1.617c1.84-1.123 3.29-2.681 4.35-4.649l-1.76-.948c-.9 1.672-2.11 2.961-3.63 3.891l1.04 1.706zm4.35-4.658c1.07-2.033 1.59-4.368 1.59-6.975h-2c0 2.339-.46 4.345-1.36 6.045l1.77.93zm1.59-6.975c0-2.606-.52-4.922-1.59-6.914l-1.76.948c.89 1.648 1.35 3.626 1.35 5.966h2zm-1.59-6.905c-1.06-2.018-2.51-3.586-4.37-4.669l-1 1.728c1.5.877 2.7 2.156 3.6 3.871l1.77-.93zm-4.34-4.652c-1.8-1.133-3.83-1.693-6.06-1.693v2c1.88 0 3.53.467 5 1.387l1.06-1.694zm-6.06-1.693c-2.23 0-4.28.56-6.12 1.687l1.04 1.706c1.52-.926 3.2-1.393 5.08-1.393v-2zm-6.12 1.682c-1.8 1.085-3.23 2.652-4.29 4.663l1.77.93c.91-1.722 2.09-3.002 3.55-3.878l-1.03-1.715zm-4.28 4.654c-1.07 1.992-1.59 4.308-1.59 6.914h2c0-2.34.46-4.318 1.35-5.966l-1.76-.948zm-1.59 6.914c0 2.607.52 4.942 1.58 6.975l1.77-.93c-.89-1.7-1.35-3.706-1.35-6.045h-2zm1.59 6.984c1.05 1.961 2.48 3.517 4.27 4.643l1.06-1.694c-1.48-.928-2.67-2.218-3.57-3.897l-1.76.948zm4.3 4.66c1.84 1.074 3.88 1.606 6.1 1.606v-2c-1.89 0-3.58-.448-5.1-1.334l-1 1.728zm64.24.536l.83-.56-.29-.44h-.54v1zm-4.48 0v-1h-1v1h1zm0 12.32v1h1v-1h-1zm-16.52 0h-1v1h1v-1zm0-49v-1h-1v1h1zm35.42 2.24l-.4.914.4-.914zm7.77 6.44l-.83.545.83-.545zm.35 18.97l-.85-.519.85.519zm-6.86 6.23l-.45-.889-1.01.518.64.934.82-.563zM1622.5 144v1h1.9l-1.07-1.563-.83.563zm-17.64 0l-.82.56.29.44h.53v-1zm-1.75-34.72l-.67.737.01.008.01.008.65-.753zm-11.06-1.54v-1h-1v1h1zm0 11.48h-1v1h1v-1zm11.06-1.47l.66.753.01-.008.01-.008-.68-.737zm-6.58 12.93h-4.48v2h4.48v-2zm-5.48 1V144h2v-12.32h-2zm1 11.32h-16.52v2h16.52v-2zm-15.52 1V95h-2v49h2zm-1-48h23.59v-2h-23.59v2zm23.59 0c4.42 0 8.22.729 11.43 2.154l.81-1.828c-3.51-1.561-7.6-2.326-12.24-2.326v2zm11.43 2.154c3.2 1.423 5.63 3.449 7.34 6.071l1.67-1.09c-1.93-2.978-4.68-5.245-8.2-6.809l-.81 1.828zm7.34 6.071c1.7 2.619 2.56 5.692 2.56 9.255h2c0-3.903-.95-7.364-2.89-10.345l-1.67 1.09zm2.56 9.255c0 3.344-.75 6.216-2.23 8.651l1.71 1.038c1.69-2.791 2.52-6.033 2.52-9.689h-2zm-2.23 8.651c-1.48 2.441-3.62 4.396-6.46 5.86l.91 1.778c3.14-1.616 5.57-3.814 7.26-6.6l-1.71-1.038zm-6.83 7.312l10.29 15.12 1.65-1.126-10.29-15.12-1.65 1.126zM1622.5 143h-17.64v2h17.64v-2zm-16.81.44l-8.33-12.32-1.65 1.12 8.33 12.32 1.65-1.12zm.1-29.96c0-2.038-.63-3.741-2.02-4.953l-1.31 1.506c.85.748 1.33 1.845 1.33 3.447h2zm-2-4.937c-1.37-1.261-3.34-1.803-5.72-1.803v2c2.11 0 3.5.485 4.37 1.277l1.35-1.474zm-5.72-1.803h-6.02v2h6.02v-2zm-7.02 1v11.48h2v-11.48h-2zm1 12.48h6.02v-2h-6.02v2zm6.02 0c2.37 0 4.33-.514 5.7-1.717l-1.31-1.506c-.87.757-2.27 1.223-4.39 1.223v2zm5.72-1.733c1.37-1.253 2-2.967 2-5.007h-2c0 1.6-.48 2.733-1.35 3.533l1.35 1.474zm37.36-10.677h1v-1h-1v1zm-14.35 0h-1v1h1v-1zm0-12.81v-1h-1v1h1zm45.22 0h1v-1h-1v1zm0 12.81v1h1v-1h-1zm-14.35 0v-1h-1v1h1zm0 36.19v1h1v-1h-1zm-16.52 0h-1v1h1v-1zm0-37.19h-14.35v2h14.35v-2zm-13.35 1V95h-2v12.81h2zm-1-11.81h45.22v-2h-45.22v2zm44.22-1v12.81h2V95h-2zm1 11.81h-14.35v2h14.35v-2zm-15.35 1V144h2v-36.19h-2zm1 35.19h-16.52v2h16.52v-2zm-15.52 1v-36.19h-2V144h2z" fill="url(#paint0_linear_127_28)"/><defs><linearGradient id="paint0_linear_127_28" x1="836" y1="-301" x2="836" y2="453" gradientUnits="userSpaceOnUse"><stop stop-color="#fff"/><stop offset="1" stop-color="#fff" stop-opacity="0"/></linearGradient></defs></svg>