<svg width="323" height="48" fill="none" xmlns="http://www.w3.org/2000/svg"><path d="M50.804 37.951h-7.91a216.6 216.6 0 00-2.271-6.006 476.352 476.352 0 00-3.174-8.032c-.325-.83-1.212-3.223-2.66-7.178-.7-1.888-1.279-3.125-1.734-3.71-.57-.717-1.367-1.075-2.393-1.075-.26 0-.586-.024-.976-.073a8.386 8.386 0 00-1.026-.073l9.277 26.294c-.227 0-1.155-.017-2.783-.05-1.627-.032-3.28-.048-4.956-.048a30.25 30.25 0 01-1.343-3.589 76.124 76.124 0 00-.927-2.759c-.96-2.49-2.198-5.949-3.711-10.376-1.253-3.645-2.124-6.014-2.612-7.104-.798-1.758-1.53-2.637-2.198-2.637h-7.373c0 3.272.008 6.299.025 9.082l.048 8.325c.033 2.767.05 5.786.05 9.058H.534l-.049-5.444c.619 0 1.164.008 1.636.024s.887.025 1.245.025c.635-.147 1.058-.448 1.27-.904.211-.472.317-1.115.317-1.928 0-2.702-.016-4.786-.049-6.25-.016-1.482-.04-3.313-.073-5.494-.033-2.197-.049-4.33-.049-6.396H2.244c-.749-.016-1.416-.033-2.002-.049l-.049-6.25 21.582-.049c.7 0 1.31.147 1.831.44 1.058.602 2.54 1.945 4.444 4.028V5.285c.976 0 1.961.016 2.954.049l2.978.049c2.181 0 3.752.594 4.712 1.782.635.928 1.27 1.847 1.905 2.759V5.383h7.3v6.152h-6.763c.488 1.53 1.318 3.882 2.49 7.056l3.467 9.253a666.612 666.612 0 013.71 10.107zm46.045-3.516l-5.2 5.152c-.163 0-.888-.733-2.173-2.197-.684-.765-1.36-1.538-2.027-2.32-.667-.716-1.18-1.27-1.538-1.66a41.398 41.398 0 01-2.002-2.368 180.485 180.485 0 01-3.613-4.736 337.28 337.28 0 01-1.71-2.417 14.77 14.77 0 00-1.244-1.514l.049 2.783c-.977 0-1.75.016-2.32.049-.57.016-1.196.033-1.88.049-.57 1.155-1.692 3.19-3.369 6.103-1.595 2.8-2.921 5.046-3.98 6.739h-8.227c0-.05.92-1.718 2.759-5.005 3.271-5.843 4.972-8.887 5.103-9.131 1.839-3.272 2.766-4.907 2.783-4.907l7.324.049c-.098-.212-.57-1.01-1.416-2.393-.83-1.383-1.318-2.246-1.465-2.588.18-.163.651-.456 1.416-.879.781-.44 1.416-.887 1.904-1.343H58.616a239.306 239.306 0 01-.098-6.519l37.598-.097.049 6.616-16.04.074a703.213 703.213 0 001.978 3.369c1.058 1.774 1.96 3.222 2.71 4.345 1.074 1.628 2.034 2.946 2.88 3.956.342.406.83 1.017 1.465 1.83 1.254 1.612 2.303 2.906 3.15 3.882a420.029 420.029 0 002.978 3.418c.374.407.895.96 1.563 1.66zm44.018 3.614c-.016.049-.887.073-2.612.073l-5.2.049c-.961-2.832-1.913-5.664-2.857-8.496a824.02 824.02 0 00-3.711-10.816c-1.318-3.76-2.189-6.063-2.612-6.909-.081-.146-.236-.244-.464-.293-.211-.049-.618-.073-1.221-.073-.179 0-1.139.016-2.88.049-1.742.032-3.467.049-5.176.049v26.367h-11.475l-.024-5.322 3.955-.05-.098-21.142c-.879 0-1.587.025-2.124.073-.537.05-.822.074-.854.074h-.464a4.93 4.93 0 00-.464-.098V5.065h24.072c1.367 0 2.499.75 3.394 2.247.716 1.643 1.147 2.604 1.294 2.88h.512V5.114h7.349v6.519h-7.519l9.179 26.416zm46.338 1.025c0 2.393-.83 4.411-2.49 6.055-1.384 1.367-2.726 2.05-4.028 2.05h-26.001c-2.702.017-4.9.033-6.592.05a2.22 2.22 0 01-.391.024c-.309 0-.561-.049-.757-.147-.195-.097-.293-.268-.293-.512 0-.05.017-.139.049-.269.488-1.611 1.058-2.954 1.709-4.028a10.772 10.772 0 012.1-2.54c.569-.504 1.473-1.147 2.71-1.928-1.449-.814-2.67-1.79-3.662-2.93-1.091-1.237-1.636-2.506-1.636-3.808l.073-25.757h16.016l.049-4.004 7.251-.049v4.053l16.162.049.073 1.88c0 1.22-.285 2.417-.855 3.589-.732 1.497-1.912 2.945-3.54 4.345h4.053v23.877zm-7.422-11.694l-.049-15.576h-24.34v18.09c0 .635.179 1.124.537 1.465.358.342.822.513 1.391.513 1.921 0 3.931.008 6.031.024l6.152.05c2.002 0 4.069.007 6.201.024.114 0 .342.016.684.049.341.016.545.024.61.024.553 0 1.017-.024 1.392-.073.39-.065.683-.187.879-.366.211-.18.349-.4.415-.66.081-.26.122-.643.122-1.147 0-.293-.009-.602-.025-.928V27.38zm0 12.695v-5.59h-.415a7.35 7.35 0 01-1.636 2.123c-1.009.896-1.757 1.343-2.246 1.343-2.864 0-5.639.008-8.325.025-2.669 0-5.021.008-7.056.024h-5.346v1.49c0 .813.049 1.31.146 1.488.179.326.627.489 1.343.489l21.777-.073c.57 0 .985-.114 1.246-.342.26-.228.431-.554.512-.977zm-8.642-15.43h-3.809l-3.442-.048v-6.91h7.251v6.958zm60.864 9.79l-5.2 5.152c-.163 0-.887-.733-2.173-2.197a138.475 138.475 0 01-2.027-2.32c-.667-.716-1.18-1.27-1.538-1.66a41.645 41.645 0 01-2.002-2.368 181.272 181.272 0 01-3.613-4.736 337.28 337.28 0 01-1.709-2.417 14.665 14.665 0 00-1.245-1.514l.049 2.783c-.977 0-1.75.016-2.319.049-.57.016-1.197.033-1.88.049-.57 1.155-1.693 3.19-3.369 6.103-1.596 2.8-2.922 5.046-3.98 6.739h-8.228c0-.05.92-1.718 2.759-5.005 3.272-5.843 4.973-8.887 5.103-9.131 1.839-3.272 2.767-4.907 2.783-4.907l7.324.049c-.097-.212-.569-1.01-1.416-2.393-.83-1.383-1.318-2.246-1.465-2.588.179-.163.651-.456 1.416-.879.782-.44 1.416-.887 1.905-1.343h-17.408a180.887 180.887 0 01-.073-3.32c-.016-1.204-.024-2.27-.024-3.198l37.597-.098.049 6.616-16.04.074a710.597 710.597 0 001.978 3.369c1.058 1.774 1.961 3.222 2.71 4.345 1.074 1.628 2.034 2.946 2.881 3.956.341.406.83 1.017 1.464 1.83 1.254 1.612 2.304 2.906 3.15 3.882a442.99 442.99 0 002.978 3.418c.375.407.896.96 1.563 1.66zm43.384-22.973l-37.696-.049v-6.47h15.064V2.771c0-.293-.008-.603-.025-.928V.476h8.277v4.419c3.646 0 6.51.008 8.594.024 2.099 0 4.028.016 5.786.049v6.494zm0 26.49h-7.935l-.049-6.837h7.984v6.836zm-.074-16.993l-29.248.024c-.293 0-.496.09-.61.269-.098.179-.146.415-.146.708.016.293.024.513.024.66v5.712c0 1.042.163 1.904.488 2.588.44.944.668 1.44.684 1.49l-4.566 7.665c-.26-.098-.659-.456-1.196-1.074-.797-.911-1.457-2.018-1.977-3.32-.717-1.807-1.075-3.793-1.075-5.957v-15.04l37.622-.073v6.348zm30.713 3.516h-7.69v-7.032h7.69v7.032zm16.626 13.574c0 2.376-.724 4.435-2.173 6.177-1.513 1.822-3.369 2.734-5.566 2.734h-33.569c-.261 0-.472-.073-.635-.22a.694.694 0 01-.244-.537c0-.098.024-.195.073-.293.244-1.188.871-2.4 1.88-3.637.7-.847 1.652-1.767 2.856-2.76.7-.585 1.408-1.163 2.124-1.733a15.196 15.196 0 01-1.489-.683c-1.107-.619-1.994-1.31-2.661-2.075-.944-1.091-1.416-2.304-1.416-3.638l-.098-26.319h14.209v6.202c-.797 0-1.961.016-3.491.048-1.53.033-2.36.05-2.49.05v16.357c0 .309-.008.618-.025.927v1.197c0 .341.123.732.367 1.172.26.423.569.634.927.634l20.313-.024c1.139 0 1.896-.155 2.27-.464.391-.326.586-.952.586-1.88l-.073-18.164h-5.933V5.065h14.478c0 4.167-.016 7.96-.049 11.377-.032 3.402-.073 7.243-.122 11.524-.032 4.264-.049 7.625-.049 10.083zm-8.374-2.344c0-.195-.024-.57-.073-1.123a23.52 23.52 0 01-.049-1.074c-.065.065-.48.659-1.245 1.782-.309.44-.545.74-.708.903-.846.83-1.798 1.384-2.856 1.66-1.042.277-2.45.416-4.224.416-.423 0-1.847-.041-4.272-.122a224.774 224.774 0 00-5.64-.098c-.488 0-1.18-.025-2.075-.073-.895-.066-1.449-.098-1.66-.098-.733 0-1.286.073-1.661.22-.374.146-.561.44-.561.879 0 .097-.008.268-.025.512-.016.244-.024.39-.024.44 0 .407.057.724.171.952.13.228.374.342.732.342h22.193c.83 0 1.399-.31 1.709-.928.228-.456.342-1.205.342-2.246 0-.39-.009-.781-.025-1.172l-.049-1.172z" fill="#fff"/></svg>