<svg width="1614" height="235" fill="none" xmlns="http://www.w3.org/2000/svg"><path d="M253.519 187.756h-39.551c-3.093-8.626-6.877-18.636-11.353-30.029-4.394-11.475-9.684-24.862-15.869-40.162-1.628-4.15-6.063-16.113-13.306-35.888-3.499-9.44-6.388-15.625-8.667-18.555-2.848-3.58-6.835-5.371-11.962-5.371-1.303 0-2.93-.122-4.883-.366-1.953-.244-3.662-.366-5.127-.366l46.387 131.469c-1.14 0-5.778-.081-13.917-.244-8.138-.163-16.398-.244-24.78-.244-2.441-5.371-4.679-11.353-6.714-17.944-1.709-5.371-3.255-9.969-4.638-13.794-4.802-12.451-10.987-29.745-18.555-51.88-6.266-18.23-10.62-30.07-13.062-35.523-3.987-8.789-7.65-13.183-10.986-13.183H59.671c0 16.357.04 31.494.122 45.41l.244 41.626c.163 13.835.244 28.931.244 45.288H2.176l-.244-27.222c3.092 0 5.818.041 8.178.122 2.36.082 4.436.122 6.226.122 3.174-.732 5.29-2.237 6.348-4.516 1.057-2.36 1.586-5.575 1.586-9.644 0-13.509-.08-23.925-.244-31.25a7195.52 7195.52 0 00-.366-27.465 2160.019 2160.019 0 01-.244-31.983H10.721c-3.744-.081-7.08-.163-10.01-.244L.467 24.67l107.91-.244c3.499 0 6.551.732 9.155 2.197 5.29 3.011 12.696 9.725 22.217 20.142v-22.34c4.883 0 9.806.082 14.771.245 5.045.081 10.009.163 14.892.244 10.905 0 18.758 2.97 23.56 8.911a2025.1 2025.1 0 009.521 13.794V24.914h36.499v30.762h-33.813c2.441 7.65 6.592 19.409 12.451 35.278 1.465 3.906 7.243 19.328 17.334 46.265 7.324 19.531 13.509 36.377 18.555 50.537zm230.224-17.578l-26.001 25.757c-.814 0-4.435-3.663-10.864-10.987a691.596 691.596 0 01-10.132-11.596c-3.336-3.581-5.9-6.348-7.69-8.301a207.342 207.342 0 01-10.01-11.841c-7.406-9.44-13.428-17.334-18.067-23.682a1542.438 1542.438 0 01-8.544-12.085c-2.198-3.011-4.273-5.533-6.226-7.568l.244 13.916c-4.883 0-8.748.081-11.597.244-2.848.082-5.981.163-9.399.244-2.848 5.778-8.464 15.951-16.846 30.518-7.975 13.997-14.607 25.228-19.897 33.691h-41.138c0-.244 4.598-8.585 13.794-25.024 16.358-29.216 24.862-44.434 25.513-45.654 9.196-16.358 13.834-24.537 13.916-24.537l36.621.245c-.488-1.058-2.848-5.046-7.08-11.963-4.151-6.918-6.592-11.23-7.324-12.94.895-.814 3.255-2.278 7.08-4.394 3.906-2.198 7.08-4.436 9.521-6.714h-87.036a886.318 886.318 0 01-.366-16.602 1188.18 1188.18 0 01-.122-15.99l187.988-.49.244 33.082-80.2.366c3.418 5.86 6.714 11.475 9.888 16.846 5.289 8.87 9.806 16.113 13.549 21.728 5.372 8.138 10.173 14.73 14.405 19.776 1.709 2.034 4.15 5.086 7.324 9.155 6.266 8.057 11.515 14.526 15.747 19.409 7.324 8.464 12.288 14.16 14.893 17.09 1.871 2.034 4.476 4.801 7.812 8.301zm220.093 18.066c-.081.244-4.435.366-13.062.366-8.626.082-17.293.163-26.001.244a8720.191 8720.191 0 01-14.282-42.48c-6.592-19.613-12.776-37.638-18.554-54.077-6.592-18.799-10.946-30.314-13.062-34.546-.407-.732-1.18-1.22-2.319-1.465-1.058-.244-3.093-.366-6.104-.366-.895 0-5.696.081-14.404.244-8.708.163-17.334.244-25.879.244v131.836h-57.373l-.122-26.611 19.775-.244-.488-105.713c-4.395 0-7.935.122-10.62.366-2.686.244-4.11.366-4.273.366h-2.319c-.977-.244-1.75-.407-2.319-.488V23.327h120.361c6.836 0 12.492 3.744 16.968 11.23 3.581 8.22 5.737 13.021 6.47 14.405h2.563v-25.39h36.743v32.592h-37.597l45.898 132.08zm231.689 5.127c0 11.963-4.15 22.054-12.451 30.274-6.917 6.835-13.631 10.253-20.141 10.253H772.928c-13.509.082-24.496.163-32.959.245-.407.081-1.058.122-1.953.122-1.547 0-2.808-.244-3.785-.733-.976-.488-1.464-1.343-1.464-2.563 0-.244.081-.692.244-1.343 2.441-8.057 5.289-14.771 8.545-20.142 3.011-4.964 6.51-9.196 10.498-12.695 2.848-2.523 7.365-5.737 13.55-9.643-7.243-4.07-13.347-8.952-18.311-14.649-5.453-6.185-8.179-12.532-8.179-19.043l.366-128.784h80.079l.244-20.02 36.255-.244V24.67l80.81.244.366 9.4c0 6.103-1.424 12.084-4.272 17.944-3.662 7.487-9.562 14.73-17.7 21.728h20.263v119.385zm-37.109-58.472l-.244-77.88H776.468v90.454c0 3.173.895 5.615 2.685 7.324 1.791 1.709 4.11 2.563 6.958 2.563 9.603 0 19.654.041 30.152.122 10.498.082 20.752.163 30.761.245 10.01 0 20.345.04 31.006.122.57 0 1.709.081 3.418.244 1.709.081 2.726.122 3.052.122 2.767 0 5.086-.122 6.958-.366 1.953-.326 3.418-.936 4.395-1.831 1.057-.896 1.749-1.994 2.075-3.296.407-1.302.61-3.215.61-5.738 0-1.464-.041-3.011-.122-4.638v-7.447zm0 63.477v-27.954h-2.075c-2.035 3.988-4.761 7.528-8.179 10.62-5.045 4.476-8.789 6.714-11.23 6.714-14.323 0-28.199.041-41.626.122-13.347 0-25.106.041-35.279.122h-26.733v7.446c0 4.069.244 6.551.732 7.447.896 1.627 3.134 2.441 6.714 2.441l108.887-.366c2.848 0 4.923-.57 6.226-1.709 1.302-1.14 2.156-2.767 2.563-4.883zm-43.213-77.148H836.16c-6.022-.082-11.759-.163-17.212-.245V86.437h36.255v34.791zm304.317 48.95l-26 25.757c-.81 0-4.43-3.663-10.86-10.987-3.42-3.825-6.8-7.69-10.13-11.596-3.34-3.581-5.9-6.348-7.69-8.301a204.517 204.517 0 01-10.01-11.841c-7.41-9.44-13.43-17.334-18.07-23.682-2.85-3.987-5.7-8.016-8.54-12.085-2.2-3.011-4.28-5.533-6.23-7.568l.24 13.916c-4.88 0-8.74.081-11.59.244-2.85.082-5.98.163-9.4.244-2.85 5.778-8.47 15.951-16.85 30.518-7.97 13.997-14.61 25.228-19.89 33.691h-41.143c0-.244 4.598-8.585 13.794-25.024 16.358-29.216 24.859-44.434 25.509-45.654 9.2-16.358 13.84-24.537 13.92-24.537l36.62.245c-.49-1.058-2.85-5.046-7.08-11.963-4.15-6.918-6.59-11.23-7.32-12.94.89-.814 3.25-2.278 7.08-4.394 3.9-2.198 7.08-4.436 9.52-6.714h-87.038a894.962 894.962 0 01-.366-16.602c-.081-6.022-.122-11.352-.122-15.99l187.986-.49.25 33.082-80.2.366c3.41 5.86 6.71 11.475 9.88 16.846 5.29 8.87 9.81 16.113 13.55 21.728 5.37 8.138 10.18 14.73 14.41 19.776 1.71 2.034 4.15 5.086 7.32 9.155 6.27 8.057 11.52 14.526 15.75 19.409 7.32 8.464 12.29 14.16 14.89 17.09 1.87 2.034 4.48 4.801 7.81 8.301zM1376.44 55.31l-188.47-.245V22.717h75.31V11.852c0-1.464-.04-3.01-.12-4.638V.377h41.38v22.096c18.23 0 32.56.04 42.97.122 10.5 0 20.14.081 28.93.244v32.47zm0 132.446h-39.67l-.24-34.18h39.91v34.18zm-.36-84.961l-146.24.122c-1.47 0-2.49.448-3.05 1.343-.49.895-.74 2.075-.74 3.54.08 1.465.12 2.563.12 3.296v28.564c0 5.208.82 9.522 2.45 12.94 2.19 4.72 3.33 7.202 3.41 7.446l-22.82 38.33c-1.31-.488-3.3-2.279-5.98-5.371-3.99-4.557-7.29-10.091-9.89-16.602-3.58-9.033-5.37-18.961-5.37-29.785V71.423l188.11-.366v31.738zm153.56 17.578h-38.45V85.217h38.45v35.156zm83.13 67.871c0 11.882-3.62 22.176-10.86 30.884-7.57 9.115-16.85 13.672-27.83 13.672h-167.85c-1.3 0-2.36-.366-3.18-1.099-.81-.732-1.22-1.627-1.22-2.685 0-.489.13-.977.37-1.465 1.22-5.941 4.35-12.004 9.4-18.189 3.5-4.231 8.26-8.829 14.28-13.794 3.5-2.929 7.04-5.818 10.62-8.667-3.01-1.22-5.49-2.36-7.44-3.418-5.54-3.092-9.97-6.551-13.31-10.376-4.72-5.452-7.08-11.515-7.08-18.188l-.49-131.592h71.05v31.006c-3.99 0-9.81.081-17.46.244-7.65.163-11.8.244-12.45.244v81.787c0 1.547-.04 3.093-.12 4.639v5.982c0 1.709.61 3.662 1.83 5.859 1.3 2.116 2.85 3.174 4.64 3.174l101.56-.122c5.7 0 9.48-.773 11.35-2.32 1.96-1.627 2.93-4.76 2.93-9.399l-.36-90.82h-29.67V23.327h72.39c0 20.833-.08 39.795-.24 56.885-.17 17.008-.37 36.214-.61 57.617-.17 21.322-.25 38.127-.25 50.415zm-41.87-11.719c0-.976-.12-2.848-.36-5.615-.17-2.767-.25-4.557-.25-5.371-.32.326-2.4 3.296-6.22 8.911-1.55 2.197-2.73 3.703-3.54 4.517-4.24 4.15-9 6.917-14.29 8.301-5.21 1.383-12.24 2.075-21.12 2.075-2.11 0-9.23-.204-21.36-.611-12.12-.325-21.52-.488-28.2-.488-2.44 0-5.9-.122-10.37-.366-4.48-.326-7.24-.488-8.3-.488-3.66 0-6.43.366-8.3 1.098-1.87.733-2.81 2.198-2.81 4.395 0 .488-.04 1.343-.12 2.563-.08 1.221-.12 1.953-.12 2.198 0 2.034.28 3.621.85 4.76.65 1.14 1.87 1.709 3.66 1.709h110.96c4.15 0 7-1.546 8.55-4.638 1.14-2.279 1.71-6.023 1.71-11.231 0-1.953-.04-3.906-.12-5.859-.09-1.953-.17-3.906-.25-5.86z" fill="#03FFC2"/></svg>