<svg width="1287" height="109" fill="none" xmlns="http://www.w3.org/2000/svg"><path d="M27.7 36.9l.933-.36-.247-.64H27.7v1zm-13.3 0v-1h-.686l-.247.64.933.36zM12.05 43v1h.686l.247-.64-.933-.36zm-12 0l-.916-.4-.613 1.4H.05v-1zm15.3-35V7h-.654l-.262.6.916.4zm11.6 0l.916-.4-.262-.6h-.654v1zm15.3 35v1h1.529l-.613-1.4-.916.4zm-12.2 0l-.933.36.247.64h.686v-1zm-5.6-14.6v1h1.458l-.525-1.36-.933.36zm-3.4-8.8l.933-.36-.933-2.415-.933 2.415.933.36zm-3.4 8.8l-.933-.36-.525 1.36h1.458v-1zm10.05 7.5H14.4v2h13.3v-2zm-14.233.64l-2.35 6.1 1.866.72 2.35-6.1-1.866-.72zM12.05 42h-12v2h12v-2zM.966 43.4l15.3-35-1.832-.8-15.3 35 1.832.8zM15.35 9h11.6V7h-11.6v2zm10.684-.6l15.3 35 1.832-.8-15.3-35-1.832.8zM42.25 42h-12.2v2h12.2v-2zm-11.267.64l-2.35-6.1-1.866.72 2.35 6.1 1.866-.72zm-5.6-14.6l-3.4-8.8-1.866.72 3.4 8.8 1.866-.72zm-5.266-8.8l-3.4 8.8 1.866.72 3.4-8.8-1.866-.72zM17.65 29.4h6.8v-2h-6.8v2zm43.983 4.8l.829-.56-.298-.44h-.53v1zm-3.2 0v-1h-1v1h1zm0 8.8v1h1v-1h-1zm-11.8 0h-1v1h1v-1zm0-35V7h-1v1h1zm25.3 1.6l-.406.914.406-.914zm5.55 4.6l-.838.545.838-.545zm.25 13.55l-.855-.519.855.519zm-4.9 4.45l-.458-.889-1.004.518.636.934.826-.563zm7.35 10.8v1h1.89l-1.063-1.563-.827.563zm-12.6 0l-.828.56.297.44h.531v-1zm-1.25-24.8l-.675.737.008.008.009.008.658-.753zm-7.9-1.1v-1h-1v1h1zm0 8.2h-1v1h1v-1zm7.9-1.05l.659.753.008-.008.009-.008-.676-.737zm-4.7 8.95h-3.2v2h3.2v-2zm-4.2 1V43h2v-8.8h-2zm1 7.8h-11.8v2h11.8v-2zm-10.8 1V8h-2v35h2zm-1-34h16.85V7h-16.85v2zm16.85 0c3.125 0 5.798.515 8.044 1.514l.812-1.828C69.786 7.551 66.825 7 63.483 7v2zm8.044 1.514c2.242.996 3.934 2.41 5.118 4.231l1.677-1.09c-1.416-2.178-3.425-3.832-5.983-4.969l-.812 1.828zm5.118 4.231c1.182 1.82 1.788 3.958 1.788 6.455h2c0-2.837-.694-5.364-2.111-7.545l-1.677 1.09zm1.788 6.455c0 2.344-.53 4.342-1.555 6.031l1.71 1.038c1.241-2.045 1.845-4.413 1.845-7.069h-2zm-1.555 6.031c-1.028 1.694-2.517 3.056-4.503 4.08l.916 1.778c2.28-1.176 4.059-2.78 5.297-4.82l-1.71-1.038zm-4.871 5.532l7.35 10.8 1.653-1.126-7.35-10.8-1.653 1.126zM80.183 42h-12.6v2h12.6v-2zm-11.771.44l-5.95-8.8-1.657 1.12 5.95 8.8 1.657-1.12zm.121-21.24c0-1.518-.477-2.821-1.541-3.753l-1.317 1.506c.535.468.858 1.166.858 2.247h2zm-1.524-3.737c-1.055-.968-2.542-1.363-4.276-1.363v2c1.467 0 2.38.338 2.925.837l1.35-1.474zM62.733 16.1h-4.3v2h4.3v-2zm-5.3 1v8.2h2v-8.2h-2zm1 9.2h4.3v-2h-4.3v2zm4.3 0c1.724 0 3.204-.374 4.259-1.297l-1.317-1.506c-.545.477-1.466.803-2.942.803v2zm4.276-1.313c1.047-.96 1.524-2.267 1.524-3.787h-2c0 1.08-.323 1.806-.876 2.313l1.352 1.474zM93.5 17.15h1v-1h-1v1zm-10.25 0h-1v1h1v-1zm0-9.15V7h-1v1h1zm32.3 0h1V7h-1v1zm0 9.15v1h1v-1h-1zm-10.25 0v-1h-1v1h1zm0 25.85v1h1v-1h-1zm-11.8 0h-1v1h1v-1zm0-26.85H83.25v2H93.5v-2zm-9.25 1V8h-2v9.15h2zm-1-8.15h32.3V7h-32.3v2zm31.3-1v9.15h2V8h-2zm1 8.15H105.3v2h10.25v-2zm-11.25 1V43h2V17.15h-2zm1 24.85H93.5v2h11.8v-2zm-10.8 1V17.15h-2V43h2zm26.615-35V7h-1v1h1zm11.8 0h1V7h-1v1zm0 35v1h1v-1h-1zm-11.8 0h-1v1h1v-1zm0-34h11.8V7h-11.8v2zm10.8-1v35h2V8h-2zm1 34h-11.8v2h11.8v-2zm-10.8 1V8h-2v35h2zm23.53-.15l-.237.971.007.002.007.002.223-.975zm-6.75-2.65l-.915-.404-.35.794.737.459.528-.849zm3.8-8.6l.502-.865-.966-.56-.451 1.02.915.405zm5.6 2.35l-.279.96.007.002.008.002.264-.964zm9.45.4l.394.92.018-.009.018-.008-.43-.903zm-.35-3.1l-.377.926.011.005.366-.931zm-4.5-1.2l-.205.979h.003l.202-.979zm-6.75-1.8l-.347.938.007.003.008.002.332-.943zm-4.7-3.2l-.747.664.007.009.74-.673zm-.15-12.05l.825.565-.825-.565zm5.5-4.25l-.386-.922-.005.002.391.92zm16-.75l-.226.974.008.002.009.002.209-.978zm6.15 2.25l.924.383.339-.817-.77-.436-.493.87zm-3.55 8.55l-.451.893.962.485.413-.995-.924-.383zm-12.95 1.2l-.377.926.015.006.015.006.347-.938zm4.45 1.1l-.19.982h.006l.184-.982zm6.75 1.75l-.342.94.008.003.008.002.326-.945zm4.75 3.15l-.74.673.008.009.732-.682zm.2 12l.82.572.005-.007-.825-.565zm-5.55 4.25l.391.92.006-.002-.397-.918zm-8.9.55c-2.826 0-5.585-.309-8.277-.925l-.446 1.95c2.841.65 5.75.975 8.723.975v-2zm-8.263-.921c-2.664-.65-4.807-1.5-6.458-2.528l-1.057 1.698c1.882 1.172 4.238 2.089 7.041 2.773l.474-1.944zm-6.072-1.275l3.8-8.6-1.83-.808-3.8 8.6 1.83.808zm2.383-8.139c1.745 1.012 3.688 1.825 5.823 2.445l.558-1.92c-1.998-.58-3.788-1.334-5.377-2.255l-1.004 1.73zm5.838 2.45c2.142.587 4.214.885 6.214.885v-2c-1.8 0-3.694-.268-5.685-.814l-.529 1.928zm6.214.885c1.649 0 2.993-.145 3.894-.53l-.788-1.84c-.499.215-1.488.37-3.106.37v2zm3.93-.547c.457-.218.869-.517 1.168-.929a2.39 2.39 0 00.452-1.424h-2a.4.4 0 01-.072.251c-.052.071-.165.18-.408.296l.86 1.806zm1.62-2.353c0-.6-.198-1.15-.587-1.61-.374-.44-.884-.75-1.447-.97l-.732 1.86c.37.146.561.295.654.404a.446.446 0 01.112.316h2zm-2.023-2.576c-.991-.404-2.569-.819-4.675-1.253l-.404 1.958c2.094.433 3.516.818 4.325 1.147l.754-1.852zm-4.671-1.253c-2.675-.56-4.879-1.15-6.624-1.764l-.664 1.886c1.855.653 4.151 1.264 6.877 1.836l.411-1.958zm-6.609-1.759c-1.644-.609-3.078-1.582-4.307-2.935l-1.48 1.346c1.438 1.58 3.138 2.74 5.093 3.465l.694-1.876zm-4.3-2.926c-1.131-1.273-1.747-3.031-1.747-5.386h-2c0 2.712.717 4.987 2.253 6.714l1.494-1.328zM140.446 19c0-2 .557-3.803 1.675-5.435l-1.65-1.13c-1.348 1.968-2.025 4.165-2.025 6.565h2zm1.675-5.435c1.105-1.612 2.771-2.92 5.066-3.895l-.782-1.84c-2.571 1.092-4.572 2.617-5.934 4.605l1.65 1.13zm5.061-3.893c2.313-.969 5.158-1.472 8.564-1.472v-2c-3.594 0-6.716.53-9.336 1.628l.772 1.844zm8.564-1.472c2.325 0 4.599.258 6.824.774l.452-1.948a32.105 32.105 0 00-7.276-.826v2zm6.841.778c2.251.482 4.202 1.2 5.866 2.142l.986-1.74c-1.869-1.058-4.018-1.84-6.433-2.358l-.419 1.956zm5.436.889l-3.55 8.55 1.847.766 3.55-8.55-1.847-.766zm-2.176 8.04c-3.539-1.786-6.943-2.707-10.201-2.707v2c2.875 0 5.971.812 9.299 2.493l.902-1.786zM155.646 15.2c-1.565 0-2.885.184-3.848.65-.495.24-.93.57-1.241 1.02a2.652 2.652 0 00-.461 1.53h2c0-.185.044-.303.108-.395.069-.1.202-.227.465-.355.554-.267 1.509-.45 2.977-.45v-2zm-5.55 3.2c0 .585.196 1.122.573 1.57.362.43.856.734 1.4.956l.754-1.852c-.355-.145-.537-.29-.625-.394a.396.396 0 01-.102-.28h-2zm2.003 2.538c.982.364 2.535.743 4.607 1.144l.38-1.964c-2.061-.399-3.475-.753-4.293-1.056l-.694 1.876zm4.613 1.145c2.632.493 4.826 1.064 6.592 1.707l.684-1.88c-1.9-.69-4.206-1.286-6.908-1.793l-.368 1.966zm6.608 1.712c1.671.577 3.113 1.532 4.336 2.878l1.48-1.346c-1.444-1.588-3.168-2.733-5.163-3.422l-.653 1.89zm4.344 2.887c1.153 1.236 1.782 2.968 1.782 5.318h2c0-2.717-.737-4.985-2.318-6.682l-1.464 1.364zM169.446 32c0 2-.557 3.803-1.675 5.435l1.65 1.13c1.348-1.968 2.025-4.165 2.025-6.565h-2zm-1.67 5.428c-1.104 1.58-2.789 2.893-5.127 3.904l.794 1.836c2.595-1.122 4.61-2.643 5.973-4.596l-1.64-1.144zm-5.121 3.902c-2.276.966-5.102 1.47-8.509 1.47v2c3.593 0 6.701-.53 9.291-1.63l-.782-1.84zm20.914-24.18h1v-1h-1v1zm-10.25 0h-1v1h1v-1zm0-9.15V7h-1v1h1zm32.3 0h1V7h-1v1zm0 9.15v1h1v-1h-1zm-10.25 0v-1h-1v1h1zm0 25.85v1h1v-1h-1zm-11.8 0h-1v1h1v-1zm0-26.85h-10.25v2h10.25v-2zm-9.25 1V8h-2v9.15h2zm-1-8.15h32.3V7h-32.3v2zm31.3-1v9.15h2V8h-2zm1 8.15h-10.25v2h10.25v-2zm-11.25 1V43h2V17.15h-2zm1 24.85h-11.8v2h11.8v-2zm-10.8 1V17.15h-2V43h2zM240.324.9v-1h-.709l-.235.67.944.33zm10 0l.944.33.466-1.33h-1.41v1zm-16.5 47.1v1h.709l.235-.67-.944-.33zm-10 0l-.944-.33-.466 1.33h1.41v-1zm16.5-46.1h10v-2h-10v2zM249.38.57l-16.5 47.1 1.888.66 16.5-47.1-1.888-.66zM233.824 47h-10v2h10v-2zm-9.056 1.33l16.5-47.1-1.888-.66-16.5 47.1 1.888.66zM327.636 8l.952.305.418-1.305h-1.37v1zm-11.2 35v1h.73l.222-.695-.952-.305zm-12.65 0l-.957.29.214.71h.743v-1zm-5.65-18.7l.957-.29-.932-3.086-.978 3.073.953.303zm-5.95 18.7v1h.731l.222-.697-.953-.303zm-12.65 0l-.952.305.222.695h.73v-1zm-11.2-35V7h-1.37l.418 1.305.952-.305zm12.15 0l.956-.293-.217-.707h-.739v1zm6.1 19.9l-.956.293.929 3.032.978-3.017-.951-.308zm6.45-19.9V7h-.727l-.224.692.951.308zm10.85 0l.957-.29-.215-.71h-.742v1zm6.1 20.15l-.957.29.93 3.073.979-3.058-.952-.305zM316.436 8V7h-.73l-.222.695.952.305zm10.248-.305l-11.2 35 1.904.61 11.2-35-1.904-.61zM316.436 42h-12.65v2h12.65v-2zm-11.693.71l-5.65-18.7-1.914.58 5.65 18.7 1.914-.58zm-7.56-18.713l-5.95 18.7 1.906.606 5.95-18.7-1.906-.606zM292.186 42h-12.65v2h12.65v-2zm-11.698.695l-11.2-35-1.904.61 11.2 35 1.904-.61zM268.336 9h12.15V7h-12.15v2zm11.194-.707l6.1 19.9 1.912-.586-6.1-19.9-1.912.586zm8.007 19.915l6.45-19.9-1.902-.616-6.45 19.9 1.902.616zM293.036 9h10.85V7h-10.85v2zm9.893-.71l6.1 20.15 1.914-.58-6.1-20.15-1.914.58zm8.009 20.165l6.45-20.15-1.904-.61-6.45 20.15 1.904.61zM316.436 9h11.2V7h-11.2v2zm31.32 25.2l.829-.56-.298-.44h-.531v1zm-3.2 0v-1h-1v1h1zm0 8.8v1h1v-1h-1zm-11.8 0h-1v1h1v-1zm0-35V7h-1v1h1zm25.3 1.6l-.406.914.406-.914zm5.55 4.6l-.838.545.838-.545zm.25 13.55l-.855-.519.855.519zm-4.9 4.45l-.458-.889-1.004.518.636.934.826-.563zm7.35 10.8v1h1.89l-1.063-1.563-.827.563zm-12.6 0l-.828.56.297.44h.531v-1zm-1.25-24.8l-.675.737.008.008.009.008.658-.753zm-7.9-1.1v-1h-1v1h1zm0 8.2h-1v1h1v-1zm7.9-1.05l.659.753.008-.008.009-.008-.676-.737zm-4.7 8.95h-3.2v2h3.2v-2zm-4.2 1V43h2v-8.8h-2zm1 7.8h-11.8v2h11.8v-2zm-10.8 1V8h-2v35h2zm-1-34h16.85V7h-16.85v2zm16.85 0c3.125 0 5.798.515 8.044 1.514l.812-1.828C355.909 7.551 352.948 7 349.606 7v2zm8.044 1.514c2.242.996 3.934 2.41 5.118 4.231l1.677-1.09c-1.416-2.178-3.424-3.832-5.983-4.969l-.812 1.828zm5.118 4.231c1.182 1.82 1.788 3.958 1.788 6.455h2c0-2.837-.694-5.364-2.111-7.545l-1.677 1.09zm1.788 6.455c0 2.344-.529 4.342-1.555 6.031l1.71 1.038c1.241-2.045 1.845-4.413 1.845-7.069h-2zm-1.555 6.031c-1.028 1.694-2.517 3.056-4.503 4.08l.917 1.778c2.28-1.176 4.058-2.78 5.296-4.82l-1.71-1.038zm-4.871 5.532l7.35 10.8 1.653-1.126-7.35-10.8-1.653 1.126zM366.306 42h-12.6v2h12.6v-2zm-11.771.44l-5.95-8.8-1.657 1.12 5.95 8.8 1.657-1.12zm.121-21.24c0-1.518-.477-2.821-1.541-3.753l-1.317 1.506c.535.468.858 1.166.858 2.247h2zm-1.524-3.737c-1.055-.968-2.542-1.363-4.276-1.363v2c1.467 0 2.38.338 2.925.837l1.351-1.474zm-4.276-1.363h-4.3v2h4.3v-2zm-5.3 1v8.2h2v-8.2h-2zm1 9.2h4.3v-2h-4.3v2zm4.3 0c1.724 0 3.204-.374 4.259-1.297l-1.317-1.506c-.545.477-1.466.803-2.942.803v2zm4.276-1.313c1.047-.96 1.524-2.267 1.524-3.787h-2c0 1.08-.323 1.806-.875 2.313l1.351 1.474zM372.512 8V7h-1v1h1zm11.8 0h1V7h-1v1zm0 35v1h1v-1h-1zm-11.8 0h-1v1h1v-1zm0-34h11.8V7h-11.8v2zm10.8-1v35h2V8h-2zm1 34h-11.8v2h11.8v-2zm-10.8 1V8h-2v35h2zm26.581-25.85h1v-1h-1v1zm-10.25 0h-1v1h1v-1zm0-9.15V7h-1v1h1zm32.3 0h1V7h-1v1zm0 9.15v1h1v-1h-1zm-10.25 0v-1h-1v1h1zm0 25.85v1h1v-1h-1zm-11.8 0h-1v1h1v-1zm0-26.85h-10.25v2h10.25v-2zm-9.25 1V8h-2v9.15h2zm-1-8.15h32.3V7h-32.3v2zm31.3-1v9.15h2V8h-2zm1 8.15h-10.25v2h10.25v-2zm-11.25 1V43h2V17.15h-2zm1 24.85h-11.8v2h11.8v-2zm-10.8 1V17.15h-2V43h2zm55.714-8.9h1v-1h-1v1zm0 8.9v1h1v-1h-1zm-29.1 0h-1v1h1v-1zm0-35V7h-1v1h1zm28.45 0h1V7h-1v1zm0 8.9v1h1v-1h-1zm-16.85 0v-1h-1v1h1zm0 4.1h-1v1h1v-1zm14.8 0h1v-1h-1v1zm0 8.5v1h1v-1h-1zm-14.8 0v-1h-1v1h1zm0 4.6h-1v1h1v-1zm16.5 0V43h2v-8.9h-2zm1 7.9h-29.1v2h29.1v-2zm-28.1 1V8h-2v35h2zm-1-34h28.45V7h-28.45v2zm27.45-1v8.9h2V8h-2zm1 7.9h-16.85v2h16.85v-2zm-17.85 1V21h2v-4.1h-2zm1 5.1h14.8v-2h-14.8v2zm13.8-1v8.5h2V21h-2zm1 7.5h-14.8v2h14.8v-2zm-15.8 1v4.6h2v-4.6h-2zm1 5.6h17.5v-2h-17.5v2zm39.543-.9l.828-.56-.297-.44h-.531v1zm-3.2 0v-1h-1v1h1zm0 8.8v1h1v-1h-1zm-11.8 0h-1v1h1v-1zm0-35V7h-1v1h1zm25.3 1.6l-.406.914.406-.914zm5.55 4.6l-.838.545.838-.545zm.25 13.55l-.855-.519.855.519zm-4.9 4.45l-.458-.889-1.004.518.635.934.827-.563zM497.4 43v1h1.89l-1.063-1.563-.827.563zm-12.6 0l-.828.56.297.44h.531v-1zm-1.25-24.8l-.676.737.009.008.009.008.658-.753zm-7.9-1.1v-1h-1v1h1zm0 8.2h-1v1h1v-1zm7.9-1.05l.658.753.009-.008.009-.008-.676-.737zm-4.7 8.95h-3.2v2h3.2v-2zm-4.2 1V43h2v-8.8h-2zm1 7.8h-11.8v2h11.8v-2zm-10.8 1V8h-2v35h2zm-1-34h16.85V7h-16.85v2zm16.85 0c3.125 0 5.798.515 8.044 1.514l.812-1.828C487.002 7.551 484.042 7 480.7 7v2zm8.044 1.514c2.242.996 3.933 2.41 5.118 4.231l1.676-1.09c-1.416-2.178-3.424-3.832-5.982-4.969l-.812 1.828zm5.118 4.231c1.182 1.82 1.788 3.958 1.788 6.455h2c0-2.837-.694-5.364-2.112-7.545l-1.676 1.09zm1.788 6.455c0 2.344-.53 4.342-1.555 6.031l1.71 1.038c1.241-2.045 1.845-4.413 1.845-7.069h-2zm-1.555 6.031c-1.028 1.694-2.517 3.056-4.503 4.08l.916 1.778c2.281-1.176 4.059-2.78 5.297-4.82l-1.71-1.038zm-4.872 5.532l7.35 10.8 1.654-1.126-7.35-10.8-1.654 1.126zM497.4 42h-12.6v2h12.6v-2zm-11.772.44l-5.95-8.8-1.656 1.12 5.95 8.8 1.656-1.12zm.122-21.24c0-1.518-.477-2.821-1.542-3.753l-1.316 1.506c.535.468.858 1.166.858 2.247h2zm-1.524-3.737c-1.056-.968-2.542-1.363-4.276-1.363v2c1.466 0 2.38.338 2.924.837l1.352-1.474zM479.95 16.1h-4.3v2h4.3v-2zm-5.3 1v8.2h2v-8.2h-2zm1 9.2h4.3v-2h-4.3v2zm4.3 0c1.724 0 3.203-.374 4.258-1.297l-1.316-1.506c-.545.477-1.466.803-2.942.803v2zm4.276-1.313c1.047-.96 1.524-2.267 1.524-3.787h-2c0 1.08-.323 1.806-.876 2.313l1.352 1.474zM532.746.9v-1h-.709l-.235.67.944.33zm10 0l.944.33.466-1.33h-1.41v1zm-16.5 47.1v1h.709l.235-.67-.944-.33zm-10 0l-.944-.33-.466 1.33h1.41v-1zm16.5-46.1h10v-2h-10v2zm9.056-1.33l-16.5 47.1 1.888.66 16.5-47.1-1.888-.66zM526.246 47h-10v2h10v-2zm-9.056 1.33l16.5-47.1-1.888-.66-16.5 47.1 1.888.66zm54.018-6.83l-.467.884.008.004.459-.888zm-7-6.5l-.86.511.008.012.852-.523zm0-18.95l-.855-.519-.002.003.857.516zm7-6.5l.459.888.008-.004-.467-.884zm19.1-.55l-.411.912.411-.912zm6.6 5.2l.666.746.691-.617-.563-.736-.794.607zm-7.45 6.65l-.784.621.659.831.791-.706-.666-.746zm-13.6-1.7l.722.692.007-.008-.729-.684zm0 12.75l-.73.684.007.008.723-.692zm13.6-1.75l.666-.746-.791-.706-.659.83.784.622zm7.45 6.65l.794.607.563-.736-.691-.617-.666.746zm-6.6 5.2l-.411-.912.411.912zm-9.1.8c-3.558 0-6.731-.736-9.541-2.188l-.918 1.776c3.123 1.615 6.617 2.412 10.459 2.412v-2zm-9.533-2.184c-2.814-1.486-5.012-3.53-6.615-6.14l-1.704 1.047c1.797 2.925 4.265 5.214 7.385 6.861l.934-1.768zm-6.608-6.127c-1.567-2.633-2.359-5.62-2.359-8.989h-2c0 3.698.874 7.044 2.641 10.011l1.718-1.023zm-2.359-8.989c0-3.37.792-6.337 2.356-8.934l-1.713-1.032c-1.769 2.937-2.643 6.268-2.643 9.966h2zm2.355-8.931c1.602-2.64 3.797-4.68 6.604-6.13l-.918-1.777c-3.127 1.616-5.599 3.909-7.396 6.869l1.71 1.038zm6.612-6.135c2.808-1.483 5.979-2.234 9.533-2.234v-2c-3.846 0-7.342.815-10.467 2.466l.934 1.768zm9.533-2.234c3.281 0 6.171.579 8.689 1.712l.821-1.824c-2.815-1.267-5.992-1.888-9.51-1.888v2zm8.689 1.712c2.52 1.134 4.586 2.764 6.216 4.895l1.589-1.214c-1.837-2.402-4.17-4.239-6.984-5.505l-.821 1.824zm6.345 3.542l-7.45 6.65 1.332 1.492 7.45-6.65-1.332-1.492zm-6.001 6.775c-2.316-2.922-5.135-4.479-8.433-4.479v2c2.569 0 4.849 1.177 6.866 3.721l1.567-1.242zm-8.433-4.479c-2.705 0-4.966.888-6.68 2.716l1.459 1.368c1.287-1.372 2.993-2.084 5.221-2.084v-2zm-6.673 2.708c-1.717 1.794-2.527 4.18-2.527 7.042h2c0-2.471.689-4.319 1.972-5.658l-1.445-1.384zm-2.527 7.042c0 2.863.811 5.26 2.52 7.084l1.459-1.368c-1.29-1.376-1.979-3.245-1.979-5.716h-2zm2.527 7.092c1.716 1.791 3.974 2.658 6.673 2.658v-2c-2.235 0-3.943-.7-5.228-2.042l-1.445 1.384zm6.673 2.658c3.298 0 6.117-1.557 8.433-4.479l-1.567-1.242c-2.017 2.544-4.297 3.721-6.866 3.721v2zm6.984-4.354l7.45 6.65 1.332-1.492-7.45-6.65-1.332 1.492zm7.321 5.297c-1.63 2.131-3.696 3.761-6.216 4.895l.821 1.824c2.814-1.266 5.147-3.103 6.984-5.505l-1.589-1.214zm-6.216 4.895c-2.518 1.133-5.408 1.712-8.689 1.712v2c3.518 0 6.695-.621 9.51-1.888l-.821-1.824zm20.385.362l.463-.886-.463.886zm-7.05-6.5l-.854.519.002.005.852-.524zm0-18.85l.852.523.003-.004-.855-.519zm27.35-6.55l.463-.886-.463.886zm7.05 6.55l-.854.519.002.005.852-.524zm0 18.85l.852.523.003-.004-.855-.519zm-7.05 6.5l.463.886-.463-.886zm-6.2-8.25l.515.857.007-.004-.522-.853zm2.85-3.05l.881.474.005-.01-.886-.464zm0-9.25l-.885.465.005.01.88-.475zm-2.85-3.05l-.532.847.014.008.015.009.503-.864zm-7.95 0l.515.857.007-.004-.522-.853zm-2.8 3.05l.881.474.005-.01-.886-.464zm0 9.25l-.885.465.005.01.88-.475zm2.8 3.05l-.532.847.014.009.015.008.503-.864zm4 9.6c-3.624 0-6.845-.752-9.687-2.236l-.925 1.772c3.158 1.65 6.703 2.464 10.612 2.464v-2zm-9.687-2.236c-2.847-1.487-5.059-3.531-6.661-6.138l-1.704 1.047c1.799 2.928 4.287 5.217 7.44 6.863l.925-1.772zm-6.658-6.133c-1.598-2.633-2.405-5.601-2.405-8.931h-2c0 3.67.894 7.002 2.696 9.969l1.709-1.038zm-2.405-8.931c0-3.33.807-6.28 2.402-8.877l-1.704-1.047c-1.804 2.937-2.698 6.254-2.698 9.924h2zm2.405-8.881c1.602-2.639 3.814-4.697 6.658-6.183l-.925-1.772c-3.157 1.648-5.644 3.956-7.442 6.917l1.709 1.038zm6.658-6.183c2.842-1.484 6.063-2.236 9.687-2.236v-2c-3.909 0-7.454.814-10.612 2.464l.925 1.772zm9.687-2.236c3.624 0 6.846.752 9.688 2.236l.925-1.772c-3.158-1.65-6.703-2.464-10.613-2.464v2zm9.688 2.236c2.843 1.486 5.056 3.544 6.658 6.183l1.709-1.038c-1.798-2.961-4.286-5.27-7.442-6.917l-.925 1.772zm6.66 6.188c1.596 2.597 2.402 5.546 2.402 8.876h2c0-3.67-.893-6.987-2.698-9.924l-1.704 1.047zm2.402 8.876c0 3.33-.806 6.298-2.404 8.931l1.709 1.038c1.802-2.967 2.695-6.299 2.695-9.969h-2zm-2.402 8.926c-1.601 2.607-3.814 4.65-6.66 6.138l.925 1.772c3.153-1.646 5.641-3.935 7.439-6.862l-1.704-1.047zm-6.66 6.138c-2.842 1.483-6.064 2.236-9.688 2.236v2c3.91 0 7.455-.814 10.613-2.464l-.925-1.772zm-9.688-5.314c1.634 0 3.131-.392 4.465-1.193l-1.029-1.715c-.999.6-2.136.908-3.436.908v2zm4.472-1.197c1.359-.83 2.429-1.981 3.209-3.429l-1.761-.948c-.62 1.152-1.45 2.034-2.491 2.67l1.043 1.707zm3.214-3.438c.787-1.5 1.164-3.214 1.164-5.115h-2c0 1.633-.322 3.018-.935 4.185l1.771.93zm1.164-5.115c0-1.9-.377-3.602-1.169-5.074l-1.761.948c.607 1.128.93 2.492.93 4.126h2zm-1.164-5.065c-.78-1.485-1.856-2.646-3.232-3.449l-1.007 1.728c1.024.597 1.848 1.47 2.468 2.65l1.771-.929zm-3.203-3.432c-1.337-.84-2.84-1.253-4.483-1.253v2c1.291 0 2.421.32 3.418.947l1.065-1.694zm-4.483-1.253c-1.642 0-3.157.413-4.521 1.247l1.043 1.706c1.036-.633 2.187-.953 3.478-.953v-2zm-4.514 1.242c-1.34.805-2.395 1.965-3.171 3.443l1.771.93c.624-1.189 1.436-2.062 2.429-2.657l-1.029-1.715zm-3.166 3.434c-.793 1.472-1.17 3.174-1.17 5.074h2c0-1.634.323-2.998.931-4.126l-1.761-.948zm-1.17 5.074c0 1.9.378 3.615 1.165 5.115l1.771-.93c-.613-1.167-.936-2.552-.936-4.185h-2zm1.17 5.124c.776 1.441 1.825 2.59 3.148 3.423l1.065-1.694c-1.01-.634-1.828-1.518-2.452-2.677l-1.761.948zm3.177 3.44c1.361.794 2.87 1.186 4.503 1.186v-2c-1.299 0-2.457-.308-3.496-.914l-1.007 1.728zM646.965 8V7h-1v1h1zm11.8 0h1V7h-1v1zm0 25.85h-1v1h1v-1zm15.8 0h1v-1h-1v1zm0 9.15v1h1v-1h-1zm-27.6 0h-1v1h1v-1zm0-34h11.8V7h-11.8v2zm10.8-1v25.85h2V8h-2zm1 26.85h15.8v-2h-15.8v2zm14.8-1V43h2v-9.15h-2zm1 8.15h-27.6v2h27.6v-2zm-26.6 1V8h-2v35h2zm32.36-35V7h-1v1h1zm11.8 0h1V7h-1v1zm0 25.85h-1v1h1v-1zm15.8 0h1v-1h-1v1zm0 9.15v1h1v-1h-1zm-27.6 0h-1v1h1v-1zm0-34h11.8V7h-11.8v2zm10.8-1v25.85h2V8h-2zm1 26.85h15.8v-2h-15.8v2zm14.8-1V43h2v-9.15h-2zm1 8.15h-27.6v2h27.6v-2zm-26.6 1V8h-2v35h2zm56.697-6.1l.933-.36-.246-.64h-.687v1zm-13.3 0v-1h-.686l-.247.64.933.36zm-2.35 6.1v1h.687l.246-.64-.933-.36zm-12 0l-.916-.4-.612 1.4h1.528v-1zm15.3-35V7h-.654l-.262.6.916.4zm11.6 0l.917-.4-.262-.6h-.655v1zm15.3 35v1h1.529l-.612-1.4-.917.4zm-12.2 0l-.933.36.247.64h.686v-1zm-5.6-14.6v1h1.459l-.526-1.36-.933.36zm-3.4-8.8l.933-.36-.933-2.415-.933 2.415.933.36zm-3.4 8.8l-.933-.36-.525 1.36h1.458v-1zm10.05 7.5h-13.3v2h13.3v-2zm-14.233.64l-2.35 6.1 1.866.72 2.35-6.1-1.866-.72zM722.372 42h-12v2h12v-2zm-11.083 1.4l15.3-35-1.833-.8-15.3 35 1.833.8zM725.672 9h11.6V7h-11.6v2zm10.684-.6l15.3 35 1.833-.8-15.3-35-1.833.8zM752.572 42h-12.2v2h12.2v-2zm-11.267.64l-2.35-6.1-1.866.72 2.35 6.1 1.866-.72zm-5.6-14.6l-3.4-8.8-1.866.72 3.4 8.8 1.866-.72zm-5.266-8.8l-3.4 8.8 1.866.72 3.4-8.8-1.866-.72zm-2.467 10.16h6.8v-2h-6.8v2zm56.983-4.7l-.447-.894-2.061 1.03 2.161.802.347-.938zm4.8 3.35l.792-.611-.792.611zm-2.1 12.45l.55.835.008-.005-.558-.83zm-30.7 2.5h-1v1h1v-1zm0-35V7h-1v1h1zm29.25 2.5l-.575.818.005.003.57-.821zm2.35 11.05l-.841-.54-.005.008-.005.008.851.524zm-20-5.3v-1h-1v1h1zm0 5.2h-1v1h1v-1zm0 7.8v-1h-1v1h1zm0 5.5h-1v1h1v-1zm16.053-9.112c1.924.714 3.357 1.73 4.356 3.023l1.583-1.223c-1.268-1.64-3.035-2.856-5.244-3.676l-.695 1.876zm4.356 3.023c.983 1.272 1.491 2.817 1.491 4.689h2c0-2.261-.624-4.25-1.908-5.912l-1.583 1.223zm1.491 4.689c0 2.736-1.102 4.806-3.357 6.32l1.115 1.66c2.811-1.886 4.242-4.582 4.242-7.98h-2zm-3.349 6.315C784.805 41.178 781.365 42 776.655 42v2c4.891 0 8.784-.845 11.55-2.665l-1.099-1.67zM776.655 42h-19.7v2h19.7v-2zm-18.7 1V8h-2v35h2zm-1-34h18.7V7h-18.7v2zm18.7 0c4.577 0 7.851.822 9.975 2.318l1.151-1.636C784.171 7.844 780.413 7 775.655 7v2zm9.98 2.321c2.149 1.493 3.17 3.411 3.17 5.829h2c0-3.115-1.378-5.63-4.029-7.471l-1.141 1.642zm3.17 5.829c0 1.454-.367 2.73-1.091 3.86l1.683 1.08c.943-1.47 1.408-3.127 1.408-4.94h-2zm-1.101 3.876c-.687 1.116-1.733 2.048-3.196 2.78l.895 1.788c1.737-.868 3.091-2.036 4.004-3.52l-1.703-1.048zm-20.149-4.776v5.2h2v-5.2h-2zm1 6.2h5.5v-2h-5.5v2zm5.5 0c1.365 0 2.564-.225 3.448-.821.953-.644 1.402-1.627 1.402-2.779h-2c0 .58-.192.898-.522 1.121-.4.27-1.125.479-2.328.479v2zm4.85-3.6c0-1.152-.449-2.135-1.402-2.779-.884-.596-2.083-.821-3.448-.821v2c1.203 0 1.928.209 2.328.479.33.223.522.54.522 1.121h2zm-4.85-3.6h-5.5v2h5.5v-2zm1.6 20.5c1.387 0 2.607-.239 3.502-.87.959-.677 1.398-1.695 1.398-2.88h-2c0 .649-.21 1.005-.551 1.245-.405.286-1.136.505-2.349.505v2zm4.9-3.75c0-1.185-.439-2.203-1.398-2.88-.895-.631-2.115-.87-3.502-.87v2c1.213 0 1.944.22 2.349.505.341.24.551.596.551 1.245h2zm-4.9-3.75h-7.1v2h7.1v-2zm-8.1 1v5.5h2v-5.5h-2zm1 6.5h7.1v-2h-7.1v2zm37.772 5.7l.463-.886-.463.886zm-7.05-6.5l-.854.519.002.005.852-.524zm0-18.85l.852.523.003-.004-.855-.519zm27.35-6.55l.463-.886-.463.886zm7.05 6.55l-.854.519.002.005.852-.524zm0 18.85l.852.523.003-.004-.855-.519zm-7.05 6.5l.463.886-.463-.886zm-6.2-8.25l.515.857.007-.004-.522-.853zm2.85-3.05l.881.474.005-.01-.886-.464zm0-9.25l-.885.465.005.01.88-.475zm-2.85-3.05l-.532.847.014.008.014.009.504-.864zm-7.95 0l.515.857.007-.004-.522-.853zm-2.8 3.05l.881.474.005-.01-.886-.464zm0 9.25l-.885.465.005.01.88-.475zm2.8 3.05l-.532.847.014.009.014.008.504-.864zm4 9.6c-3.624 0-6.845-.752-9.687-2.236l-.926 1.772c3.159 1.65 6.704 2.464 10.613 2.464v-2zm-9.687-2.236c-2.847-1.487-5.059-3.531-6.661-6.138l-1.704 1.047c1.799 2.928 4.286 5.217 7.439 6.863l.926-1.772zm-6.658-6.133c-1.598-2.633-2.405-5.601-2.405-8.931h-2c0 3.67.894 7.002 2.696 9.969l1.709-1.038zm-2.405-8.931c0-3.33.807-6.28 2.402-8.877l-1.704-1.047c-1.804 2.937-2.698 6.254-2.698 9.924h2zm2.405-8.881c1.602-2.639 3.814-4.697 6.658-6.183l-.926-1.772c-3.156 1.648-5.644 3.956-7.441 6.917l1.709 1.038zm6.658-6.183c2.842-1.484 6.063-2.236 9.687-2.236v-2c-3.909 0-7.454.814-10.613 2.464l.926 1.772zm9.687-2.236c3.624 0 6.846.752 9.687 2.236l.926-1.772c-3.158-1.65-6.703-2.464-10.613-2.464v2zm9.687 2.236c2.844 1.486 5.056 3.544 6.659 6.183l1.709-1.038c-1.798-2.961-4.286-5.27-7.442-6.917l-.926 1.772zm6.661 6.188c1.596 2.597 2.402 5.546 2.402 8.876h2c0-3.67-.893-6.987-2.698-9.924l-1.704 1.047zm2.402 8.876c0 3.33-.806 6.298-2.404 8.931l1.709 1.038c1.802-2.967 2.695-6.299 2.695-9.969h-2zm-2.402 8.926c-1.601 2.607-3.814 4.65-6.661 6.138l.926 1.772c3.153-1.646 5.641-3.935 7.439-6.862l-1.704-1.047zm-6.661 6.138c-2.841 1.483-6.063 2.236-9.687 2.236v2c3.91 0 7.455-.814 10.613-2.464l-.926-1.772zm-9.687-5.314c1.634 0 3.131-.392 4.465-1.193l-1.029-1.715c-.999.6-2.136.908-3.436.908v2zm4.472-1.197c1.359-.83 2.429-1.981 3.209-3.429l-1.761-.948c-.621 1.152-1.45 2.034-2.491 2.67l1.043 1.707zm3.214-3.438c.787-1.5 1.164-3.214 1.164-5.115h-2c0 1.633-.322 3.018-.935 4.185l1.771.93zm1.164-5.115c0-1.9-.377-3.602-1.169-5.074l-1.761.948c.607 1.128.93 2.492.93 4.126h2zm-1.164-5.065c-.78-1.485-1.856-2.646-3.232-3.449l-1.008 1.728c1.025.597 1.849 1.47 2.469 2.65l1.771-.929zm-3.203-3.432c-1.337-.84-2.84-1.253-4.483-1.253v2c1.291 0 2.421.32 3.418.947l1.065-1.694zm-4.483-1.253c-1.642 0-3.157.413-4.521 1.247l1.043 1.706c1.036-.633 2.187-.953 3.478-.953v-2zm-4.514 1.242c-1.341.805-2.395 1.965-3.171 3.443l1.771.93c.624-1.189 1.436-2.062 2.429-2.657l-1.029-1.715zm-3.166 3.434c-.793 1.472-1.17 3.174-1.17 5.074h2c0-1.634.323-2.998.931-4.126l-1.761-.948zm-1.17 5.074c0 1.9.378 3.615 1.165 5.115l1.771-.93c-.613-1.167-.936-2.552-.936-4.185h-2zm1.17 5.124c.776 1.441 1.825 2.59 3.148 3.423l1.065-1.694c-1.01-.634-1.828-1.518-2.452-2.677l-1.761.948zm3.176 3.44c1.362.794 2.871 1.186 4.504 1.186v-2c-1.3 0-2.457-.308-3.496-.914l-1.008 1.728zm46.037.136l.829-.56-.298-.44h-.531v1zm-3.2 0v-1h-1v1h1zm0 8.8v1h1v-1h-1zm-11.8 0h-1v1h1v-1zm0-35V7h-1v1h1zm25.3 1.6l-.406.914.406-.914zm5.55 4.6l-.838.545.838-.545zm.25 13.55l-.855-.519.855.519zm-4.9 4.45l-.458-.889-1.004.518.635.934.827-.563zm7.35 10.8v1h1.89l-1.063-1.563-.827.563zm-12.6 0l-.828.56.297.44h.531v-1zm-1.25-24.8l-.676.737.009.008.009.008.658-.753zm-7.9-1.1v-1h-1v1h1zm0 8.2h-1v1h1v-1zm7.9-1.05l.659.753.008-.008.009-.008-.676-.737zm-4.7 8.95h-3.2v2h3.2v-2zm-4.2 1V43h2v-8.8h-2zm1 7.8h-11.8v2h11.8v-2zm-10.8 1V8h-2v35h2zm-1-34h16.85V7h-16.85v2zm16.85 0c3.125 0 5.798.515 8.044 1.514l.812-1.828C866.162 7.551 863.202 7 859.86 7v2zm8.044 1.514c2.242.996 3.934 2.41 5.118 4.231l1.677-1.09c-1.416-2.178-3.425-3.832-5.983-4.969l-.812 1.828zm5.118 4.231c1.182 1.82 1.788 3.958 1.788 6.455h2c0-2.837-.694-5.364-2.111-7.545l-1.677 1.09zm1.788 6.455c0 2.344-.529 4.342-1.555 6.031l1.71 1.038c1.241-2.045 1.845-4.413 1.845-7.069h-2zm-1.555 6.031c-1.028 1.694-2.517 3.056-4.503 4.08l.916 1.778c2.281-1.176 4.059-2.78 5.297-4.82l-1.71-1.038zm-4.872 5.532l7.35 10.8 1.654-1.126-7.35-10.8-1.654 1.126zM876.56 42h-12.6v2h12.6v-2zm-11.771.44l-5.95-8.8-1.657 1.12 5.95 8.8 1.657-1.12zm.121-21.24c0-1.518-.477-2.821-1.541-3.753l-1.317 1.506c.535.468.858 1.166.858 2.247h2zm-1.524-3.737c-1.055-.968-2.542-1.363-4.276-1.363v2c1.467 0 2.38.338 2.924.837l1.352-1.474zM859.11 16.1h-4.3v2h4.3v-2zm-5.3 1v8.2h2v-8.2h-2zm1 9.2h4.3v-2h-4.3v2zm4.3 0c1.724 0 3.204-.374 4.259-1.297l-1.317-1.506c-.545.477-1.466.803-2.942.803v2zm4.276-1.313c1.047-.96 1.524-2.267 1.524-3.787h-2c0 1.08-.323 1.806-.876 2.313l1.352 1.474zm43.23 11.913l.933-.36-.247-.64h-.686v1zm-13.3 0v-1h-.686l-.247.64.933.36zm-2.35 6.1v1h.686l.247-.64-.933-.36zm-12 0l-.916-.4-.612 1.4h1.528v-1zm15.3-35V7h-.654l-.262.6.916.4zm11.6 0l.916-.4-.262-.6h-.654v1zm15.3 35v1h1.529l-.613-1.4-.916.4zm-12.2 0l-.933.36.247.64h.686v-1zm-5.6-14.6v1h1.458l-.525-1.36-.933.36zm-3.4-8.8l.933-.36-.933-2.415-.933 2.415.933.36zm-3.4 8.8l-.933-.36-.525 1.36h1.458v-1zm10.05 7.5h-13.3v2h13.3v-2zm-14.233.64l-2.35 6.1 1.866.72 2.35-6.1-1.866-.72zM890.966 42h-12v2h12v-2zm-11.084 1.4l15.3-35-1.832-.8-15.3 35 1.832.8zM894.266 9h11.6V7h-11.6v2zm10.684-.6l15.3 35 1.832-.8-15.3-35-1.832.8zM921.166 42h-12.2v2h12.2v-2zm-11.267.64l-2.35-6.1-1.866.72 2.35 6.1 1.866-.72zm-5.6-14.6l-3.4-8.8-1.866.72 3.4 8.8 1.866-.72zm-5.266-8.8l-3.4 8.8 1.866.72 3.4-8.8-1.866-.72zm-2.467 10.16h6.8v-2h-6.8v2zm34.825-12.25h1v-1h-1v1zm-10.25 0h-1v1h1v-1zm0-9.15V7h-1v1h1zm32.3 0h1V7h-1v1zm0 9.15v1h1v-1h-1zm-10.25 0v-1h-1v1h1zm0 25.85v1h1v-1h-1zm-11.8 0h-1v1h1v-1zm0-26.85h-10.25v2h10.25v-2zm-9.25 1V8h-2v9.15h2zm-1-8.15h32.3V7h-32.3v2zm31.3-1v9.15h2V8h-2zm1 8.15h-10.25v2h10.25v-2zm-11.25 1V43h2V17.15h-2zm1 24.85h-11.8v2h11.8v-2zm-10.8 1V17.15h-2V43h2zm55.715-8.9h1v-1h-1v1zm0 8.9v1h1v-1h-1zm-29.1 0h-1v1h1v-1zm0-35V7h-1v1h1zm28.45 0h1V7h-1v1zm0 8.9v1h1v-1h-1zm-16.85 0v-1h-1v1h1zm0 4.1h-1v1h1v-1zm14.8 0h1v-1h-1v1zm0 8.5v1h1v-1h-1zm-14.8 0v-1h-1v1h1zm0 4.6h-1v1h1v-1zm16.5 0V43h2v-8.9h-2zm1 7.9h-29.1v2h29.1v-2zm-28.1 1V8h-2v35h2zm-1-34h28.45V7h-28.45v2zm27.45-1v8.9h2V8h-2zm1 7.9h-16.85v2h16.85v-2zm-17.85 1V21h2v-4.1h-2zm1 5.1h14.8v-2h-14.8v2zm13.8-1v8.5h2V21h-2zm1 7.5h-14.8v2h14.8v-2zm-15.8 1v4.6h2v-4.6h-2zm1 5.6h17.5v-2h-17.5v2zM1024.29.9v-1h-.71l-.23.67.94.33zm10 0l.94.33.47-1.33h-1.41v1zm-16.5 47.1v1h.71l.23-.67-.94-.33zm-10 0l-.94-.33-.47 1.33h1.41v-1zm16.5-46.1h10v-2h-10v2zm9.06-1.33l-16.5 47.1 1.88.66 16.5-47.1-1.88-.66zM1017.79 47h-10v2h10v-2zm-9.06 1.33l16.5-47.1-1.88-.66-16.5 47.1 1.88.66zm60.92-14.13l.83-.56-.3-.44h-.53v1zm-3.2 0v-1h-1v1h1zm0 8.8v1h1v-1h-1zm-11.8 0h-1v1h1v-1zm0-35V7h-1v1h1zm25.3 1.6l-.41.914.41-.914zm5.55 4.6l-.84.545.84-.545zm.25 13.55l-.85-.519.85.519zm-4.9 4.45l-.46-.889-1 .518.63.934.83-.563zm7.35 10.8v1h1.89l-1.06-1.563-.83.563zm-12.6 0l-.83.56.3.44h.53v-1zm-1.25-24.8l-.67.737v.008l.01.008.66-.753zm-7.9-1.1v-1h-1v1h1zm0 8.2h-1v1h1v-1zm7.9-1.05l.66.753.01-.008.01-.008-.68-.737zm-4.7 8.95h-3.2v2h3.2v-2zm-4.2 1V43h2v-8.8h-2zm1 7.8h-11.8v2h11.8v-2zm-10.8 1V8h-2v35h2zm-1-34h16.85V7h-16.85v2zm16.85 0c3.13 0 5.8.515 8.04 1.514l.82-1.828C1077.8 7.551 1074.84 7 1071.5 7v2zm8.04 1.514c2.25.996 3.94 2.41 5.12 4.231l1.68-1.09c-1.42-2.178-3.42-3.832-5.98-4.969l-.82 1.828zm5.12 4.231c1.18 1.82 1.79 3.958 1.79 6.455h2c0-2.837-.69-5.364-2.11-7.545l-1.68 1.09zm1.79 6.455c0 2.344-.53 4.342-1.55 6.031l1.71 1.038c1.24-2.045 1.84-4.413 1.84-7.069h-2zm-1.55 6.031c-1.03 1.694-2.52 3.056-4.51 4.08l.92 1.778c2.28-1.176 4.06-2.78 5.3-4.82l-1.71-1.038zm-4.88 5.532l7.35 10.8 1.66-1.126-7.35-10.8-1.66 1.126zM1088.2 42h-12.6v2h12.6v-2zm-11.77.44l-5.95-8.8-1.66 1.12 5.95 8.8 1.66-1.12zm.12-21.24c0-1.518-.48-2.821-1.54-3.753l-1.32 1.506c.54.468.86 1.166.86 2.247h2zm-1.52-3.737c-1.06-.968-2.55-1.363-4.28-1.363v2c1.47 0 2.38.338 2.93.837l1.35-1.474zm-4.28-1.363h-4.3v2h4.3v-2zm-5.3 1v8.2h2v-8.2h-2zm1 9.2h4.3v-2h-4.3v2zm4.3 0c1.72 0 3.2-.374 4.26-1.297l-1.32-1.506c-.54.477-1.46.803-2.94.803v2zm4.28-1.313c1.04-.96 1.52-2.267 1.52-3.787h-2c0 1.08-.32 1.806-.87 2.313l1.35 1.474zm48.48 9.113h1v-1h-1v1zm0 8.9v1h1v-1h-1zm-29.1 0h-1v1h1v-1zm0-35V7h-1v1h1zm28.45 0h1V7h-1v1zm0 8.9v1h1v-1h-1zm-16.85 0v-1h-1v1h1zm0 4.1h-1v1h1v-1zm14.8 0h1v-1h-1v1zm0 8.5v1h1v-1h-1zm-14.8 0v-1h-1v1h1zm0 4.6h-1v1h1v-1zm16.5 0V43h2v-8.9h-2zm1 7.9h-29.1v2h29.1v-2zm-28.1 1V8h-2v35h2zm-1-34h28.45V7h-28.45v2zm27.45-1v8.9h2V8h-2zm1 7.9h-16.85v2h16.85v-2zm-17.85 1V21h2v-4.1h-2zm1 5.1h14.8v-2h-14.8v2zm13.8-1v8.5h2V21h-2zm1 7.5h-14.8v2h14.8v-2zm-15.8 1v4.6h2v-4.6h-2zm1 5.6h17.5v-2h-17.5v2zm48.39 1.8l.93-.36-.24-.64h-.69v1zm-13.3 0v-1h-.69l-.24.64.93.36zm-2.35 6.1v1h.69l.24-.64-.93-.36zm-12 0l-.92-.4-.61 1.4h1.53v-1zm15.3-35V7h-.65l-.27.6.92.4zm11.6 0l.92-.4-.27-.6h-.65v1zm15.3 35v1h1.53l-.61-1.4-.92.4zm-12.2 0l-.93.36.24.64h.69v-1zm-5.6-14.6v1h1.46l-.53-1.36-.93.36zm-3.4-8.8l.93-.36-.93-2.415-.93 2.415.93.36zm-3.4 8.8l-.93-.36-.53 1.36h1.46v-1zm10.05 7.5h-13.3v2h13.3v-2zm-14.23.64l-2.35 6.1 1.86.72 2.35-6.1-1.86-.72zm-1.42 5.46h-12v2h12v-2zm-11.08 1.4l15.3-35-1.84-.8-15.3 35 1.84.8zM1142.05 9h11.6V7h-11.6v2zm10.68-.6l15.3 35 1.84-.8-15.3-35-1.84.8zm16.22 33.6h-12.2v2h12.2v-2zm-11.27.64l-2.35-6.1-1.86.72 2.35 6.1 1.86-.72zm-5.6-14.6l-3.4-8.8-1.86.72 3.4 8.8 1.86-.72zm-5.26-8.8l-3.4 8.8 1.86.72 3.4-8.8-1.86-.72zm-2.47 10.16h6.8v-2h-6.8v2zM1173.33 8V7h-1v1h1zm27.55 2.15l-.43.9.01.006.42-.906zm6.95 6.05l-.85.527.01.008.84-.535zm0 18.6l-.84-.535-.01.008.85.527zm-6.95 6.1l.43.904v-.002l-.43-.902zm-27.55 2.1h-1v1h1v-1zm22.8-11.35l.69.723-.69-.723zm0-12.25l-.7.715.01.008.01.008.68-.731zm-11-2.2v-1h-1v1h1zm0 16.6h-1v1h1v-1zM1173.33 9h17.25V7h-17.25v2zm17.25 0c3.78 0 7.06.694 9.87 2.05l.87-1.8c-3.13-1.51-6.71-2.25-10.74-2.25v2zm9.88 2.056c2.84 1.324 5 3.214 6.52 5.671l1.7-1.054c-1.74-2.81-4.21-4.953-7.37-6.43l-.85 1.813zm6.53 5.679c1.55 2.451 2.34 5.36 2.34 8.765h2c0-3.728-.87-7.02-2.65-9.835l-1.69 1.07zm2.34 8.765c0 3.405-.79 6.314-2.34 8.765l1.69 1.07c1.78-2.816 2.65-6.107 2.65-9.835h-2zm-2.35 8.773c-1.52 2.459-3.69 4.367-6.53 5.725l.86 1.804c3.16-1.51 5.63-3.667 7.37-6.475l-1.7-1.054zm-6.52 5.723c-2.81 1.326-6.1 2.004-9.88 2.004v2c4.02 0 7.61-.722 10.73-2.196l-.85-1.808zM1190.58 42h-17.25v2h17.25v-2zm-16.25 1V8h-2v35h2zm15.75-8.2c2.73 0 5.02-.778 6.74-2.427l-1.38-1.446c-1.27 1.218-3.02 1.873-5.36 1.873v2zm6.74-2.427c1.78-1.7 2.61-4.037 2.61-6.873h-2c0 2.43-.7 4.193-1.99 5.427l1.38 1.446zm2.61-6.873c0-2.835-.83-5.162-2.61-6.83l-1.37 1.46c1.28 1.199 1.98 2.938 1.98 5.37h2zm-2.6-6.815c-1.72-1.686-4.01-2.485-6.75-2.485v2c2.33 0 4.08.668 5.35 1.915l1.4-1.43zm-6.75-2.485h-4.95v2h4.95v-2zm-5.95 1v16.6h2V17.2h-2zm1 17.6h4.95v-2h-4.95v2zm61.11-.7h1v-1h-1v1zm0 8.9v1h1v-1h-1zm-29.1 0h-1v1h1v-1zm0-35V7h-1v1h1zm28.45 0h1V7h-1v1zm0 8.9v1h1v-1h-1zm-16.85 0v-1h-1v1h1zm0 4.1h-1v1h1v-1zm14.8 0h1v-1h-1v1zm0 8.5v1h1v-1h-1zm-14.8 0v-1h-1v1h1zm0 4.6h-1v1h1v-1zm16.5 0V43h2v-8.9h-2zm1 7.9h-29.1v2h29.1v-2zm-28.1 1V8h-2v35h2zm-1-34h28.45V7h-28.45v2zm27.45-1v8.9h2V8h-2zm1 7.9h-16.85v2h16.85v-2zm-17.85 1V21h2v-4.1h-2zm1 5.1h14.8v-2h-14.8v2zm13.8-1v8.5h2V21h-2zm1 7.5h-14.8v2h14.8v-2zm-15.8 1v4.6h2v-4.6h-2zm1 5.6h17.5v-2h-17.5v2zm39.54-.9l.83-.56-.3-.44h-.53v1zm-3.2 0v-1h-1v1h1zm0 8.8v1h1v-1h-1zm-11.8 0h-1v1h1v-1zm0-35V7h-1v1h1zm25.3 1.6l-.4.914.4-.914zm5.55 4.6l-.83.545.83-.545zm.25 13.55l-.85-.519.85.519zm-4.9 4.45l-.45-.889-1.01.518.64.934.82-.563zm7.35 10.8v1h1.89l-1.06-1.563-.83.563zm-12.6 0l-.82.56.29.44h.53v-1zm-1.25-24.8l-.67.737.01.008.01.008.65-.753zm-7.9-1.1v-1h-1v1h1zm0 8.2h-1v1h1v-1zm7.9-1.05l.66.753.01-.008.01-.008-.68-.737zm-4.7 8.95h-3.2v2h3.2v-2zm-4.2 1V43h2v-8.8h-2zm1 7.8h-11.8v2h11.8v-2zm-10.8 1V8h-2v35h2zm-1-34h16.85V7h-16.85v2zm16.85 0c3.13 0 5.8.515 8.05 1.514l.81-1.828c-2.55-1.135-5.51-1.686-8.86-1.686v2zm8.05 1.514c2.24.996 3.93 2.41 5.12 4.231l1.67-1.09c-1.41-2.178-3.42-3.832-5.98-4.969l-.81 1.828zm5.12 4.231c1.18 1.82 1.78 3.958 1.78 6.455h2c0-2.837-.69-5.364-2.11-7.545l-1.67 1.09zm1.78 6.455c0 2.344-.53 4.342-1.55 6.031l1.71 1.038c1.24-2.045 1.84-4.413 1.84-7.069h-2zm-1.55 6.031c-1.03 1.694-2.52 3.056-4.5 4.08l.91 1.778c2.28-1.176 4.06-2.78 5.3-4.82l-1.71-1.038zm-4.87 5.532l7.35 10.8 1.65-1.126-7.35-10.8-1.65 1.126zm8.17 9.237h-12.6v2h12.6v-2zm-11.77.44l-5.95-8.8-1.65 1.12 5.95 8.8 1.65-1.12zm.12-21.24c0-1.518-.47-2.821-1.54-3.753l-1.31 1.506c.53.468.85 1.166.85 2.247h2zm-1.52-3.737c-1.06-.968-2.54-1.363-4.28-1.363v2c1.47 0 2.38.338 2.93.837l1.35-1.474zm-4.28-1.363h-4.3v2h4.3v-2zm-5.3 1v8.2h2v-8.2h-2zm1 9.2h4.3v-2h-4.3v2zm4.3 0c1.73 0 3.21-.374 4.26-1.297l-1.31-1.506c-.55.477-1.47.803-2.95.803v2zm4.28-1.313c1.05-.96 1.52-2.267 1.52-3.787h-2c0 1.08-.32 1.806-.87 2.313l1.35 1.474zM32.99 61.9v-1h-.709l-.234.67.943.33zm10 0l.944.33.466-1.33h-1.41v1zM26.49 109v1h.71l.234-.669-.944-.331zm-10 0l-.943-.331L15.08 110h1.41v-1zm16.5-46.1h10v-2h-10v2zm9.056-1.33l-16.5 47.099 1.888.662 16.5-47.1-1.887-.662zM26.49 108h-10v2h10v-2zm-9.056 1.331l16.5-47.1-1.887-.662-16.5 47.1 1.887.662zM70.952 78.15h1v-1h-1v1zm-10.25 0h-1v1h1v-1zm0-9.15v-1h-1v1h1zm32.3 0h1v-1h-1v1zm0 9.15v1h1v-1h-1zm-10.25 0v-1h-1v1h1zm0 25.85v1h1v-1h-1zm-11.8 0h-1v1h1v-1zm0-26.85h-10.25v2h10.25v-2zm-9.25 1V69h-2v9.15h2zm-1-8.15h32.3v-2h-32.3v2zm31.3-1v9.15h2V69h-2zm1 8.15h-10.25v2h10.25v-2zm-11.25 1V104h2V78.15h-2zm1 24.85h-11.8v2h11.8v-2zm-10.8 1V78.15h-2V104h2zm41.615-8.8l.828-.56-.297-.44h-.531v1zm-3.2 0v-1h-1v1h1zm0 8.8v1h1v-1h-1zm-11.8 0h-1v1h1v-1zm0-35v-1h-1v1h1zm25.3 1.6l-.406.914.406-.914zm5.55 4.6l-.839.545.839-.545zm.25 13.55l-.855-.519.855.519zm-4.9 4.45l-.458-.889-1.004.518.635.934.827-.563zm7.35 10.8v1h1.89l-1.063-1.563-.827.563zm-12.6 0l-.829.56.298.44h.531v-1zm-1.25-24.8l-.676.737.009.008.008.008.659-.753zm-7.9-1.1v-1h-1v1h1zm0 8.2h-1v1h1v-1zm7.9-1.05l.658.753.009-.008.009-.008-.676-.737zm-4.7 8.95h-3.2v2h3.2v-2zm-4.2 1v8.8h2v-8.8h-2zm1 7.8h-11.8v2h11.8v-2zm-10.8 1V69h-2v35h2zm-1-34h16.85v-2h-16.85v2zm16.85 0c3.125 0 5.797.516 8.044 1.514l.812-1.828c-2.554-1.135-5.514-1.686-8.856-1.686v2zm8.044 1.514c2.241.996 3.933 2.41 5.117 4.231l1.677-1.09c-1.416-2.178-3.424-3.832-5.982-4.969l-.812 1.828zm5.117 4.231c1.183 1.82 1.789 3.958 1.789 6.455h2c0-2.837-.694-5.364-2.112-7.545l-1.677 1.09zm1.789 6.455c0 2.344-.53 4.342-1.555 6.031l1.71 1.038c1.241-2.045 1.845-4.413 1.845-7.069h-2zm-1.555 6.031c-1.028 1.694-2.517 3.056-4.503 4.08l.916 1.778c2.28-1.176 4.058-2.78 5.297-4.82l-1.71-1.038zm-4.872 5.532l7.35 10.8 1.654-1.126-7.35-10.8-1.654 1.126zm8.177 9.237h-12.6v2h12.6v-2zm-11.772.44l-5.95-8.8-1.657 1.12 5.95 8.8 1.657-1.12zm.122-21.24c0-1.519-.477-2.821-1.542-3.753l-1.317 1.506c.536.468.859 1.165.859 2.247h2zm-1.524-3.737c-1.056-.967-2.543-1.363-4.276-1.363v2c1.466 0 2.379.338 2.924.837l1.352-1.474zm-4.276-1.363h-4.3v2h4.3v-2zm-5.3 1v8.2h2v-8.2h-2zm1 9.2h4.3v-2h-4.3v2zm4.3 0c1.724 0 3.203-.374 4.258-1.297l-1.317-1.506c-.545.477-1.465.803-2.941.803v2zm4.276-1.313c1.047-.96 1.524-2.267 1.524-3.787h-2c0 1.08-.323 1.806-.876 2.313l1.352 1.474zm43.23 11.913l.933-.36-.247-.64h-.686v1zm-13.3 0v-1h-.687l-.246.64.933.36zm-2.35 6.1v1h.686l.247-.641-.933-.359zm-12 0l-.917-.401-.612 1.401h1.529v-1zm15.3-35v-1h-.655l-.262.6.917.4zm11.6 0l.916-.4-.262-.6h-.654v1zm15.3 35v1h1.528l-.612-1.401-.916.401zm-12.2 0l-.933.359.246.641h.687v-1zm-5.6-14.6v1h1.458l-.526-1.36-.932.36zm-3.4-8.8l.932-.36-.932-2.415-.933 2.415.933.36zm-3.4 8.8l-.933-.36-.526 1.36h1.459v-1zm10.05 7.5h-13.3v2h13.3v-2zm-14.233.64l-2.35 6.101 1.866.718 2.35-6.1-1.866-.719zm-1.417 5.46h-12v2h12v-2zm-11.084 1.401l15.3-35-1.833-.801-15.3 34.999 1.833.802zM149.823 70h11.6v-2h-11.6v2zm10.683-.6l15.3 35.001 1.833-.802-15.3-35-1.833.801zm16.217 33.6h-12.2v2h12.2v-2zm-11.267.641l-2.35-6.1-1.866.719 2.35 6.099 1.866-.718zm-5.601-14.601l-3.4-8.8-1.865.72 3.4 8.8 1.865-.72zm-5.265-8.8l-3.4 8.8 1.865.72 3.4-8.8-1.865-.72zm-2.467 10.16h6.8v-2h-6.8v2zM215.606 69h1v-1h-1v1zm0 35v1h1v-1h-1zm-9.7 0l-.767.642.3.358h.467v-1zm-13.3-15.9l.767-.642-1.767-2.112V88.1h1zm0 15.9v1h1v-1h-1zm-11.5 0h-1v1h1v-1zm0-35v-1h-1v1h1zm9.7 0l.767-.642-.3-.358h-.467v1zm13.3 15.9l-.767.642 1.767 2.112V84.9h-1zm0-15.9v-1h-1v1h1zm10.5 0v35h2V69h-2zm1 34h-9.7v2h9.7v-2zm-8.933.358l-13.3-15.9-1.534 1.284 13.3 15.9 1.534-1.284zM191.606 88.1V104h2V88.1h-2zm1 14.9h-11.5v2h11.5v-2zm-10.5 1V69h-2v35h2zm-1-34h9.7v-2h-9.7v2zm8.933-.358l13.3 15.9 1.534-1.284-13.3-15.9-1.534 1.284zM205.106 84.9V69h-2v15.9h2zm-1-14.9h11.5v-2h-11.5v2zm24.235 33.85l-.237.972.007.001.007.002.223-.975zm-6.75-2.65l-.914-.404-.351.794.737.459.528-.849zm3.8-8.6l.502-.865-.965-.56-.451 1.02.914.405zm5.6 2.35l-.278.96.007.002.007.002.264-.964zm9.45.4l.394.92.019-.009.017-.008-.43-.903zm-.35-3.1l-.377.926.012.005.365-.931zm-4.5-1.2l-.205.979h.003l.202-.979zm-6.75-1.8l-.347.938.008.003.008.002.331-.943zm-4.7-3.2l-.747.664.007.009.74-.673zm-.15-12.05l.825.565-.825-.565zm5.5-4.25l-.386-.922-.004.002.39.92zm16-.75l-.225.974.008.002.008.002.209-.978zm6.15 2.25l.924.383.339-.817-.77-.436-.493.87zm-3.55 8.55l-.45.893.961.485.413-.995-.924-.383zm-12.95 1.2l-.377.926.015.006.015.006.347-.938zm4.45 1.1l-.19.982h.006l.184-.982zm6.75 1.75l-.341.94.007.002.008.003.326-.945zm4.75 3.15l-.74.673.009.009.731-.682zm.2 12l.82.572.005-.007-.825-.565zm-5.55 4.25l.391.92.006-.002-.397-.918zm-8.9.55c-2.826 0-5.585-.309-8.276-.925l-.447 1.95c2.842.65 5.75.975 8.723.975v-2zm-8.263-.922c-2.664-.649-4.807-1.499-6.458-2.527l-1.057 1.698c1.882 1.172 4.239 2.089 7.041 2.773l.474-1.944zm-6.072-1.274l3.8-8.6-1.829-.808-3.8 8.6 1.829.808zm2.384-8.139c1.744 1.012 3.687 1.825 5.823 2.445l.557-1.92c-1.997-.58-3.788-1.334-5.377-2.255l-1.003 1.73zm5.837 2.45c2.142.587 4.215.885 6.214.885v-2c-1.8 0-3.694-.268-5.685-.814l-.529 1.928zm6.214.885c1.649 0 2.994-.145 3.894-.53l-.788-1.84c-.499.215-1.488.37-3.106.37v2zm3.93-.547c.458-.218.87-.517 1.168-.929a2.39 2.39 0 00.452-1.424h-2c0 .12-.028.19-.072.251-.052.072-.165.18-.408.296l.86 1.806zm1.62-2.353c0-.6-.198-1.15-.587-1.61-.374-.44-.883-.75-1.447-.97l-.731 1.86c.37.146.56.295.653.404a.446.446 0 01.112.316h2zm-2.022-2.576c-.992-.404-2.569-.819-4.675-1.253l-.405 1.958c2.094.433 3.517.818 4.325 1.147l.755-1.852zm-4.672-1.253c-2.674-.56-4.879-1.15-6.624-1.764l-.663 1.886c1.855.653 4.15 1.264 6.876 1.836l.411-1.958zm-6.608-1.759c-1.645-.609-3.078-1.582-4.308-2.935l-1.48 1.346c1.438 1.58 3.138 2.74 5.093 3.465l.695-1.876zm-4.3-2.926c-1.131-1.273-1.748-3.031-1.748-5.386h-2c0 2.712.718 4.987 2.253 6.714l1.495-1.328zM223.141 80c0-2 .557-3.803 1.675-5.435l-1.65-1.13c-1.348 1.968-2.025 4.165-2.025 6.565h2zm1.675-5.435c1.105-1.612 2.771-2.92 5.066-3.895l-.781-1.84c-2.572 1.092-4.572 2.617-5.935 4.605l1.65 1.13zm5.062-3.893c2.313-.969 5.157-1.472 8.563-1.472v-2c-3.593 0-6.715.53-9.336 1.628l.773 1.844zm8.563-1.472c2.326 0 4.6.258 6.825.774l.451-1.948a32.11 32.11 0 00-7.276-.826v2zm6.841.778c2.251.482 4.202 1.2 5.867 2.142l.985-1.74c-1.869-1.058-4.017-1.84-6.433-2.358l-.419 1.956zm5.436.889l-3.55 8.55 1.847.766 3.55-8.55-1.847-.766zm-2.176 8.04c-3.538-1.786-6.943-2.707-10.201-2.707v2c2.876 0 5.971.812 9.3 2.493l.901-1.786zM238.341 76.2c-1.565 0-2.884.184-3.847.65-.495.24-.931.57-1.242 1.02a2.659 2.659 0 00-.461 1.53h2a.66.66 0 01.108-.395c.069-.1.202-.227.465-.355.554-.267 1.509-.45 2.977-.45v-2zm-5.55 3.2c0 .585.196 1.122.574 1.57.362.43.855.734 1.399.956l.755-1.852c-.356-.145-.538-.29-.626-.394a.396.396 0 01-.102-.28h-2zm2.003 2.538c.982.364 2.535.743 4.607 1.144l.38-1.964c-2.06-.399-3.475-.753-4.292-1.056l-.695 1.876zm4.613 1.145c2.632.493 4.826 1.064 6.593 1.707l.683-1.88c-1.9-.69-4.206-1.286-6.907-1.793l-.369 1.966zm6.608 1.712c1.671.578 3.113 1.532 4.336 2.878l1.48-1.346c-1.443-1.588-3.168-2.733-5.163-3.422l-.653 1.89zm4.345 2.887c1.152 1.236 1.781 2.968 1.781 5.318h2c0-2.717-.737-4.985-2.318-6.682l-1.463 1.364zM252.141 93c0 2-.556 3.803-1.675 5.435l1.65 1.13c1.349-1.968 2.025-4.165 2.025-6.565h-2zm-1.67 5.428c-1.103 1.581-2.788 2.893-5.127 3.904l.794 1.836c2.595-1.122 4.61-2.643 5.973-4.596l-1.64-1.144zm-5.12 3.902c-2.277.966-5.103 1.47-8.51 1.47v2c3.593 0 6.701-.53 9.291-1.63l-.781-1.84zM259.153 69v-1h-1v1h1zm11.8 0h1v-1h-1v1zm0 25.85h-1v1h1v-1zm15.8 0h1v-1h-1v1zm0 9.15v1h1v-1h-1zm-27.6 0h-1v1h1v-1zm0-34h11.8v-2h-11.8v2zm10.8-1v25.85h2V69h-2zm1 26.85h15.8v-2h-15.8v2zm14.8-1V104h2v-9.15h-2zm1 8.15h-27.6v2h27.6v-2zm-26.6 1V69h-2v35h2zm56.697-6.1l.934-.36-.247-.64h-.687v1zm-13.3 0v-1h-.686l-.247.64.933.36zm-2.35 6.1v1h.687l.247-.641-.934-.359zm-12 0l-.916-.401-.612 1.401h1.528v-1zm15.3-35v-1h-.654l-.262.6.916.4zm11.6 0l.917-.4-.262-.6h-.655v1zm15.3 35v1h1.529l-.612-1.401-.917.401zm-12.2 0l-.933.359.247.641h.686v-1zm-5.6-14.6v1h1.459l-.526-1.36-.933.36zm-3.4-8.8l.933-.36-.933-2.415-.932 2.415.932.36zm-3.4 8.8l-.932-.36-.526 1.36h1.458v-1zm10.05 7.5h-13.3v2h13.3v-2zm-14.233.64l-2.35 6.101 1.867.718 2.35-6.1-1.867-.719zM301.2 103h-12v2h12v-2zm-11.083 1.401l15.3-35-1.833-.801-15.3 34.999 1.833.802zM304.5 70h11.6v-2h-11.6v2zm10.684-.6l15.3 35.001 1.833-.802-15.3-35-1.833.801zM331.4 103h-12.2v2h12.2v-2zm-11.266.641l-2.35-6.1-1.867.719 2.35 6.099 1.867-.718zm-5.601-14.601l-3.4-8.8-1.865.72 3.4 8.8 1.865-.72zm-5.265-8.8l-3.4 8.8 1.865.72 3.4-8.8-1.865-.72zM306.8 90.4h6.8v-2h-6.8v2zm34.826-12.25h1v-1h-1v1zm-10.25 0h-1v1h1v-1zm0-9.15v-1h-1v1h1zm32.3 0h1v-1h-1v1zm0 9.15v1h1v-1h-1zm-10.25 0v-1h-1v1h1zm0 25.85v1h1v-1h-1zm-11.8 0h-1v1h1v-1zm0-26.85h-10.25v2h10.25v-2zm-9.25 1V69h-2v9.15h2zm-1-8.15h32.3v-2h-32.3v2zm31.3-1v9.15h2V69h-2zm1 8.15h-10.25v2h10.25v-2zm-11.25 1V104h2V78.15h-2zm1 24.85h-11.8v2h11.8v-2zm-10.8 1V78.15h-2V104h2zm34.326-1.55l.463-.886-.463.886zm-7.05-6.5l-.854.519.002.005.852-.524zm0-18.85l.852.524.003-.005-.855-.519zm27.35-6.55l.463-.886-.463.886zm7.05 6.55l-.854.519.002.005.852-.524zm0 18.85l.852.523.003-.004-.855-.519zm-7.05 6.5l.463.886-.463-.886zm-6.2-8.25l.515.858.007-.005-.522-.853zm2.85-3.05l.881.474.005-.01-.886-.464zm0-9.25l-.885.465.005.01.88-.475zm-2.85-3.05l-.532.847.014.008.014.009.504-.864zm-7.95 0l.515.858.007-.005-.522-.853zm-2.8 3.05l.881.474.005-.01-.886-.464zm0 9.25l-.885.465.005.01.88-.475zm2.8 3.05l-.532.847.014.008.014.009.504-.864zm4 9.6c-3.624 0-6.845-.752-9.687-2.236l-.926 1.772c3.159 1.65 6.704 2.464 10.613 2.464v-2zm-9.687-2.236c-2.847-1.487-5.059-3.531-6.661-6.137l-1.704 1.046c1.799 2.928 4.286 5.217 7.439 6.863l.926-1.772zm-6.658-6.133c-1.598-2.633-2.405-5.601-2.405-8.931h-2c0 3.67.894 7.002 2.696 9.969l1.709-1.038zm-2.405-8.931c0-3.33.807-6.28 2.402-8.876l-1.704-1.047c-1.804 2.936-2.698 6.253-2.698 9.923h2zm2.405-8.881c1.602-2.639 3.814-4.697 6.658-6.183l-.926-1.772c-3.156 1.648-5.644 3.956-7.441 6.917l1.709 1.038zm6.658-6.183c2.842-1.484 6.063-2.236 9.687-2.236v-2c-3.909 0-7.454.814-10.613 2.464l.926 1.772zm9.687-2.236c3.624 0 6.846.752 9.687 2.236l.926-1.772c-3.158-1.65-6.703-2.464-10.613-2.464v2zm9.687 2.236c2.844 1.486 5.056 3.544 6.659 6.183l1.709-1.038c-1.798-2.961-4.286-5.27-7.442-6.917l-.926 1.772zm6.661 6.188c1.596 2.597 2.402 5.546 2.402 8.876h2c0-3.67-.893-6.987-2.698-9.924l-1.704 1.048zm2.402 8.876c0 3.33-.806 6.298-2.404 8.931l1.709 1.038c1.802-2.967 2.695-6.299 2.695-9.969h-2zm-2.402 8.927c-1.601 2.606-3.814 4.65-6.661 6.137l.926 1.772c3.153-1.646 5.641-3.935 7.439-6.862l-1.704-1.047zm-6.661 6.137c-2.841 1.484-6.063 2.236-9.687 2.236v2c3.91 0 7.455-.814 10.613-2.464l-.926-1.772zm-9.687-5.314c1.634 0 3.131-.392 4.465-1.192l-1.029-1.716c-.999.6-2.136.908-3.436.908v2zm4.472-1.197c1.359-.83 2.429-1.981 3.209-3.429l-1.761-.948c-.621 1.152-1.45 2.034-2.491 2.67l1.043 1.707zm3.214-3.438c.787-1.5 1.164-3.215 1.164-5.115h-2c0 1.633-.322 3.018-.935 4.185l1.771.93zm1.164-5.115c0-1.9-.377-3.602-1.169-5.074l-1.761.948c.607 1.128.93 2.492.93 4.126h2zm-1.164-5.065c-.78-1.485-1.856-2.646-3.232-3.449l-1.008 1.728c1.025.597 1.849 1.47 2.469 2.65l1.771-.929zm-3.203-3.432c-1.337-.84-2.84-1.253-4.483-1.253v2c1.291 0 2.421.32 3.418.947l1.065-1.694zm-4.483-1.253c-1.642 0-3.157.413-4.521 1.247l1.043 1.706c1.036-.633 2.187-.953 3.478-.953v-2zm-4.514 1.243c-1.341.804-2.395 1.964-3.171 3.442l1.771.93c.624-1.189 1.436-2.062 2.429-2.657l-1.029-1.715zm-3.166 3.433c-.793 1.472-1.17 3.174-1.17 5.074h2c0-1.634.323-2.998.931-4.126l-1.761-.948zm-1.17 5.074c0 1.9.378 3.615 1.165 5.115l1.771-.93c-.613-1.167-.936-2.552-.936-4.185h-2zm1.17 5.124c.776 1.441 1.825 2.59 3.148 3.423l1.065-1.694c-1.01-.634-1.828-1.518-2.452-2.677l-1.761.948zm3.176 3.44c1.362.794 2.871 1.186 4.504 1.186v-2c-1.3 0-2.457-.308-3.496-.914l-1.008 1.728zm46.037.136l.829-.56-.298-.44h-.531v1zm-3.2 0v-1h-1v1h1zm0 8.8v1h1v-1h-1zm-11.8 0h-1v1h1v-1zm0-35v-1h-1v1h1zm25.3 1.6l-.406.914.406-.914zm5.55 4.6l-.838.545.838-.545zm.25 13.55l-.855-.519.855.519zm-4.9 4.45l-.458-.889-1.004.518.635.934.827-.563zm7.35 10.8v1h1.89l-1.063-1.563-.827.563zm-12.6 0l-.828.56.297.44h.531v-1zm-1.25-24.8l-.676.737.009.008.009.008.658-.753zm-7.9-1.1v-1h-1v1h1zm0 8.2h-1v1h1v-1zm7.9-1.05l.659.753.008-.008.009-.008-.676-.737zm-4.7 8.95h-3.2v2h3.2v-2zm-4.2 1v8.8h2v-8.8h-2zm1 7.8h-11.8v2h11.8v-2zm-10.8 1V69h-2v35h2zm-1-34h16.85v-2h-16.85v2zm16.85 0c3.125 0 5.798.516 8.044 1.514l.812-1.828c-2.554-1.135-5.514-1.686-8.856-1.686v2zm8.044 1.514c2.242.996 3.934 2.41 5.118 4.231l1.677-1.09c-1.416-2.178-3.424-3.832-5.983-4.969l-.812 1.828zm5.118 4.231c1.182 1.82 1.788 3.958 1.788 6.455h2c0-2.837-.694-5.364-2.111-7.545l-1.677 1.09zm1.788 6.455c0 2.344-.529 4.342-1.555 6.031l1.71 1.038c1.241-2.045 1.845-4.413 1.845-7.069h-2zm-1.555 6.031c-1.028 1.694-2.517 3.056-4.503 4.08l.916 1.778c2.281-1.176 4.059-2.78 5.297-4.82l-1.71-1.038zm-4.872 5.532l7.35 10.8 1.654-1.126-7.35-10.8-1.654 1.126zm8.177 9.237h-12.6v2h12.6v-2zm-11.771.44l-5.95-8.8-1.657 1.12 5.95 8.8 1.657-1.12zm.121-21.24c0-1.519-.477-2.821-1.541-3.753l-1.317 1.506c.535.468.858 1.165.858 2.247h2zm-1.524-3.737c-1.055-.967-2.542-1.363-4.276-1.363v2c1.467 0 2.38.338 2.924.837l1.352-1.474zm-4.276-1.363h-4.3v2h4.3v-2zm-5.3 1v8.2h2v-8.2h-2zm1 9.2h4.3v-2h-4.3v2zm4.3 0c1.724 0 3.204-.374 4.259-1.297l-1.317-1.506c-.545.477-1.466.803-2.942.803v2zm4.276-1.313c1.047-.96 1.524-2.267 1.524-3.787h-2c0 1.08-.323 1.806-.876 2.313l1.352 1.474zm48.52-24.087v-1h-.709l-.235.67.944.33zm10 0l.944.33.466-1.33h-1.41v1zm-16.5 47.1v1h.71l.234-.669-.944-.331zm-10 0l-.944-.331-.466 1.331h1.41v-1zm16.5-46.1h10v-2h-10v2zm9.056-1.33l-16.5 47.099 1.888.662 16.5-47.1-1.888-.662zM476.031 108h-10v2h10v-2zm-9.056 1.331l16.5-47.1-1.888-.662-16.5 47.1 1.888.662zM544.143 104l-1 .006.006.994h.994v-1zm-.1-15.95l1-.006-.023-3.599-1.837 3.095.86.51zm-7.6 12.8v1h.569l.291-.489-.86-.511zm-5.2 0l-.85.527.294.473h.556v-1zm-7.6-12.25l.85-.527-1.85-2.982V88.6h1zm0 15.4v1h1v-1h-1zm-10.75 0h-1v1h1v-1zm0-35v-1h-1v1h1zm9.7 0l.853-.522-.292-.478h-.561v1zm11.4 18.65l-.853.521.864 1.415.848-1.425-.859-.511zm11.1-18.65v-1h-.569l-.29.489.859.511zm9.7 0l1-.003-.003-.997h-.997v1zm.1 35v1h1.003l-.003-1.003-1 .003zm-9.75-.006l-.1-15.95-2 .012.1 15.95 2-.012zm-1.96-16.454l-7.6 12.799 1.72 1.022 7.6-12.8-1.72-1.022zm-6.74 12.31h-5.2v2h5.2v-2zm-4.35.473l-7.6-12.25-1.7 1.054 7.6 12.25 1.7-1.054zm-9.45-11.723V104h2V88.6h-2zm1 14.4h-10.75v2h10.75v-2zm-9.75 1V69h-2v35h2zm-1-34h9.7v-2h-9.7v2zm8.847-.478l11.4 18.65 1.706-1.044-11.4-18.65-1.706 1.044zm13.112 18.64l11.1-18.65-1.718-1.023-11.1 18.65 1.718 1.022zM545.093 70h9.7v-2h-9.7v2zm8.7-.997l.1 35 2-.006-.1-35-2 .006zm1.1 33.997h-10.75v2h10.75v-2zm37.305-7.9h1v-1h-1v1zm0 8.9v1h1v-1h-1zm-29.1 0h-1v1h1v-1zm0-35v-1h-1v1h1zm28.45 0h1v-1h-1v1zm0 8.9v1h1v-1h-1zm-16.85 0v-1h-1v1h1zm0 4.1h-1v1h1v-1zm14.8 0h1v-1h-1v1zm0 8.5v1h1v-1h-1zm-14.8 0v-1h-1v1h1zm0 4.6h-1v1h1v-1zm16.5 0v8.9h2v-8.9h-2zm1 7.9h-29.1v2h29.1v-2zm-28.1 1V69h-2v35h2zm-1-34h28.45v-2h-28.45v2zm27.45-1v8.9h2V69h-2zm1 7.9h-16.85v2h16.85v-2zm-17.85 1V82h2v-4.1h-2zm1 5.1h14.8v-2h-14.8v2zm13.8-1v8.5h2V82h-2zm1 7.5h-14.8v2h14.8v-2zm-15.8 1v4.6h2v-4.6h-2zm1 5.6h17.5v-2h-17.5v2zM633.741 69h1v-1h-1v1zm0 35v1h1v-1h-1zm-9.7 0l-.767.642.299.358h.468v-1zm-13.3-15.9l.767-.642-1.767-2.112V88.1h1zm0 15.9v1h1v-1h-1zm-11.5 0h-1v1h1v-1zm0-35v-1h-1v1h1zm9.7 0l.767-.642-.3-.358h-.467v1zm13.3 15.9l-.767.642 1.767 2.112V84.9h-1zm0-15.9v-1h-1v1h1zm10.5 0v35h2V69h-2zm1 34h-9.7v2h9.7v-2zm-8.933.358l-13.3-15.9-1.534 1.284 13.3 15.9 1.534-1.284zM609.741 88.1V104h2V88.1h-2zm1 14.9h-11.5v2h11.5v-2zm-10.5 1V69h-2v35h2zm-1-34h9.7v-2h-9.7v2zm8.933-.358l13.3 15.9 1.534-1.284-13.3-15.9-1.534 1.284zM623.241 84.9V69h-2v15.9h2zm-1-14.9h11.5v-2h-11.5v2zm27.285 8.15h1v-1h-1v1zm-10.25 0h-1v1h1v-1zm0-9.15v-1h-1v1h1zm32.3 0h1v-1h-1v1zm0 9.15v1h1v-1h-1zm-10.25 0v-1h-1v1h1zm0 25.85v1h1v-1h-1zm-11.8 0h-1v1h1v-1zm0-26.85h-10.25v2h10.25v-2zm-9.25 1V69h-2v9.15h2zm-1-8.15h32.3v-2h-32.3v2zm31.3-1v9.15h2V69h-2zm1 8.15h-10.25v2h10.25v-2zm-11.25 1V104h2V78.15h-2zm1 24.85h-11.8v2h11.8v-2zm-10.8 1V78.15h-2V104h2zm34.327-1.55l.463-.886-.463.886zm-7.05-6.5l-.855.519.003.005.852-.524zm0-18.85l.852.524.003-.005-.855-.519zm27.35-6.55l.463-.886-.463.886zm7.05 6.55l-.855.519.003.005.852-.524zm0 18.85l.852.523.002-.004-.854-.519zm-7.05 6.5l.463.886-.463-.886zm-6.2-8.25l.514.858.007-.005-.521-.853zm2.85-3.05l.88.474.005-.01-.885-.464zm0-9.25l-.886.465.005.01.881-.475zm-2.85-3.05l-.532.847.014.008.014.009.504-.864zm-7.95 0l.514.858.007-.005-.521-.853zm-2.8 3.05l.88.474.005-.01-.885-.464zm0 9.25l-.886.465.005.01.881-.475zm2.8 3.05l-.532.847.014.008.014.009.504-.864zm4 9.6c-3.624 0-6.846-.752-9.687-2.236l-.926 1.772c3.158 1.65 6.703 2.464 10.613 2.464v-2zm-9.687-2.236c-2.847-1.487-5.06-3.531-6.661-6.137l-1.704 1.046c1.798 2.928 4.286 5.217 7.439 6.863l.926-1.772zm-6.658-6.133c-1.599-2.633-2.405-5.601-2.405-8.931h-2c0 3.67.893 7.002 2.695 9.969l1.71-1.038zm-2.405-8.931c0-3.33.806-6.28 2.402-8.876l-1.704-1.047c-1.805 2.936-2.698 6.253-2.698 9.923h2zm2.405-8.881c1.602-2.639 3.814-4.697 6.658-6.183l-.926-1.772c-3.156 1.648-5.644 3.956-7.442 6.917l1.71 1.038zm6.658-6.183c2.841-1.484 6.063-2.236 9.687-2.236v-2c-3.91 0-7.455.814-10.613 2.464l.926 1.772zm9.687-2.236c3.624 0 6.845.752 9.687 2.236l.926-1.772c-3.159-1.65-6.704-2.464-10.613-2.464v2zm9.687 2.236c2.844 1.486 5.056 3.544 6.658 6.183l1.709-1.038c-1.797-2.961-4.285-5.27-7.441-6.917l-.926 1.772zm6.661 6.188c1.595 2.597 2.402 5.546 2.402 8.876h2c0-3.67-.894-6.987-2.698-9.924l-1.704 1.048zm2.402 8.876c0 3.33-.807 6.298-2.405 8.931l1.709 1.038c1.802-2.967 2.696-6.299 2.696-9.969h-2zm-2.402 8.927c-1.602 2.606-3.814 4.65-6.661 6.137l.926 1.772c3.153-1.646 5.64-3.935 7.439-6.862l-1.704-1.047zm-6.661 6.137c-2.842 1.484-6.063 2.236-9.687 2.236v2c3.909 0 7.454-.814 10.613-2.464l-.926-1.772zm-9.687-5.314c1.633 0 3.13-.392 4.464-1.192l-1.029-1.716c-.999.6-2.135.908-3.435.908v2zm4.471-1.197c1.359-.83 2.43-1.981 3.209-3.429l-1.761-.948c-.62 1.152-1.45 2.034-2.491 2.67l1.043 1.707zm3.214-3.438c.787-1.5 1.165-3.215 1.165-5.115h-2c0 1.633-.323 3.018-.936 4.185l1.771.93zm1.165-5.115c0-1.9-.377-3.602-1.17-5.074l-1.761.948c.608 1.128.931 2.492.931 4.126h2zm-1.165-5.065c-.779-1.485-1.856-2.646-3.231-3.449l-1.008 1.728c1.024.597 1.848 1.47 2.468 2.65l1.771-.929zm-3.203-3.432c-1.337-.84-2.84-1.253-4.482-1.253v2c1.291 0 2.421.32 3.418.947l1.064-1.694zm-4.482-1.253c-1.643 0-3.158.413-4.522 1.247l1.043 1.706c1.036-.633 2.188-.953 3.479-.953v-2zm-4.515 1.243c-1.34.804-2.395 1.964-3.171 3.442l1.771.93c.624-1.189 1.436-2.062 2.429-2.657l-1.029-1.715zm-3.166 3.433c-.792 1.472-1.169 3.174-1.169 5.074h2c0-1.634.323-2.998.93-4.126l-1.761-.948zm-1.169 5.074c0 1.9.377 3.615 1.164 5.115l1.771-.93c-.613-1.167-.935-2.552-.935-4.185h-2zm1.169 5.124c.776 1.441 1.825 2.59 3.149 3.423l1.064-1.694c-1.01-.634-1.828-1.518-2.452-2.677l-1.761.948zm3.177 3.44c1.361.794 2.87 1.186 4.504 1.186v-2c-1.3 0-2.458-.308-3.496-.914l-1.008 1.728zm46.037.136l.828-.56-.297-.44h-.531v1zm-3.2 0v-1h-1v1h1zm0 8.8v1h1v-1h-1zm-11.8 0h-1v1h1v-1zm0-35v-1h-1v1h1zm25.3 1.6l-.407.914.407-.914zm5.55 4.6l-.839.545.839-.545zm.25 13.55l-.855-.519.855.519zm-4.9 4.45l-.459-.889-1.004.518.636.934.827-.563zm7.35 10.8v1h1.89l-1.064-1.563-.826.563zm-12.6 0l-.829.56.298.44h.531v-1zm-1.25-24.8l-.676.737.008.008.009.008.659-.753zm-7.9-1.1v-1h-1v1h1zm0 8.2h-1v1h1v-1zm7.9-1.05l.658.753.009-.008.008-.008-.675-.737zm-4.7 8.95h-3.2v2h3.2v-2zm-4.2 1v8.8h2v-8.8h-2zm1 7.8h-11.8v2h11.8v-2zm-10.8 1V69h-2v35h2zm-1-34h16.85v-2h-16.85v2zm16.85 0c3.124 0 5.797.516 8.043 1.514l.813-1.828c-2.554-1.135-5.515-1.686-8.856-1.686v2zm8.043 1.514c2.242.996 3.934 2.41 5.118 4.231l1.677-1.09c-1.416-2.178-3.424-3.832-5.982-4.969l-.813 1.828zm5.118 4.231c1.182 1.82 1.789 3.958 1.789 6.455h2c0-2.837-.694-5.364-2.112-7.545l-1.677 1.09zm1.789 6.455c0 2.344-.53 4.342-1.555 6.031l1.709 1.038c1.242-2.045 1.846-4.413 1.846-7.069h-2zm-1.555 6.031c-1.029 1.694-2.517 3.056-4.504 4.08l.917 1.778c2.28-1.176 4.058-2.78 5.296-4.82l-1.709-1.038zm-4.872 5.532l7.35 10.8 1.653-1.126-7.35-10.8-1.653 1.126zm8.177 9.237h-12.6v2h12.6v-2zm-11.772.44l-5.95-8.8-1.657 1.12 5.95 8.8 1.657-1.12zm.122-21.24c0-1.519-.477-2.821-1.542-3.753l-1.317 1.506c.535.468.859 1.165.859 2.247h2zm-1.525-3.737c-1.055-.967-2.542-1.363-4.275-1.363v2c1.466 0 2.379.338 2.924.837l1.351-1.474zm-4.275-1.363h-4.3v2h4.3v-2zm-5.3 1v8.2h2v-8.2h-2zm1 9.2h4.3v-2h-4.3v2zm4.3 0c1.723 0 3.203-.374 4.258-1.297l-1.317-1.506c-.545.477-1.465.803-2.941.803v2zm4.275-1.313c1.047-.96 1.525-2.267 1.525-3.787h-2c0 1.08-.323 1.806-.876 2.313l1.351 1.474zM790.432 61.9v-1h-.71l-.234.67.944.33zm10 0l.943.33.467-1.33h-1.41v1zm-16.5 47.1v1h.709l.234-.669-.943-.331zm-10 0l-.944-.331-.466 1.331h1.41v-1zm16.5-46.1h10v-2h-10v2zm9.056-1.33l-16.5 47.099 1.887.662 16.5-47.1-1.887-.662zM783.932 108h-10v2h10v-2zm-9.057 1.331l16.5-47.1-1.887-.662-16.5 47.1 1.887.662zM832.593 77.9v-1h-1v1h1zm0 6h-1v1h1v-1zm14.6 0h1v-1h-1v1zm0 8.9v1h1v-1h-1zm-14.6 0v-1h-1v1h1zm0 11.2v1h1v-1h-1zm-11.8 0h-1v1h1v-1zm0-35v-1h-1v1h1zm28.45 0h1v-1h-1v1zm0 8.9v1h1v-1h-1zm-17.65 0v6h2v-6h-2zm1 7h14.6v-2h-14.6v2zm13.6-1v8.9h2v-8.9h-2zm1 7.9h-14.6v2h14.6v-2zm-15.6 1V104h2V92.8h-2zm1 10.2h-11.8v2h11.8v-2zm-10.8 1V69h-2v35h2zm-1-34h28.45v-2h-28.45v2zm27.45-1v8.9h2V69h-2zm1 7.9h-16.65v2h16.65v-2zm28.809 21l.933-.36-.247-.64h-.686v1zm-13.3 0v-1h-.687l-.247.64.934.36zm-2.35 6.1v1h.686l.247-.641-.933-.359zm-12 0l-.917-.401-.612 1.401h1.529v-1zm15.3-35v-1h-.655l-.262.6.917.4zm11.6 0l.916-.4-.262-.6h-.654v1zm15.3 35v1h1.528l-.612-1.401-.916.401zm-12.2 0l-.934.359.247.641h.687v-1zm-5.6-14.6v1h1.458l-.526-1.36-.932.36zm-3.4-8.8l.932-.36-.932-2.415-.933 2.415.933.36zm-3.4 8.8l-.933-.36-.526 1.36h1.459v-1zm10.05 7.5h-13.3v2h13.3v-2zm-14.234.64l-2.35 6.101 1.867.718 2.35-6.1-1.867-.719zm-1.416 5.46h-12v2h12v-2zm-11.084 1.401l15.3-35-1.833-.801-15.3 34.999 1.833.802zM865.702 70h11.6v-2h-11.6v2zm10.683-.6l15.3 35.001 1.833-.802-15.3-35-1.833.801zm16.217 33.6h-12.2v2h12.2v-2zm-11.267.641l-2.35-6.1-1.867.719 2.35 6.099 1.867-.718zm-5.601-14.601l-3.4-8.8-1.865.72 3.4 8.8 1.865-.72zm-5.265-8.8l-3.4 8.8 1.865.72 3.4-8.8-1.865-.72zm-2.467 10.16h6.8v-2h-6.8v2zM931.485 69h1v-1h-1v1zm0 35v1h1v-1h-1zm-9.7 0l-.767.642.3.358h.467v-1zm-13.3-15.9l.767-.642-1.767-2.112V88.1h1zm0 15.9v1h1v-1h-1zm-11.5 0h-1v1h1v-1zm0-35v-1h-1v1h1zm9.7 0l.767-.642-.3-.358h-.467v1zm13.3 15.9l-.767.642 1.767 2.112V84.9h-1zm0-15.9v-1h-1v1h1zm10.5 0v35h2V69h-2zm1 34h-9.7v2h9.7v-2zm-8.933.358l-13.3-15.9-1.534 1.284 13.3 15.9 1.534-1.284zM907.485 88.1V104h2V88.1h-2zm1 14.9h-11.5v2h11.5v-2zm-10.5 1V69h-2v35h2zm-1-34h9.7v-2h-9.7v2zm8.933-.358l13.3 15.9 1.534-1.284-13.3-15.9-1.534 1.284zM920.985 84.9V69h-2v15.9h2zm-1-14.9h11.5v-2h-11.5v2zm48.826-8.1v-1h-.71l-.234.67.944.33zm10 0l.943.33.466-1.33h-1.409v1zm-16.5 47.1v1h.709l.234-.669-.943-.331zm-10 0l-.944-.331-.466 1.331h1.41v-1zm16.5-46.1h10v-2h-10v2zm9.056-1.33l-16.5 47.099 1.887.662 16.5-47.1-1.887-.662zM962.311 108h-10v2h10v-2zm-9.057 1.331l16.5-47.1-1.887-.662-16.5 47.1 1.887.662zm50.466-5.481l-.23.972v.001l.01.002.22-.975zm-6.748-2.65l-.914-.404-.351.794.737.459.528-.849zm3.798-8.6l.5-.865-.96-.56-.452 1.02.912.405zm5.6 2.35l-.28.96.01.002.01.002.26-.964zm9.45.4l.4.92.01-.009.02-.008-.43-.903zm-.35-3.1l-.38.926.02.005.36-.931zm-4.5-1.2l-.2.979.2-.979zm-6.75-1.8l-.35.938.01.003.01.002.33-.943zm-4.698-3.2l-.747.664.007.009.74-.673zm-.15-12.05l.828.565-.828-.565zm5.498-4.25l-.38-.922-.01.002.39.92zm16-.75l-.22.974v.002l.01.002.21-.978zm6.15 2.25l.93.383.34-.817-.78-.436-.49.87zm-3.55 8.55l-.45.893.96.485.42-.995-.93-.383zm-12.95 1.2l-.38.926.02.006.01.006.35-.938zm4.45 1.1l-.19.982h.01l.18-.982zm6.75 1.75l-.34.94.01.002.01.003.32-.945zm4.75 3.15l-.74.673.01.009.73-.682zm.2 12l.82.572.01-.007-.83-.565zm-5.55 4.25l.39.92.01-.002-.4-.918zm-8.9.55c-2.82 0-5.58-.309-8.27-.925l-.45 1.95c2.84.65 5.75.975 8.72.975v-2zm-8.26-.922c-2.66-.649-4.808-1.499-6.459-2.527l-1.057 1.698c1.882 1.172 4.236 2.089 7.046 2.773l.47-1.944zm-6.073-1.274l3.803-8.6-1.832-.808-3.8 8.6 1.829.808zm2.383-8.139c1.75 1.012 3.69 1.825 5.82 2.445l.56-1.92c-2-.58-3.79-1.334-5.38-2.255l-1 1.73zm5.84 2.45c2.14.587 4.21.885 6.21.885v-2c-1.8 0-3.69-.268-5.68-.814l-.53 1.928zm6.21.885c1.65 0 3-.145 3.9-.53l-.79-1.84c-.5.215-1.49.37-3.11.37v2zm3.93-.547c.46-.218.87-.517 1.17-.929.31-.423.45-.91.45-1.424h-2c0 .12-.03.19-.07.251-.05.072-.16.18-.41.296l.86 1.806zm1.62-2.353c0-.6-.2-1.15-.59-1.61-.37-.44-.88-.75-1.44-.97l-.73 1.86c.37.146.56.295.65.404.08.091.11.182.11.316h2zm-2.02-2.576c-.99-.404-2.57-.819-4.68-1.253l-.4 1.958c2.09.433 3.52.818 4.32 1.147l.76-1.852zm-4.67-1.253c-2.68-.56-4.88-1.15-6.63-1.764l-.66 1.886c1.86.653 4.15 1.264 6.88 1.836l.41-1.958zm-6.61-1.759c-1.65-.609-3.08-1.582-4.31-2.935l-1.478 1.346c1.438 1.58 3.138 2.74 5.088 3.465l.7-1.876zm-4.3-2.926c-1.132-1.273-1.748-3.031-1.748-5.386h-2c0 2.712.718 4.987 2.253 6.714l1.495-1.328zM998.522 80c0-2 .557-3.803 1.678-5.435l-1.653-1.13c-1.348 1.968-2.025 4.165-2.025 6.565h2zm1.678-5.435c1.1-1.612 2.77-2.92 5.06-3.895l-.78-1.84c-2.57 1.092-4.571 2.617-5.933 4.605l1.653 1.13zm5.06-3.893c2.31-.969 5.16-1.472 8.56-1.472v-2c-3.59 0-6.71.53-9.33 1.628l.77 1.844zm8.56-1.472c2.33 0 4.6.258 6.83.774l.45-1.948c-2.38-.55-4.8-.826-7.28-.826v2zm6.84.778c2.25.482 4.21 1.2 5.87 2.142l.98-1.74c-1.86-1.058-4.01-1.84-6.43-2.358l-.42 1.956zm5.44.889l-3.55 8.55 1.85.766 3.55-8.55-1.85-.766zm-2.18 8.04c-3.54-1.786-6.94-2.707-10.2-2.707v2c2.88 0 5.97.812 9.3 2.493l.9-1.786zm-10.2-2.707c-1.56 0-2.88.184-3.85.65-.49.24-.93.57-1.24 1.02-.31.458-.46.981-.46 1.53h2c0-.185.05-.303.11-.395.07-.1.2-.227.47-.355.55-.267 1.5-.45 2.97-.45v-2zm-5.55 3.2c0 .585.2 1.122.58 1.57.36.43.85.734 1.39.956l.76-1.852c-.36-.145-.54-.29-.63-.394a.403.403 0 01-.1-.28h-2zm2 2.538c.99.364 2.54.743 4.61 1.144l.38-1.964c-2.06-.399-3.47-.753-4.29-1.056l-.7 1.876zm4.62 1.145c2.63.493 4.82 1.064 6.59 1.707l.68-1.88c-1.9-.69-4.2-1.286-6.9-1.793l-.37 1.966zm6.61 1.712c1.67.578 3.11 1.532 4.33 2.878l1.48-1.346a12.335 12.335 0 00-5.16-3.422l-.65 1.89zm4.34 2.887c1.15 1.236 1.78 2.968 1.78 5.318h2c0-2.717-.73-4.985-2.32-6.682l-1.46 1.364zm1.78 5.318c0 2-.55 3.803-1.67 5.435l1.65 1.13c1.35-1.968 2.02-4.165 2.02-6.565h-2zm-1.67 5.428c-1.1 1.581-2.79 2.893-5.12 3.904l.79 1.836c2.59-1.122 4.61-2.643 5.97-4.596l-1.64-1.144zm-5.12 3.902c-2.28.966-5.1 1.47-8.51 1.47v2c3.6 0 6.7-.53 9.29-1.63l-.78-1.84zm18-1.88l-.69.719.69-.719zm-4.5-31.45v-1h-1v1h1zm11.8 0h1v-1h-1v1zm1.35 24.5l-.79.61.01.008v.007l.78-.625zm7.95 0l-.78-.625v.007l-.01.007.79.611zm1.4-24.5v-1h-1v1h1zm11.6 0h1v-1h-1v1zm-4.5 31.45l-.69-.719.69.719zm-12.55 3.35c-5.18 0-9.09-1.397-11.85-4.069l-1.39 1.438c3.23 3.128 7.69 4.631 13.24 4.631v-2zm-11.85-4.069c-2.76-2.666-4.2-6.446-4.2-11.481h-2c0 5.431 1.57 9.785 4.81 12.919l1.39-1.438zm-4.2-11.481V69h-2v19.25h2zm-1-18.25h11.8v-2h-11.8v2zm10.8-1v18.9h2V69h-2zm0 18.9c0 2.64.46 4.78 1.56 6.21l1.59-1.22c-.7-.904-1.15-2.498-1.15-4.99h-2zm1.57 6.225c1.16 1.443 2.8 2.125 4.78 2.125v-2c-1.48 0-2.5-.485-3.22-1.375l-1.56 1.25zm4.78 2.125c1.99 0 3.62-.682 4.75-2.14l-1.59-1.22c-.67.876-1.67 1.36-3.16 1.36v2zm4.73-2.125c1.15-1.433 1.62-3.579 1.62-6.225h-2c0 2.487-.46 4.074-1.18 4.975l1.56 1.25zm1.62-6.225V69h-2v18.9h2zm-1-17.9h11.6v-2h-11.6v2zm10.6-1v19.25h2V69h-2zm0 19.25c0 5.035-1.43 8.815-4.19 11.481l1.39 1.438c3.24-3.134 4.8-7.488 4.8-12.919h-2zm-4.19 11.481c-2.77 2.672-6.67 4.069-11.86 4.069v2c5.55 0 10.01-1.503 13.25-4.631l-1.39-1.438zm38.4-29.131l-.4.914.4-.914zm5.55 4.6l-.84.545.84-.545zm0 14l-.84-.545.84.545zm-5.55 4.6l-.4-.914.4.914zm-13.5 1.6v-1h-1v1h1zm0 8.6v1h1v-1h-1zm-11.8 0h-1v1h1v-1zm0-35v-1h-1v1h1zm19.7 16.25l.66.753.01-.008.01-.008-.68-.737zm0-6.05l-.67.737.01.008v.008l.66-.753zm-7.9-1.1v-1h-1v1h1zm0 8.2h-1v1h1v-1zm5.05-16.3c3.13 0 5.8.516 8.05 1.514l.81-1.828c-2.56-1.135-5.52-1.686-8.86-1.686v2zm8.05 1.514c2.24.996 3.93 2.41 5.11 4.231l1.68-1.09c-1.41-2.178-3.42-3.832-5.98-4.969l-.81 1.828zm5.11 4.231c1.19 1.82 1.79 3.958 1.79 6.455h2c0-2.837-.69-5.364-2.11-7.545l-1.68 1.09zm1.79 6.455c0 2.497-.6 4.636-1.79 6.455l1.68 1.09c1.42-2.18 2.11-4.709 2.11-7.545h-2zm-1.79 6.455c-1.18 1.822-2.87 3.235-5.11 4.231l.81 1.828c2.56-1.137 4.57-2.79 5.98-4.969l-1.68-1.09zm-5.11 4.231c-2.25.999-4.92 1.514-8.05 1.514v2c3.34 0 6.3-.551 8.86-1.686l-.81-1.828zm-8.05 1.514h-5.05v2h5.05v-2zm-6.05 1v8.6h2v-8.6h-2zm1 7.6h-11.8v2h11.8v-2zm-10.8 1V69h-2v35h2zm-1-34h16.85v-2h-16.85v2zm16.1 17.3c1.73 0 3.21-.374 4.26-1.297l-1.32-1.506c-.54.477-1.46.803-2.94.803v2zm4.28-1.313c1.05-.96 1.52-2.267 1.52-3.787h-2c0 1.08-.32 1.806-.87 2.313l1.35 1.474zm1.52-3.787c0-1.519-.47-2.821-1.54-3.753l-1.32 1.506c.54.468.86 1.165.86 2.247h2zm-1.52-3.737c-1.06-.967-2.54-1.363-4.28-1.363v2c1.47 0 2.38.338 2.93.837l1.35-1.474zm-4.28-1.363h-4.3v2h4.3v-2zm-5.3 1v8.2h2v-8.2h-2zm1 9.2h4.3v-2h-4.3v2zm52.67-16.7l-.4.914.4-.914zm5.55 4.6l-.84.545.84-.545zm0 14l-.84-.545.84.545zm-5.55 4.6l-.4-.914.4.914zm-13.5 1.6v-1h-1v1h1zm0 8.6v1h1v-1h-1zm-11.8 0h-1v1h1v-1zm0-35v-1h-1v1h1zm19.7 16.25l.66.753.01-.008.01-.008-.68-.737zm0-6.05l-.67.737.01.008v.008l.66-.753zm-7.9-1.1v-1h-1v1h1zm0 8.2h-1v1h1v-1zm5.05-16.3c3.13 0 5.8.516 8.05 1.514l.81-1.828c-2.56-1.135-5.52-1.686-8.86-1.686v2zm8.05 1.514c2.24.996 3.93 2.41 5.11 4.231l1.68-1.09c-1.41-2.178-3.42-3.832-5.98-4.969l-.81 1.828zm5.11 4.231c1.19 1.82 1.79 3.958 1.79 6.455h2c0-2.837-.69-5.364-2.11-7.545l-1.68 1.09zm1.79 6.455c0 2.497-.6 4.636-1.79 6.455l1.68 1.09c1.42-2.18 2.11-4.709 2.11-7.545h-2zm-1.79 6.455c-1.18 1.822-2.87 3.235-5.11 4.231l.81 1.828c2.56-1.137 4.57-2.79 5.98-4.969l-1.68-1.09zm-5.11 4.231c-2.25.999-4.92 1.514-8.05 1.514v2c3.34 0 6.3-.551 8.86-1.686l-.81-1.828zm-8.05 1.514h-5.05v2h5.05v-2zm-6.05 1v8.6h2v-8.6h-2zm1 7.6h-11.8v2h11.8v-2zm-10.8 1V69h-2v35h2zm-1-34h16.85v-2h-16.85v2zm16.1 17.3c1.73 0 3.21-.374 4.26-1.297l-1.32-1.506c-.54.477-1.46.803-2.94.803v2zm4.28-1.313c1.05-.96 1.52-2.267 1.52-3.787h-2c0 1.08-.32 1.806-.87 2.313l1.35 1.474zm1.52-3.787c0-1.519-.47-2.821-1.54-3.753l-1.32 1.506c.54.468.86 1.165.86 2.247h2zm-1.52-3.737c-1.06-.967-2.54-1.363-4.28-1.363v2c1.47 0 2.38.338 2.93.837l1.35-1.474zm-4.28-1.363h-4.3v2h4.3v-2zm-5.3 1v8.2h2v-8.2h-2zm1 9.2h4.3v-2h-4.3v2zm36.06 15.15l.46-.886-.46.886zm-7.05-6.5l-.85.519v.005l.85-.524zm0-18.85l.85.524.01-.005-.86-.519zm27.35-6.55l.46-.886-.46.886zm7.05 6.55l-.85.519v.005l.85-.524zm0 18.85l.85.523.01-.004-.86-.519zm-7.05 6.5l.46.886-.46-.886zm-6.2-8.25l.52.858v-.005l-.52-.853zm2.85-3.05l.88.474.01-.01-.89-.464zm0-9.25l-.88.465v.01l.88-.475zm-2.85-3.05l-.53.847.01.008.02.009.5-.864zm-7.95 0l.52.858v-.005l-.52-.853zm-2.8 3.05l.88.474.01-.01-.89-.464zm0 9.25l-.88.465v.01l.88-.475zm2.8 3.05l-.53.847.01.008.02.009.5-.864zm4 9.6c-3.62 0-6.84-.752-9.69-2.236l-.92 1.772c3.16 1.65 6.7 2.464 10.61 2.464v-2zm-9.69-2.236c-2.84-1.487-5.06-3.531-6.66-6.137l-1.7 1.046c1.8 2.928 4.28 5.217 7.44 6.863l.92-1.772zm-6.65-6.133c-1.6-2.633-2.41-5.601-2.41-8.931h-2c0 3.67.89 7.002 2.7 9.969l1.71-1.038zm-2.41-8.931c0-3.33.81-6.28 2.4-8.876l-1.7-1.047c-1.81 2.936-2.7 6.253-2.7 9.923h2zm2.41-8.881c1.6-2.639 3.81-4.697 6.65-6.183l-.92-1.772c-3.16 1.648-5.65 3.956-7.44 6.917l1.71 1.038zm6.65-6.183c2.85-1.484 6.07-2.236 9.69-2.236v-2c-3.91 0-7.45.814-10.61 2.464l.92 1.772zm9.69-2.236c3.62 0 6.85.752 9.69 2.236l.92-1.772c-3.15-1.65-6.7-2.464-10.61-2.464v2zm9.69 2.236c2.84 1.486 5.05 3.544 6.66 6.183l1.71-1.038c-1.8-2.961-4.29-5.27-7.45-6.917l-.92 1.772zm6.66 6.188c1.59 2.597 2.4 5.546 2.4 8.876h2c0-3.67-.89-6.987-2.7-9.924l-1.7 1.048zm2.4 8.876c0 3.33-.81 6.298-2.4 8.931l1.71 1.038c1.8-2.967 2.69-6.299 2.69-9.969h-2zm-2.4 8.927c-1.6 2.606-3.82 4.65-6.66 6.137l.92 1.772c3.16-1.646 5.64-3.935 7.44-6.862l-1.7-1.047zm-6.66 6.137c-2.84 1.484-6.07 2.236-9.69 2.236v2c3.91 0 7.46-.814 10.61-2.464l-.92-1.772zm-9.69-5.314c1.63 0 3.13-.392 4.47-1.192l-1.03-1.716c-1 .6-2.14.908-3.44.908v2zm4.47-1.197c1.36-.83 2.43-1.981 3.21-3.429l-1.76-.948c-.62 1.152-1.45 2.034-2.49 2.67l1.04 1.707zm3.22-3.438c.78-1.5 1.16-3.215 1.16-5.115h-2c0 1.633-.32 3.018-.93 4.185l1.77.93zm1.16-5.115c0-1.9-.38-3.602-1.17-5.074l-1.76.948c.61 1.128.93 2.492.93 4.126h2zm-1.16-5.065c-.78-1.485-1.86-2.646-3.24-3.449l-1 1.728c1.02.597 1.84 1.47 2.47 2.65l1.77-.929zm-3.21-3.432c-1.33-.84-2.84-1.253-4.48-1.253v2c1.29 0 2.42.32 3.42.947l1.06-1.694zm-4.48-1.253c-1.64 0-3.16.413-4.52 1.247l1.04 1.706c1.04-.633 2.19-.953 3.48-.953v-2zm-4.51 1.243c-1.34.804-2.4 1.964-3.17 3.442l1.77.93c.62-1.189 1.43-2.062 2.43-2.657l-1.03-1.715zm-3.17 3.433c-.79 1.472-1.17 3.174-1.17 5.074h2c0-1.634.32-2.998.93-4.126l-1.76-.948zm-1.17 5.074c0 1.9.38 3.615 1.17 5.115l1.77-.93c-.62-1.167-.94-2.552-.94-4.185h-2zm1.17 5.124c.78 1.441 1.83 2.59 3.15 3.423l1.06-1.694c-1.01-.634-1.82-1.518-2.45-2.677l-1.76.948zm3.18 3.44c1.36.794 2.87 1.186 4.5 1.186v-2c-1.3 0-2.46-.308-3.5-.914l-1 1.728zm46.03.136l.83-.56-.3-.44h-.53v1zm-3.2 0v-1h-1v1h1zm0 8.8v1h1v-1h-1zm-11.8 0h-1v1h1v-1zm0-35v-1h-1v1h1zm25.3 1.6l-.4.914.4-.914zm5.55 4.6l-.83.545.83-.545zm.25 13.55l-.85-.519.85.519zm-4.9 4.45l-.45-.889-1.01.518.64.934.82-.563zm7.35 10.8v1h1.89l-1.06-1.563-.83.563zm-12.6 0l-.82.56.29.44h.53v-1zm-1.25-24.8l-.67.737.01.008v.008l.66-.753zm-7.9-1.1v-1h-1v1h1zm0 8.2h-1v1h1v-1zm7.9-1.05l.66.753.01-.008.01-.008-.68-.737zm-4.7 8.95h-3.2v2h3.2v-2zm-4.2 1v8.8h2v-8.8h-2zm1 7.8h-11.8v2h11.8v-2zm-10.8 1V69h-2v35h2zm-1-34h16.85v-2h-16.85v2zm16.85 0c3.13 0 5.8.516 8.05 1.514l.81-1.828c-2.55-1.135-5.51-1.686-8.86-1.686v2zm8.05 1.514c2.24.996 3.93 2.41 5.12 4.231l1.67-1.09c-1.41-2.178-3.42-3.832-5.98-4.969l-.81 1.828zm5.12 4.231c1.18 1.82 1.78 3.958 1.78 6.455h2c0-2.837-.69-5.364-2.11-7.545l-1.67 1.09zm1.78 6.455c0 2.344-.53 4.342-1.55 6.031l1.71 1.038c1.24-2.045 1.84-4.413 1.84-7.069h-2zm-1.55 6.031c-1.03 1.694-2.52 3.056-4.5 4.08l.91 1.778c2.28-1.176 4.06-2.78 5.3-4.82l-1.71-1.038zm-4.87 5.532l7.35 10.8 1.65-1.126-7.35-10.8-1.65 1.126zm8.17 9.237h-12.6v2h12.6v-2zm-11.77.44l-5.95-8.8-1.65 1.12 5.95 8.8 1.65-1.12zm.12-21.24c0-1.519-.47-2.821-1.54-3.753l-1.32 1.506c.54.468.86 1.165.86 2.247h2zm-1.52-3.737c-1.06-.967-2.54-1.363-4.28-1.363v2c1.47 0 2.38.338 2.93.837l1.35-1.474zm-4.28-1.363h-4.3v2h4.3v-2zm-5.3 1v8.2h2v-8.2h-2zm1 9.2h4.3v-2h-4.3v2zm4.3 0c1.73 0 3.21-.374 4.26-1.297l-1.32-1.506c-.54.477-1.46.803-2.94.803v2zm4.28-1.313c1.05-.96 1.52-2.267 1.52-3.787h-2c0 1.08-.32 1.806-.87 2.313l1.35 1.474zm26.49-7.837h1v-1h-1v1zm-10.25 0h-1v1h1v-1zm0-9.15v-1h-1v1h1zm32.3 0h1v-1h-1v1zm0 9.15v1h1v-1h-1zm-10.25 0v-1h-1v1h1zm0 25.85v1h1v-1h-1zm-11.8 0h-1v1h1v-1zm0-26.85h-10.25v2h10.25v-2zm-9.25 1V69h-2v9.15h2zm-1-8.15h32.3v-2h-32.3v2zm31.3-1v9.15h2V69h-2zm1 8.15h-10.25v2h10.25v-2zm-11.25 1V104h2V78.15h-2zm1 24.85h-11.8v2h11.8v-2zm-10.8 1V78.15h-2V104h2z" fill="url(#paint0_linear_172_388)"/><defs><linearGradient id="paint0_linear_172_388" x1="382" y1="-20" x2="1812" y2="-30" gradientUnits="userSpaceOnUse"><stop stop-color="#fff" stop-opacity=".57"/><stop offset="1" stop-color="#fff" stop-opacity=".28"/></linearGradient></defs></svg>